<?xml version="1.0" encoding="UTF-8"?>
<svg width="24px" height="24px" viewBox="0 0 24 24" version="1.1" xmlns="http://www.w3.org/2000/svg" xmlns:xlink="http://www.w3.org/1999/xlink">
    <title>icon/iOS/account</title>
    <g id="icon/iOS/account" stroke="none" stroke-width="1" fill="none" fill-rule="evenodd">
        <rect id="ViewBox" fill-rule="nonzero" x="0" y="0" width="24" height="24"></rect>
        <path d="M6.07005678,21 L17.9298831,21 C19.9831088,21 21,19.9831628 21,17.9690417 L21,6.03097629 C21,4.01685322 19.9831088,3 17.9298831,3 L6.07005678,3 C4.0266028,3 3,4.00706154 3,6.03097629 L3,17.9690417 C3,19.9929405 4.0266028,21 6.07005678,21 Z M12.0048658,15.2607284 C8.53393153,15.2607284 6.0309502,16.9326432 4.9847841,19.0543202 C4.71101801,18.7903336 4.57413497,18.4090187 4.57413497,17.8908224 L4.57413497,6.10918961 C4.57413497,5.09235641 5.11187548,4.57415815 6.08962008,4.57415815 L17.9103399,4.57415815 C18.8782728,4.57415815 19.425805,5.09235641 19.425805,6.10918961 L19.425805,17.8908224 C19.425805,18.399241 19.2889219,18.7903336 19.0249475,19.0445429 C17.9787814,16.9228715 15.5540132,15.2607284 12.0048658,15.2607284 Z M12.0048658,13.6279203 C13.8723101,13.6474836 15.338917,12.0537822 15.338917,9.96144578 C15.338917,7.99620102 13.8723101,6.37318458 12.0048658,6.37318458 C10.1374014,6.37318458 8.65125127,7.99620102 8.66099482,9.96144578 C8.67081457,12.0537822 10.1374014,13.5985853 12.0048658,13.6279203 Z" id="sfsymbols:person.crop.square" fill="#000000" fill-rule="nonzero"></path>
    </g>
</svg>