<?xml version="1.0" encoding="UTF-8"?>
<svg width="24px" height="24px" viewBox="0 0 24 24" version="1.1" xmlns="http://www.w3.org/2000/svg" xmlns:xlink="http://www.w3.org/1999/xlink">
    <title>icon/iOS/address</title>
    <g id="icon/iOS/address" stroke="none" stroke-width="1" fill="none" fill-rule="evenodd">
        <rect id="ViewBox" fill-rule="nonzero" x="0" y="0" width="24" height="24"></rect>
        <path d="M12.0049967,19 C12.4052015,19 12.9254616,17.469942 12.9254616,14.6393507 L12.9254616,8.59563205 C14.5563203,8.20354651 15.7569553,6.7882587 15.7569553,5.10518938 C15.7569553,3.12568616 14.0860781,1.5 12.0049967,1.5 C9.91389523,1.5 8.24301807,3.12568616 8.24301807,5.10518938 C8.24301807,6.77868178 9.44365303,8.19398918 11.0744913,8.59563205 L11.0744913,14.6393507 C11.0744913,17.4603788 11.5947719,19 12.0049967,19 Z M10.924417,5.30601082 C10.2440627,5.30601082 9.64374519,4.73223808 9.64374519,4.06285287 C9.64374519,3.40300541 10.2440627,2.83880959 10.924417,2.83880959 C11.6347903,2.83880959 12.2150883,3.40300541 12.2150883,4.06285287 C12.2150883,4.73223808 11.6347903,5.30601082 10.924417,5.30601082 Z M12.0049967,22.5 C18.0381494,22.5 21.5,20.5109238 21.5,18.4071008 C21.5,15.8825086 17.3077771,14.3428972 14.5563203,14.3142056 L14.5563203,15.7103788 C16.487348,15.7390703 19.4789155,16.7431579 19.4789155,18.1775918 C19.4789155,19.8224004 16.3072344,20.9890606 12.0049967,20.9890606 C7.68271903,20.9890606 4.5310574,19.8415268 4.5310574,18.1775918 C4.5310574,16.7431579 7.51262532,15.7390703 9.44365303,15.7103788 L9.44365303,14.3142056 C6.69219622,14.3428972 2.5,15.8825086 2.5,18.4071008 C2.5,20.5109238 5.97182344,22.5 12.0049967,22.5 Z" id="sfsymbols:mappin.and.ellipse" fill="#000000" fill-rule="nonzero"></path>
    </g>
</svg>