<?xml version="1.0" encoding="UTF-8"?>
<svg width="24px" height="24px" viewBox="0 0 24 24" version="1.1" xmlns="http://www.w3.org/2000/svg" xmlns:xlink="http://www.w3.org/1999/xlink">
    <title>icon/iOS/alert</title>
    <g id="icon/iOS/alert" stroke="none" stroke-width="1" fill="none" fill-rule="evenodd">
        <rect id="ViewBox" fill-rule="nonzero" x="0" y="0" width="24" height="24"></rect>
        <path d="M4.37008323,21 L19.6299287,21 C21.0869039,21 22,19.9171502 22,18.5535611 C22,18.14248 21.9029214,17.731399 21.6892688,17.3503962 L14.0446848,3.23325342 C13.6075724,2.42111192 12.8013622,2 12.0048599,2 C11.1986497,2 10.3924197,2.42111192 9.95532712,3.23325342 L2.32055045,17.3604229 C2.10683821,17.7414257 2,18.14248 2,18.5535611 C2,19.9171502 2.91306828,21 4.37008323,21 Z M12.0048599,14.1319167 C11.4900448,14.1319167 11.2083576,13.8311342 11.188922,13.2897134 L11.0529522,8.33667901 C11.0335166,7.79525819 11.4414856,7.39420802 11.995152,7.39420802 C12.5391107,7.39420802 12.9567875,7.8052788 12.9373519,8.34669962 L12.8013622,13.2897134 C12.7819465,13.8411548 12.4905316,14.1319167 12.0048599,14.1319167 Z M12.0048599,17.8316625 C11.4414856,17.8316625 10.9169626,17.3704477 10.9169626,16.7488148 C10.9169626,16.1271675 11.4317578,15.6659731 12.0048599,15.6659731 C12.5682342,15.6659731 13.0927771,16.1171469 13.0927771,16.7488148 C13.0927771,17.3804744 12.5585264,17.8316625 12.0048599,17.8316625 Z" id="sfsymbols:exclamationmark.triangle.fill" fill="#000000" fill-rule="nonzero"></path>
    </g>
</svg>