<?xml version="1.0" encoding="UTF-8"?>
<svg width="24px" height="24px" viewBox="0 0 24 24" version="1.1" xmlns="http://www.w3.org/2000/svg" xmlns:xlink="http://www.w3.org/1999/xlink">
    <title>icon/iOS/alert-circle-outline</title>
    <g id="icon/iOS/alert-circle-outline" stroke="none" stroke-width="1" fill="none" fill-rule="evenodd">
        <rect id="ViewBox" fill-rule="nonzero" x="0" y="0" width="24" height="24"></rect>
        <path d="M11.9999568,22 C17.4705246,22 22,17.4705861 22,12 C22,6.53921015 17.4607264,2 11.9901586,2 C6.52938903,2 2,6.53921015 2,12 C2,17.4705861 6.53920735,22 11.9999568,22 Z M11.9999568,20.33333 C7.37251918,20.33333 3.67645603,16.6274548 3.67645603,12 C3.67645603,7.38234343 7.36272095,3.66667001 11.9901586,3.66667001 C16.6175962,3.66667001 20.3234576,7.38234343 20.3333155,12 C20.3431344,16.6274548 16.6273945,20.33333 11.9999568,20.33333 Z M11.9901586,13.7745112 C12.4607349,13.7745112 12.7352462,13.5097973 12.7450645,13.000006 L12.8823201,7.8235267 C12.8921183,7.32353372 12.499968,6.95097852 11.9803604,6.95097852 C11.4509344,6.95097852 11.0784006,7.31371537 11.0881989,7.81372842 L11.2156563,13.000006 C11.2254545,13.499999 11.4999657,13.7745112 11.9901586,13.7745112 Z M11.9901586,16.9607768 C12.5587775,16.9607768 13.0489704,16.5097953 13.0489704,15.9411742 C13.0489704,15.3627348 12.5685958,14.9215717 11.9901586,14.9215717 C11.4117214,14.9215717 10.9313468,15.3725532 10.9313468,15.9411742 C10.9313468,16.499997 11.4215397,16.9607768 11.9901586,16.9607768 Z" id="sfsymbols:exclamationmark.circle" fill="#000000" fill-rule="nonzero"></path>
    </g>
</svg>