<?xml version="1.0" encoding="UTF-8"?>
<svg width="24px" height="24px" viewBox="0 0 24 24" version="1.1" xmlns="http://www.w3.org/2000/svg" xmlns:xlink="http://www.w3.org/1999/xlink">
    <title>icon/iOS/alert-circle</title>
    <g id="icon/iOS/alert-circle" stroke="none" stroke-width="1" fill="none" fill-rule="evenodd">
        <rect id="ViewBox" fill-rule="nonzero" x="0" y="0" width="24" height="24"></rect>
        <path d="M11.9999568,22 C17.4705246,22 22,17.4705861 22,12 C22,6.53921015 17.4607264,2 11.9901586,2 C6.52938903,2 2,6.53921015 2,12 C2,17.4705861 6.53920735,22 11.9999568,22 Z M11.9901586,13.4705841 C11.4705509,13.4705841 11.1862415,13.166657 11.1666249,12.6470674 L11.0293693,7.80393015 C11.0097728,7.26470393 11.4215397,6.88235046 11.9803604,6.88235046 C12.5293627,6.88235046 12.9607461,7.27450221 12.9411296,7.81372842 L12.7940757,12.6470674 C12.7744592,13.1764753 12.4901497,13.4705841 11.9901586,13.4705841 Z M11.9901586,17.0784283 C11.4215397,17.0784283 10.8921137,16.6274548 10.8921137,16.0196006 C10.8921137,15.4117664 11.4117214,14.9607848 11.9901586,14.9607848 C12.5685958,14.9607848 13.0881834,15.4019681 13.0881834,16.0196006 C13.0881834,16.6372531 12.5587775,17.0784283 11.9901586,17.0784283 Z" id="sfsymbols:exclamationmark.circle.fill" fill="#000000" fill-rule="nonzero"></path>
    </g>
</svg>