<?xml version="1.0" encoding="UTF-8"?>
<svg width="24px" height="24px" viewBox="0 0 24 24" version="1.1" xmlns="http://www.w3.org/2000/svg" xmlns:xlink="http://www.w3.org/1999/xlink">
    <title>icon/iOS/archive-put</title>
    <g id="icon/iOS/archive-put" stroke="none" stroke-width="1" fill="none" fill-rule="evenodd">
        <rect id="ViewBox" fill-rule="nonzero" x="0" y="0" width="24" height="24"></rect>
        <path d="M11.9999809,13.6738828 C12.1959113,13.6738828 12.3545244,13.6167833 12.5411302,13.4264647 L15.6946467,10.324404 C15.8345915,10.1721453 15.9185508,10.019906 15.9185508,9.8200773 C15.9185508,9.42993001 15.6199929,9.15398168 15.2374758,9.15398168 C15.0508699,9.15398168 14.8642832,9.23010133 14.7336629,9.38236011 L13.3155082,10.9143605 L12.6903996,11.5899662 L12.7463852,10.1626352 L12.7463852,1.73270517 C12.7463852,1.33304781 12.4011663,1 11.9999809,1 C11.5987955,1 11.2629203,1.33304781 11.2629203,1.73270517 L11.2629203,10.1626352 L11.3189059,11.5899662 L10.6844727,10.9143605 L9.27564254,9.38236011 C9.14502227,9.23010133 8.9397673,9.15398168 8.76250512,9.15398168 C8.37064431,9.15398168 8.09073554,9.42993001 8.09073554,9.8200773 C8.09073554,10.019906 8.16538935,10.1721453 8.30533418,10.324404 L11.4681752,13.4264647 C11.6547811,13.6167833 11.8133942,13.6738828 11.9999809,13.6738828 Z M3.92959332,22 L20.0704067,22 C22.0297107,22 23,21.0103667 23,19.0501689 L23,13.7975723 C23,12.9316675 22.8880288,12.5225001 22.4682326,11.9896236 L19.3425942,7.89792959 C18.213711,6.42300916 17.7658264,6.12804066 16.1051566,6.12804066 L14.4630978,6.12804066 L14.4630978,7.46972248 L16.2171087,7.46972248 C16.8982028,7.46972248 17.3460301,7.58392144 17.8684348,8.2785473 L21.0966815,12.5415202 C21.4604922,13.0268073 21.3391583,13.2171259 20.8261164,13.2171259 L15.0695381,13.2171259 C14.5470571,13.2171259 14.3044848,13.6262934 14.3044848,14.0449904 L14.3044848,14.0830502 C14.3044848,15.2534531 13.4088111,16.480975 11.9999809,16.480975 C10.6004944,16.480975 9.7048207,15.2534531 9.7048207,14.0830502 L9.7048207,14.0449904 C9.7048207,13.6262934 9.45292383,13.2171259 8.93044274,13.2171259 L3.19253271,13.2171259 C2.65140251,13.2171259 2.56742414,12.9887475 2.91262394,12.5415202 L6.11280147,8.30709704 C6.65393167,7.59343152 7.10177806,7.46972248 7.78285309,7.46972248 L9.54620764,7.46972248 L9.54620764,6.12804066 L7.89482424,6.12804066 C6.23409718,6.12804066 5.80491902,6.42300916 4.64800481,7.92647933 L1.53180564,11.9896236 C1.1212766,12.5225001 1,12.9316675 1,13.7975723 L1,19.0501689 C1,21.0103667 1.97963292,22 3.92959332,22 Z" id="sfsymbols:tray.and.arrow.down.fill" fill="#000000" fill-rule="nonzero"></path>
    </g>
</svg>