<?xml version="1.0" encoding="UTF-8"?>
<svg width="24px" height="24px" viewBox="0 0 24 24" version="1.1" xmlns="http://www.w3.org/2000/svg" xmlns:xlink="http://www.w3.org/1999/xlink">
    <title>icon/iOS/archive-remove</title>
    <g id="icon/iOS/archive-remove" stroke="none" stroke-width="1" fill="none" fill-rule="evenodd">
        <rect id="ViewBox" fill-rule="nonzero" x="0" y="0" width="24" height="24"></rect>
        <path d="M11.9999809,14.9042264 C12.4011663,14.9042264 12.7463852,14.5720405 12.7463852,14.1734174 L12.7463852,4.50216109 L12.6903996,3.08800922 L13.3155082,3.75236165 L14.7336629,5.28990242 C14.8642832,5.44174774 15.0508699,5.51768984 15.2374758,5.51768984 C15.6199929,5.51768984 15.9185508,5.23295071 15.9185508,4.85331797 C15.9185508,4.64452094 15.8345915,4.49265618 15.6946467,4.35029633 L12.5411302,1.25624384 C12.3545244,1.06643719 12.1959113,1 11.9999809,1 C11.8133942,1 11.6547811,1.06643719 11.4681752,1.25624384 L8.30533418,4.35029633 C8.16538935,4.49265618 8.09073554,4.64452094 8.09073554,4.85331797 C8.09073554,5.23295071 8.37064431,5.51768984 8.76250512,5.51768984 C8.9397673,5.51768984 9.14502227,5.44174774 9.27564254,5.28990242 L10.6844727,3.75236165 L11.3189059,3.07850431 L11.2629203,4.50216109 L11.2629203,14.1734174 C11.2629203,14.5720405 11.5987955,14.9042264 11.9999809,14.9042264 Z M3.92959332,23 L20.0704067,23 C22.0297107,23 23,22.0129277 23,20.0578025 L23,14.8187988 C23,13.9551348 22.8880288,13.5470262 22.4682326,13.0155288 L19.3425942,8.93442336 C18.213711,7.46331977 17.7658264,7.16911461 16.1051566,7.16911461 L14.4630978,7.16911461 L14.4630978,8.50732438 L16.2171087,8.50732438 C16.8982028,8.50732438 17.3460301,8.62122781 17.8684348,9.3140561 L21.0966815,13.5659972 C21.4604922,14.0500284 21.3391583,14.2398545 20.8261164,14.2398545 L15.0695381,14.2398545 C14.5470571,14.2398545 14.3044848,14.6479631 14.3044848,15.0655766 L14.3044848,15.103538 C14.3044848,16.270912 13.4088111,17.4952573 11.9999809,17.4952573 C10.6004944,17.4952573 9.7048207,16.270912 9.7048207,15.103538 L9.7048207,15.0655766 C9.7048207,14.6479631 9.45292383,14.2398545 8.93044274,14.2398545 L3.19253271,14.2398545 C2.65140251,14.2398545 2.56742414,14.0120671 2.91262394,13.5659972 L6.11280147,9.34253196 C6.65393167,8.63071328 7.10177806,8.50732438 7.78285309,8.50732438 L9.54620764,8.50732438 L9.54620764,7.16911461 L7.89482424,7.16911461 C6.23409718,7.16911461 5.80491902,7.46331977 4.64800481,8.96289922 L1.53180564,13.0155288 C1.1212766,13.5470262 1,13.9551348 1,14.8187988 L1,20.0578025 C1,22.0129277 1.97963292,23 3.92959332,23 Z" id="sfsymbols:tray.and.arrow.up.fill" fill="#000000" fill-rule="nonzero"></path>
    </g>
</svg>