<?xml version="1.0" encoding="UTF-8"?>
<svg width="24px" height="24px" viewBox="0 0 24 24" version="1.1" xmlns="http://www.w3.org/2000/svg" xmlns:xlink="http://www.w3.org/1999/xlink">
    <title>icon/iOS/archive-outline</title>
    <g id="icon/iOS/archive-outline" stroke="none" stroke-width="1" fill="none" fill-rule="evenodd">
        <rect id="ViewBox" fill-rule="nonzero" x="0" y="0" width="24" height="24"></rect>
        <path d="M3.92959332,20 L20.0704067,20 C22.0297107,20 23,19.0251917 23,17.0943183 L23,11.5454099 C23,10.7018118 22.8880288,10.2800319 22.4682326,9.7644976 L19.2493486,5.76215758 C18.1577254,4.4124313 17.6725808,4 16.0118537,4 L7.98810806,4 C6.32738099,4 5.85156093,4.4124313 4.75995685,5.76215758 L1.53180564,9.7644976 C1.1212766,10.2800319 1,10.7018118 1,11.5454099 L1,17.0943183 C1,19.0345633 1.97963292,20 3.92959332,20 Z M11.9999809,14.0105531 C10.6844727,14.0105531 9.83544097,12.8576459 9.83544097,11.7703515 L9.83544097,11.7422482 C9.83544097,11.3485716 9.60219322,10.9830176 9.11702948,10.9830176 L2.96860951,10.9830176 C2.66072707,10.9830176 2.59541693,10.7111988 2.75402999,10.5143605 L6.21542895,6.12771165 C6.6725999,5.54658376 7.19506187,5.31225522 7.87615602,5.31225522 L16.1238249,5.31225522 C16.8048999,5.31225522 17.327381,5.54658376 17.7845519,6.12771165 L21.2552755,10.5143605 C21.4045066,10.7111988 21.3485211,10.9830176 21.0406959,10.9830176 L14.8829323,10.9830176 C14.3977877,10.9830176 14.1738645,11.3485716 14.1738645,11.7422482 L14.1738645,11.7703515 C14.1738645,12.8576459 13.3248327,14.0105531 11.9999809,14.0105531 Z M15.9278945,6.690104 L8.08141098,6.690104 C7.82951411,6.690104 7.6335837,6.88694228 7.6335837,7.14002556 C7.6335837,7.39308964 7.82951411,7.58992792 8.08141098,7.58992792 L15.9278945,7.58992792 C16.1797913,7.58992792 16.3663972,7.39308964 16.3663972,7.14002556 C16.3663972,6.88694228 16.1797913,6.690104 15.9278945,6.690104 Z M17.1594434,8.80844788 L6.84053752,8.80844788 C6.57929698,8.80844788 6.38336657,9.04277643 6.38336657,9.29584051 C6.38336657,9.54892379 6.57929698,9.7644976 6.84053752,9.7644976 L17.1594434,9.7644976 C17.4206839,9.7644976 17.6259389,9.54892379 17.6259389,9.29584051 C17.6259389,9.04277643 17.4206839,8.80844788 17.1594434,8.80844788 Z M3.94826155,18.4909199 C3.01525142,18.4909199 2.50211401,17.9941423 2.50211401,17.019334 L2.50211401,12.3514986 L8.41728622,12.3514986 C8.64120941,14.1042692 10.1060061,15.3977697 11.9999809,15.3977697 C13.8939557,15.3977697 15.3587715,14.0949014 15.5826756,12.3514986 L21.4979433,12.3514986 L21.4979433,17.019334 C21.4979433,17.9941423 20.9753476,18.4909199 20.0516811,18.4909199 L3.94826155,18.4909199 Z" id="sfsymbols:tray.full" fill="#000000" fill-rule="nonzero"></path>
    </g>
</svg>