<?xml version="1.0" encoding="UTF-8"?>
<svg width="24px" height="24px" viewBox="0 0 24 24" version="1.1" xmlns="http://www.w3.org/2000/svg" xmlns:xlink="http://www.w3.org/1999/xlink">
    <title>icon/iOS/archive-remove-outline</title>
    <g id="icon/iOS/archive-remove-outline" stroke="none" stroke-width="1" fill="none" fill-rule="evenodd">
        <rect id="ViewBox" fill-rule="nonzero" x="0" y="0" width="24" height="24"></rect>
        <path d="M11.9999809,14.9042264 C12.4011663,14.9042264 12.7463852,14.5720405 12.7463852,14.1734174 L12.7463852,4.50216109 L12.6903996,3.08800922 L13.3155082,3.75236165 L14.7336629,5.28990242 C14.8642832,5.44174774 15.0508699,5.51768984 15.2374758,5.51768984 C15.6199929,5.51768984 15.9185508,5.23295071 15.9185508,4.85331797 C15.9185508,4.64452094 15.8345915,4.49265618 15.6946467,4.35029633 L12.5411302,1.25624384 C12.3545244,1.06643719 12.1959113,1 11.9999809,1 C11.8133942,1 11.6547811,1.06643719 11.4681752,1.25624384 L8.30533418,4.35029633 C8.16538935,4.49265618 8.09073554,4.64452094 8.09073554,4.85331797 C8.09073554,5.23295071 8.37064431,5.51768984 8.76250512,5.51768984 C8.9397673,5.51768984 9.14502227,5.44174774 9.27564254,5.28990242 L10.6844727,3.75236165 L11.3189059,3.07850431 L11.2629203,4.50216109 L11.2629203,14.1734174 C11.2629203,14.5720405 11.5987955,14.9042264 11.9999809,14.9042264 Z M3.92959332,23 L20.0704067,23 C22.0297107,23 23,22.0129277 23,20.0578025 L23,14.4391661 C23,13.5754827 22.8973916,13.1484031 22.4682326,12.635896 L19.5292765,8.93442336 C18.3723049,7.5012811 17.9525087,7.16911461 16.2917625,7.16911461 L14.4630978,7.16911461 L14.4630978,8.50732438 L16.4037145,8.50732438 C17.0848087,8.50732438 17.5139868,8.63071328 18.055117,9.3140561 L21.0966815,13.1863645 C21.4792178,13.6703957 21.3391583,13.8602218 20.8261164,13.8602218 L14.8829323,13.8602218 C14.3977877,13.8602218 14.1738645,14.2398545 14.1738645,14.6289922 L14.1738645,14.6669535 C14.1738645,15.7678904 13.3248327,16.9257984 11.9999809,16.9257984 C10.6844727,16.9257984 9.83544097,15.7678904 9.83544097,14.6669535 L9.83544097,14.6289922 C9.83544097,14.2398545 9.60219322,13.8602218 9.11702948,13.8602218 L3.19253271,13.8602218 C2.65140251,13.8602218 2.54875591,13.6419199 2.91262394,13.1863645 L5.92619562,9.34253196 C6.48599405,8.64019876 6.91517221,8.50732438 7.59626635,8.50732438 L9.54620764,8.50732438 L9.54620764,7.16911461 L7.7082184,7.16911461 C6.04749133,7.16911461 5.64630596,7.49179563 4.46139896,8.96289922 L1.53180564,12.635896 C1.1212766,13.1388982 1,13.5754827 1,14.4391661 L1,20.0578025 C1,22.0129277 1.97963292,23 3.92959332,23 Z M3.94826155,21.4719525 C3.01525142,21.4719525 2.50211401,20.9594415 2.50211401,19.9723835 L2.50211401,15.2553833 L8.41728622,15.2553833 C8.64120941,17.030197 10.1060061,18.3399425 11.9999809,18.3399425 C13.8939557,18.3399425 15.3587715,17.020692 15.5826756,15.2553833 L21.4979433,15.2553833 L21.4979433,19.9723835 C21.4979433,20.9594415 20.9753476,21.4719525 20.0516811,21.4719525 L3.94826155,21.4719525 Z" id="sfsymbols:tray.and.arrow.up" fill="#000000" fill-rule="nonzero"></path>
    </g>
</svg>