<?xml version="1.0" encoding="UTF-8"?>
<svg width="24px" height="24px" viewBox="0 0 24 24" version="1.1" xmlns="http://www.w3.org/2000/svg" xmlns:xlink="http://www.w3.org/1999/xlink">
    <title>icon/iOS/archive</title>
    <g id="icon/iOS/archive" stroke="none" stroke-width="1" fill="none" fill-rule="evenodd">
        <rect id="ViewBox" fill-rule="nonzero" x="0" y="0" width="24" height="24"></rect>
        <path d="M3.92959332,20 L20.0704067,20 C22.0297107,20 23,19.0251917 23,17.0943183 L23,11.9203317 C23,11.0767528 22.8693033,10.6830763 22.4682326,10.1394386 L19.2493486,5.76215758 C18.2324365,4.36555407 17.6725808,4 16.0118537,4 L7.98810806,4 C6.32738099,4 5.77692623,4.36555407 4.75995685,5.76215758 L1.53180564,10.1394386 C1.13994483,10.6830763 1,11.0767528 1,11.9203317 L1,17.0943183 C1,19.0345633 1.97963292,20 3.92959332,20 Z M11.9999809,14.5729455 C10.6004944,14.5729455 9.7048207,13.3544255 9.7048207,12.2015183 L9.7048207,12.173415 C9.7048207,11.751616 9.45292383,11.3579394 8.93044274,11.3579394 L2.98727774,11.3579394 C2.67937619,11.3579394 2.61406605,11.0954884 2.76335455,10.8892823 L6.21542895,6.12771165 C6.64460711,5.52782903 7.19506187,5.31225522 7.87615602,5.31225522 L16.1238249,5.31225522 C16.8048999,5.31225522 17.3553738,5.52782903 17.7845519,6.12771165 L21.2365499,10.8892823 C21.3766094,11.0954884 21.3206238,11.3579394 21.0127987,11.3579394 L15.0695381,11.3579394 C14.5470571,11.3579394 14.3044848,11.751616 14.3044848,12.173415 L14.3044848,12.2015183 C14.3044848,13.3544255 13.4088111,14.5729455 11.9999809,14.5729455 Z M15.9278945,6.690104 L8.08141098,6.690104 C7.82951411,6.690104 7.6335837,6.88694228 7.6335837,7.14002556 C7.6335837,7.39308964 7.82951411,7.58992792 8.08141098,7.58992792 L15.9278945,7.58992792 C16.1797913,7.58992792 16.3663972,7.39308964 16.3663972,7.14002556 C16.3663972,6.88694228 16.1797913,6.690104 15.9278945,6.690104 Z M17.1594434,8.80844788 L6.84053752,8.80844788 C6.57929698,8.80844788 6.38336657,9.04277643 6.38336657,9.29584051 C6.38336657,9.54892379 6.57929698,9.7644976 6.84053752,9.7644976 L17.1594434,9.7644976 C17.4206839,9.7644976 17.6259389,9.54892379 17.6259389,9.29584051 C17.6259389,9.04277643 17.4206839,8.80844788 17.1594434,8.80844788 Z" id="sfsymbols:tray.full.fill" fill="#000000" fill-rule="nonzero"></path>
    </g>
</svg>