<?xml version="1.0" encoding="UTF-8"?>
<svg width="24px" height="24px" viewBox="0 0 24 24" version="1.1" xmlns="http://www.w3.org/2000/svg" xmlns:xlink="http://www.w3.org/1999/xlink">
    <title>icon/iOS/archive-outline-variant</title>
    <g id="icon/iOS/archive-outline-variant" stroke="none" stroke-width="1" fill="none" fill-rule="evenodd">
        <rect id="ViewBox" fill-rule="nonzero" x="0" y="0" width="24" height="24"></rect>
        <path d="M6.28662976,21 L16.7132924,21 C18.5857134,21 19.5836788,20.0027181 19.5836788,18.0863677 L19.5836788,8.34818097 C20.505767,8.19175434 21,7.47800275 21,6.43183456 L21,4.94568141 C21,3.75285824 20.3630837,3 19.1939763,3 L3.80588744,3 C2.69383389,3 2,3.75285824 2,4.94568141 L2,6.43183456 C2,7.47800275 2.49423304,8.19175434 3.41620444,8.34818097 L3.41620444,18.0863677 C3.41620444,20.0124938 4.41418923,21 6.28662976,21 Z M4.1955899,6.90115451 C3.72035534,6.90115451 3.53025373,6.69582954 3.53025373,6.20696627 L3.53025373,5.17056973 C3.53025373,4.68170646 3.72035534,4.47638149 4.1955899,4.47638149 L18.8138315,4.47638149 C19.2891634,4.47638149 19.46961,4.68170646 19.46961,5.17056973 L19.46961,6.20696627 C19.46961,6.69582954 19.2891634,6.90115451 18.8138315,6.90115451 L4.1955899,6.90115451 Z M6.26761181,19.5236305 C5.41219349,19.5236305 4.94645817,19.0445429 4.94645817,18.164587 L4.94645817,8.37751597 L18.053464,8.37751597 L18.053464,18.164587 C18.053464,19.0445429 17.5782294,19.5236305 16.7323103,19.5236305 L6.26761181,19.5236305 Z M8.36815091,12.3177571 L14.6412705,12.3177571 C15.0404722,12.3177571 15.3256051,12.0342188 15.3256051,11.6040256 L15.3256051,11.2911523 C15.3256051,10.860959 15.0404722,10.5871924 14.6412705,10.5871924 L8.36815091,10.5871924 C7.9689492,10.5871924 7.69331549,10.860959 7.69331549,11.2911523 L7.69331549,11.6040256 C7.69331549,12.0342188 7.9689492,12.3177571 8.36815091,12.3177571 Z" id="sfsymbols:archivebox" fill="#000000" fill-rule="nonzero"></path>
    </g>
</svg>