<?xml version="1.0" encoding="UTF-8"?>
<svg width="24px" height="24px" viewBox="0 0 24 24" version="1.1" xmlns="http://www.w3.org/2000/svg" xmlns:xlink="http://www.w3.org/1999/xlink">
    <title>icon/iOS/archive-put-outline</title>
    <g id="icon/iOS/archive-put-outline" stroke="none" stroke-width="1" fill="none" fill-rule="evenodd">
        <rect id="ViewBox" fill-rule="nonzero" x="0" y="0" width="24" height="24"></rect>
        <path d="M11.9999809,12.7436546 C12.1959113,12.7436546 12.3545244,12.686706 12.5411302,12.4968252 L15.6946467,9.40188209 C15.8345915,9.25948126 15.9185508,9.09808458 15.9185508,8.89873509 C15.9185508,8.50948543 15.6199929,8.23417198 15.2374758,8.23417198 C15.0508699,8.23417198 14.8642832,8.31011649 14.7336629,8.46202496 L13.3155082,9.99050069 L12.6903996,10.664552 L12.7463852,9.24050485 L12.7463852,1.73099998 C12.7463852,1.33226211 12.4011663,1 11.9999809,1 C11.5987955,1 11.2629203,1.33226211 11.2629203,1.73099998 L11.2629203,9.24050485 L11.3189059,10.664552 L10.6844727,9.99050069 L9.27564254,8.46202496 C9.14502227,8.31011649 8.9397673,8.23417198 8.76250512,8.23417198 C8.37064431,8.23417198 8.09073554,8.50948543 8.09073554,8.89873509 C8.09073554,9.09808458 8.16538935,9.25948126 8.30533418,9.40188209 L11.4681752,12.4968252 C11.6547811,12.686706 11.8133942,12.7436546 11.9999809,12.7436546 Z M3.92959332,22 L20.0704067,22 C22.0297107,22 23,21.0126435 23,19.0569556 L23,13.4367018 C23,12.5727697 22.8880288,12.1455673 22.4682326,11.6329126 L19.2493486,7.56960886 C18.1577254,6.20252982 17.4859941,5.40505408 15.8345915,5.40505408 L14.4630978,5.40505408 L14.4630978,6.74366851 L15.937219,6.74366851 C16.6183132,6.74366851 17.327381,7.35126352 17.7845519,7.93986268 L21.0966815,12.1835395 C21.469855,12.6677101 21.3391583,12.8575908 20.8261164,12.8575908 L14.8829323,12.8575908 C14.3977877,12.8575908 14.1738645,13.2373329 14.1738645,13.6265825 L14.1738645,13.6645548 C14.1738645,14.7658086 13.3248327,15.9240499 11.9999809,15.9240499 C10.6844727,15.9240499 9.83544097,14.7658086 9.83544097,13.6645548 L9.83544097,13.6265825 C9.83544097,13.2373329 9.60219322,12.8575908 9.11702948,12.8575908 L3.19253271,12.8575908 C2.65140251,12.8575908 2.54875591,12.6392261 2.91262394,12.1835395 L6.21542895,7.93986268 C6.6725999,7.35126352 7.38166772,6.74366851 8.06276186,6.74366851 L9.54620764,6.74366851 L9.54620764,5.40505408 L8.17471391,5.40505408 C6.51398684,5.40505408 5.85156093,6.20252982 4.75995685,7.56960886 L1.53180564,11.6329126 C1.1212766,12.1455673 1,12.5727697 1,13.4367018 L1,19.0569556 C1,21.0126435 1.97963292,22 3.92959332,22 Z M3.94826155,20.4715126 C3.01525142,20.4715126 2.50211401,19.9588541 2.50211401,18.971512 L2.50211401,14.2531539 L8.41728622,14.2531539 C8.64120941,16.0284785 10.1060061,17.3386011 11.9999809,17.3386011 C13.8939557,17.3386011 15.3587715,16.0189709 15.5826756,14.2531539 L21.4979433,14.2531539 L21.4979433,18.971512 C21.4979433,19.9588541 20.9753476,20.4715126 20.0516811,20.4715126 L3.94826155,20.4715126 Z" id="sfsymbols:tray.and.arrow.down" fill="#000000" fill-rule="nonzero"></path>
    </g>
</svg>