<?xml version="1.0" encoding="UTF-8"?>
<svg width="24px" height="24px" viewBox="0 0 24 24" version="1.1" xmlns="http://www.w3.org/2000/svg" xmlns:xlink="http://www.w3.org/1999/xlink">
    <title>icon/iOS/arrow-collapse</title>
    <g id="icon/iOS/arrow-collapse" stroke="none" stroke-width="1" fill="none" fill-rule="evenodd">
        <rect id="ViewBox" fill-rule="nonzero" x="0" y="0" width="24" height="24"></rect>
        <path d="M3.84709213,10.9879736 L9.54233138,10.9879736 C10.5890309,10.9879736 11.1944795,10.3867684 11.1944795,9.36471754 L11.1944795,3.81362988 C11.1944795,3.2925799 10.7942727,2.88174848 10.2504009,2.88174848 C9.70652903,2.88174848 9.31657801,3.28256562 9.31657801,3.81362988 L9.31657801,4.65530074 L9.5320756,8.15229287 L6.82299313,5.37673877 L3.67265972,2.270529 C3.49820629,2.09016949 3.26217612,2 3.01591118,2 C2.43099517,2 2,2.38074756 2,2.94187515 C2,3.20238988 2.1026209,3.45289034 2.28733011,3.63327037 L5.44791932,6.71943107 L8.29041105,9.35470327 L4.70908246,9.1542947 L3.84709213,9.1542947 C3.30322027,9.1542947 2.88250191,9.52504851 2.88250191,10.066127 C2.88250191,10.5971913 3.29296449,10.9879736 3.84709213,10.9879736 Z M13.6880644,21.1583168 C14.2319363,21.1583168 14.6218873,20.7675345 14.6218873,20.2264518 L14.6218873,19.2745487 L14.4063897,15.7875805 L17.1154722,18.5631263 L20.3376381,21.7294505 C20.5120705,21.90981 20.7377819,22 20.9943866,22 C21.5689628,22 22,21.6192319 22,21.0581166 C22,20.7975958 21.90774,20.5470932 21.7230097,20.3667337 L18.490546,17.2104198 L15.6377985,14.5751558 L19.2293828,14.7755438 L20.2042498,14.7755438 C20.7480797,14.7755438 21.1688191,14.4048105 21.1688191,13.8737463 C21.1688191,13.3326678 20.7583775,12.9518997 20.2042498,12.9518997 L14.3961129,12.9518997 C13.3494344,12.9518997 12.7439858,13.5430906 12.7439858,14.565121 L12.7439858,20.2264518 C12.7439858,20.7575161 13.1339368,21.1583168 13.6880644,21.1583168 Z" id="sfsymbols:arrow.down.right.and.arrow.up.left" fill="#000000" fill-rule="nonzero"></path>
    </g>
</svg>