<?xml version="1.0" encoding="UTF-8"?>
<svg width="24px" height="24px" viewBox="0 0 24 24" version="1.1" xmlns="http://www.w3.org/2000/svg" xmlns:xlink="http://www.w3.org/1999/xlink">
    <title>icon/iOS/arrow-expand</title>
    <g id="icon/iOS/arrow-expand" stroke="none" stroke-width="1" fill="none" fill-rule="evenodd">
        <rect id="ViewBox" fill-rule="nonzero" x="0" y="0" width="24" height="24"></rect>
        <path d="M2.96537111,10.0560742 C3.52148779,10.0560742 3.92023364,9.65775621 3.92023364,9.12997617 L3.92023364,8.29348997 L3.71038437,4.81812395 L6.47007956,7.57651346 L9.70195172,10.6635138 C9.88033971,10.8427579 10.1111847,10.9224379 10.3630253,10.9224379 C10.9611333,10.9224379 11.401849,10.5539769 11.401849,9.99631939 C11.401849,9.7274634 11.3074007,9.48846443 11.1185256,9.3092203 L7.87614488,6.24212464 L4.96954446,3.6231495 L8.64215381,3.82231871 L9.51307663,3.82231871 C10.0692148,3.82231871 10.4994434,3.45387811 10.4994434,2.91612533 C10.4994434,2.37839294 10.0797019,2 9.51307663,2 L3.6893887,2 C2.61908221,2 2,2.58751449 2,3.60324482 L2,9.12997617 C2,9.64780387 2.40923294,10.0560742 2.96537111,10.0560742 Z M14.4763288,21 L20.3000168,21 C21.3703447,21 22,20.4124794 22,19.3967552 L22,13.8700238 C22,13.3521961 21.5906166,12.9439258 21.0241418,12.9439258 C20.4784048,12.9439258 20.0691718,13.3422438 20.0691718,13.8700238 L20.0691718,14.70651 L20.2895297,18.1818699 L17.5193474,15.4234865 L14.2979408,12.3364862 C14.1195743,12.1572421 13.8782208,12.0775621 13.6263802,12.0775621 C13.0387807,12.0775621 12.587578,12.4460231 12.587578,13.0036602 C12.587578,13.2725366 12.6924918,13.5115356 12.8813669,13.6907797 L16.1132606,16.7578631 L19.0303481,19.3768383 L15.3577602,19.1776772 L14.4763288,19.1776772 C13.9201907,19.1776772 13.4899835,19.546126 13.4899835,20.0838624 C13.4899835,20.6215989 13.9201907,21 14.4763288,21 Z" id="sfsymbols:arrow.up.left.and.arrow.down.right" fill="#000000" fill-rule="nonzero"></path>
    </g>
</svg>