<?xml version="1.0" encoding="UTF-8"?>
<svg width="24px" height="24px" viewBox="0 0 24 24" version="1.1" xmlns="http://www.w3.org/2000/svg" xmlns:xlink="http://www.w3.org/1999/xlink">
    <title>icon/iOS/attach</title>
    <g id="icon/iOS/attach" stroke="none" stroke-width="1" fill="none" fill-rule="evenodd">
        <rect id="ViewBox" fill-rule="nonzero" x="0" y="0" width="24" height="24"></rect>
        <path d="M18.7460791,12.4543152 L11.4194377,19.6575289 C9.51552388,21.5391884 6.95367875,21.3529697 5.31889455,19.7261316 C3.67414789,18.1188848 3.48475888,15.6198116 5.38867267,13.7381561 L15.3867873,3.91826323 C16.533145,2.79123694 18.217762,2.63442229 19.3142666,3.70266064 C20.4008087,4.79048829 20.2413071,6.43693175 19.1049322,7.56397811 L9.33609734,17.1682564 C8.84765049,17.6680702 8.24955522,17.5210663 7.91062709,17.1878557 C7.57171937,16.8448445 7.43216313,16.276434 7.92060997,15.7766061 L14.7488217,9.08301092 C15.0478796,8.7792164 15.0678045,8.34799116 14.7787295,8.06378593 C14.4896546,7.78937534 14.0510609,7.8089847 13.7520031,8.10298457 L6.90384598,14.8357784 C5.88708199,15.8354141 5.92695229,17.3642617 6.82410539,18.2462874 C7.80097867,19.2067164 9.27628169,19.1871151 10.3030081,18.1776847 L20.1117337,8.53420981 C21.9758589,6.7015477 21.8960367,4.29068047 20.2712149,2.69323029 C18.6862635,1.13497876 16.1942169,1.01738283 14.3301734,2.85002488 L4.28220562,12.7385204 C1.82005869,15.1592024 2.00945382,18.6186986 4.23237285,20.8041626 C6.45526943,22.9798239 9.9740629,23.1660425 12.4362017,20.7551613 L19.8126759,13.5029442 C20.1017509,13.218739 20.1017509,12.6993218 19.8027134,12.4347259 C19.5136385,12.1309113 19.045137,12.17011 18.7460791,12.4543152 Z" id="sfsymbols:paperclip" fill="#000000" fill-rule="nonzero"></path>
    </g>
</svg>