<?xml version="1.0" encoding="UTF-8"?>
<svg width="24px" height="24px" viewBox="0 0 24 24" version="1.1" xmlns="http://www.w3.org/2000/svg" xmlns:xlink="http://www.w3.org/1999/xlink">
    <title>icon/iOS/bell-sleep</title>
    <g id="icon/iOS/bell-sleep" stroke="none" stroke-width="1" fill="none" fill-rule="evenodd">
        <rect id="ViewBox" fill-rule="nonzero" x="0" y="0" width="24" height="24"></rect>
        <path d="M14.9237126,20.3662717 C14.7997187,21.7629428 13.6168829,23 11.9952528,23 C10.3831562,23 9.20032039,21.7629428 9.07632648,20.3662717 Z M11.9952528,2 C13.4070095,2 14.3895249,3.03752461 14.7520122,4.33444571 C17.2893842,5.29216545 18.2623662,7.93586014 18.3291396,11.7667391 C18.4054466,12.914021 18.577147,14.3306494 19.2067086,15.0190021 C19.3092546,15.1299878 19.4141843,15.2411293 19.5192995,15.3526019 L19.8330032,15.6881889 C20.4527306,16.3620515 21,17.0541515 21,17.8023758 C21,18.5206666 20.4563179,19.0095011 19.5596624,19.0095011 L4.44037665,19.0095011 C3.53416816,19.0095011 3,18.5206666 3,17.8023758 C3,16.8047434 3.96342893,15.9068875 4.79331093,15.0190021 C5.42289208,14.3306494 5.59459248,12.914021 5.67089943,11.7667391 C5.73767289,7.93586014 6.71065484,5.29216545 9.24802688,4.33444571 C9.60096116,3.03752461 10.5930296,2 11.9952528,2 Z M14,8.25 L10,8.25 L9.89822944,8.25684662 C9.53215388,8.30650904 9.25,8.62030423 9.25,9 C9.25,9.41421356 9.58578644,9.75 10,9.75 L12.6893398,9.75 L9.46966991,12.9696699 L9.39281377,13.0597391 C9.30057128,13.1869542 9.25,13.3408701 9.25,13.5 L9.25,14 L9.25684662,14.1017706 C9.30650904,14.4678461 9.62030423,14.75 10,14.75 L14,14.75 L14.1017706,14.7431534 C14.4678461,14.693491 14.75,14.3796958 14.75,14 C14.75,13.5857864 14.4142136,13.25 14,13.25 L11.3106602,13.25 L14.5303301,10.0303301 L14.6071862,9.94026087 C14.6994287,9.81304575 14.75,9.65912989 14.75,9.5 L14.75,9 L14.7431534,8.89822944 C14.693491,8.53215388 14.3796958,8.25 14,8.25 Z" id="xabber:bell-sleep" fill="#000000" fill-rule="nonzero"></path>
    </g>
</svg>