<?xml version="1.0" encoding="UTF-8"?>
<svg width="24px" height="24px" viewBox="0 0 24 24" version="1.1" xmlns="http://www.w3.org/2000/svg" xmlns:xlink="http://www.w3.org/1999/xlink">
    <title>icon/iOS/bell-1h</title>
    <g id="icon/iOS/bell-1h" stroke="none" stroke-width="1" fill="none" fill-rule="evenodd">
        <rect id="ViewBox" fill-rule="nonzero" x="0" y="0" width="24" height="24"></rect>
        <path d="M11.9952528,2 C13.4070095,2 14.4276979,3.00677149 14.7520122,4.26525071 C17.2893842,5.19458281 18.2623662,7.66312678 18.3291396,11.4772445 C18.4054466,12.5905199 18.577147,13.9651582 19.2067086,14.6331076 L19.8330032,15.2824591 C20.4527306,15.9363478 21,16.6079334 21,17.3339797 C21,17.9874172 20.5221544,18.4451618 19.7236024,18.4998274 L19.5596624,18.5053247 L15.5342072,18.5053247 C15.4579003,20.3736698 14.0175041,22 11.9952528,22 C10.0496256,22 8.63880111,20.4712385 8.47798017,18.6903966 L8.46583184,18.5053247 L4.44037665,18.5053247 C3.53416816,18.5053247 3,18.0309797 3,17.3339797 C3,16.3659179 3.96342893,15.4946753 4.79331093,14.6331076 C5.42289208,13.9651582 5.59459248,12.5905199 5.67089943,11.4772445 C5.73767289,7.66312678 6.71065484,5.19458281 9.24802688,4.26525071 C9.56280769,3.00677149 10.5930296,2 11.9952528,2 Z M14.0461241,18.5053247 L9.95391498,18.5053247 C10.0206884,19.8121986 10.8505704,20.6447255 11.9952528,20.6447255 C13.0970043,20.6447255 13.8945502,19.8861628 14.0311453,18.680561 L14.0461241,18.5053247 Z M11.9952528,3.42303296 C11.1176643,3.42303296 10.5453231,4.12972187 10.5167031,5.14616833 C10.5083613,5.35792966 10.4050717,5.48075669 10.2196208,5.54707007 L10.1351489,5.5721246 C8.50398531,6.0174308 7.26390951,7.37269935 7.18760256,11.5934234 C7.10176213,13.4908073 6.7774283,14.7299168 6.09062671,15.5043503 L5.81536166,15.8133598 C5.44589596,16.2199019 5.0819368,16.5961831 4.9069532,16.841672 L4.85055091,16.9274031 L4.85055091,17.0435621 L19.1399547,17.0435621 L19.1399547,16.9274031 C18.9682347,16.6369756 18.4054466,16.0755103 17.8998789,15.5043503 C17.2226108,14.7299168 16.8982769,13.4908073 16.8124365,11.5934234 C16.7380861,7.48092304 15.5588823,6.08881568 13.9807611,5.60820668 L13.8553567,5.5721246 C13.6168829,5.51403515 13.4928694,5.38818127 13.4833359,5.14616833 C13.4451825,4.12972187 12.8823748,3.42303296 11.9952528,3.42303296 Z M10.8125,8.8046875 L10.8125,14.5 L9.703125,14.5 L9.703125,10.15625 L8.62109375,10.5742188 L8.62109375,9.65234375 L10.6953125,8.8046875 L10.8125,8.8046875 Z M13.5351562,8.5 L13.5351562,10.6445312 C13.7747408,10.3450506 14.0690087,10.1953125 14.4179688,10.1953125 C14.8033873,10.1953125 15.0963532,10.3307278 15.296875,10.6015625 C15.4973968,10.8723972 15.5989583,11.276039 15.6015625,11.8125 L15.6015625,14.5 L14.4921875,14.5 L14.4921875,11.8242188 C14.4921875,11.5768217 14.4537764,11.397787 14.3769531,11.2871094 C14.3001298,11.1764317 14.1757821,11.1210938 14.0039062,11.1210938 C13.8033844,11.1210938 13.647136,11.2135407 13.5351562,11.3984375 L13.5351562,14.5 L12.4296875,14.5 L12.4296875,8.5 L13.5351562,8.5 Z" id="xabber:bell-1h" fill="#000000" fill-rule="nonzero"></path>
    </g>
</svg>