<?xml version="1.0" encoding="UTF-8"?>
<svg width="24px" height="24px" viewBox="0 0 24 24" version="1.1" xmlns="http://www.w3.org/2000/svg" xmlns:xlink="http://www.w3.org/1999/xlink">
    <title>icon/iOS/bell-mention</title>
    <g id="icon/iOS/bell-mention" stroke="none" stroke-width="1" fill="none" fill-rule="evenodd">
        <rect id="ViewBox" fill-rule="nonzero" x="0" y="0" width="24" height="24"></rect>
        <path d="M14.9237126,20.3662717 C14.7997187,21.7629428 13.6168829,23 11.9952528,23 C10.3831562,23 9.20032039,21.7629428 9.07632648,20.3662717 Z M11.9952528,2 C13.4070095,2 14.3895249,3.03752461 14.7520122,4.33444571 C17.2893842,5.29216545 18.2623662,7.93586014 18.3291396,11.7667391 C18.4054466,12.914021 18.577147,14.3306494 19.2067086,15.0190021 C19.3092546,15.1299878 19.4141843,15.2411293 19.5192995,15.3526019 L19.8330032,15.6881889 C20.4527306,16.3620515 21,17.0541515 21,17.8023758 C21,18.5206666 20.4563179,19.0095011 19.5596624,19.0095011 L4.44037665,19.0095011 C3.53416816,19.0095011 3,18.5206666 3,17.8023758 C3,16.8047434 3.96342893,15.9068875 4.79331093,15.0190021 C5.42289208,14.3306494 5.59459248,12.914021 5.67089943,11.7667391 C5.73767289,7.93586014 6.71065484,5.29216545 9.24802688,4.33444571 C9.60096116,3.03752461 10.5930296,2 11.9952528,2 Z M12.2336306,7.472656 C11.4358437,7.472656 10.723534,7.66376949 10.0967015,8.04599647 C9.46986893,8.42822345 8.97315162,8.97105 8.60654956,9.67447613 C8.2399475,10.3779023 8.03955104,11.1728701 8.00536017,12.0593798 C7.9711693,12.9908573 8.1003348,13.7882342 8.39285665,14.4515104 C8.6853785,15.1147866 9.12985976,15.6174633 9.72630042,15.9595404 C10.3227411,16.3016175 11.0483472,16.472656 11.9031189,16.472656 C12.2374296,16.472656 12.5717403,16.4333091 12.9060509,16.3546153 C13.156784,16.295595 13.3690523,16.2225724 13.5428558,16.1355475 L13.7038378,16.0438551 L13.5100896,15.2970671 L13.2846831,15.3899472 C13.12597,15.4474062 12.9503724,15.4959429 12.7578905,15.5355575 C12.4691677,15.5949793 12.1899423,15.6246903 11.9202143,15.6246903 C10.9628701,15.6246903 10.2382137,15.3179451 9.74624509,14.7044547 C9.25427652,14.0909644 9.03488513,13.2092727 9.08807092,12.0593798 C9.13745773,10.8934269 9.44327603,9.96837334 10.0055258,9.28421917 C10.5677756,8.60006499 11.3028792,8.25798791 12.2108367,8.25798791 C13.1605829,8.25798791 13.8785911,8.5591121 14.3648612,9.1613605 C14.8511313,9.76360889 15.069573,10.6220136 15.0201862,11.7365746 C15.0049902,12.2729772 14.9062166,12.719444 14.7238653,13.0759751 C14.541514,13.4325061 14.3135749,13.6107716 14.040048,13.6107716 C13.8614957,13.6107716 13.7389784,13.5457288 13.6724962,13.4156432 C13.6193104,13.3115746 13.5959086,13.1658787 13.6022909,12.9785554 L13.6126622,12.8302577 L13.8633952,10.0454611 L13.5613759,9.84792367 L13.3880472,9.7478166 C13.0888771,9.59613923 12.7382624,9.52030054 12.3362032,9.52030054 C11.9563047,9.52030054 11.6048985,9.63272024 11.2819848,9.85755964 C10.9590711,10.082399 10.6921924,10.4003862 10.4813487,10.8115211 C10.270505,11.222656 10.1365908,11.6900008 10.079606,12.2135554 C10.0188223,12.8559536 10.1175959,13.3770993 10.3759269,13.7769922 C10.6342579,14.1768851 11.0027594,14.3768316 11.4814315,14.3768316 C11.9601037,14.3768316 12.3570976,14.1664461 12.6724134,13.7456753 C12.9041515,14.1760821 13.2916479,14.3912856 13.8349028,14.3912856 C14.2489922,14.3912856 14.6136947,14.2876988 14.9290105,14.0805254 C15.2443263,13.8733519 15.496009,13.5601828 15.6840588,13.1410179 C15.8721086,12.721853 15.9756309,12.2424633 15.9946258,11.7028487 C16.0288167,10.858095 15.8996512,10.112913 15.6071293,9.46730268 C15.3146075,8.8216924 14.8777242,8.32784872 14.2964795,7.98577163 C13.7152348,7.64369454 13.0276185,7.472656 12.2336306,7.472656 Z M12.4444737,10.373085 L12.5755387,10.3815165 L12.7180006,10.4068109 L12.5128554,12.7724426 L12.4548022,12.9344474 C12.3928313,13.0874185 12.3191072,13.2132884 12.23363,13.3120572 C12.1196605,13.4437488 12.0018919,13.5095946 11.8803244,13.5095946 C11.6637823,13.5095946 11.5061244,13.4003869 11.4073508,13.1819715 C11.3085772,12.9635561 11.2743863,12.640751 11.3047782,12.2135561 C11.361763,11.5711578 11.4823807,11.1038131 11.6666315,10.8115218 C11.8508823,10.5192306 12.110163,10.373085 12.4444737,10.373085 Z" id="Combined-Shape" fill="#000000" fill-rule="nonzero"></path>
    </g>
</svg>