<?xml version="1.0" encoding="UTF-8"?>
<svg width="24px" height="24px" viewBox="0 0 24 24" version="1.1" xmlns="http://www.w3.org/2000/svg" xmlns:xlink="http://www.w3.org/1999/xlink">
    <title>icon/iOS/bell-outline</title>
    <g id="icon/iOS/bell-outline" stroke="none" stroke-width="1" fill="none" fill-rule="evenodd">
        <rect id="ViewBox" fill-rule="nonzero" x="0" y="0" width="24" height="24"></rect>
        <path d="M4.44037665,18.5053247 L14.0461241,18.5053247 C13.9698171,19.8121986 13.1494686,20.6447255 11.9952528,20.6447255 C10.8505704,20.6447255 10.0206884,19.8121986 9.95391498,18.5053247 L8.46583184,18.5053247 C8.54213878,20.3639889 9.98253497,22 11.9952528,22 C14.0175041,22 15.4579003,20.3736698 15.5342072,18.5053247 L19.5596624,18.5053247 C20.4563179,18.5053247 21,18.0309797 21,17.3339797 C21,16.3659179 20.0270767,15.4946753 19.2067086,14.6331076 C18.577147,13.9651582 18.4054466,12.5905199 18.3291396,11.4772445 C18.2623662,7.66312678 17.2893842,5.19458281 14.7520122,4.26525071 C14.4276979,3.00677149 13.4070095,2 11.9952528,2 C10.5930296,2 9.56280769,3.00677149 9.24802688,4.26525071 C6.71065484,5.19458281 5.73767289,7.66312678 5.67089943,11.4772445 C5.59459248,12.5905199 5.42289208,13.9651582 4.79331093,14.6331076 C3.96342893,15.4946753 3,16.3659179 3,17.3339797 C3,18.0309797 3.53416816,18.5053247 4.44037665,18.5053247 Z M4.85055091,17.0435621 L4.85055091,16.9274031 C5.02225131,16.6369756 5.59459248,16.0755103 6.09062671,15.5043503 C6.7774283,14.7299168 7.10176213,13.4908073 7.18760256,11.5934234 C7.26390951,7.37269935 8.50398531,6.0174308 10.1351489,5.5721246 C10.3736227,5.51403515 10.5071696,5.38818127 10.5167031,5.14616833 C10.5453231,4.12972187 11.1176643,3.42303296 11.9952528,3.42303296 C12.8823748,3.42303296 13.4451825,4.12972187 13.4833359,5.14616833 C13.4928694,5.38818127 13.6168829,5.51403515 13.8553567,5.5721246 C15.4960538,6.0174308 16.7361296,7.37269935 16.8124365,11.5934234 C16.8982769,13.4908073 17.2226108,14.7299168 17.8998789,15.5043503 C18.4054466,16.0755103 18.9682347,16.6369756 19.1399547,16.9274031 L19.1399547,17.0435621 L4.85055091,17.0435621 Z" id="sfsymbols:bell" fill="#000000" fill-rule="nonzero"></path>
    </g>
</svg>