<?xml version="1.0" encoding="UTF-8"?>
<svg width="24px" height="24px" viewBox="0 0 24 24" version="1.1" xmlns="http://www.w3.org/2000/svg" xmlns:xlink="http://www.w3.org/1999/xlink">
    <title>icon/iOS/bell-sleep-outline</title>
    <g id="icon/iOS/bell-sleep-outline" stroke="none" stroke-width="1" fill="none" fill-rule="evenodd">
        <rect id="ViewBox" fill-rule="nonzero" x="0" y="0" width="24" height="24"></rect>
        <path d="M11.9952528,2 C13.4070095,2 14.4276979,3.00677149 14.7520122,4.26525071 C17.2893842,5.19458281 18.2623662,7.66312678 18.3291396,11.4772445 C18.4054466,12.5905199 18.577147,13.9651582 19.2067086,14.6331076 L19.8330032,15.2824591 C20.4527306,15.9363478 21,16.6079334 21,17.3339797 C21,17.9874172 20.5221544,18.4451618 19.7236024,18.4998274 L19.5596624,18.5053247 L15.5342072,18.5053247 C15.4579003,20.3736698 14.0175041,22 11.9952528,22 C10.0496256,22 8.63880111,20.4712385 8.47798017,18.6903966 L8.46583184,18.5053247 L4.44037665,18.5053247 C3.53416816,18.5053247 3,18.0309797 3,17.3339797 C3,16.3659179 3.96342893,15.4946753 4.79331093,14.6331076 C5.42289208,13.9651582 5.59459248,12.5905199 5.67089943,11.4772445 C5.73767289,7.66312678 6.71065484,5.19458281 9.24802688,4.26525071 C9.56280769,3.00677149 10.5930296,2 11.9952528,2 Z M14.0461241,18.5053247 L9.95391498,18.5053247 C10.0206884,19.8121986 10.8505704,20.6447255 11.9952528,20.6447255 C13.0970043,20.6447255 13.8945502,19.8861628 14.0311453,18.680561 L14.0461241,18.5053247 Z M11.9952528,3.42303296 C11.1176643,3.42303296 10.5453231,4.12972187 10.5167031,5.14616833 C10.5083613,5.35792966 10.4050717,5.48075669 10.2196208,5.54707007 L10.1351489,5.5721246 C8.50398531,6.0174308 7.26390951,7.37269935 7.18760256,11.5934234 C7.10176213,13.4908073 6.7774283,14.7299168 6.09062671,15.5043503 L5.81536166,15.8133598 C5.44589596,16.2199019 5.0819368,16.5961831 4.9069532,16.841672 L4.85055091,16.9274031 L4.85055091,17.0435621 L19.1399547,17.0435621 L19.1399547,16.9274031 C18.9682347,16.6369756 18.4054466,16.0755103 17.8998789,15.5043503 C17.2226108,14.7299168 16.8982769,13.4908073 16.8124365,11.5934234 C16.7380861,7.48092304 15.5588823,6.08881568 13.9807611,5.60820668 L13.8553567,5.5721246 C13.6168829,5.51403515 13.4928694,5.38818127 13.4833359,5.14616833 C13.4451825,4.12972187 12.8823748,3.42303296 11.9952528,3.42303296 Z M14,8.25 C14.3796958,8.25 14.693491,8.53215388 14.7431534,8.89822944 L14.75,9 L14.75,9.5 C14.75,9.65912989 14.6994287,9.81304575 14.6071862,9.94026087 L14.5303301,10.0303301 L11.3106602,13.25 L14,13.25 C14.4142136,13.25 14.75,13.5857864 14.75,14 C14.75,14.3796958 14.4678461,14.693491 14.1017706,14.7431534 L14,14.75 L10,14.75 C9.62030423,14.75 9.30650904,14.4678461 9.25684662,14.1017706 L9.25,14 L9.25,13.5 C9.25,13.3408701 9.30057128,13.1869542 9.39281377,13.0597391 L9.46966991,12.9696699 L12.6893398,9.75 L10,9.75 C9.58578644,9.75 9.25,9.41421356 9.25,9 C9.25,8.62030423 9.53215388,8.30650904 9.89822944,8.25684662 L10,8.25 L14,8.25 Z" id="xabber:bell-sleep-outline" fill="#000000" fill-rule="nonzero"></path>
    </g>
</svg>