<?xml version="1.0" encoding="UTF-8"?>
<svg width="24px" height="24px" viewBox="0 0 24 24" version="1.1" xmlns="http://www.w3.org/2000/svg" xmlns:xlink="http://www.w3.org/1999/xlink">
    <title>icon/iOS/bell-mention-outline</title>
    <g id="icon/iOS/bell-mention-outline" stroke="none" stroke-width="1" fill="none" fill-rule="evenodd">
        <rect id="ViewBox" fill-rule="nonzero" x="0" y="0" width="24" height="24"></rect>
        <path d="M11.9952528,2 C13.4070095,2 14.4276979,3.00677149 14.7520122,4.26525071 C17.2893842,5.19458281 18.2623662,7.66312678 18.3291396,11.4772445 C18.4054466,12.5905199 18.577147,13.9651582 19.2067086,14.6331076 L19.8330032,15.2824591 C20.4527306,15.9363478 21,16.6079334 21,17.3339797 C21,17.9874172 20.5221544,18.4451618 19.7236024,18.4998274 L19.5596624,18.5053247 L15.5342072,18.5053247 C15.4579003,20.3736698 14.0175041,22 11.9952528,22 C10.0496256,22 8.63880111,20.4712385 8.47798017,18.6903966 L8.46583184,18.5053247 L4.44037665,18.5053247 C3.53416816,18.5053247 3,18.0309797 3,17.3339797 C3,16.3659179 3.96342893,15.4946753 4.79331093,14.6331076 C5.42289208,13.9651582 5.59459248,12.5905199 5.67089943,11.4772445 C5.73767289,7.66312678 6.71065484,5.19458281 9.24802688,4.26525071 C9.56280769,3.00677149 10.5930296,2 11.9952528,2 Z M14.0461241,18.5053247 L9.95391498,18.5053247 C10.0206884,19.8121986 10.8505704,20.6447255 11.9952528,20.6447255 C13.0970043,20.6447255 13.8945502,19.8861628 14.0311453,18.680561 L14.0461241,18.5053247 Z M11.9952528,3.42303296 C11.1176643,3.42303296 10.5453231,4.12972187 10.5167031,5.14616833 C10.5083613,5.35792966 10.4050717,5.48075669 10.2196208,5.54707007 L10.1351489,5.5721246 C8.50398531,6.0174308 7.26390951,7.37269935 7.18760256,11.5934234 C7.10176213,13.4908073 6.7774283,14.7299168 6.09062671,15.5043503 L5.81536166,15.8133598 L5.28822664,16.3879108 C5.12918069,16.563485 4.994445,16.7189275 4.9069532,16.841672 L4.85055091,16.9274031 L4.85055091,17.0435621 L19.1399547,17.0435621 L19.1399547,16.9274031 C18.9682347,16.6369756 18.4054466,16.0755103 17.8998789,15.5043503 C17.2226108,14.7299168 16.8982769,13.4908073 16.8124365,11.5934234 C16.7380861,7.48092304 15.5588823,6.08881568 13.9807611,5.60820668 L13.8553567,5.5721246 C13.6168829,5.51403515 13.4928694,5.38818127 13.4833359,5.14616833 C13.4451825,4.12972187 12.8823748,3.42303296 11.9952528,3.42303296 Z M12.1621094,7.97265625 C12.7063802,7.97265625 13.1777344,8.11132812 13.5761719,8.38867188 C13.9746094,8.66601562 14.2740885,9.06640625 14.4746094,9.58984375 C14.6751302,10.1132812 14.7636719,10.7174479 14.7402344,11.4023438 C14.7272135,11.8398438 14.65625,12.2285156 14.5273438,12.5683594 C14.3984375,12.9082031 14.2259115,13.1621094 14.0097656,13.3300781 C13.7936198,13.4980469 13.5436198,13.5820312 13.2597656,13.5820312 C12.8873698,13.5820312 12.6217448,13.4075521 12.4628906,13.0585938 C12.2467448,13.3997396 11.9746094,13.5703125 11.6464844,13.5703125 C11.3183594,13.5703125 11.0657552,13.4082031 10.8886719,13.0839844 C10.7115885,12.7597656 10.6438802,12.3372396 10.6855469,11.8164062 C10.7246094,11.3919271 10.8164062,11.0130208 10.9609375,10.6796875 C11.1054688,10.3463542 11.2884115,10.0885417 11.5097656,9.90625 C11.7311198,9.72395833 11.9720052,9.6328125 12.2324219,9.6328125 C12.5080295,9.6328125 12.7483724,9.69429977 12.9534505,9.81727431 L13.0722656,9.8984375 L13.2792969,10.0585938 L13.1074219,12.3164062 L13.1003125,12.4366406 C13.0959375,12.5885156 13.1119792,12.7066406 13.1484375,12.7910156 C13.1940104,12.8964844 13.2779948,12.9492188 13.4003906,12.9492188 C13.5878906,12.9492188 13.7441406,12.8046875 13.8691406,12.515625 C13.9941406,12.2265625 14.061849,11.8645833 14.0722656,11.4296875 C14.1061198,10.5260417 13.9563802,9.83007812 13.6230469,9.34179688 C13.2897135,8.85351562 12.797526,8.609375 12.1464844,8.609375 C11.5240885,8.609375 11.0201823,8.88671875 10.6347656,9.44140625 C10.249349,9.99609375 10.0397135,10.7460938 10.0058594,11.6914062 C9.96940104,12.6236979 10.1197917,13.3385417 10.4570312,13.8359375 C10.7942708,14.3333333 11.2910156,14.5820312 11.9472656,14.5820312 C12.1321615,14.5820312 12.3235677,14.5579427 12.5214844,14.5097656 C12.6534288,14.4776476 12.7737992,14.4382957 12.8825955,14.3917101 L13.0371094,14.3164062 L13.1699219,14.921875 L13.0595703,14.9962158 C12.9404297,15.0667725 12.7949219,15.1259766 12.6230469,15.1738281 C12.3938802,15.2376302 12.1647135,15.2695312 11.9355469,15.2695312 C11.3496094,15.2695312 10.8522135,15.1308594 10.4433594,14.8535156 C10.0345052,14.5761719 9.72981771,14.1686198 9.52929688,13.6308594 C9.32877604,13.093099 9.24023438,12.4466146 9.26367188,11.6914062 C9.28710938,10.9726562 9.42447917,10.328125 9.67578125,9.7578125 C9.92708333,9.1875 10.2675781,8.74739583 10.6972656,8.4375 C11.1269531,8.12760417 11.6152344,7.97265625 12.1621094,7.97265625 Z M12.3066406,10.3242188 C12.077474,10.3242188 11.8997396,10.4427083 11.7734375,10.6796875 C11.6471354,10.9166667 11.5644531,11.2955729 11.5253906,11.8164062 C11.5045573,12.1627604 11.5279948,12.4244792 11.5957031,12.6015625 C11.6634115,12.7786458 11.7714844,12.8671875 11.9199219,12.8671875 C12.0032552,12.8671875 12.0839844,12.8138021 12.1621094,12.7070312 C12.2207031,12.6269531 12.2712402,12.5249023 12.3137207,12.4008789 L12.3535156,12.2695312 L12.4941406,10.3515625 L12.3964844,10.3310547 L12.3066406,10.3242188 Z" id="xabber:bell-mention-outline" fill="#000000" fill-rule="nonzero"></path>
    </g>
</svg>