<?xml version="1.0" encoding="UTF-8"?>
<svg width="24px" height="24px" viewBox="0 0 24 24" version="1.1" xmlns="http://www.w3.org/2000/svg" xmlns:xlink="http://www.w3.org/1999/xlink">
    <title>icon/iOS/bell-1d</title>
    <g id="icon/iOS/bell-1d" stroke="none" stroke-width="1" fill="none" fill-rule="evenodd">
        <rect id="ViewBox" fill-rule="nonzero" x="0" y="0" width="24" height="24"></rect>
        <path d="M14.9237126,20.3662717 C14.7997187,21.7629428 13.6168829,23 11.9952528,23 C10.4451599,23 9.29194276,21.8562711 9.09529665,20.5266564 L9.07632648,20.3662717 L14.9237126,20.3662717 Z M11.9952528,2 C13.4070095,2 14.3895249,3.03752461 14.7520122,4.33444571 C17.2893842,5.29216545 18.2623662,7.93586014 18.3291396,11.7667391 C18.4054466,12.914021 18.577147,14.3306494 19.2067086,15.0190021 C19.3092546,15.1299878 19.4141843,15.2411293 19.5192995,15.3526019 L19.8330032,15.6881889 C20.4527306,16.3620515 21,17.0541515 21,17.8023758 C21,18.4757734 20.5221544,18.9475004 19.7236024,19.0038359 L19.5596624,19.0095011 L4.44037665,19.0095011 C3.53416816,19.0095011 3,18.5206666 3,17.8023758 C3,16.8047434 3.96342893,15.9068875 4.79331093,15.0190021 C5.42289208,14.3306494 5.59459248,12.914021 5.67089943,11.7667391 C5.73767289,7.93586014 6.71065484,5.29216545 9.24802688,4.33444571 C9.60096116,3.03752461 10.5930296,2 11.9952528,2 Z M10.5214844,8.8046875 L10.4042969,8.8046875 L8.33007812,9.65234375 L8.33007812,10.5742188 L9.41210938,10.15625 L9.41210938,14.5 L10.5214844,14.5 L10.5214844,8.8046875 Z M13.7246094,8.8125 L12.2207031,8.8125 L12.2207031,14.5 L13.6933594,14.5 C14.3860712,14.5 14.9296855,14.2871115 15.3242188,13.8613281 C15.6792987,13.4781231 15.8745902,12.9646706 15.9100977,12.3209579 L15.9160156,12.1015625 L15.9160156,11.1796875 C15.9082031,10.4453088 15.7070332,9.86718961 15.3125,9.4453125 C14.9179668,9.02343539 14.3886752,8.8125 13.7246094,8.8125 Z M13.7871094,9.76953125 C14.143882,9.77994797 14.3964836,9.88997291 14.5449219,10.0996094 C14.6933601,10.3092458 14.7675781,10.6796848 14.7675781,11.2109375 L14.7675781,11.2109375 L14.7675781,12.1992188 L14.7611695,12.3778998 C14.7380983,12.7788001 14.6582038,13.0675447 14.5214844,13.2441406 C14.3652336,13.4459646 14.095705,13.546875 13.7128906,13.546875 L13.7128906,13.546875 L13.3691406,13.546875 L13.3691406,9.76953125 Z" id="xabber:bell-1D" fill="#000000" fill-rule="nonzero"></path>
    </g>
</svg>