<?xml version="1.0" encoding="UTF-8"?>
<svg width="24px" height="24px" viewBox="0 0 24 24" version="1.1" xmlns="http://www.w3.org/2000/svg" xmlns:xlink="http://www.w3.org/1999/xlink">
    <title>icon/iOS/bell</title>
    <g id="icon/iOS/bell" stroke="none" stroke-width="1" fill="none" fill-rule="evenodd">
        <rect id="ViewBox" fill-rule="nonzero" x="0" y="0" width="24" height="24"></rect>
        <path d="M4.44037665,19.0095011 L19.5596624,19.0095011 C20.4563179,19.0095011 21,18.5206666 21,17.8023758 C21,16.8047434 20.0270767,15.9068875 19.2067086,15.0190021 C18.577147,14.3306494 18.4054466,12.914021 18.3291396,11.7667391 C18.2623662,7.93586014 17.2893842,5.29216545 14.7520122,4.33444571 C14.3895249,3.03752461 13.4070095,2 11.9952528,2 C10.5930296,2 9.60096116,3.03752461 9.24802688,4.33444571 C6.71065484,5.29216545 5.73767289,7.93586014 5.67089943,11.7667391 C5.59459248,12.914021 5.42289208,14.3306494 4.79331093,15.0190021 C3.96342893,15.9068875 3,16.8047434 3,17.8023758 C3,18.5206666 3.53416816,19.0095011 4.44037665,19.0095011 Z M11.9952528,23 C13.6168829,23 14.7997187,21.7629428 14.9237126,20.3662717 L9.07632648,20.3662717 C9.20032039,21.7629428 10.3831562,23 11.9952528,23 Z" id="sfsymbols:bell.fill" fill="#000000" fill-rule="nonzero"></path>
    </g>
</svg>