<?xml version="1.0" encoding="UTF-8"?>
<svg width="24px" height="24px" viewBox="0 0 24 24" version="1.1" xmlns="http://www.w3.org/2000/svg" xmlns:xlink="http://www.w3.org/1999/xlink">
    <title>icon/iOS/bell-2h</title>
    <g id="icon/iOS/bell-2h" stroke="none" stroke-width="1" fill="none" fill-rule="evenodd">
        <rect id="ViewBox" fill-rule="nonzero" x="0" y="0" width="24" height="24"></rect>
        <path d="M14.9237126,20.3662717 C14.7997187,21.7629428 13.6168829,23 11.9952528,23 C10.3831562,23 9.20032039,21.7629428 9.07632648,20.3662717 L9.07632648,20.3662717 Z M11.9952528,2 C13.4070095,2 14.3895249,3.03752461 14.7520122,4.33444571 C17.2893842,5.29216545 18.2623662,7.93586014 18.3291396,11.7667391 C18.4054466,12.914021 18.577147,14.3306494 19.2067086,15.0190021 C19.3092546,15.1299878 19.4141843,15.2411293 19.5192995,15.3526019 L19.8330032,15.6881889 C20.4527306,16.3620515 21,17.0541515 21,17.8023758 C21,18.5206666 20.4563179,19.0095011 19.5596624,19.0095011 L19.5596624,19.0095011 L4.44037665,19.0095011 C3.53416816,19.0095011 3,18.5206666 3,17.8023758 C3,16.8047434 3.96342893,15.9068875 4.79331093,15.0190021 C5.42289208,14.3306494 5.59459248,12.914021 5.67089943,11.7667391 C5.73767289,7.93586014 6.71065484,5.29216545 9.24802688,4.33444571 C9.60096116,3.03752461 10.5930296,2 11.9952528,2 Z M10,8.734375 C9.66926918,8.734375 9.37304818,8.81445232 9.11132812,8.97460938 C8.84960807,9.13476643 8.6464851,9.35937355 8.50195312,9.6484375 C8.35742115,9.93750145 8.28515625,10.2565087 8.28515625,10.6054688 L8.28515625,10.6054688 L9.39453125,10.6054688 C9.39453125,10.3033839 9.4472651,10.0690113 9.55273438,9.90234375 C9.65820365,9.73567625 9.80078035,9.65234375 9.98046875,9.65234375 C10.1445321,9.65234375 10.2701819,9.72395762 10.3574219,9.8671875 C10.4446619,10.0104174 10.4882812,10.2083321 10.4882812,10.4609375 C10.4882812,10.6484384 10.4420578,10.8444 10.3496094,11.0488281 C10.257161,11.2532562 10.1132822,11.4908841 9.91796875,11.7617188 L9.91796875,11.7617188 L8.37890625,13.71875 L8.37890625,14.5 L11.7304688,14.5 L11.7304688,13.5820312 L9.796875,13.5820312 L10.5273438,12.5390625 C10.9335958,12.0572893 11.2141919,11.6516944 11.3691406,11.3222656 C11.5240893,10.9928369 11.6015625,10.6679704 11.6015625,10.3476562 C11.6015625,9.83202867 11.4615899,9.43424619 11.1816406,9.15429688 C10.9016913,8.87434756 10.507815,8.734375 10,8.734375 Z M13.5351562,8.5 L12.4296875,8.5 L12.4296875,14.5 L13.5351562,14.5 L13.5351562,11.3984375 C13.647136,11.2135407 13.8033844,11.1210938 14.0039062,11.1210938 C14.1757821,11.1210938 14.3001298,11.1764317 14.3769531,11.2871094 C14.4537764,11.397787 14.4921875,11.5768217 14.4921875,11.8242188 L14.4921875,11.8242188 L14.4921875,14.5 L15.6015625,14.5 L15.6015625,11.8125 C15.5989583,11.276039 15.4973968,10.8723972 15.296875,10.6015625 C15.0963532,10.3307278 14.8033873,10.1953125 14.4179688,10.1953125 C14.0690087,10.1953125 13.7747408,10.3450506 13.5351562,10.6445312 L13.5351562,10.6445312 L13.5351562,8.5 Z" id="xabber:bell-2h" fill="#000000" fill-rule="nonzero"></path>
    </g>
</svg>