<?xml version="1.0" encoding="UTF-8"?>
<svg width="24px" height="24px" viewBox="0 0 24 24" version="1.1" xmlns="http://www.w3.org/2000/svg" xmlns:xlink="http://www.w3.org/1999/xlink">
    <title>icon/iOS/bell-15m-outline</title>
    <g id="icon/iOS/bell-15m-outline" stroke="none" stroke-width="1" fill="none" fill-rule="evenodd">
        <rect id="ViewBox" fill-rule="nonzero" x="0" y="0" width="24" height="24"></rect>
        <path d="M11.9952528,2 C13.4070095,2 14.4276979,3.00677149 14.7520122,4.26525071 C17.2893842,5.19458281 18.2623662,7.66312678 18.3291396,11.4772445 C18.4054466,12.5905199 18.577147,13.9651582 19.2067086,14.6331076 L19.8330032,15.2824591 C20.4527306,15.9363478 21,16.6079334 21,17.3339797 C21,17.9874172 20.5221544,18.4451618 19.7236024,18.4998274 L19.5596624,18.5053247 L15.5342072,18.5053247 C15.4579003,20.3736698 14.0175041,22 11.9952528,22 C10.0496256,22 8.63880111,20.4712385 8.47798017,18.6903966 L8.46583184,18.5053247 L4.44037665,18.5053247 C3.53416816,18.5053247 3,18.0309797 3,17.3339797 C3,16.3659179 3.96342893,15.4946753 4.79331093,14.6331076 C5.42289208,13.9651582 5.59459248,12.5905199 5.67089943,11.4772445 C5.73767289,7.66312678 6.71065484,5.19458281 9.24802688,4.26525071 C9.56280769,3.00677149 10.5930296,2 11.9952528,2 Z M14.0461241,18.5053247 L9.95391498,18.5053247 C10.0206884,19.8121986 10.8505704,20.6447255 11.9952528,20.6447255 C13.0970043,20.6447255 13.8945502,19.8861628 14.0311453,18.680561 L14.0461241,18.5053247 Z M11.9952528,3.42303296 C11.1176643,3.42303296 10.5453231,4.12972187 10.5167031,5.14616833 C10.5083613,5.35792966 10.4050717,5.48075669 10.2196208,5.54707007 L10.1351489,5.5721246 C8.50398531,6.0174308 7.26390951,7.37269935 7.18760256,11.5934234 C7.10176213,13.4908073 6.7774283,14.7299168 6.09062671,15.5043503 L5.81536166,15.8133598 C5.44589596,16.2199019 5.0819368,16.5961831 4.9069532,16.841672 L4.85055091,16.9274031 L4.85055091,17.0435621 L19.1399547,17.0435621 L19.1399547,16.9274031 C18.9682347,16.6369756 18.4054466,16.0755103 17.8998789,15.5043503 C17.2226108,14.7299168 16.8982769,13.4908073 16.8124365,11.5934234 C16.7380861,7.48092304 15.5588823,6.08881568 13.9807611,5.60820668 L13.8553567,5.5721246 C13.6168829,5.51403515 13.4928694,5.38818127 13.4833359,5.14616833 C13.4451825,4.12972187 12.8823748,3.42303296 11.9952528,3.42303296 Z M15.5195312,8.8125 L15.5195312,9.7578125 L13.671875,9.7578125 L13.5703125,10.9765625 C13.7838552,10.8333326 14.0039051,10.7617188 14.2304688,10.7617188 C14.6992211,10.7617188 15.0605456,10.9283838 15.3144531,11.2617188 C15.5683606,11.5950537 15.6953125,12.0664032 15.6953125,12.6757812 C15.6953125,13.2460966 15.5442723,13.7057274 15.2421875,14.0546875 C14.9401027,14.4036476 14.5364609,14.578125 14.03125,14.578125 C13.7317693,14.578125 13.4544284,14.5071622 13.1992188,14.3652344 C12.9440091,14.2233066 12.7428393,14.0260429 12.5957031,13.7734375 C12.448567,13.5208321 12.3736979,13.2343766 12.3710938,12.9140625 L13.4648438,12.9140625 C13.483073,13.1510429 13.5416662,13.3346348 13.640625,13.4648438 C13.7395838,13.5950527 13.8671867,13.6601562 14.0234375,13.6601562 C14.2057301,13.6601562 14.3463537,13.5722665 14.4453125,13.3964844 C14.5442713,13.2207022 14.59375,12.9583351 14.59375,12.609375 C14.59375,12.2812484 14.5345058,12.033855 14.4160156,11.8671875 C14.2975254,11.70052 14.1315115,11.6171875 13.9179688,11.6171875 C13.7096344,11.6171875 13.5481777,11.6888014 13.4335938,11.8320312 L13.3632812,11.9296875 L12.484375,11.703125 L12.765625,8.8125 L15.5195312,8.8125 Z M10.7578125,8.8046875 L10.7578125,14.5 L9.6484375,14.5 L9.6484375,10.15625 L8.56640625,10.5742188 L8.56640625,9.65234375 L10.640625,8.8046875 L10.7578125,8.8046875 Z" id="xabber:bell-15m-outline" fill="#000000" fill-rule="nonzero"></path>
    </g>
</svg>