<?xml version="1.0" encoding="UTF-8"?>
<svg width="24px" height="24px" viewBox="0 0 24 24" version="1.1" xmlns="http://www.w3.org/2000/svg" xmlns:xlink="http://www.w3.org/1999/xlink">
    <title>icon/iOS/bell-15m</title>
    <g id="icon/iOS/bell-15m" stroke="none" stroke-width="1" fill="none" fill-rule="evenodd">
        <rect id="ViewBox" fill-rule="nonzero" x="0" y="0" width="24" height="24"></rect>
        <path d="M14.9237126,20.3662717 C14.7997187,21.7629428 13.6168829,23 11.9952528,23 C10.3831562,23 9.20032039,21.7629428 9.07632648,20.3662717 L9.07632648,20.3662717 Z M11.9952528,2 C13.4070095,2 14.3895249,3.03752461 14.7520122,4.33444571 C17.2893842,5.29216545 18.2623662,7.93586014 18.3291396,11.7667391 C18.4054466,12.914021 18.577147,14.3306494 19.2067086,15.0190021 C19.3092546,15.1299878 19.4141843,15.2411293 19.5192995,15.3526019 L19.8330032,15.6881889 C20.4527306,16.3620515 21,17.0541515 21,17.8023758 C21,18.5206666 20.4563179,19.0095011 19.5596624,19.0095011 L19.5596624,19.0095011 L4.44037665,19.0095011 C3.53416816,19.0095011 3,18.5206666 3,17.8023758 C3,16.8047434 3.96342893,15.9068875 4.79331093,15.0190021 C5.42289208,14.3306494 5.59459248,12.914021 5.67089943,11.7667391 C5.73767289,7.93586014 6.71065484,5.29216545 9.24802688,4.33444571 C9.60096116,3.03752461 10.5930296,2 11.9952528,2 Z M15.5195312,8.8125 L12.765625,8.8125 L12.484375,11.703125 L13.3632812,11.9296875 L13.4335938,11.8320312 C13.5481777,11.6888014 13.7096344,11.6171875 13.9179688,11.6171875 C14.1315115,11.6171875 14.2975254,11.70052 14.4160156,11.8671875 C14.5345058,12.033855 14.59375,12.2812484 14.59375,12.609375 C14.59375,12.9583351 14.5442713,13.2207022 14.4453125,13.3964844 C14.3463537,13.5722665 14.2057301,13.6601562 14.0234375,13.6601562 C13.8671867,13.6601562 13.7395838,13.5950527 13.640625,13.4648438 C13.5416662,13.3346348 13.483073,13.1510429 13.4648438,12.9140625 L13.4648438,12.9140625 L12.3710938,12.9140625 C12.3736979,13.2343766 12.448567,13.5208321 12.5957031,13.7734375 C12.7428393,14.0260429 12.9440091,14.2233066 13.1992188,14.3652344 C13.4544284,14.5071622 13.7317693,14.578125 14.03125,14.578125 C14.5364609,14.578125 14.9401027,14.4036476 15.2421875,14.0546875 C15.5442723,13.7057274 15.6953125,13.2460966 15.6953125,12.6757812 C15.6953125,12.0664032 15.5683606,11.5950537 15.3144531,11.2617188 C15.0605456,10.9283838 14.6992211,10.7617188 14.2304688,10.7617188 C14.0039051,10.7617188 13.7838552,10.8333326 13.5703125,10.9765625 L13.5703125,10.9765625 L13.671875,9.7578125 L15.5195312,9.7578125 L15.5195312,8.8125 Z M10.7578125,8.8046875 L10.640625,8.8046875 L8.56640625,9.65234375 L8.56640625,10.5742188 L9.6484375,10.15625 L9.6484375,14.5 L10.7578125,14.5 L10.7578125,8.8046875 Z" id="xabber:bell-15m" fill="#000000" fill-rule="nonzero"></path>
    </g>
</svg>