<?xml version="1.0" encoding="UTF-8"?>
<svg width="24px" height="24px" viewBox="0 0 24 24" version="1.1" xmlns="http://www.w3.org/2000/svg" xmlns:xlink="http://www.w3.org/1999/xlink">
    <title>icon/iOS/bell-off</title>
    <g id="icon/iOS/bell-off" stroke="none" stroke-width="1" fill="none" fill-rule="evenodd">
        <rect id="ViewBox" fill-rule="nonzero" x="0" y="0" width="24" height="24"></rect>
        <path d="M12.1973471,2 C10.7553842,2 9.7518606,3.03752461 9.38162258,4.33444571 C8.86524478,4.51401688 8.41706821,4.76342243 8.03709285,5.08266234 L21.141384,18.5206666 C21.3069984,18.3311168 21.3850168,18.0916878 21.3850168,17.8023758 C21.3850168,16.8047434 20.400888,15.9068875 19.5532614,15.0190021 C18.9102185,14.3306494 18.7348468,12.914021 18.6666456,11.7667391 C18.588707,7.93586014 17.604678,5.29216545 15.0130517,4.33444571 C14.6428137,3.03752461 13.6295527,2 12.1973471,2 Z M20.7224194,21.9325435 C21.014679,22.2318219 21.4921673,22.2318219 21.7844868,21.9325435 C22.0670289,21.623274 22.0766066,21.1444183 21.7844868,20.8451316 L4.28606584,2.93775831 C3.99378631,2.63847983 3.51637779,2.63847983 3.21434098,2.93775831 C2.93180078,3.23705722 2.93180078,3.73586831 3.21434098,4.02517629 L20.7224194,21.9325435 Z M4.47119483,19.0095011 L16.2309163,19.0095011 L6.0690348,8.5843309 C5.85467387,9.53205971 5.74750338,10.5795753 5.72802872,11.7667391 C5.65009017,12.914021 5.48445579,14.3306494 4.8414129,15.0190021 C3.99378631,15.9068875 3,16.8047434 3,17.8023758 C3,18.5206666 3.55534706,19.0095011 4.47119483,19.0095011 Z M12.1973471,23 C13.8438937,23 15.052021,21.7629428 15.1884234,20.3662717 L9.20625087,20.3662717 C9.33291597,21.7629428 10.5410433,23 12.1973471,23 Z" id="sfsymbols:bell.slash.fill" fill="#000000" fill-rule="nonzero"></path>
    </g>
</svg>