<?xml version="1.0" encoding="UTF-8"?>
<svg width="24px" height="24px" viewBox="0 0 24 24" version="1.1" xmlns="http://www.w3.org/2000/svg" xmlns:xlink="http://www.w3.org/1999/xlink">
    <title>icon/iOS/bell-off-outline</title>
    <g id="icon/iOS/bell-off-outline" stroke="none" stroke-width="1" fill="none" fill-rule="evenodd">
        <rect id="ViewBox" fill-rule="nonzero" x="0" y="0" width="24" height="24"></rect>
        <path d="M8.03530256,5.00096452 L9.15589763,6.11423995 C9.50668602,5.8625322 9.89644867,5.67860871 10.315447,5.5721246 C10.5590512,5.51403515 10.6857325,5.38818127 10.6954711,5.14616833 C10.7344454,4.12972187 11.3093607,3.42303296 12.2155674,3.42303296 C13.1120355,3.42303296 13.6966894,4.12972187 13.7259251,5.14616833 C13.7356637,5.38818127 13.8720836,5.51403515 14.1156878,5.5721246 C15.8111783,6.02710577 17.1071476,7.4307888 17.165619,11.8451113 C17.2143318,13.0358261 17.3117775,13.7521702 17.6528273,14.4104644 L21.1119384,17.9438535 C21.2775741,17.759924 21.3653809,17.5082302 21.3653809,17.2371745 C21.3653809,16.4627271 20.5566,15.7366882 19.8550232,15.0396941 C19.0560008,14.1394068 18.7636638,13.1907049 18.714951,11.8063916 C18.6662182,7.69215168 17.6333501,5.20425778 15.031633,4.26525071 C14.7003418,3.00677149 13.6479566,2 12.2155674,2 C10.7734396,2 9.73079306,3.00677149 9.39950179,4.26525071 C8.87331921,4.43949924 8.42508517,4.69118716 8.03530256,5.00096452 Z M3.21193232,3.96514831 L20.7222556,21.3417256 C21.0145526,21.6321332 21.4921022,21.6321332 21.7844591,21.3417256 C22.0670375,21.0416232 22.0766165,20.5769611 21.7844591,20.2865456 L4.28379459,2.90996234 C3.99147759,2.61955473 3.51400786,2.61955473 3.21193232,2.90996234 C2.92935589,3.20038977 2.92935589,3.68441567 3.21193232,3.96514831 Z M12.2155674,22 C14.1936363,22 15.6260455,20.4995177 15.8014397,18.7182969 L16.4348065,18.7182969 L14.7490546,17.0435621 L4.9171614,17.0435621 L4.9171614,16.9274031 C5.09257555,16.6369756 5.66747098,16.0755103 6.18391498,15.5043503 C6.87575317,14.7299168 7.21680298,13.4908073 7.29475152,11.5934234 C7.31424863,10.9157792 7.36296148,10.3155942 7.44091002,9.77347889 L6.07673075,8.41819052 C5.86236228,9.29912796 5.76491663,10.3252692 5.74541952,11.4772445 C5.66747098,12.5905199 5.50181536,13.9651582 4.85870997,14.6331076 C4.01095475,15.4946753 3.01706097,16.3659179 3.01706097,17.3339797 C3.01706097,18.0406587 3.56272071,18.5053247 4.49816305,18.5053247 L8.60047936,18.5053247 C8.6784279,20.3639889 10.1498114,22 12.2155674,22 Z M12.2155674,20.6447255 C11.0365209,20.6447255 10.1985242,19.8121986 10.1205757,18.5053247 L14.3008206,18.5053247 C14.2326106,19.8121986 13.3848753,20.6447255 12.2155674,20.6447255 Z" id="sfsymbols:bell.slash" fill="#000000" fill-rule="nonzero"></path>
    </g>
</svg>