<?xml version="1.0" encoding="UTF-8"?>
<svg width="24px" height="24px" viewBox="0 0 24 24" version="1.1" xmlns="http://www.w3.org/2000/svg" xmlns:xlink="http://www.w3.org/1999/xlink">
    <title>icon/iOS/birthday</title>
    <g id="icon/iOS/birthday" stroke="none" stroke-width="1" fill="none" fill-rule="evenodd">
        <rect id="ViewBox" fill-rule="nonzero" x="0" y="0" width="24" height="24"></rect>
        <path d="M12,7.65 C12.3796958,7.65 12.693491,7.93215388 12.7431534,8.29822944 L12.75,8.4 L12.75,9.00033889 L16.9233378,9 C17.9931602,9 18.3811037,9.11139073 18.7722148,9.32055924 C19.163326,9.52972776 19.4702722,9.83667404 19.6794408,10.2277852 L19.7630583,10.3972075 C19.9181619,10.7436532 20,11.1596715 20,12.0766622 L20,17.9993389 L21,18 L21,21 C21,22.1045695 20.1045695,23 19,23 L5,23 C3.8954305,23 3,22.1045695 3,21 L3,18 L4,17.9993389 L4,12.0766622 C4,11.0068398 4.11139073,10.6188963 4.32055924,10.2277852 C4.52972776,9.83667404 4.83667404,9.52972776 5.22778516,9.32055924 L5.39720749,9.23694168 C5.71478269,9.09476339 6.09081828,9.01414847 6.85760183,9.0017 L11.25,9.00033889 L11.25,8.4 C11.25,7.98578644 11.5857864,7.65 12,7.65 Z M19.5,19.5 L4.5,19.5 L4.5,21 C4.5,21.2454599 4.67687516,21.4496084 4.91012437,21.4919443 L5,21.5 L19,21.5 C19.2454599,21.5 19.4496084,21.3231248 19.4919443,21.0898756 L19.5,21 L19.5,19.5 Z M14.743,14.928 L14.5325241,15.0590239 C13.8285438,15.4715603 13.0712898,15.7012218 12.2689394,15.7430288 L11.9998302,15.75 C11.0972865,15.75 10.2493588,15.5173862 9.46727414,15.0589877 L9.259,14.929 L9.07575545,15.0538961 C8.4351351,15.466372 7.81285245,15.7002354 7.20537365,15.7428834 L7.00342416,15.75 C6.51335065,15.75 6.01309048,15.6232767 5.50066021,15.3765186 L5.5,18 L18.5,18 L18.5,15.3750296 C17.9873611,15.6227586 17.4892659,15.75 17.0032385,15.75 C16.3400568,15.75 15.6531463,15.5130661 14.935995,15.0562658 L14.743,14.928 Z M17.0993542,10.5008023 L6.9006458,10.5008023 L6.58512393,10.5086104 C6.22351866,10.5249222 6.07999485,10.5658331 5.93518344,10.643279 C5.80547504,10.7126479 5.71264785,10.805475 5.64327904,10.9351834 C5.54647156,11.1161977 5.50675027,11.2952001 5.50080233,11.9006458 L5.50114492,13.6306151 C6.08491618,14.0516611 6.5880847,14.25 7.00342416,14.25 C7.43956408,14.25 7.97084034,14.031166 8.5892514,13.5649614 L8.77738076,13.4176504 L9.2466207,13.0368279 L9.71852129,13.4143484 C10.4211491,13.9764506 11.1733634,14.25 11.9998302,14.25 C12.7511879,14.25 13.4412788,14.0239101 14.0886184,13.5604551 L14.2815563,13.4142863 L14.749458,13.0400667 L15.2177819,13.4137577 C15.9321203,13.9837516 16.5320414,14.25 17.0032385,14.25 C17.4104916,14.25 17.9124619,14.0509863 18.5001986,13.6284823 L18.5,12.0766622 C18.5,11.4473506 18.4734018,11.209099 18.4022487,11.0318878 L18.356721,10.9351834 C18.2873521,10.805475 18.194525,10.7126479 18.0648166,10.643279 C17.8838023,10.5464716 17.7047999,10.5067503 17.0993542,10.5008023 Z M12,0.0423388947 L12.4788208,0.524231487 C13.9257623,1.98045578 14.675,3.29162169 14.675,4.5 C14.675,5.68556753 13.6461534,6.925 12,6.925 C10.3553657,6.925 9.325,5.68029569 9.325,4.5 C9.325,3.35875382 9.99330149,2.12582364 11.2864914,0.765599651 L11.5211792,0.524231487 L12,0.0423388947 Z M12,1.984 L11.8921848,2.10622768 C11.0711341,3.05637122 10.675,3.86216499 10.675,4.5 C10.675,4.98513248 11.1632921,5.575 12,5.575 C12.8392055,5.575 13.325,4.98977229 13.325,4.5 C13.325,3.90772464 12.9834354,3.17062768 12.2772613,2.30761183 L12.1078152,2.10622768 L12,1.984 Z" id="xabber:cake" fill="#000000" fill-rule="nonzero"></path>
    </g>
</svg>