<?xml version="1.0" encoding="UTF-8"?>
<svg width="24px" height="24px" viewBox="0 0 24 24" version="1.1" xmlns="http://www.w3.org/2000/svg" xmlns:xlink="http://www.w3.org/1999/xlink">
    <title>icon/iOS/blocked-add</title>
    <g id="icon/iOS/blocked-add" stroke="none" stroke-width="1" fill="none" fill-rule="evenodd">
        <rect id="ViewBox" fill-rule="nonzero" x="0" y="0" width="24" height="24"></rect>
        <path d="M19,15.25 C19.4142136,15.25 19.75,15.5857864 19.75,16 L19.75,18.25 L22,18.25 C22.4142136,18.25 22.75,18.5857864 22.75,19 C22.75,19.4142136 22.4142136,19.75 22,19.75 L19.75,19.75 L19.75,22 C19.75,22.4142136 19.4142136,22.75 19,22.75 C18.5857864,22.75 18.25,22.4142136 18.25,22 L18.25,19.75 L16,19.75 C15.5857864,19.75 15.25,19.4142136 15.25,19 C15.25,18.5857864 15.5857864,18.25 16,18.25 L18.25,18.25 L18.25,16 C18.25,15.5857864 18.5857864,15.25 19,15.25 Z M19.0710678,4.92893219 C21.4354592,7.29332358 22.3546612,10.6056425 21.8286967,13.7070936 C21.344987,13.4482695 20.8218828,13.25366 20.2706079,13.1347993 C20.5803824,10.9008412 19.9758275,8.56882293 18.4536932,6.7234993 L6.73222785,18.4463805 C8.57855697,19.9646046 10.9054677,20.5719931 13.1350872,20.2665042 C13.2525125,20.8183845 13.4469569,21.3419684 13.7058185,21.825917 C10.6060776,22.3514995 7.29256185,21.4346975 4.92893219,19.0710678 C1.06757066,15.2097063 1.06062608,8.7972383 4.92197326,4.93589111 C8.79024885,1.06761553 15.2097063,1.06757066 19.0710678,4.92893219 Z M6.10048693,6.11440478 C3.02059953,9.19429218 2.85810835,14.012334 5.5725628,17.2906547 L17.2960743,5.56714272 C14.0114531,2.85972201 9.18061671,3.034275 6.10048693,6.11440478 Z" id="xabber:blocked-add" fill="#000000" fill-rule="nonzero"></path>
    </g>
</svg>