<?xml version="1.0" encoding="UTF-8"?>
<svg width="24px" height="24px" viewBox="0 0 24 24" version="1.1" xmlns="http://www.w3.org/2000/svg" xmlns:xlink="http://www.w3.org/1999/xlink">
    <title>icon/iOS/bookmark</title>
    <g id="icon/iOS/bookmark" stroke="none" stroke-width="1" fill="none" fill-rule="evenodd">
        <rect id="ViewBox" fill-rule="nonzero" x="0" y="0" width="24" height="24"></rect>
        <path d="M5.47981958,23 C5.93000256,23 6.20365205,22.745698 7.0863737,21.7578162 L11.3764175,17.0237518 C11.4205464,16.98463 11.4558531,16.9455081 11.5,16.9455081 C11.5353067,16.9455081 11.5794355,16.98463 11.6235825,17.0237518 L15.9136082,21.7578162 C16.7786856,22.726127 17.0699794,23 17.5201804,23 C18.0674613,23 18.5,22.6283324 18.5,21.7382452 L18.5,5.06148005 C18.5,3.02702368 17.5907938,2 15.7635593,2 L7.23644072,2 C5.40920619,2 4.5,3.02702368 4.5,5.06148005 L4.5,21.7382452 C4.5,22.6283324 4.93253867,23 5.47981958,23 Z M6.14186081,20.6232004 C6.01827834,20.7601369 5.9211804,20.721013 5.9211804,20.5351712 L5.9211804,5.09082645 C5.9211804,4.11272011 6.38902577,3.57476964 7.30705411,3.57476964 L15.6929278,3.57476964 C16.602134,3.57476964 17.0788015,4.11272011 17.0788015,5.09082645 L17.0788015,20.5351712 C17.0788015,20.721013 16.9817036,20.7503554 16.8581211,20.6232004 L11.9413608,15.233822 C11.7824716,15.0577637 11.6235825,15.0088664 11.5,15.0088664 C11.3675954,15.0088664 11.2175284,15.0577637 11.0586392,15.233822 L6.14186081,20.6232004 Z" id="sfsymbols:bookmark" fill="#000000" fill-rule="nonzero"></path>
    </g>
</svg>