<?xml version="1.0" encoding="UTF-8"?>
<svg width="24px" height="24px" viewBox="0 0 24 24" version="1.1" xmlns="http://www.w3.org/2000/svg" xmlns:xlink="http://www.w3.org/1999/xlink">
    <title>icon/iOS/call-made</title>
    <g id="icon/iOS/call-made" stroke="none" stroke-width="1" fill="none" fill-rule="evenodd">
        <rect id="ViewBox" fill-rule="nonzero" x="0" y="0" width="24" height="24"></rect>
        <path d="M15.0598731,3.50925166 L16.658189,3.50925166 L19.7496433,3.34037543 L17.9830949,4.95515042 L13.451048,9.51452783 C13.282794,9.68338245 13.1986777,9.87335471 13.1986777,10.0949926 C13.1986777,10.5066028 13.5351642,10.823216 13.9873158,10.823216 C14.1976279,10.823216 14.376391,10.7599063 14.5341143,10.6015997 L19.0556522,6.0422223 L20.6749864,4.29023671 L20.4962233,7.38259773 L20.4962233,8.95515907 C20.4962233,9.36676923 20.8116914,9.68338245 21.2217203,9.70450009 C21.6423015,9.72559611 22,9.38786525 22,8.95515907 L22,2.84433796 C22,2.28496919 21.7265038,2 21.1691746,2 L15.0598731,2 C14.6287397,2 14.2817441,2.35884849 14.302784,2.79155468 C14.3238022,3.20316484 14.6497795,3.50925166 15.0598731,3.50925166 Z M7.34172486,16.5963063 C10.3806119,19.6464454 14.0714536,22 17.0893008,22 C18.4457772,22 19.6339781,21.5250737 20.5908702,20.4696653 C21.1480702,19.8469739 21.4952165,19.1187418 21.4952165,18.4010622 C21.4952165,17.873359 21.2953705,17.3667627 20.8011823,17.0079164 L17.5730014,14.7071317 C17.0787917,14.3694008 16.6686981,14.2005246 16.2901536,14.2005246 C15.8169621,14.2005246 15.3858503,14.4749458 14.9021497,14.9498656 L14.1555698,15.6886586 C14.0399046,15.8047516 13.8926904,15.8575349 13.7559854,15.8575349 C13.5982621,15.8575349 13.4405388,15.7942036 13.3353828,15.7414419 C12.6834282,15.3931414 11.5688344,14.4327321 10.5278261,13.3984219 C9.49732695,12.3641333 8.54045644,11.2453958 8.20397,10.5910301 C8.15138121,10.4749371 8.08830481,10.3271785 8.08830481,10.1688719 C8.08830481,10.0316613 8.13036292,9.89447235 8.24602811,9.77837939 L8.99260807,9.00792073 C9.45526884,8.52243127 9.73918802,8.1002731 9.73918802,7.61478364 C9.73918802,7.23483913 9.56042489,6.82322897 9.21342931,6.3271915 L6.95264963,3.12928553 C6.58461423,2.62270005 6.06938619,2.40106215 5.50154784,2.40106215 C4.80755668,2.40106215 4.09252569,2.71767537 3.47212008,3.31927941 C2.45215163,4.30080634 2,5.51451918 2,6.85489461 C2,9.88390272 4.30281626,13.5567285 7.34172486,16.5963063 Z" id="sfsymbols:phone.fill.arrow.up.right" fill="#000000" fill-rule="nonzero"></path>
    </g>
</svg>