<?xml version="1.0" encoding="UTF-8"?>
<svg width="24px" height="24px" viewBox="0 0 24 24" version="1.1" xmlns="http://www.w3.org/2000/svg" xmlns:xlink="http://www.w3.org/1999/xlink">
    <title>icon/iOS/call</title>
    <g id="icon/iOS/call" stroke="none" stroke-width="1" fill="none" fill-rule="evenodd">
        <rect id="ViewBox" fill-rule="nonzero" x="0" y="0" width="24" height="24"></rect>
        <path d="M4.11055843,2.49980565 L7.11487186,2.49980565 C7.86781147,2.49254116 8.50954709,3.04445589 8.61492082,3.78997578 C8.74584663,4.78283096 8.9898174,5.76219935 9.34155138,6.70480242 C9.5480251,7.25408671 9.41623515,7.87203514 9.00447385,8.28843044 L7.46699777,9.82589545 L7.65535275,10.1571473 C9.12339433,12.7389289 11.2610711,14.8766057 13.8428527,16.3446473 L14.1741046,16.5330022 L15.7135534,14.9935534 C16.1279649,14.5837648 16.7459133,14.4519749 17.2940696,14.6580262 C18.2378006,15.0101826 19.217169,15.2541534 20.2146213,15.3857072 C20.9643259,15.4914927 21.5190464,16.1461919 21.5001538,16.9075975 L21.5,19.92 C21.5017185,20.3443883 21.3252901,20.7478983 21.0140625,21.0334281 C20.7028349,21.318958 20.2856521,21.4600456 19.8650041,21.4220295 C16.8745905,21.0970142 13.9934358,20.0720843 11.4620506,18.4304902 C9.10394199,16.9320246 7.10797545,14.936058 5.61200689,12.5818393 C3.96231688,10.0352661 2.93715422,7.14009991 2.61720437,4.12720021 C2.58007577,3.71565403 2.72017487,3.2996891 3.0040452,2.98871557 C3.28791035,2.67774772 3.68943543,2.5003717 4.11055843,2.49980565 Z" id="feather.phone-filled" fill="#000000" fill-rule="nonzero"></path>
    </g>
</svg>