<?xml version="1.0" encoding="UTF-8"?>
<svg width="24px" height="24px" viewBox="0 0 24 24" version="1.1" xmlns="http://www.w3.org/2000/svg" xmlns:xlink="http://www.w3.org/1999/xlink">
    <title>icon/iOS/call-received</title>
    <g id="icon/iOS/call-received" stroke="none" stroke-width="1" fill="none" fill-rule="evenodd">
        <rect id="ViewBox" fill-rule="nonzero" x="0" y="0" width="24" height="24"></rect>
        <path d="M14.0293739,10.823216 L20.1387186,10.823216 C20.5698304,10.823216 20.9168475,10.4749371 20.8958076,10.0422309 C20.8747894,9.63062079 20.5488121,9.32455557 20.1387186,9.32455557 L18.5404026,9.32455557 L15.4594574,9.4934102 L17.2260058,7.8786352 L21.7476083,3.31927941 C21.9263498,3.15040317 22,2.96043091 22,2.73879301 C22,2.32718285 21.6634059,2 21.2111681,2 C21.0009637,2 20.8222006,2.0738793 20.6644773,2.23220753 L16.1429394,6.79156332 L14.5236052,8.54354891 L14.7023468,5.45118789 L14.7023468,3.87862655 C14.7023468,3.46701639 14.3869002,3.15040317 13.9768067,3.12928553 C13.556204,3.10818951 13.1986777,3.44592037 13.1986777,3.87862655 L13.1986777,9.98944767 C13.1986777,10.5488164 13.4720878,10.823216 14.0293739,10.823216 Z M7.34172486,16.5963063 C10.3806119,19.6464454 14.0714536,22 17.0893008,22 C18.4457772,22 19.6339781,21.5250737 20.5908702,20.4696653 C21.1480702,19.8469739 21.4952165,19.1187418 21.4952165,18.4010622 C21.4952165,17.873359 21.2953705,17.3667627 20.8011823,17.0079164 L17.5730014,14.7071317 C17.0787917,14.3694008 16.6686981,14.2005246 16.2901536,14.2005246 C15.8169621,14.2005246 15.3858503,14.4749458 14.9021497,14.9498656 L14.1555698,15.6886586 C14.0399046,15.8047516 13.8926904,15.8575349 13.7559854,15.8575349 C13.5982621,15.8575349 13.4405388,15.7942036 13.3353828,15.7414419 C12.6834282,15.3931414 11.5688344,14.4327321 10.5278261,13.3984219 C9.49732695,12.3641333 8.54045644,11.2453958 8.20397,10.5910301 C8.15138121,10.4749371 8.08830481,10.3271785 8.08830481,10.1688719 C8.08830481,10.0316613 8.13036292,9.89447235 8.24602811,9.77837939 L8.99260807,9.00792073 C9.45526884,8.52243127 9.73918802,8.1002731 9.73918802,7.61478364 C9.73918802,7.23483913 9.56042489,6.82322897 9.21342931,6.3271915 L6.95264963,3.12928553 C6.58461423,2.62270005 6.06938619,2.40106215 5.50154784,2.40106215 C4.80755668,2.40106215 4.09252569,2.71767537 3.47212008,3.31927941 C2.45215163,4.30080634 2,5.51451918 2,6.85489461 C2,9.88390272 4.30281626,13.5567285 7.34172486,16.5963063 Z" id="sfsymbols:phone.fill.arrow.down.left" fill="#000000" fill-rule="nonzero"></path>
    </g>
</svg>