<?xml version="1.0" encoding="UTF-8"?>
<svg width="24px" height="24px" viewBox="0 0 24 24" version="1.1" xmlns="http://www.w3.org/2000/svg" xmlns:xlink="http://www.w3.org/1999/xlink">
    <title>icon/iOS/call-outline</title>
    <g id="icon/iOS/call-outline" stroke="none" stroke-width="1" fill="none" fill-rule="evenodd">
        <rect id="ViewBox" fill-rule="nonzero" x="0" y="0" width="24" height="24"></rect>
        <path d="M22.7499938,19.9169558 C22.7531368,20.6912803 22.4296848,21.4310485 21.8591009,21.95452 C21.288517,22.4779914 20.5236817,22.7366519 19.7389832,22.6656113 C16.5451989,22.3185806 13.4773442,21.2272348 10.7877589,19.4830103 C8.27865732,17.8886228 6.1513772,15.7613427 4.56054009,13.2577747 C2.80646982,10.5501107 1.71487618,7.46733653 1.37304371,4.24750033 C1.30356937,3.47869979 1.56041772,2.71609741 2.08084665,2.14597928 C2.6012333,1.57590748 3.33725819,1.25076425 4.11,1.24980476 L7.10269221,1.24980476 C8.48298527,1.23648745 9.6594374,2.24827679 9.85356079,3.62193188 C9.9727876,4.52591969 10.1938975,5.41351818 10.5120392,6.26610434 C10.8897999,7.27105751 10.648185,8.40396295 9.89033009,9.17033009 L9.03228013,10.02838 C10.2743449,12.0347554 11.9652475,13.7256577 13.9716233,14.9677219 L14.8326457,14.1067108 C15.596037,13.351815 16.7289425,13.1102001 17.7322036,13.4873271 C18.5864818,13.8061025 19.4740803,14.0272124 20.3847692,14.1473538 C21.7641068,14.3419446 22.7795326,15.5369506 22.75,16.9285786 L22.7499938,19.9169558 Z M21.25,16.92 L21.2502308,16.9013962 C21.2659745,16.2668916 20.8037074,15.7213089 20.1819319,15.6335608 C19.1657868,15.4995416 18.1680644,15.2509986 17.2061043,14.8920392 C16.7493074,14.7203299 16.2343504,14.8301548 15.8903301,15.1703301 L14.6203301,16.4403301 C14.3815953,16.6790648 14.012772,16.7288555 13.7192791,16.5619709 C11.0983796,15.0716862 8.92831375,12.9016204 7.43802912,10.2807209 C7.27114446,9.98722799 7.32093516,9.61840467 7.55966991,9.37966991 L8.82671077,8.11264566 C9.16984519,7.76564958 9.27967015,7.25069256 9.10732706,6.79220363 C8.74900137,5.83193559 8.50045843,4.83421322 8.36738124,3.82496368 C8.27956903,3.20369171 7.74477671,2.7437519 7.11,2.74984074 L4.11083764,2.74984074 C3.75987088,2.75029319 3.42524576,2.89811577 3.18868491,3.15726283 C2.9521263,3.41640743 2.83537705,3.76304487 2.86580655,4.10080032 C3.18160982,7.07465259 4.1934863,9.93229723 5.82301034,12.4477589 C7.2992951,14.7710011 9.26899892,16.7407049 11.5980759,18.2207353 C14.0966542,19.8410542 16.9404689,20.8527009 19.8875062,21.1730442 C20.2380461,21.2047243 20.5856985,21.0871514 20.8450548,20.8492098 C21.1044112,20.6112682 21.2514348,20.2750099 21.25,19.92 L21.25,16.92 Z" id="feather.phone" fill="#000000" fill-rule="nonzero"></path>
    </g>
</svg>