<?xml version="1.0" encoding="UTF-8"?>
<svg width="24px" height="24px" viewBox="0 0 24 24" version="1.1" xmlns="http://www.w3.org/2000/svg" xmlns:xlink="http://www.w3.org/1999/xlink">
    <title>icon/iOS/call-missed</title>
    <g id="icon/iOS/call-missed" stroke="none" stroke-width="1" fill="none" fill-rule="evenodd">
        <rect id="ViewBox" fill-rule="nonzero" x="0" y="0" width="24" height="24"></rect>
        <path d="M21.2368472,2 C21.0232977,2 20.8605835,2.07132007 20.7078696,2.22414282 L16.3234389,6.62555921 L14.7669863,8.31685474 L14.9297422,5.33163623 L14.9297422,3.81354956 C14.9297422,3.41619788 14.6347315,3.1105315 14.2379878,3.09016626 C13.8310772,3.06978016 13.4750225,3.39581177 13.4750225,3.81354956 L13.4750225,9.71268738 C13.4750225,10.2526792 13.7395113,10.527756 14.2786768,10.527756 L20.1891423,10.527756 C20.6061992,10.527756 20.9418364,10.1813591 20.9216274,9.76362134 C20.9012099,9.36626966 20.5857818,9.07080676 20.1891423,9.07080676 L18.6530238,9.07080676 L15.6621856,9.23381214 L17.3712479,7.67497413 L21.7456157,3.27355774 C21.9185387,3.1105315 22,2.92714002 22,2.71317982 C22,2.31582813 21.6641544,2 21.2368472,2 Z M16.7913934,22 C18.5716458,22 19.7415218,21.5211456 20.7689134,20.359651 C20.8503748,20.278142 20.9318361,20.1864463 21.0028803,20.1049373 C21.6133192,19.4223093 21.8981213,18.7498685 21.8981213,18.1079942 C21.8981213,17.3744241 21.4710224,16.691788 20.5655727,16.0601108 L17.6052148,14.0020324 C16.6896606,13.3703552 15.6214966,13.2990352 14.7669863,14.1446725 L13.9836661,14.9291932 C13.7496992,15.1635187 13.5462335,15.1737013 13.3224336,15.0310612 C12.7731011,14.6846643 11.6642482,13.7167521 10.9114499,12.9628001 C10.1179626,12.1783002 9.35499732,11.3020941 8.94808665,10.6602135 C8.81583183,10.4258672 8.82599886,10.2322931 9.05998656,9.99796765 L9.83311892,9.2134469 C10.6876501,8.35760608 10.6164391,7.27762244 9.98570781,6.37084766 L7.93079956,3.40601526 C7.30006823,2.49924048 6.61848088,2.08150269 5.88603751,2.07132007 C5.24513915,2.06111658 4.57373967,2.35660034 3.89215232,2.96789136 C3.80058648,3.04941492 3.71920851,3.12073498 3.63783055,3.19205505 C2.4781216,4.23126648 2,5.4029563 2,7.16555103 C2,10.0794703 3.79041944,13.6250668 7.07626841,16.9159308 C10.3417625,20.1864463 13.8921002,22 16.7913934,22 Z M16.8015605,20.4309689 C14.2074659,20.4819112 10.880928,18.4849681 8.24614439,15.8563333 C5.59102676,13.207329 3.50557572,9.76362134 3.55645258,7.16555103 C3.57678665,6.04481605 3.97353028,5.07692468 4.76701755,4.38411011 C4.83822848,4.32297266 4.88910533,4.27201783 4.96031626,4.22108386 C5.26549405,3.9561897 5.59102676,3.81354956 5.88603751,3.81354956 C6.18104827,3.81354956 6.44555791,3.92562097 6.63883579,4.23126648 L8.61238691,7.19611975 C8.82599886,7.51196875 8.84635377,7.86856909 8.53098811,8.18439722 L7.63576797,9.08098938 C6.93384655,9.78400744 6.98470257,10.6398274 7.49336695,11.3224594 C8.07322142,12.1069801 9.08032064,13.2480803 9.86364086,14.0224185 C10.6367732,14.8069183 11.8677139,15.9072881 12.6611804,16.4982139 C13.3427677,17.007637 14.1972989,17.0585709 14.8992203,16.3555737 L15.7944404,15.4589816 C16.1098061,15.1431534 16.4556729,15.1635187 16.7812056,15.3672963 L19.7415218,17.3438575 C20.0467205,17.5476267 20.1586204,17.8023403 20.1586204,18.1079942 C20.1586204,18.4034613 20.0161985,18.7294929 19.7516889,19.0351467 C19.6906658,19.1064668 19.6499768,19.1574087 19.5889329,19.2287279 C18.8971785,20.0234305 17.9307475,20.4105933 16.8015605,20.4309689 Z" id="sfsymbols:phone.arrow.down.left" fill="#000000" fill-rule="nonzero"></path>
    </g>
</svg>