<?xml version="1.0" encoding="UTF-8"?>
<svg width="24px" height="24px" viewBox="0 0 24 24" version="1.1" xmlns="http://www.w3.org/2000/svg" xmlns:xlink="http://www.w3.org/1999/xlink">
    <title>icon/iOS/camera-outline</title>
    <g id="icon/iOS/camera-outline" stroke="none" stroke-width="1" fill="none" fill-rule="evenodd">
        <rect id="ViewBox" fill-rule="nonzero" x="0" y="0" width="24" height="24"></rect>
        <path d="M3.939576,21 L20.060424,21 C22.0170098,21 23,20.0183542 23,18.0739394 L23,8.19140695 C23,6.24699013 22.0170098,5.27478172 20.060424,5.27478172 L17.8791328,5.27478172 C17.1489745,5.27478172 16.914932,5.12374948 16.503004,4.65180515 L15.7447192,3.80230923 C15.2766341,3.28315886 14.7991735,3 13.8349151,3 L10.0995906,3 C9.13533219,3 8.65789075,3.28315886 8.18980564,3.80230923 L7.44085797,4.65180515 C7.02894921,5.11431601 6.79490665,5.27478172 6.06469082,5.27478172 L3.939576,5.27478172 C1.98297105,5.27478172 1,6.24699013 1,8.19140695 L1,18.0739394 C1,20.0183542 1.98297105,21 3.939576,21 Z M3.95830784,19.4803369 C3.0408503,19.4803369 2.50723251,18.980074 2.50723251,17.9984271 L2.50723251,8.27634687 C2.50723251,7.29470499 3.0408503,6.79444091 3.95830784,6.79444091 L6.43915507,6.79444091 C7.28170443,6.79444091 7.73107687,6.6339752 8.19916197,6.10539136 L8.92937781,5.27478172 C9.47235193,4.67069143 9.74383899,4.51965919 10.5676757,4.51965919 L13.36683,4.51965919 C14.200023,4.51965919 14.4715101,4.67069143 15.0051279,5.27478172 L15.7447192,6.10539136 C16.2034288,6.6339752 16.6621576,6.79444091 17.5047261,6.79444091 L20.0418264,6.79444091 C20.9686402,6.79444091 21.492825,7.29470499 21.492825,8.27634687 L21.492825,17.9984271 C21.492825,18.980074 20.9686402,19.4803369 20.0418264,19.4803369 L3.95830784,19.4803369 Z M12.0000192,17.9795486 C14.836618,17.9795486 17.11153,15.685896 17.11153,12.8164575 C17.11153,9.9470383 14.836618,7.65338964 12.0000192,7.65338964 C9.17277669,7.65338964 6.89788384,9.9470383 6.89788384,12.8164575 C6.89788384,15.685896 9.17277669,17.9795486 12.0000192,17.9795486 Z M18.7311727,10.5133754 C19.3677102,10.5133754 19.891895,9.994225 19.891895,9.35238149 C19.891895,8.7011045 19.3677102,8.18195414 18.7311727,8.18195414 C18.0944435,8.18195414 17.5702588,8.7011045 17.5702588,9.35238149 C17.5702588,9.994225 18.0944435,10.5133754 18.7311727,10.5133754 Z M12.0000192,16.5448448 C9.96852521,16.5448448 8.3114955,14.8835868 8.3114955,12.8164575 C8.3114955,10.7493475 9.95916888,9.08808957 12.0000192,9.08808957 C14.0408886,9.08808957 15.6978992,10.7493475 15.6978992,12.8164575 C15.6978992,14.8835868 14.0408886,16.5448448 12.0000192,16.5448448 Z" id="sfsymbols:camera" fill="#000000" fill-rule="nonzero"></path>
    </g>
</svg>