<?xml version="1.0" encoding="UTF-8"?>
<svg width="24px" height="24px" viewBox="0 0 24 24" version="1.1" xmlns="http://www.w3.org/2000/svg" xmlns:xlink="http://www.w3.org/1999/xlink">
    <title>icon/iOS/camera-retake</title>
    <g id="icon/iOS/camera-retake" stroke="none" stroke-width="1" fill="none" fill-rule="evenodd">
        <rect id="ViewBox" fill-rule="nonzero" x="0" y="0" width="24" height="24"></rect>
        <path d="M13.8349151,3 C14.7991735,3 15.2766341,3.28315886 15.7447192,3.80230923 L16.503004,4.65180515 C16.914932,5.12374948 17.1489745,5.27478172 17.8791328,5.27478172 L20.060424,5.27478172 C22.0170098,5.27478172 23,6.24699013 23,8.19140695 L23,18.0739394 C23,20.0183542 22.0170098,21 20.060424,21 L3.939576,21 C1.98297105,21 1,20.0183542 1,18.0739394 L1,8.19140695 C1,6.24699013 1.98297105,5.27478172 3.939576,5.27478172 L6.06469082,5.27478172 C6.79490665,5.27478172 7.02894921,5.11431601 7.44085797,4.65180515 L8.18980564,3.80230923 C8.65789075,3.28315886 9.13533219,3 10.0995906,3 Z M11.7225444,7.09648605 C11.3761684,7.09648605 11.123394,7.37021144 11.123394,7.71000981 C11.123394,7.879909 11.1795703,8.04037471 11.2825475,8.15363439 L11.956587,8.83323113 C11.8910543,8.82379766 11.7880771,8.81436418 11.7038318,8.81436418 C9.55998511,8.81436418 7.64084385,10.6643883 7.64084385,13.0146764 C7.64084385,15.4121513 9.53189694,17.3377012 11.881698,17.3377012 C14.231499,17.3377012 16.1225521,15.4121513 16.1225521,13.0429962 C16.1225521,12.693745 15.8229769,12.4011527 15.4672445,12.4011527 C15.1114929,12.4011527 14.8119176,12.693745 14.8119176,13.0429962 C14.8119176,14.6948013 13.5106395,16.0162416 11.881698,16.0162416 C10.2527564,16.0162416 8.95147831,14.6948013 8.95147831,13.0429962 C8.95147831,11.410058 10.2527564,10.1074847 11.881698,10.1074847 C12.003407,10.1074847 12.1344724,10.1074847 12.2280741,10.126371 L11.3012793,11.0419399 C11.1889267,11.1552189 11.123394,11.3062318 11.123394,11.4855644 C11.123394,11.8159293 11.3855247,12.0896547 11.7225444,12.0896547 C11.881698,12.0896547 12.031476,12.0141483 12.1438287,11.9008886 L13.988081,10.0508645 C14.2221235,9.82432582 14.2034108,9.39013472 13.988081,9.16359603 L12.1625414,7.28525219 C12.0502079,7.16255903 11.8910543,7.09648605 11.7225444,7.09648605 Z" id="xabber:camera-retake" fill="#000000" fill-rule="nonzero"></path>
    </g>
</svg>