<?xml version="1.0" encoding="UTF-8"?>
<svg width="24px" height="24px" viewBox="0 0 24 24" version="1.1" xmlns="http://www.w3.org/2000/svg" xmlns:xlink="http://www.w3.org/1999/xlink">
    <title>icon/iOS/camera-iris</title>
    <g id="icon/iOS/camera-iris" stroke="none" stroke-width="1" fill="none" fill-rule="evenodd">
        <rect id="ViewBox" fill-rule="nonzero" x="0" y="0" width="24" height="24"></rect>
        <path d="M12,1.25 C12.2601799,1.25 12.5182009,1.25924304 12.7737527,1.27741866 L13.2021786,1.31441102 L13.2021786,1.31441102 L13.2489821,1.32096709 C16.9914522,1.75461053 20.1485858,4.11004861 21.7069979,7.37501289 L21.858807,7.70309076 L21.858807,7.70309076 L21.8746729,7.74262437 C22.4377839,9.04862815 22.75,10.4878531 22.75,12 C22.75,14.3633865 21.9873297,16.5486419 20.6946786,18.3230765 C20.6706719,18.3640571 20.6421929,18.4031302 20.6098121,18.4394147 C18.6483264,21.0563062 15.5219549,22.75 12,22.75 C11.7398201,22.75 11.4817991,22.740757 11.2262473,22.7225813 L10.7978214,22.685589 L10.7978214,22.685589 L10.7510179,22.6790329 C7.00854778,22.2453895 3.85141421,19.8899514 2.29300207,16.6249871 L2.14119303,16.2969092 L2.14119303,16.2969092 L2.1253271,16.2573756 C1.5622161,14.9513719 1.25,13.5121469 1.25,12 C1.25,9.63661346 2.0126703,7.45135812 3.30532139,5.67692348 C3.32932807,5.63594285 3.35780711,5.59686981 3.39018787,5.56058526 C5.35167359,2.94369381 8.4780451,1.25 12,1.25 Z M16.62,13.5 L12.1457524,21.248875 C14.9648801,21.2053267 17.478005,19.9006212 19.1458235,17.8740621 L16.62,13.5 Z M13.01,16.75 L4.06165087,16.7509033 C5.43049715,19.0332139 7.75571183,20.6763395 10.4832688,21.126254 L13.01,16.75 Z M20.6629524,8.75 L15.609,8.75 L20.0842054,16.4987908 C20.7860859,15.240227 21.2025886,13.8007784 21.2461932,12.2679652 L21.25,12 C21.25,10.8563378 21.0424467,9.76115228 20.6629524,8.75 Z M15.753,11.999 L13.877,8.75 L10.122,8.75 L8.246,11.999 L10.123,15.25 L13.876,15.25 L15.753,11.999 Z M3.91579456,7.5012092 C3.17315493,8.83285953 2.75,10.3670132 2.75,12 C2.75,13.1440388 2.95768997,14.2395689 3.33742249,15.2509431 L8.39,15.25 L3.91579456,7.5012092 Z M11.8527913,2.75114765 C9.03425441,2.7951227 6.52170783,4.09972774 4.85417646,6.1259379 L7.38,10.499 L11.8527913,2.75114765 Z M13.5167312,2.873746 L10.989,7.25 L19.9389487,7.25009648 C18.6228267,5.05506714 16.4221554,3.45109804 13.8296776,2.93093212 L13.5167312,2.873746 Z" id="xabber:iris" fill="#000000" fill-rule="nonzero"></path>
    </g>
</svg>