<?xml version="1.0" encoding="UTF-8"?>
<svg width="24px" height="24px" viewBox="0 0 24 24" version="1.1" xmlns="http://www.w3.org/2000/svg" xmlns:xlink="http://www.w3.org/1999/xlink">
    <title>icon/iOS/cancel</title>
    <g id="icon/iOS/cancel" stroke="none" stroke-width="1" fill="none" fill-rule="evenodd">
        <rect id="ViewBox" fill-rule="nonzero" x="0" y="0" width="24" height="24"></rect>
        <path d="M4.92197326,4.93589111 C8.79024885,1.06761553 15.2097063,1.06757066 19.0710678,4.92893219 C22.9393563,8.79722072 22.9393129,15.2028228 19.0710373,19.0710983 C15.2097043,22.9324313 8.79722072,22.9393563 4.92893219,19.0710678 C1.06757066,15.2097063 1.06062608,8.7972383 4.92197326,4.93589111 Z M18.4536932,6.7234993 L6.73222785,18.4463805 C10.0158192,21.1464557 14.8194228,20.9656855 17.8925236,17.8925847 C20.9658668,14.8192415 21.1586978,10.0028478 18.4536932,6.7234993 Z M6.10048693,6.11440478 C3.02059953,9.19429218 2.85810835,14.012334 5.5725628,17.2906547 L17.2960743,5.56714272 L17.2960743,5.56714272 C14.0114531,2.85972201 9.18061671,3.034275 6.10048693,6.11440478 Z" id="xabber:cancel" fill="#000000" fill-rule="nonzero"></path>
    </g>
</svg>