<?xml version="1.0" encoding="UTF-8"?>
<svg width="24px" height="24px" viewBox="0 0 24 24" version="1.1" xmlns="http://www.w3.org/2000/svg" xmlns:xlink="http://www.w3.org/1999/xlink">
    <title>icon/iOS/channel</title>
    <g id="icon/iOS/channel" stroke="none" stroke-width="1" fill="none" fill-rule="evenodd">
        <rect id="ViewBox" fill-rule="nonzero" x="0" y="0" width="24" height="24"></rect>
        <path d="M6.5,15 C7.88071187,15 9,16.1192881 9,17.5 C9,18.8807119 7.88071187,20 6.5,20 C5.11928813,20 4,18.8807119 4,17.5 C4,16.1192881 5.11928813,15 6.5,15 Z M7.32715551,3.02319717 C14.9504217,3.45191644 21,9.76948086 21,17.5 C21,17.6673129 20.9971662,17.833964 20.991544,17.9999078 L19.4924209,17.94813 C19.4974601,17.7993737 19.5,17.6499835 19.5,17.5 C19.5,10.5694383 14.0766292,4.90557274 7.24232305,4.52083884 L7.32715551,3.02319717 Z M7.09887912,7.01679258 C12.6192203,7.32719704 17,11.9020056 17,17.5 C17,17.621023 16.9979525,17.7415677 16.9938903,17.8616015 L15.4947756,17.8095742 C15.4982492,17.7068104 15.5,17.6036096 15.5,17.5 C15.5,12.7018757 11.7452911,8.78071058 7.01378828,8.5144197 L7.09887912,7.01679258 Z M6.87102854,11.0104119 C10.2882442,11.2027129 13,14.0346742 13,17.5 L12.9953226,17.7231972 L11.4970937,17.6721003 C11.499026,17.6149714 11.5,17.5575994 11.5,17.5 C11.5,14.8343364 9.41398962,12.6558866 6.78532263,12.5080045 L6.87102854,11.0104119 Z" id="xabber:channel" fill="#000000" fill-rule="nonzero"></path>
    </g>
</svg>