<?xml version="1.0" encoding="UTF-8"?>
<svg width="24px" height="24px" viewBox="0 0 24 24" version="1.1" xmlns="http://www.w3.org/2000/svg" xmlns:xlink="http://www.w3.org/1999/xlink">
    <title>icon/iOS/channel-add</title>
    <g id="icon/iOS/channel-add" stroke="none" stroke-width="1" fill="none" fill-rule="evenodd">
        <rect id="ViewBox" fill-rule="nonzero" x="0" y="0" width="24" height="24"></rect>
        <path d="M9.5,15 C10.8807119,15 12,16.1192881 12,17.5 C12,18.8807119 10.8807119,20 9.5,20 C8.11928813,20 7,18.8807119 7,17.5 C7,16.1192881 8.11928813,15 9.5,15 Z M10.3271555,3.02319717 C17.9504217,3.45191644 24,9.76948086 24,17.5 C24,17.6673129 23.9971662,17.833964 23.991544,17.9999078 L22.4924209,17.94813 C22.4974601,17.7993737 22.5,17.6499835 22.5,17.5 C22.5,10.5694383 17.0766292,4.90557274 10.2423231,4.52083884 L10.3271555,3.02319717 Z M10.0988791,7.01679258 C15.6192203,7.32719704 20,11.9020056 20,17.5 C20,17.621023 19.9979525,17.7415677 19.9938903,17.8616015 L18.4947756,17.8095742 C18.4982492,17.7068104 18.5,17.6036096 18.5,17.5 C18.5,12.7018757 14.7452911,8.78071058 10.0137883,8.5144197 L10.0988791,7.01679258 Z M9.87102854,11.0104119 C13.2882442,11.2027129 16,14.0346742 16,17.5 L15.9953226,17.7231972 L14.4970937,17.6721003 C14.499026,17.6149714 14.5,17.5575994 14.5,17.5 C14.5,14.8343364 12.4139896,12.6558866 9.78532263,12.5080045 L9.87102854,11.0104119 Z M3.75,8 C4.16421356,8 4.5,8.33578644 4.5,8.75 L4.5,11 L6.75,11 C7.16421356,11 7.5,11.3357864 7.5,11.75 C7.5,12.1642136 7.16421356,12.5 6.75,12.5 L4.5,12.5 L4.5,14.75 C4.5,15.1642136 4.16421356,15.5 3.75,15.5 C3.33578644,15.5 3,15.1642136 3,14.75 L3,12.5 L0.75,12.5 C0.335786438,12.5 0,12.1642136 0,11.75 C0,11.3357864 0.335786438,11 0.75,11 L3,11 L3,8.75 C3,8.33578644 3.33578644,8 3.75,8 Z" id="xabber:channel-add" fill="#000000" fill-rule="nonzero"></path>
    </g>
</svg>