<?xml version="1.0" encoding="UTF-8"?>
<svg width="24px" height="24px" viewBox="0 0 24 24" version="1.1" xmlns="http://www.w3.org/2000/svg" xmlns:xlink="http://www.w3.org/1999/xlink">
    <title>icon/iOS/chat-outline</title>
    <g id="icon/iOS/chat-outline" stroke="none" stroke-width="1" fill="none" fill-rule="evenodd">
        <rect id="ViewBox" fill-rule="nonzero" x="0" y="0" width="24" height="24"></rect>
        <path d="M12,1.5 C18.3180973,1.5 23.5,6.16371244 23.5,12 C23.5,17.8362876 18.3180973,22.5 12,22.5 C10.4762083,22.5 8.99198209,22.228853 7.61373427,21.7096997 L3.57384116,23.3824499 C2.33917888,23.8936717 1.10274556,22.6569818 1.61422363,21.4224256 L2.87091804,18.3891386 C1.35074928,16.5809826 0.5,14.3529283 0.5,12 C0.5,6.16371244 5.68190271,1.5 12,1.5 Z M12,3 C6.4771525,3 2,7.02943725 2,12 C2,14.3424491 2.99433127,16.4758836 4.62384664,18.0770709 L3,21.9965544 L7.60894859,20.0881822 C8.93446898,20.6721714 10.4246965,21 12,21 C17.5228475,21 22,16.9705627 22,12 C22,7.02943725 17.5228475,3 12,3 Z M14.25,14.25 C14.6642136,14.25 15,14.5857864 15,15 C15,15.4142136 14.6642136,15.75 14.25,15.75 L7.75,15.75 C7.33578644,15.75 7,15.4142136 7,15 C7,14.5857864 7.33578644,14.25 7.75,14.25 L14.25,14.25 Z M16.25,11.25 C16.6642136,11.25 17,11.5857864 17,12 C17,12.4142136 16.6642136,12.75 16.25,12.75 L7.75,12.75 C7.33578644,12.75 7,12.4142136 7,12 C7,11.5857864 7.33578644,11.25 7.75,11.25 L16.25,11.25 Z M16.25,8.25 C16.6642136,8.25 17,8.58578644 17,9 C17,9.41421356 16.6642136,9.75 16.25,9.75 L7.75,9.75 C7.33578644,9.75 7,9.41421356 7,9 C7,8.58578644 7.33578644,8.25 7.75,8.25 L16.25,8.25 Z" id="xabber.chat-outline" fill="#000000" fill-rule="nonzero"></path>
    </g>
</svg>