<?xml version="1.0" encoding="UTF-8"?>
<svg width="24px" height="24px" viewBox="0 0 24 24" version="1.1" xmlns="http://www.w3.org/2000/svg" xmlns:xlink="http://www.w3.org/1999/xlink">
    <title>icon/iOS/chat-alert-outline</title>
    <g id="icon/iOS/chat-alert-outline" stroke="none" stroke-width="1" fill="none" fill-rule="evenodd">
        <rect id="ViewBox" fill-rule="nonzero" x="0" y="0" width="24" height="24"></rect>
        <path d="M12,1.5 C18.3180973,1.5 23.5,6.16371244 23.5,12 C23.5,17.8362876 18.3180973,22.5 12,22.5 C10.4762083,22.5 8.99198209,22.228853 7.61373427,21.7096997 L3.57384116,23.3824499 C2.33917888,23.8936717 1.10274556,22.6569818 1.61422363,21.4224256 L2.87091804,18.3891386 C1.35074928,16.5809826 0.5,14.3529283 0.5,12 C0.5,6.16371244 5.68190271,1.5 12,1.5 Z M12,3 C6.4771525,3 2,7.02943725 2,12 C2,14.3424491 2.99433127,16.4758836 4.62384664,18.0770709 L3,21.9965544 L7.60894859,20.0881822 C8.93446898,20.6721714 10.4246965,21 12,21 C17.5228475,21 22,16.9705627 22,12 C22,7.02943725 17.5228475,3 12,3 Z M12,15 C12.5522847,15 13,15.4477153 13,16 C13,16.5522847 12.5522847,17 12,17 C11.4477153,17 11,16.5522847 11,16 C11,15.4477153 11.4477153,15 12,15 Z M12,7 C12.5522847,7 13,7.44771525 13,8 L13,13 C13,13.5522847 12.5522847,14 12,14 C11.4477153,14 11,13.5522847 11,13 L11,8 C11,7.44771525 11.4477153,7 12,7 Z" id="xabber.chat-alert-outline" fill="#000000" fill-rule="nonzero"></path>
    </g>
</svg>