<?xml version="1.0" encoding="UTF-8"?>
<svg width="24px" height="24px" viewBox="0 0 24 24" version="1.1" xmlns="http://www.w3.org/2000/svg" xmlns:xlink="http://www.w3.org/1999/xlink">
    <title>icon/iOS/chat</title>
    <g id="icon/iOS/chat" stroke="none" stroke-width="1" fill="none" fill-rule="evenodd">
        <rect id="ViewBox" fill-rule="nonzero" x="0" y="0" width="24" height="24"></rect>
        <path d="M12,2.25 C17.9204724,2.25 22.75,6.59657485 22.75,12 C22.75,17.4034252 17.9204724,21.75 12,21.75 C10.3530615,21.75 8.75716588,21.4136197 7.30656486,20.7745233 L7.607,20.9 L3.28692058,22.6895021 C2.73303736,22.9188419 2.1784413,22.4446405 2.25500465,21.8989012 L2.27519627,21.8019803 L2.30711182,21.70949 L3.743,18.242 L3.64206818,18.1338675 C2.1822339,16.4999486 1.33335999,14.4744795 1.25582514,12.3235475 L1.25582514,12.3235475 L1.25,12 C1.25,6.59657485 6.07952761,2.25 12,2.25 Z M14.25,14.25 L7.75,14.25 C7.33578644,14.25 7,14.5857864 7,15 C7,15.4142136 7.33578644,15.75 7.75,15.75 L7.75,15.75 L14.25,15.75 C14.6642136,15.75 15,15.4142136 15,15 C15,14.5857864 14.6642136,14.25 14.25,14.25 L14.25,14.25 Z M16.25,11.25 L7.75,11.25 C7.33578644,11.25 7,11.5857864 7,12 C7,12.4142136 7.33578644,12.75 7.75,12.75 L7.75,12.75 L16.25,12.75 C16.6642136,12.75 17,12.4142136 17,12 C17,11.5857864 16.6642136,11.25 16.25,11.25 L16.25,11.25 Z M16.25,8.25 L7.75,8.25 C7.33578644,8.25 7,8.58578644 7,9 C7,9.41421356 7.33578644,9.75 7.75,9.75 L7.75,9.75 L16.25,9.75 C16.6642136,9.75 17,9.41421356 17,9 C17,8.58578644 16.6642136,8.25 16.25,8.25 L16.25,8.25 Z" id="xabber.chat" fill="#000000" fill-rule="nonzero"></path>
    </g>
</svg>