<?xml version="1.0" encoding="UTF-8"?>
<svg width="24px" height="24px" viewBox="0 0 24 24" version="1.1" xmlns="http://www.w3.org/2000/svg" xmlns:xlink="http://www.w3.org/1999/xlink">
    <title>icon/iOS/check-all</title>
    <g id="icon/iOS/check-all" stroke="none" stroke-width="1" fill="none" fill-rule="evenodd">
        <rect id="ViewBox" fill-rule="nonzero" x="0" y="0" width="24" height="24"></rect>
        <path d="M2.44621165,12.3970518 L2.53033009,12.4696699 L8.056,18 L7.53033009,18.5303301 C7.26406352,18.7965966 6.84739984,18.8208027 6.55378835,18.6029482 L6.46966991,18.5303301 L1.46966991,13.5303301 C1.1767767,13.2374369 1.1767767,12.7625631 1.46966991,12.4696699 C1.73593648,12.2034034 2.15260016,12.1791973 2.44621165,12.3970518 Z M22.5303301,6.46966991 C22.7965966,6.73593648 22.8208027,7.15260016 22.6029482,7.44621165 L22.5303301,7.53033009 L11.5303301,18.5303301 C11.2640635,18.7965966 10.8473998,18.8208027 10.5537883,18.6029482 L10.4696699,18.5303301 L5.46966991,13.5303301 C5.1767767,13.2374369 5.1767767,12.7625631 5.46966991,12.4696699 C5.73593648,12.2034034 6.15260016,12.1791973 6.44621165,12.3970518 L6.53033009,12.4696699 L11,16.939 L21.4696699,6.46966991 C21.7625631,6.1767767 22.2374369,6.1767767 22.5303301,6.46966991 Z M18.5303301,6.46966991 C18.7965966,6.73593648 18.8208027,7.15260016 18.6029482,7.44621165 L11,15.051 L9.944,13.995 L17.4696699,6.46966991 C17.7625631,6.1767767 18.2374369,6.1767767 18.5303301,6.46966991 Z" id="xabber:check-all" fill="#000000" fill-rule="nonzero"></path>
    </g>
</svg>