<?xml version="1.0" encoding="UTF-8"?>
<svg width="24px" height="24px" viewBox="0 0 24 24" version="1.1" xmlns="http://www.w3.org/2000/svg" xmlns:xlink="http://www.w3.org/1999/xlink">
    <title>icon/iOS/check-circle</title>
    <g id="icon/iOS/check-circle" stroke="none" stroke-width="1" fill="none" fill-rule="evenodd">
        <rect id="ViewBox" fill-rule="nonzero" x="0" y="0" width="24" height="24"></rect>
        <path d="M11.9901586,2 C17.4607264,2 22,6.53921015 22,12 C22,17.4705861 17.4705246,22 11.9999568,22 C6.53920735,22 2,17.4705861 2,12 C2,6.53921015 6.52938903,2 11.9901586,2 Z M18.2889633,7.37932546 C17.9913569,7.0661293 17.5243028,7.04008441 17.1985139,7.30115229 L17.1133983,7.3794711 L10.1003,14.762 L6.88903251,11.3812816 L6.80390815,11.3029733 C6.47809012,11.0419458 6.01103886,11.0680485 5.71346749,11.3812816 C5.41589611,11.6945146 5.3910985,12.1861475 5.63907464,12.5291138 L5.71346749,12.6187184 L9.51346749,16.6187184 L9.5985991,16.6970325 C9.89482295,16.9343457 10.3077815,16.9343201 10.6039788,16.6969703 L10.6891017,16.6186456 L18.2891017,8.61676232 L18.3634845,8.52714851 C18.6114223,8.18415145 18.5865697,7.69252162 18.2889633,7.37932546 Z" id="xabber:check-circle" fill="#000000" fill-rule="nonzero"></path>
    </g>
</svg>