<?xml version="1.0" encoding="UTF-8"?>
<svg width="24px" height="24px" viewBox="0 0 24 24" version="1.1" xmlns="http://www.w3.org/2000/svg" xmlns:xlink="http://www.w3.org/1999/xlink">
    <title>icon/iOS/clock</title>
    <g id="icon/iOS/clock" stroke="none" stroke-width="1" fill="none" fill-rule="evenodd">
        <rect id="ViewBox" fill-rule="nonzero" x="0" y="0" width="24" height="24"></rect>
        <path d="M11.9901586,2 C17.4607264,2 22,6.53921015 22,12 C22,17.4705861 17.4705246,22 11.9999568,22 C6.53920735,22 2,17.4705861 2,12 C2,6.53921015 6.52938903,2 11.9901586,2 Z M11.9849694,3.5 C7.26220401,3.5 3.5,7.28998841 3.5,12 C3.5,16.7200058 7.27220409,20.5 11.9949695,20.5 C16.7177349,20.5 20.5100212,16.7200058 20.5000198,12 C20.489939,7.28998841 16.7077349,3.5 11.9849694,3.5 Z M12.30126,5.26446 C12.6474964,5.26446 12.9291707,5.5065757 12.9775228,5.83674249 L12.98486,5.93828 L12.98486,12.52032 C12.98486,12.8754291 12.7346617,13.1498274 12.4030253,13.1967833 L12.30126,13.2039 L7.2036,13.2039 C6.81298,13.2039 6.52,12.91094 6.52,12.52032 C6.52,12.1740836 6.76213223,11.9004754 7.09963486,11.8535899 L7.2036,11.84648 L11.62744,11.84648 L11.62744,5.93828 C11.62744,5.55742 11.9204,5.26446 12.30126,5.26446 Z" id="sfsymbols:clock" fill="#000000" fill-rule="nonzero"></path>
    </g>
</svg>