<?xml version="1.0" encoding="UTF-8"?>
<svg width="24px" height="24px" viewBox="0 0 24 24" version="1.1" xmlns="http://www.w3.org/2000/svg" xmlns:xlink="http://www.w3.org/1999/xlink">
    <title>icon/iOS/contact-add</title>
    <g id="icon/iOS/contact-add" stroke="none" stroke-width="1" fill="none" fill-rule="evenodd">
        <rect id="ViewBox" fill-rule="nonzero" x="0" y="0" width="24" height="24"></rect>
        <path d="M15.7954064,12.7680664 C19.9758192,12.7680664 22.5825651,15.7380414 22.5825651,17.8904338 C22.5825651,18.6245821 22.1306179,19 20.8635657,19 L10.7271975,19 C9.45204642,19 9,18.6245821 9,17.8904338 C9,15.7380414 11.6068286,12.7680664 15.7954064,12.7680664 Z M5.75,8 C6.16421356,8 6.5,8.33578644 6.5,8.75 L6.5,11 L8.75,11 C9.16421356,11 9.5,11.3357864 9.5,11.75 C9.5,12.1642136 9.16421356,12.5 8.75,12.5 L6.5,12.5 L6.5,14.75 C6.5,15.1642136 6.16421356,15.5 5.75,15.5 C5.33578644,15.5 5,15.1642136 5,14.75 L5,12.5 L2.75,12.5 C2.33578644,12.5 2,12.1642136 2,11.75 C2,11.3357864 2.33578644,11 2.75,11 L5,11 L5,8.75 C5,8.33578644 5.33578644,8 5.75,8 Z M15.7873075,4 C17.5143397,4 19.0235136,5.56005675 19.0155436,7.60399627 C19.0155436,9.67296626 17.522422,11.2747462 15.7873075,11.2747462 C14.0602754,11.2747462 12.5671173,9.67296626 12.5671173,7.58732067 C12.5671173,5.52668847 14.0682089,4 15.7873075,4 Z" id="xabber:contact-add" fill="#000000" fill-rule="nonzero"></path>
    </g>
</svg>