<?xml version="1.0" encoding="UTF-8"?>
<svg width="24px" height="24px" viewBox="0 0 24 24" version="1.1" xmlns="http://www.w3.org/2000/svg" xmlns:xlink="http://www.w3.org/1999/xlink">
    <title>icon/iOS/contacts</title>
    <g id="icon/iOS/contacts" stroke="none" stroke-width="1" fill="none" fill-rule="evenodd">
        <rect id="ViewBox" fill-rule="nonzero" x="0" y="0" width="24" height="24"></rect>
        <path d="M13,14.25 C15.6233526,14.25 17.75,16.3766474 17.75,19 L17.75,19 L17.75,21 C17.75,21.4142136 17.4142136,21.75 17,21.75 C16.5857864,21.75 16.25,21.4142136 16.25,21 L16.25,21 L16.25,19 C16.25,17.2050746 14.7949254,15.75 13,15.75 L13,15.75 L5,15.75 C3.20507456,15.75 1.75,17.2050746 1.75,19 L1.75,19 L1.75,21 C1.75,21.4142136 1.41421356,21.75 1,21.75 C0.585786438,21.75 0.25,21.4142136 0.25,21 L0.25,21 L0.25,19 C0.25,16.3766474 2.37664744,14.25 5,14.25 L5,14.25 Z M19.2738156,14.9425002 C19.3773688,14.5414396 19.7864392,14.3002623 20.1874998,14.4038156 C22.2834358,14.9449833 23.7483851,16.8347679 23.75,19 L23.75,19 L23.75,21 C23.75,21.4142136 23.4142136,21.75 23,21.75 C22.5857864,21.75 22.25,21.4142136 22.25,21 L22.25,21 L22.2500002,19.0005594 C22.2488954,17.5194676 21.2465617,16.2264571 19.8125002,15.8561844 C19.4114396,15.7526312 19.1702623,15.3435608 19.2738156,14.9425002 Z M9,2.25 C11.6233526,2.25 13.75,4.37664744 13.75,7 C13.75,9.62335256 11.6233526,11.75 9,11.75 C6.37664744,11.75 4.25,9.62335256 4.25,7 C4.25,4.37664744 6.37664744,2.25 9,2.25 Z M15.2734375,2.94397061 C15.3761787,2.54270122 15.78476,2.30069631 16.1860294,2.4034375 C18.2878032,2.94157662 19.7578433,4.83542699 19.7578433,7.005 C19.7578433,9.17457301 18.2878032,11.0684234 16.1860294,11.6065625 C15.78476,11.7093037 15.3761787,11.4672988 15.2734375,11.0660294 C15.1706963,10.66476 15.4127012,10.2561787 15.8139706,10.1534375 C17.2520264,9.78523705 18.2578433,8.48944469 18.2578433,7.005 C18.2578433,5.52055531 17.2520264,4.22476295 15.8139706,3.8565625 C15.4127012,3.75382131 15.1706963,3.34524 15.2734375,2.94397061 Z M9,3.75 C7.20507456,3.75 5.75,5.20507456 5.75,7 C5.75,8.79492544 7.20507456,10.25 9,10.25 C10.7949254,10.25 12.25,8.79492544 12.25,7 C12.25,5.20507456 10.7949254,3.75 9,3.75 Z" id="feather.users" fill="#000000" fill-rule="nonzero"></path>
    </g>
</svg>