<?xml version="1.0" encoding="UTF-8"?>
<svg width="24px" height="24px" viewBox="0 0 24 24" version="1.1" xmlns="http://www.w3.org/2000/svg" xmlns:xlink="http://www.w3.org/1999/xlink">
    <title>icon/iOS/copy</title>
    <g id="icon/iOS/copy" stroke="none" stroke-width="1" fill="none" fill-rule="evenodd">
        <rect id="ViewBox" fill-rule="nonzero" x="0" y="0" width="24" height="24"></rect>
        <path d="M5.66985266,23 L14.0325289,23 C15.8152998,23 16.6507191,22.090901 16.6507191,20.2813738 L16.6507191,18.6796486 L18.3301297,18.6796486 C20.1129712,18.6796486 21,17.7705585 21,15.9610348 L21,8.71429078 C21,7.64934881 20.7932794,6.97402321 20.1473658,6.30735063 L15.7980849,1.85714539 C15.1779761,1.22510262 14.4631497,1 13.5416204,1 L10.0191336,1 C8.24497015,1 7.34928095,1.90909897 7.34928095,3.71860842 L7.34928095,5.32033903 L5.66985266,5.32033903 C3.89568921,5.32033903 3,6.229438 3,8.03896518 L3,20.2813738 C3,22.0995541 3.88708173,23 5.66985266,23 Z M16.6507191,13.303033 C16.6507191,12.1948082 16.5301438,11.7099554 15.8411399,11 L11.0870782,6.14285461 C10.441147,5.46752901 9.89855837,5.32033903 8.92534894,5.32033903 L8.7358786,5.32033903 L8.7358786,3.73593219 C8.7358786,2.88743982 9.1923395,2.39393402 10.0880287,2.39393402 L13.7224833,2.39393402 L13.7224833,6.92206963 C13.7224833,7.91775199 14.2047843,8.40258704 15.1952087,8.40258704 L19.6134553,8.40258704 L19.6134553,15.943711 C19.6134553,16.8008618 19.1569767,17.285711 18.2612346,17.285711 L16.6507191,17.285711 L16.6507191,13.303033 Z M15.3932865,7.14718999 C15.091866,7.14718999 14.9712908,7.01732377 14.9712908,6.71429078 L14.9712908,2.67099022 L19.337769,7.14718999 L15.3932865,7.14718999 Z M5.73014028,21.6060482 C4.84305856,21.6060482 4.38659766,21.1212132 4.38659766,20.2554148 L4.38659766,8.05627122 C4.38659766,7.20779658 4.84305856,6.71429078 5.73874776,6.71429078 L8.7358786,6.71429078 L8.7358786,11.7359322 C8.7358786,12.8268332 9.28707467,13.3636396 10.3550193,13.3636396 L15.2641038,13.3636396 L15.2641038,20.2554148 C15.2641038,21.1212132 14.8076429,21.6060482 13.9119537,21.6060482 L5.73014028,21.6060482 Z M10.5186495,12.0562712 C10.1741564,12.0562712 10.0363662,11.917752 10.0363662,11.5800892 L10.0363662,6.98267623 L14.9971308,12.0562712 L10.5186495,12.0562712 Z" id="sfsymbols:doc.on.doc" fill="#000000" fill-rule="nonzero"></path>
    </g>
</svg>