<?xml version="1.0" encoding="UTF-8"?>
<svg width="24px" height="24px" viewBox="0 0 24 24" version="1.1" xmlns="http://www.w3.org/2000/svg" xmlns:xlink="http://www.w3.org/1999/xlink">
    <title>icon/iOS/description</title>
    <g id="icon/iOS/description" stroke="none" stroke-width="1" fill="none" fill-rule="evenodd">
        <rect id="ViewBox" fill-rule="nonzero" x="0" y="0" width="24" height="24"></rect>
        <path d="M6.94886696,22.5 L17.051133,22.5 C19.0202133,22.5 20,21.4813282 20,19.4342297 L20,4.57555343 C20,2.53825003 19.0202133,1.5 17.051133,1.5 L6.94886696,1.5 C4.98929366,1.5 4,2.53825003 4,4.57555343 L4,19.4342297 C4,21.4813282 4.97978665,22.5 6.94886696,22.5 Z M7.01545497,20.9230347 C6.03566832,20.9230347 5.53150474,20.3843233 5.53150474,19.4048442 L5.53150474,4.6049409 C5.53150474,3.63525493 6.03566832,3.07695331 7.02496198,3.07695331 L16.9750185,3.07695331 C17.9643317,3.07695331 18.4684953,3.62546579 18.4684953,4.6049409 L18.4684953,19.4048442 C18.4684953,20.3843233 17.9643317,20.9230347 16.984545,20.9230347 L7.01545497,20.9230347 Z M8.39476969,7.17117851 L15.6147373,7.17117851 C15.9476774,7.17117851 16.1949959,6.89692227 16.1949959,6.55410197 C16.1949959,6.22107081 15.9476774,5.9664129 15.6147373,5.9664129 L8.39476969,5.9664129 C8.05232263,5.9664129 7.8049846,6.22107081 7.8049846,6.55410197 C7.8049846,6.89692227 8.05232263,7.17117851 8.39476969,7.17117851 Z M8.39476969,10.5895522 L15.6147373,10.5895522 C15.9476774,10.5895522 16.1949959,10.315296 16.1949959,9.9724757 C16.1949959,9.63944454 15.9476774,9.38478663 15.6147373,9.38478663 L8.39476969,9.38478663 C8.05232263,9.38478663 7.8049846,9.63944454 7.8049846,9.9724757 C7.8049846,10.315296 8.05232263,10.5895522 8.39476969,10.5895522 Z M8.39476969,14.007926 L11.8097527,14.007926 C12.1521998,14.007926 12.3995183,13.7434589 12.3995183,13.4104478 C12.3995183,13.0676275 12.1521998,12.8031604 11.8097527,12.8031604 L8.39476969,12.8031604 C8.05232263,12.8031604 7.8049846,13.0676275 7.8049846,13.4104478 C7.8049846,13.7434589 8.05232263,14.007926 8.39476969,14.007926 Z" id="sfsymbols:doc.plaintext" fill="#000000" fill-rule="nonzero"></path>
    </g>
</svg>