<?xml version="1.0" encoding="UTF-8"?>
<svg width="24px" height="24px" viewBox="0 0 24 24" version="1.1" xmlns="http://www.w3.org/2000/svg" xmlns:xlink="http://www.w3.org/1999/xlink">
    <title>icon/iOS/device-desktop</title>
    <g id="icon/iOS/device-desktop" stroke="none" stroke-width="1" fill="none" fill-rule="evenodd">
        <path d="M3.5638852,18 C2.67236646,18 2.34908022,17.9071744 2.0231543,17.7328673 C1.69722837,17.5585602 1.4414398,17.3027716 1.2671327,16.9768457 C1.10623385,16.675991 1.014763,16.3773855 1.00164263,15.6320228 L1,5.5638852 C1,4.67236646 1.09282561,4.34908022 1.2671327,4.0231543 C1.4414398,3.69722837 1.69722837,3.4414398 2.0231543,3.2671327 C2.324009,3.10623385 2.6226145,3.014763 3.36797723,3.00164263 L20.4361148,3 C21.3276335,3 21.6509198,3.09282561 21.9768457,3.2671327 C22.3027716,3.4414398 22.5585602,3.69722837 22.7328673,4.0231543 C22.9071744,4.34908022 23,4.67236646 23,5.5638852 L23,15.4361148 C23,16.3276335 22.9071744,16.6509198 22.7328673,16.9768457 C22.5585602,17.3027716 22.3027716,17.5585602 21.9768457,17.7328673 C21.6509198,17.9071744 21.3276335,18 20.4361148,18 L14,18 L14.5,20.25 L16.125,20.25 C16.6082492,20.25 17,20.6417508 17,21.125 C17,21.6082492 16.6082492,22 16.125,22 L7.875,22 C7.39175084,22 7,21.6082492 7,21.125 C7,20.6417508 7.39175084,20.25 7.875,20.25 L9.5,20.25 L10,18 L3.5638852,18 Z M20.5849071,4.50060537 L3.41509294,4.50060537 L3.15609689,4.50660198 C2.90513471,4.5175952 2.81779752,4.5431934 2.73055258,4.5898525 C2.66602937,4.62435989 2.62435989,4.66602937 2.5898525,4.73055258 L2.55486618,4.80917073 C2.51971487,4.90981799 2.5037799,5.05728114 2.50060537,5.41509294 L2.5,15.4361148 C2.5,16.0224844 2.5238632,16.1460581 2.5898525,16.2694474 C2.62435989,16.3339706 2.66602937,16.3756401 2.73055258,16.4101475 L2.80065465,16.4420736 C2.91417681,16.4840255 3.08412829,16.5 3.5638852,16.5 L20.4361148,16.5 C21.0224844,16.5 21.1460581,16.4761368 21.2694474,16.4101475 C21.3339706,16.3756401 21.3756401,16.3339706 21.4101475,16.2694474 L21.4420736,16.1993453 C21.4840255,16.0858232 21.5,15.9158717 21.5,15.4361148 L21.5,5.5638852 C21.5,4.97751564 21.4761368,4.85394185 21.4101475,4.73055258 C21.3756401,4.66602937 21.3339706,4.62435989 21.2694474,4.5898525 C21.1684926,4.53586125 21.0674142,4.51007013 20.7128362,4.50247637 L20.5849071,4.50060537 Z" id="xabber:desktop" fill="#000000" fill-rule="nonzero"></path>
    </g>
</svg>