<?xml version="1.0" encoding="UTF-8"?>
<svg width="24px" height="24px" viewBox="0 0 24 24" version="1.1" xmlns="http://www.w3.org/2000/svg" xmlns:xlink="http://www.w3.org/1999/xlink">
    <title>icon/iOS/device-desktop</title>
    <g id="icon/iOS/device-desktop" stroke="none" stroke-width="1" fill="none" fill-rule="evenodd">
        <rect id="ViewBox" fill-rule="nonzero" x="0" y="0" width="24" height="24"></rect>
        <path d="M3.37164815,18.6526092 L9.14851494,18.6526092 L8.89934522,20.3875973 L7.63508863,20.3875973 C7.21058916,20.3875973 6.85068785,20.74591 6.85068785,21.1890857 C6.85068785,21.6322576 7.21058916,22 7.63508863,22 L16.364987,22 C16.7894864,22 17.1493877,21.6322576 17.1493877,21.1890857 C17.1493877,20.74591 16.7894864,20.3875973 16.364987,20.3875973 L15.1007115,20.3875973 L14.8515607,18.6526092 L20.628503,18.6526092 C22.2064141,18.6526092 23,17.8794077 23,16.2292845 L23,5.42333825 C23,3.77319956 22.2064141,3 20.628503,3 L3.37164815,3 C1.79362369,3 1,3.77319956 1,5.42333825 L1,16.2292845 C1,17.8794077 1.79362369,18.6526092 3.37164815,18.6526092 Z M2.88255053,14.5037357 C2.60571209,14.5037357 2.48573868,14.3905723 2.48573868,14.0982593 L2.48573868,5.4516291 C2.48573868,4.78214978 2.76257712,4.51812759 3.39933577,4.51812759 L20.6007209,4.51812759 C21.2281811,4.51812759 21.514318,4.78214978 21.514318,5.4516291 L21.514318,14.0982593 C21.514318,14.3905723 21.3850461,14.5037357 21.1083589,14.5037357 L2.88255053,14.5037357 Z M12.0000378,17.7191115 C11.5294049,17.7191115 11.141816,17.3230879 11.141816,16.8421821 C11.141816,16.3801626 11.5294049,15.9746861 12.0000378,15.9746861 C12.4614478,15.9746861 12.8490367,16.3801626 12.8490367,16.8421821 C12.8490367,17.3230879 12.4614478,17.7191115 12.0000378,17.7191115 Z" id="sfsymbols:desktopcomputer" fill="#000000" fill-rule="nonzero"></path>
    </g>
</svg>