<?xml version="1.0" encoding="UTF-8"?>
<svg width="24px" height="24px" viewBox="0 0 24 24" version="1.1" xmlns="http://www.w3.org/2000/svg" xmlns:xlink="http://www.w3.org/1999/xlink">
    <title>icon/iOS/discover-outline</title>
    <g id="icon/iOS/discover-outline" stroke="none" stroke-width="1" fill="none" fill-rule="evenodd">
        <g id="discover/original-vector">
            <rect id="Bounds" x="0" y="0" width="24" height="24"></rect>
            <circle id="Icon-Oval" stroke="#007AFF" stroke-width="1.5" stroke-linecap="round" stroke-linejoin="round" cx="12" cy="12" r="10"></circle>
            <polygon id="Icon-Path" stroke="#007AFF" stroke-width="1.5" stroke-linecap="round" stroke-linejoin="round" points="16.24 7.76 14.12 14.12 7.76 16.24 9.88 9.88 16.24 7.76"></polygon>
        </g>
        <rect id="ViewBox" fill-rule="nonzero" x="0" y="0" width="24" height="24"></rect>
        <path d="M12,1.25 C17.9370611,1.25 22.75,6.06293894 22.75,12 C22.75,17.9370611 17.9370611,22.75 12,22.75 C6.06293894,22.75 1.25,17.9370611 1.25,12 C1.25,6.06293894 6.06293894,1.25 12,1.25 Z M12,2.75 C6.89136606,2.75 2.75,6.89136606 2.75,12 C2.75,17.1086339 6.89136606,21.25 12,21.25 C17.1086339,21.25 21.25,17.1086339 21.25,12 C21.25,6.89136606 17.1086339,2.75 12,2.75 Z M16.9515125,7.99717082 L14.8315125,14.3571708 C14.7568612,14.5811246 14.5811246,14.7568612 14.3571708,14.8315125 L7.99717082,16.9515125 C7.4108523,17.146952 6.85304802,16.5891477 7.04848753,16.0028292 L9.16848753,9.64282918 C9.24313878,9.41887543 9.41887543,9.24313878 9.64282918,9.16848753 L16.0028292,7.04848753 C16.5891477,6.85304802 17.146952,7.4108523 16.9515125,7.99717082 Z M15.0541459,8.94585412 L10.4729271,10.4729271 L8.94585412,15.0541459 L13.5270729,13.5270729 L15.0541459,8.94585412 Z" id="feather.compass" fill="#000000" fill-rule="nonzero"></path>
    </g>
</svg>