<?xml version="1.0" encoding="UTF-8"?>
<svg width="24px" height="24px" viewBox="0 0 24 24" version="1.1" xmlns="http://www.w3.org/2000/svg" xmlns:xlink="http://www.w3.org/1999/xlink">
    <title>icon/iOS/download</title>
    <g id="icon/iOS/download" stroke="none" stroke-width="1" fill="none" fill-rule="evenodd">
        <rect id="ViewBox" fill-rule="nonzero" x="0" y="0" width="24" height="24"></rect>
        <path d="M21.25,14 C21.6296958,14 21.943491,14.2821539 21.9931534,14.6482294 L22,14.75 L22,19.25 C22,20.7125318 20.8582954,21.9084043 19.4175223,21.9949812 L19.25,22 L4.75,22 C3.28746816,22 2.09159572,20.8582954 2.00501879,19.4175223 L2,19.25 L2,14.75 C2,14.3357864 2.33578644,14 2.75,14 C3.12969577,14 3.44349096,14.2821539 3.49315338,14.6482294 L3.5,14.75 L3.5,19.25 C3.5,19.8972087 3.99187466,20.4295339 4.62219476,20.4935464 L4.75,20.5 L19.25,20.5 C19.8972087,20.5 20.4295339,20.0081253 20.4935464,19.3778052 L20.5,19.25 L20.5,14.75 C20.5,14.3357864 20.8357864,14 21.25,14 Z M12,2.25 C12.3796958,2.25 12.693491,2.53215388 12.7431534,2.89822944 L12.75,3 L12.75,13.189 L16.4696699,9.46966991 C16.7359365,9.20340335 17.1526002,9.1791973 17.4462117,9.39705176 L17.5303301,9.46966991 C17.7965966,9.73593648 17.8208027,10.1526002 17.6029482,10.4462117 L17.5303301,10.5303301 L12.5303301,15.5303301 C12.4932768,15.5673834 12.4533111,15.5997491 12.4111698,15.6274273 L12.3217704,15.6776949 L12.3217704,15.6776949 L12.2181555,15.7177252 L12.2181555,15.7177252 C12.1496769,15.7386468 12.0761643,15.75 12,15.75 L11.9429426,15.7478621 L11.9429426,15.7478621 L11.8521073,15.7353557 L11.8521073,15.7353557 L11.8151075,15.7270278 L11.8151075,15.7270278 L11.7092386,15.6915476 L11.7092386,15.6915476 L11.640349,15.658365 L11.640349,15.658365 L11.5537883,15.6029482 L11.5537883,15.6029482 C11.5205706,15.5778288 11.4942698,15.5549299 11.4696699,15.5303301 L6.46966991,10.5303301 C6.1767767,10.2374369 6.1767767,9.76256313 6.46966991,9.46966991 C6.73593648,9.20340335 7.15260016,9.1791973 7.44621165,9.39705176 L7.53033009,9.46966991 L11.25,13.189 L11.25,3 C11.25,2.58578644 11.5857864,2.25 12,2.25 Z" id="xabber:download" fill="#000000" fill-rule="nonzero"></path>
    </g>
</svg>