<?xml version="1.0" encoding="UTF-8"?>
<svg width="24px" height="24px" viewBox="0 0 24 24" version="1.1" xmlns="http://www.w3.org/2000/svg" xmlns:xlink="http://www.w3.org/1999/xlink">
    <title>icon/iOS/email</title>
    <g id="icon/iOS/email" stroke="none" stroke-width="1" fill="none" fill-rule="evenodd">
        <rect id="ViewBox" fill-rule="nonzero" x="0" y="0" width="24" height="24"></rect>
        <path d="M4.12860811,20.5 L20.1701319,20.5 C21.9637965,20.5 23,19.4738819 23,17.4413814 L23,6.54875369 C23,4.52611206 21.9537977,3.5 19.8713919,3.5 L3.82970482,3.5 C2.0362239,3.5 1,4.51625123 1,6.54875369 L1,17.4413814 C1,19.4837488 2.0461819,20.5 4.12860811,20.5 Z M10.8142836,12.4982678 L3.29164626,5.14770791 C3.51086513,5.05892005 3.769916,5.0095755 4.06881929,5.0095755 L19.9311807,5.0095755 C20.2399196,5.0095755 20.5090713,5.05892005 20.7282289,5.16744977 L13.2255075,12.4982678 C12.7970686,12.9225259 12.4084821,13.1099826 12.0198956,13.1099826 C11.6213511,13.1099826 11.2327646,12.9225259 10.8142836,12.4982678 Z M2.52445164,17.4413814 L2.52445164,6.54875369 C2.52445164,6.47968748 2.52445164,6.50929017 2.52445164,6.45008479 L8.2535877,12.0148044 L2.53440964,17.6091105 C2.52445164,17.5597781 2.52445164,17.5005808 2.52445164,17.4413814 Z M21.4754871,6.55861451 L21.4754871,17.4512483 C21.4754871,17.4907139 21.4754871,17.5400463 21.4754871,17.5795118 L15.7861831,12.0148044 L21.4754871,6.47968748 C21.4754871,6.55861451 21.4754871,6.55861451 21.4754871,6.55861451 Z M4.06881929,18.9904229 C3.78983201,18.9904229 3.54073913,18.9509569 3.34147708,18.862159 L9.29979001,13.0310556 L9.94742739,13.6625123 C10.6448956,14.3432933 11.3124694,14.629419 12.0198956,14.629419 C12.7173434,14.629419 13.3948956,14.3432933 14.0923434,13.6625123 L14.7400012,13.0310556 L20.6884377,18.8522921 C20.469076,18.9509569 20.220126,18.9904229 19.9311807,18.9904229 L4.06881929,18.9904229 Z" id="sfsymbols:envelope" fill="#000000" fill-rule="nonzero"></path>
    </g>
</svg>