<?xml version="1.0" encoding="UTF-8"?>
<svg width="24px" height="24px" viewBox="0 0 24 24" version="1.1" xmlns="http://www.w3.org/2000/svg" xmlns:xlink="http://www.w3.org/1999/xlink">
    <title>icon/iOS/emoticon</title>
    <g id="icon/iOS/emoticon" stroke="none" stroke-width="1" fill="none" fill-rule="evenodd">
        <rect id="ViewBox" fill-rule="nonzero" x="0" y="0" width="24" height="24"></rect>
        <path d="M11.9999568,22 C17.4705246,22 22,17.4705861 22,12 C22,6.53921015 17.4607264,2 11.9901586,2 C6.52938903,2 2,6.53921015 2,12 C2,17.4705861 6.53920735,22 11.9999568,22 Z M11.9999568,20.33333 C7.37251918,20.33333 3.67645603,16.6274548 3.67645603,12 C3.67645603,7.38234343 7.36272095,3.66667001 11.9901586,3.66667001 C16.6175962,3.66667001 20.3234576,7.38234343 20.3333155,12 C20.3431344,16.6274548 16.6273945,20.33333 11.9999568,20.33333 Z M9.15684215,11.1078352 C9.7352593,11.1078352 10.2156539,10.598044 10.2156539,9.88234845 C10.2156539,9.16667302 9.7352593,8.6568617 9.15684215,8.6568617 C8.57840491,8.6568617 8.10782858,9.16667302 8.10782858,9.88234845 C8.10782858,10.598044 8.57840491,11.1078352 9.15684215,11.1078352 Z M14.8823046,11.1078352 C15.4607218,11.1078352 15.9411164,10.598044 15.9411164,9.88234845 C15.9411164,9.16667302 15.4607218,8.6568617 14.8823046,8.6568617 C14.3136857,8.6568617 13.8332911,9.16667302 13.8332911,9.88234845 C13.8332911,10.598044 14.3136857,11.1078352 14.8823046,11.1078352 Z M11.9999568,16.7254777 C14.3724952,16.7254777 15.8430738,15.0490094 15.8430738,14.4117603 C15.8430738,14.2843025 15.7450513,14.2254928 15.6470087,14.3039191 C14.9411342,14.901955 13.7254502,15.4901927 11.9999568,15.4901927 C10.2744835,15.4901927 9.02938477,14.8627419 8.35292502,14.3137174 C8.24508419,14.2254928 8.15683984,14.2843025 8.15683984,14.4117603 C8.15683984,15.0490094 9.62741848,16.7254777 11.9999568,16.7254777 Z" id="sfsymbols:smiley" fill="#000000" fill-rule="nonzero"></path>
    </g>
</svg>