<?xml version="1.0" encoding="UTF-8"?>
<svg width="24px" height="24px" viewBox="0 0 24 24" version="1.1" xmlns="http://www.w3.org/2000/svg" xmlns:xlink="http://www.w3.org/1999/xlink">
    <title>icon/iOS/eye-off</title>
    <g id="icon/iOS/eye-off" stroke="none" stroke-width="1" fill="none" fill-rule="evenodd">
        <rect id="ViewBox" fill-rule="nonzero" x="0" y="0" width="24" height="24"></rect>
        <path d="M4.82008066,4.68477355 C5.03741809,4.46304529 5.38516686,4.44087246 5.62859858,4.61825507 L5.7055569,4.68477355 L19.1648253,18.4077015 C19.4063443,18.6622857 19.4223357,19.0318446 19.1648253,19.3028542 C18.9401879,19.5467629 18.6047156,19.5578491 18.3638001,19.3720354 L18.2872788,19.3028542 L4.82008066,5.57993129 C4.58663978,5.34177422 4.58663978,4.92293062 4.82008066,4.68477355 Z M4.92992279,7.2613522 L5.92846328,8.27884666 C3.77909309,9.69867993 2.40871683,11.4506778 2.40871683,11.9999983 C2.40871683,13.1516958 6.69923174,17.7094524 12.004044,17.7094524 C12.9693641,17.7094524 13.9021358,17.5571435 14.7820006,17.3011755 L15.8313413,18.3714289 C14.6608411,18.7622374 13.3772971,19 12.004044,19 C5.58031462,19 1,13.6662862 1,12 C1,11.049575 2.47828284,8.92282986 4.92992279,7.2613522 Z M12.004044,5 C18.5001631,5 23,10.3255638 23,12 C23,12.9493672 21.5419056,15.0892381 19.0842665,16.7548536 L18.1035987,15.7545697 C20.2316639,14.3695195 21.5912766,12.6471077 21.5912766,12 C21.5912766,11.028011 17.2846549,6.29055762 12.004044,6.29055762 C11.0396655,6.29055762 10.1088083,6.44712452 9.23115594,6.70917246 L8.18043393,5.63789258 C9.35431833,5.24153149 10.6377444,5 12.004044,5 Z M7.82140104,10.2092107 L13.7268142,16.2263994 C13.1965237,16.4500891 12.6148989,16.5740966 12.004044,16.5740966 C9.48446508,16.5740966 7.48811686,14.4912501 7.47197865,11.9999983 C7.46999617,11.3618115 7.59439239,10.757217 7.82140104,10.2092107 Z M12.004044,7.42591176 C14.5075162,7.42591176 16.5200371,9.4434065 16.5200371,11.9999983 C16.5200371,12.6265974 16.3927206,13.2273598 16.1622984,13.7756424 L10.2680458,7.76601817 C10.80199,7.54648004 11.3881042,7.42591176 12.004044,7.42591176 Z" id="sfsymbols:eye.slash" fill="#000000" fill-rule="nonzero"></path>
    </g>
</svg>