<?xml version="1.0" encoding="UTF-8"?>
<svg width="24px" height="24px" viewBox="0 0 24 24" version="1.1" xmlns="http://www.w3.org/2000/svg" xmlns:xlink="http://www.w3.org/1999/xlink">
    <title>icon/iOS/eye</title>
    <g id="icon/iOS/eye" stroke="none" stroke-width="1" fill="none" fill-rule="evenodd">
        <rect id="ViewBox" fill-rule="nonzero" x="0" y="0" width="24" height="24"></rect>
        <path d="M12.004044,19 C18.5082412,19 23,13.6662862 23,12 C23,10.3255638 18.5001631,5 12.004044,5 C5.58837624,5 1,10.3255638 1,12 C1,13.6662862 5.58031462,19 12.004044,19 Z M12.004044,17.7094524 C6.69923174,17.7094524 2.40871683,13.1516958 2.40871683,11.9999983 C2.40871683,11.028011 6.69923174,6.29055762 12.004044,6.29055762 C17.2846549,6.29055762 21.5912766,11.028011 21.5912766,11.9999983 C21.5912766,13.1516958 17.2846549,17.7094524 12.004044,17.7094524 Z M12.004044,16.5740966 C14.5075162,16.5740966 16.5200371,14.4912501 16.5200371,11.9999983 C16.5200371,9.4434065 14.5075162,7.42591176 12.004044,7.42591176 C9.48446508,7.42591176 7.46396496,9.4434065 7.47200254,11.9999983 C7.48811686,14.4912501 9.48446508,16.5740966 12.004044,16.5740966 Z M12.004044,13.5192628 C11.1668716,13.5192628 10.4906843,12.8331423 10.4906843,11.9999983 C10.4906843,11.1586911 11.1668716,10.4807506 12.004044,10.4807506 C12.8331713,10.4807506 13.5093421,11.1586911 13.5093421,11.9999983 C13.5093421,12.8331423 12.8331713,13.5192628 12.004044,13.5192628 Z" id="sfsymbols:eye" fill="#000000" fill-rule="nonzero"></path>
    </g>
</svg>