<?xml version="1.0" encoding="UTF-8"?>
<svg width="24px" height="24px" viewBox="0 0 24 24" version="1.1" xmlns="http://www.w3.org/2000/svg" xmlns:xlink="http://www.w3.org/1999/xlink">
    <title>icon/iOS/file</title>
    <g id="icon/iOS/file" stroke="none" stroke-width="1" fill="none" fill-rule="evenodd">
        <rect id="ViewBox" fill-rule="nonzero" x="0" y="0" width="24" height="24"></rect>
        <path d="M6.94886696,22.5 L17.051133,22.5 C19.0202133,22.5 20,21.4715391 20,19.4342297 L20,10.5405664 L13.1129529,10.5405664 C11.8953547,10.5405664 11.3150961,9.94308824 11.3150961,8.6893569 L11.3150961,1.5 L6.94886696,1.5 C4.98929366,1.5 4,2.53825003 4,4.57555343 L4,19.4342297 C4,21.4813282 4.97978665,22.5 6.94886696,22.5 Z M13.1414934,9.19869278 L19.885838,9.19869278 C19.8287765,8.79709755 19.5529174,8.40531152 19.0963084,7.9253631 L13.854928,2.43048931 C13.4078455,1.96035009 13.0178244,1.67630472 12.6183158,1.60774066 L12.6183158,8.66977863 C12.6183158,9.02238806 12.7895394,9.19869278 13.1414934,9.19869278 Z" id="sfsymbols:doc.fill" fill="#000000" fill-rule="nonzero"></path>
    </g>
</svg>