<?xml version="1.0" encoding="UTF-8"?>
<svg width="24px" height="24px" viewBox="0 0 24 24" version="1.1" xmlns="http://www.w3.org/2000/svg" xmlns:xlink="http://www.w3.org/1999/xlink">
    <title>icon/iOS/file-document-outline</title>
    <g id="icon/iOS/file-document-outline" stroke="none" stroke-width="1" fill="none" fill-rule="evenodd">
        <rect id="ViewBox" fill-rule="nonzero" x="0" y="0" width="24" height="24"></rect>
        <path d="M6.94886696,22 L17.051133,22 C19.0202133,22 20,21.0205134 20,19.0802187 L20,10.6100633 C20,9.40671045 19.857317,8.88431761 19.0963084,8.11939343 L13.854928,2.8861803 C13.1319864,2.15856716 12.5326943,2 11.4672862,2 L6.94886696,2 C4.98929366,2 4,2.98880955 4,4.92909851 L4,19.0802187 C4,21.0298364 4.97978665,22 6.94886696,22 Z M7.01545497,20.4981282 C6.03566832,20.4981282 5.53150474,19.9850699 5.53150474,19.0522326 L5.53150474,4.95708657 C5.53150474,4.03357612 6.03566832,3.5018603 7.02496198,3.5018603 L11.2580151,3.5018603 L11.2580151,8.92162866 C11.2580151,10.0970125 11.8573072,10.6753624 13.0463649,10.6753624 L18.4684953,10.6753624 L18.4684953,19.0522326 C18.4684953,19.9850699 17.9643317,20.4981282 16.9750185,20.4981282 L7.01545497,20.4981282 Z M13.2175884,9.26678925 C12.8370939,9.26678925 12.6944109,9.11752597 12.6944109,8.74439642 L12.6944109,3.79104478 L18.1736027,9.26678925 L13.2175884,9.26678925 Z M15.5005948,13.2406734 L8.28060768,13.2406734 C7.93816062,13.2406734 7.68133507,13.4925278 7.68133507,13.8097003 C7.68133507,14.1361958 7.93816062,14.3880501 8.28060768,14.3880501 L15.5005948,14.3880501 C15.8335348,14.3880501 16.0808534,14.1361958 16.0808534,13.8097003 C16.0808534,13.4925278 15.8335348,13.2406734 15.5005948,13.2406734 Z M15.5005948,16.4962675 L8.28060768,16.4962675 C7.93816062,16.4962675 7.68133507,16.7574639 7.68133507,17.0839499 C7.68133507,17.4011147 7.93816062,17.6436518 8.28060768,17.6436518 L15.5005948,17.6436518 C15.8335348,17.6436518 16.0808534,17.4011147 16.0808534,17.0839499 C16.0808534,16.7574639 15.8335348,16.4962675 15.5005948,16.4962675 Z" id="sfsymbols:doc.text" fill="#000000" fill-rule="nonzero"></path>
    </g>
</svg>