<?xml version="1.0" encoding="UTF-8"?>
<svg width="24px" height="24px" viewBox="0 0 24 24" version="1.1" xmlns="http://www.w3.org/2000/svg" xmlns:xlink="http://www.w3.org/1999/xlink">
    <title>icon/iOS/file-video</title>
    <g id="icon/iOS/file-video" stroke="none" stroke-width="1" fill="none" fill-rule="evenodd">
        <rect id="ViewBox" fill-rule="nonzero" x="0" y="0" width="24" height="24"></rect>
        <path d="M3.67142641,20.5 L20.3286304,20.5 C22.1126986,20.5 23,19.6227601 23,17.8682804 L23,6.13173662 C23,4.37724554 22.1126986,3.5 20.3286304,3.5 L3.67142641,3.5 C1.89663439,3.5 1,4.37724554 1,6.13173662 L1,17.8682804 C1,19.6227601 1.89663439,20.5 3.67142641,20.5 Z M3.68992211,19.0133102 C2.9134435,19.0133102 2.48823173,18.6070088 2.48823173,17.7944066 L2.48823173,6.20560475 C2.48823173,5.39299856 2.9134435,4.98670492 3.68992211,4.98670492 L20.3100779,4.98670492 C21.0866322,4.98670492 21.5118251,5.39299856 21.5118251,6.20560475 L21.5118251,17.7944066 C21.5118251,18.6070088 21.0866322,19.0133102 20.3100779,19.0133102 L3.68992211,19.0133102 Z M3.72689457,7.12901315 C3.72689457,7.33215997 3.88402283,7.49837273 4.12437226,7.49837273 L4.99327257,7.49837273 C5.22436469,7.49837273 5.38151187,7.33215997 5.38151187,7.12901315 L5.38151187,6.35334102 C5.38151187,6.10403134 5.22436469,5.94704738 4.99327257,5.94704738 L4.12437226,5.94704738 C3.87478444,5.94704738 3.72689457,6.10403134 3.72689457,6.35334102 L3.72689457,7.12901315 Z M18.6185828,7.12901315 C18.6185828,7.33215997 18.775711,7.49837273 19.0159469,7.49837273 L19.8848851,7.49837273 C20.116034,7.49837273 20.2731622,7.33215997 20.2731622,7.12901315 L20.2731622,6.35334102 C20.2731622,6.10403134 20.116034,5.94704738 19.8848851,5.94704738 L19.0159469,5.94704738 C18.7664348,5.94704738 18.6185828,6.10403134 18.6185828,6.35334102 L18.6185828,7.12901315 Z M6.72185373,10.8688285 C6.72185373,11.1458435 6.8882393,11.3120562 7.17479959,11.3120562 L16.8252193,11.3120562 C17.1025412,11.3120562 17.2781652,11.1458435 17.2781652,10.8688285 L17.2781652,6.43645685 C17.2781652,6.15942299 17.1025412,5.99321023 16.8252193,5.99321023 L7.17479959,5.99321023 C6.8882393,5.99321023 6.72185373,6.15942299 6.72185373,6.43645685 L6.72185373,10.8688285 Z M3.72689457,9.76073086 C3.72689457,9.97312538 3.88402283,10.1393381 4.12437226,10.1393381 L4.99327257,10.1393381 C5.22436469,10.1393381 5.38151187,9.97312538 5.38151187,9.76073086 L5.38151187,8.98507764 C5.38151187,8.74497784 5.22436469,8.58799388 4.99327257,8.58799388 L4.12437226,8.58799388 C3.87478444,8.58799388 3.72689457,8.74497784 3.72689457,8.98507764 L3.72689457,9.76073086 Z M18.6185828,9.76073086 C18.6185828,9.97312538 18.775711,10.1393381 19.0159469,10.1393381 L19.8848851,10.1393381 C20.116034,10.1393381 20.2731622,9.97312538 20.2731622,9.76073086 L20.2731622,8.98507764 C20.2731622,8.74497784 20.116034,8.58799388 19.8848851,8.58799388 L19.0159469,8.58799388 C18.7664348,8.58799388 18.6185828,8.74497784 18.6185828,8.98507764 L18.6185828,9.76073086 Z M3.72689457,12.4016963 C3.72689457,12.6048431 3.88402283,12.7710558 4.12437226,12.7710558 L4.99327257,12.7710558 C5.22436469,12.7710558 5.38151187,12.6048431 5.38151187,12.4016963 L5.38151187,11.6167953 C5.38151187,11.3766956 5.22436469,11.2197305 4.99327257,11.2197305 L4.12437226,11.2197305 C3.87478444,11.2197305 3.72689457,11.3766956 3.72689457,11.6167953 L3.72689457,12.4016963 Z M18.6185828,12.4016963 C18.6185828,12.6048431 18.775711,12.7710558 19.0159469,12.7710558 L19.8848851,12.7710558 C20.116034,12.7710558 20.2731622,12.6048431 20.2731622,12.4016963 L20.2731622,11.6167953 C20.2731622,11.3766956 20.116034,11.2197305 19.8848851,11.2197305 L19.0159469,11.2197305 C18.7664348,11.2197305 18.6185828,11.3766956 18.6185828,11.6167953 L18.6185828,12.4016963 Z M6.72185373,17.55432 C6.72185373,17.840577 6.8882393,17.9975572 7.17479959,17.9975572 L16.8252193,17.9975572 C17.1025412,17.9975572 17.2781652,17.840577 17.2781652,17.55432 L17.2781652,13.1496442 C17.2781652,12.8726293 17.1025412,12.7156453 16.8252193,12.7156453 L7.17479959,12.7156453 C6.8882393,12.7156453 6.72185373,12.8726293 6.72185373,13.1496442 L6.72185373,17.55432 Z M3.72689457,15.033414 C3.72689457,15.2365608 3.88402283,15.4120023 4.12437226,15.4120023 L4.99327257,15.4120023 C5.22436469,15.4120023 5.38151187,15.2365608 5.38151187,15.033414 L5.38151187,14.2577418 C5.38151187,14.0084322 5.22436469,13.8514482 4.99327257,13.8514482 L4.12437226,13.8514482 C3.87478444,13.8514482 3.72689457,14.0084322 3.72689457,14.2577418 L3.72689457,15.033414 Z M18.6185828,15.033414 C18.6185828,15.2365608 18.775711,15.4120023 19.0159469,15.4120023 L19.8848851,15.4120023 C20.116034,15.4120023 20.2731622,15.2365608 20.2731622,15.033414 L20.2731622,14.2577418 C20.2731622,14.0084322 20.116034,13.8514482 19.8848851,13.8514482 L19.0159469,13.8514482 C18.7664348,13.8514482 18.6185828,14.0084322 18.6185828,14.2577418 L18.6185828,15.033414 Z M3.72689457,17.6651298 C3.72689457,17.8775149 3.88402283,18.0437276 4.12437226,18.0437276 L4.99327257,18.0437276 C5.22436469,18.0437276 5.38151187,17.8775149 5.38151187,17.6651298 L5.38151187,16.8802308 C5.38151187,16.6493787 5.22436469,16.4923947 4.99327257,16.4923947 L4.12437226,16.4923947 C3.87478444,16.4923947 3.72689457,16.6493787 3.72689457,16.8802308 L3.72689457,17.6651298 Z M18.6185828,17.6651298 C18.6185828,17.8775149 18.775711,18.0437276 19.0159469,18.0437276 L19.8848851,18.0437276 C20.116034,18.0437276 20.2731622,17.8775149 20.2731622,17.6651298 L20.2731622,16.8802308 C20.2731622,16.6493787 20.116034,16.4923947 19.8848851,16.4923947 L19.0159469,16.4923947 C18.7664348,16.4923947 18.6185828,16.6493787 18.6185828,16.8802308 L18.6185828,17.6651298 Z" id="sfsymbols:film.fill" fill="#000000" fill-rule="nonzero"></path>
    </g>
</svg>