<?xml version="1.0" encoding="UTF-8"?>
<svg width="24px" height="24px" viewBox="0 0 24 24" version="1.1" xmlns="http://www.w3.org/2000/svg" xmlns:xlink="http://www.w3.org/1999/xlink">
    <title>icon/iOS/file-audio</title>
    <g id="icon/iOS/file-audio" stroke="none" stroke-width="1" fill="none" fill-rule="evenodd">
        <rect id="ViewBox" fill-rule="nonzero" x="0" y="0" width="24" height="24"></rect>
        <path d="M18,6.5474594 L18,2.82264747 C18,2.2693546 17.5583984,1.90379766 17.0304071,2.02235175 L11.9424036,3.15856083 C11.2799913,3.30677872 10.924799,3.66246122 10.924799,4.25527211 L10.9919997,15.241972 C10.9919997,15.6964597 10.7903977,15.9928752 10.3968077,16.0719113 L8.8704008,16.4078449 C6.91198671,16.8227943 6,17.8602164 6,19.3718771 C6,20.9131794 7.16160046,22 8.77439703,22 C10.2048002,22 12.3552022,20.9032988 12.3552022,17.9985376 L12.3552022,8.95820077 C12.3552022,8.46419507 12.4319973,8.37528456 12.8640045,8.28635382 L17.4336112,7.24894993 C17.779209,7.16991387 18,6.89326744 18,6.5474594 Z" id="sfsymbols:music.note" fill="#000000" fill-rule="nonzero"></path>
    </g>
</svg>