<?xml version="1.0" encoding="UTF-8"?>
<svg width="24px" height="24px" viewBox="0 0 24 24" version="1.1" xmlns="http://www.w3.org/2000/svg" xmlns:xlink="http://www.w3.org/1999/xlink">
    <title>icon/iOS/file-document</title>
    <g id="icon/iOS/file-document" stroke="none" stroke-width="1" fill="none" fill-rule="evenodd">
        <rect id="ViewBox" fill-rule="nonzero" x="0" y="0" width="24" height="24"></rect>
        <path d="M11.3150961,2 L11.3150961,8.84700657 C11.3150961,10.0410364 11.8953547,10.6100633 13.1129529,10.6100633 L20,10.6100633 L20,19.0802187 C20,21.0205134 19.0202133,22 17.051133,22 L6.94886696,22 C4.97978665,22 4,21.0298364 4,19.0802187 L4,4.92909851 C4,2.98880955 4.98929366,2 6.94886696,2 L11.3150961,2 Z M15.5005948,16.4962675 L8.28060768,16.4962675 C7.93816062,16.4962675 7.68133507,16.7574639 7.68133507,17.0839499 C7.68133507,17.4011147 7.93816062,17.6436518 8.28060768,17.6436518 L15.5005948,17.6436518 C15.8335348,17.6436518 16.0808534,17.4011147 16.0808534,17.0839499 C16.0808534,16.7574639 15.8335348,16.4962675 15.5005948,16.4962675 Z M15.5005948,13.2406734 L8.28060768,13.2406734 C7.93816062,13.2406734 7.68133507,13.4925278 7.68133507,13.8097003 C7.68133507,14.1361958 7.93816062,14.3880501 8.28060768,14.3880501 L15.5005948,14.3880501 C15.8335348,14.3880501 16.0808534,14.1361958 16.0808534,13.8097003 C16.0808534,13.4925278 15.8335348,13.2406734 15.5005948,13.2406734 Z M12.6183158,2.10261015 C13.0178244,2.16790925 13.4078455,2.43842866 13.854928,2.8861803 L19.0963084,8.11939343 C19.5529174,8.57648716 19.8287765,8.94961672 19.885838,9.33208836 L13.1414934,9.33208836 C12.7895394,9.33208836 12.6183158,9.1641791 12.6183158,8.8283606 Z" id="xabber:file-document" fill="#000000" fill-rule="nonzero"></path>
    </g>
</svg>