<?xml version="1.0" encoding="UTF-8"?>
<svg width="24px" height="24px" viewBox="0 0 24 24" version="1.1" xmlns="http://www.w3.org/2000/svg" xmlns:xlink="http://www.w3.org/1999/xlink">
    <title>icon/iOS/file-presentation</title>
    <g id="icon/iOS/file-presentation" stroke="none" stroke-width="1" fill="none" fill-rule="evenodd">
        <rect id="ViewBox" fill-rule="nonzero" x="0" y="0" width="24" height="24"></rect>
        <path d="M8,23 L8,21.5 L11.25,21.5 L11.25,17 L5,17 C4.17157288,17 3.5,16.3284271 3.5,15.5 L3.5,5 C3.5,4.17157288 4.17157288,3.5 5,3.5 L11.25,3.5 L11.25,2 L12.75,2 L12.75,3.5 L19,3.5 C19.8284271,3.5 20.5,4.17157288 20.5,5 L20.5,15.5 C20.5,16.3284271 19.8284271,17 19,17 L12.75,17 L12.75,21.5 L16,21.5 L16,23 L8,23 Z M19,5 L5,5 L5,15.5 L19,15.5 L19,5 Z M12.75,8 L12.75,14 L11.25,14 L11.25,8 L12.75,8 Z M16.25,11 L16.25,14 L14.75,14 L14.75,11 L16.25,11 Z M9.25,9.5 L9.25,14 L7.75,14 L7.75,9.5 L9.25,9.5 Z" id="xabber:presentation" fill="#000000" fill-rule="nonzero"></path>
    </g>
</svg>