<?xml version="1.0" encoding="UTF-8"?>
<svg width="24px" height="24px" viewBox="0 0 24 24" version="1.1" xmlns="http://www.w3.org/2000/svg" xmlns:xlink="http://www.w3.org/1999/xlink">
    <title>icon/iOS/file-table</title>
    <g id="icon/iOS/file-table" stroke="none" stroke-width="1" fill="none" fill-rule="evenodd">
        <rect id="ViewBox" fill-rule="nonzero" x="0" y="0" width="24" height="24"></rect>
        <path d="M12.7277169,8.30175013 L23,8.30175013 L23,6.36258872 C23,4.46036137 22.0297107,3.5 20.0704067,3.5 L12.7277169,3.5 L12.7277169,8.30175013 Z M11.2722448,8.30175013 L11.2722448,3.5 L3.92959332,3.5 C1.97963292,3.5 1,4.45111367 1,6.36258872 L1,8.30175013 L11.2722448,8.30175013 Z M23,9.74227328 L12.7277169,9.74227328 L12.7277169,14.2485131 L23,14.2485131 L23,9.74227328 Z M11.2722448,14.2485131 L11.2722448,9.74227328 L1,9.74227328 L1,14.2485131 L11.2722448,14.2485131 Z M12.7277169,20.5 L20.0704067,20.5 C22.0297107,20.5 23,19.5396538 23,17.6374283 L23,15.698265 L12.7277169,15.698265 L12.7277169,20.5 Z M3.92959332,20.5 L11.2722448,20.5 L11.2722448,15.698265 L1,15.698265 L1,17.6374283 C1,19.5488882 1.97963292,20.5 3.92959332,20.5 Z" id="sfsymbols:table.fill" fill="#000000" fill-rule="nonzero"></path>
    </g>
</svg>