<?xml version="1.0" encoding="UTF-8"?>
<svg width="24px" height="24px" viewBox="0 0 24 24" version="1.1" xmlns="http://www.w3.org/2000/svg" xmlns:xlink="http://www.w3.org/1999/xlink">
    <title>icon/iOS/flashlight-off</title>
    <g id="icon/iOS/flashlight-off" stroke="none" stroke-width="1" fill="none" fill-rule="evenodd">
        <rect id="ViewBox" fill-rule="nonzero" x="0" y="0" width="24" height="24"></rect>
        <path d="M7,2.60064748 L17,2.60064748 L17,1.89935377 C17,0.613641974 16.3973627,0 15.192088,0 L8.79848193,0 C7.60263733,0 7,0.613641974 7,1.89935377 L7,2.60064748 Z M10.822977,24 L13.177023,24 C14.3728869,24 14.9755242,23.386358 14.9755242,22.1006462 L14.9755242,11.1136382 C14.9755242,10.4513031 15.0791007,10.1298801 15.4557442,9.63311377 L16.2749646,8.54221465 C16.8116879,7.84092094 17,7.28572675 17,6.39935501 L17,3.92533777 L7,3.92533777 L7,6.39935501 C7,7.28572675 7.17890133,7.84092094 7.7156246,8.54221465 L8.54425576,9.63311377 C8.91148849,10.1298801 9.01506497,10.4513031 9.01506497,11.1136382 L9.01506497,22.1006462 C9.01506497,23.386358 9.6177023,24 10.822977,24 Z M12,16.5097459 C11.1713688,16.5097459 10.615824,15.9155931 10.615824,15.0292214 L10.615824,12.0974163 C10.615824,11.2013099 11.1713688,10.5974026 12,10.6168918 C12.8286312,10.6266265 13.3747652,11.2207792 13.3747652,12.0974163 L13.3747652,15.0292214 C13.3747652,15.9155931 12.8286312,16.5097459 12,16.5097459 Z M12,15.7986976 C12.4519876,15.7986976 12.8380419,15.3993575 12.8380419,14.9220804 C12.8380419,14.4545579 12.4519876,14.0551979 12,14.0551979 C11.5386016,14.0551979 11.1619581,14.4545579 11.1619581,14.9220804 C11.1619581,15.3993575 11.5386016,15.7986976 12,15.7986976 Z" id="sfsymbols:flashlight.off.fill" fill="#000000" fill-rule="nonzero"></path>
    </g>
</svg>