<?xml version="1.0" encoding="UTF-8"?>
<svg width="24px" height="24px" viewBox="0 0 24 24" version="1.1" xmlns="http://www.w3.org/2000/svg" xmlns:xlink="http://www.w3.org/1999/xlink">
    <title>icon/iOS/format-underliine</title>
    <g id="icon/iOS/format-underliine" stroke="none" stroke-width="1" fill="none" fill-rule="evenodd">
        <rect id="ViewBox" fill-rule="nonzero" x="0" y="0" width="24" height="24"></rect>
        <path d="M12.495272,18.0778237 C15.8944321,18.0778237 18,16.0218345 18,13.0330294 L18,4.87570163 C18,4.34268196 17.6506512,4 17.1124538,4 C16.583693,4 16.2532175,4.34268196 16.2532175,4.87570163 L16.2532175,12.8902566 C16.2532175,15.0128808 14.8652397,16.4501645 12.495272,16.4501645 C10.1347603,16.4501645 8.74678253,15.0128808 8.74678253,12.8902566 L8.74678253,4.87570163 C8.74678253,4.34268196 8.39741442,4 7.85921698,4 C7.33047551,4 7,4.34268196 7,4.87570163 L7,13.0330294 C7,16.0218345 9.0961313,18.0778237 12.495272,18.0778237 Z M7.55707071,21 L17.4334733,21 C17.7450756,21 18,20.7620389 18,20.4384024 C18,20.1147854 17.7450756,19.8672918 17.4334733,19.8672918 L7.55707071,19.8672918 C7.25492443,19.8672918 7,20.1147854 7,20.4384024 C7,20.7620389 7.25492443,21 7.55707071,21 Z" id="sfsymbols:underline" fill="#000000" fill-rule="nonzero"></path>
    </g>
</svg>