<?xml version="1.0" encoding="UTF-8"?>
<svg width="24px" height="24px" viewBox="0 0 24 24" version="1.1" xmlns="http://www.w3.org/2000/svg" xmlns:xlink="http://www.w3.org/1999/xlink">
    <title>icon/iOS/format-list-numbered</title>
    <g id="icon/iOS/format-list-numbered" stroke="none" stroke-width="1" fill="none" fill-rule="evenodd">
        <rect id="ViewBox" fill-rule="nonzero" x="0" y="0" width="24" height="24"></rect>
        <path d="M4.05557441,8.35845624 C4.41389264,8.35845624 4.66847141,8.14955776 4.66847141,7.72225126 L4.66847141,4.65518514 C4.66847141,4.25636834 4.38560182,4 3.97070195,4 C3.64069386,4 3.43323427,4.11393932 3.19750317,4.27536795 L2.52802453,4.74065422 C2.33945124,4.87359315 2.2357311,4.99702256 2.2357311,5.19643096 C2.2357311,5.44332867 2.42430439,5.61424737 2.64118782,5.61424737 C2.76375563,5.61424737 2.82033727,5.59524776 2.98063906,5.48130844 L3.4143866,5.18694088 L3.43323427,5.18694088 L3.43323427,7.72225126 C3.43323427,8.14955776 3.67840852,8.35845624 4.05557441,8.35845624 Z M7.3275383,7.20949514 L20.2362444,7.20949514 C20.6605101,7.20949514 21,6.8771478 21,6.44984131 C21,6.01304473 20.6605101,5.68071684 20.2362444,5.68071684 L7.3275383,5.68071684 C6.90321459,5.68071684 6.56376336,6.01304473 6.56376336,6.44984131 C6.56376336,6.8771478 6.90321459,7.20949514 7.3275383,7.20949514 Z M2.53746768,14.0842622 L4.96078415,14.0842622 C5.21538224,14.0842622 5.41339868,13.9038534 5.41339868,13.6379755 C5.41339868,13.3531175 5.22480608,13.1726892 4.96078415,13.1726892 L3.61240304,13.1726892 L3.61240304,13.144219 L4.38560182,12.5175041 C5.02678963,11.9857483 5.28138772,11.6818907 5.28138772,11.1216647 C5.28138772,10.3620109 4.64962374,9.84925476 3.63125071,9.84925476 C2.72604097,9.84925476 2.07542932,10.3240311 2.07542932,10.9317464 C2.07542932,11.235604 2.27344576,11.3970327 2.59403001,11.3970327 C2.81091344,11.3970327 2.95234823,11.3305632 3.0843592,11.1121552 C3.21637016,10.8842765 3.38609578,10.7608277 3.6501177,10.7608277 C3.92356345,10.7608277 4.1215799,10.9412365 4.1215799,11.2071144 C4.1215799,11.4350124 4.00843592,11.6344208 3.51810674,12.0237281 L2.28286959,13.0492598 C2.0942963,13.2011789 2.01884767,13.3720976 2.01884767,13.5810156 C2.01884767,13.8753637 2.22628795,14.0842622 2.53746768,14.0842622 Z M7.3275383,12.9543007 L20.2362444,12.9543007 C20.6605101,12.9543007 21,12.6124632 21,12.1851567 C21,11.7578697 20.6605101,11.4255224 20.2362444,11.4255224 L7.3275383,11.4255224 C6.90321459,11.4255224 6.56376336,11.7578697 6.56376336,12.1851567 C6.56376336,12.6124632 6.90321459,12.9543007 7.3275383,12.9543007 Z M3.6501177,20 C4.77219155,20 5.43224635,19.4967359 5.43224635,18.6991101 C5.43224635,18.1768541 5.07392813,17.8160229 4.42331648,17.7590494 L4.42331648,17.7305636 C4.89477867,17.6451023 5.27194457,17.3222548 5.27194457,16.7715111 C5.27194457,16.0498565 4.57417511,15.6510397 3.64069386,15.6510397 C2.90520974,15.6510397 2.10372014,16.0023672 2.10372014,16.6290821 C2.10372014,16.8949599 2.29229343,17.0848588 2.58460617,17.0848588 C2.79204645,17.0848588 2.88634275,16.9994092 3.01835372,16.8569802 C3.23523714,16.619592 3.40496276,16.543613 3.64069386,16.543613 C3.93298729,16.543613 4.14987072,16.6860615 4.14987072,16.9709195 C4.14987072,17.2367935 3.92356345,17.3697324 3.53697372,17.3697324 L3.43323427,17.3697324 C3.16923166,17.3697324 2.99950604,17.5026694 2.99950604,17.7780412 C2.99950604,18.0344212 3.15978851,18.1863501 3.43323427,18.1863501 L3.55582139,18.1863501 C3.9801451,18.1863501 4.20645236,18.328783 4.20645236,18.6231447 C4.20645236,18.8795247 3.97070195,19.0694356 3.6501177,19.0694356 C3.32009029,19.0694356 3.0843592,18.8795247 2.90520974,18.6991101 C2.79204645,18.5946589 2.69776946,18.5186935 2.51860069,18.5186935 C2.21686411,18.5186935 2,18.6991101 2,18.9934714 C2,19.6486647 2.88634275,20 3.6501177,20 Z M7.3275383,18.6896142 L20.2362444,18.6896142 C20.6605101,18.6896142 21,18.3572688 21,17.9299701 C21,17.4931735 20.6605101,17.16083 20.2362444,17.16083 L7.3275383,17.16083 C6.90321459,17.16083 6.56376336,17.4931735 6.56376336,17.9299701 C6.56376336,18.3572688 6.90321459,18.6896142 7.3275383,18.6896142 Z" id="sfsymbols:list.number" fill="#000000" fill-rule="nonzero"></path>
    </g>
</svg>