<?xml version="1.0" encoding="UTF-8"?>
<svg width="24px" height="24px" viewBox="0 0 24 24" version="1.1" xmlns="http://www.w3.org/2000/svg" xmlns:xlink="http://www.w3.org/1999/xlink">
    <title>icon/iOS/format-quote</title>
    <g id="icon/iOS/format-quote" stroke="none" stroke-width="1" fill="none" fill-rule="evenodd">
        <rect id="ViewBox" fill-rule="nonzero" x="0" y="0" width="24" height="24"></rect>
        <path d="M10.8138691,11.3110805 C12.074419,11.3110805 13.1265307,10.4724247 13.1265307,9.14044437 C13.1265307,7.87753026 12.2630177,7.0487555 11.0719472,7.0487555 C10.4764119,7.0487555 10.0099158,7.28553674 9.72207812,7.73939776 C10.0297554,6.33835115 11.0917869,5.41090744 12.5210756,5.35170203 C12.9081725,5.33198036 13.1960101,5.06557621 13.1960101,4.69064226 C13.1960101,4.23678124 12.8287732,4 12.322557,4 C10.0992349,4 8.10421105,5.89437117 8.10421105,8.39059669 C8.10421105,10.166557 9.30520141,11.3110805 10.8138691,11.3110805 Z M4.73943782,11.3110805 C5.9999878,11.3110805 7.0421796,10.4724247 7.0421796,9.14044437 C7.0421796,7.87753026 6.17864635,7.0487555 4.99751598,7.0487555 C4.39206088,7.0487555 3.92554437,7.28553674 3.63770673,7.73939776 C3.94540435,6.33835115 5.00743581,5.42076827 6.45656416,5.35170203 C6.83374124,5.33198036 7.11165905,5.06557621 7.11165905,4.69064226 C7.11165905,4.23678124 6.73448197,4 6.2481258,4 C4.00496398,4 2.02977981,5.89437117 2.02977981,8.39059669 C2.02977981,10.166557 3.22083001,11.3110805 4.73943782,11.3110805 Z M15.6376905,5.49969536 L21.2356854,5.49969536 C21.6526027,5.49969536 22,5.17410599 22,4.74984768 C22,4.3354502 21.6526027,4.00986083 21.2356854,4.00986083 L15.6376905,4.00986083 C15.2208138,4.00986083 14.8932765,4.3354502 14.8932765,4.74984768 C14.8932765,5.17410599 15.2208138,5.49969536 15.6376905,5.49969536 Z M15.6376905,10.6697626 L21.2356854,10.6697626 C21.6526027,10.6697626 22,10.3441531 22,9.91989475 C22,9.50551748 21.6526027,9.17990791 21.2356854,9.17990791 L15.6376905,9.17990791 C15.2208138,9.17990791 14.8932765,9.50551748 14.8932765,9.91989475 C14.8932765,10.3441531 15.2208138,10.6697626 15.6376905,10.6697626 Z M2.744414,15.8398097 L21.2356854,15.8398097 C21.6526027,15.8398097 22,15.5043595 22,15.089962 C22,14.6755646 21.6526027,14.3499752 21.2356854,14.3499752 L2.744414,14.3499752 C2.32753728,14.3499752 2,14.6755646 2,15.089962 C2,15.5043595 2.32753728,15.8398097 2.744414,15.8398097 Z M2.744414,21 L21.2356854,21 C21.6526027,21 22,20.6744066 22,20.2600132 C22,19.8456185 21.6526027,19.510157 21.2356854,19.510157 L2.744414,19.510157 C2.32753728,19.510157 2,19.8456185 2,20.2600132 C2,20.6744066 2.32753728,21 2.744414,21 Z" id="sfsymbols:text.quote" fill="#000000" fill-rule="nonzero"></path>
    </g>
</svg>