<?xml version="1.0" encoding="UTF-8"?>
<svg width="24px" height="24px" viewBox="0 0 24 24" version="1.1" xmlns="http://www.w3.org/2000/svg" xmlns:xlink="http://www.w3.org/1999/xlink">
    <title>icon/iOS/format-strikethrough</title>
    <g id="icon/iOS/format-strikethrough" stroke="none" stroke-width="1" fill="none" fill-rule="evenodd">
        <rect id="ViewBox" fill-rule="nonzero" x="0" y="0" width="24" height="24"></rect>
        <path d="M4.39732457,12.2603184 L10.0181603,12.2603184 C10.2604372,12.3360404 10.522105,12.4117624 10.8031438,12.4685636 L12.5863113,12.8850541 C14.6020502,13.3583458 15.4451865,14.0020217 15.4451865,15.1379294 C15.4451865,16.5010227 14.0206016,17.4759969 11.9951572,17.4759969 C10.2023043,17.4759969 8.85524318,16.6903277 8.36098403,15.3461747 C8.18654547,14.9391446 7.97334498,14.7593 7.56631504,14.7593 C7.04299934,14.7593 6.7231986,15.0716678 6.7231986,15.5638997 C6.7231986,15.7342839 6.75227501,15.9141286 6.80072244,16.0939732 C7.31435263,17.8830289 9.3300916,19 11.9951572,19 C15.2125951,19 17.2768014,17.4002691 17.2768014,14.9296842 C17.2768014,13.746455 16.8310095,12.8945145 15.8522165,12.2603184 L19.6026754,12.2603184 C19.8255614,12.2603184 20,12.0899148 20,11.8722091 C20,11.6545035 19.8255614,11.4840999 19.6026754,11.4840999 L14.0399726,11.4840999 C13.7686193,11.3989174 13.477895,11.3231954 13.1774653,11.2569338 L11.5978128,10.8877648 C9.63052129,10.4239335 8.79709038,9.83705878 8.79709038,8.78633342 C8.79709038,7.4611206 10.134466,6.52399765 11.9854519,6.52399765 C13.6523336,6.52399765 14.8443271,7.26233577 15.3191954,8.56862778 C15.4742629,8.92833643 15.7068344,9.09872066 16.0944933,9.09872066 C16.5984182,9.09872066 16.9085334,8.81473402 16.9085334,8.34144234 C16.9085334,8.19945872 16.8891623,8.0479953 16.8504004,7.90601168 C16.4142941,6.18322919 14.476079,5 11.9854519,5 C9.06844367,5 6.96547549,6.61865986 6.96547549,8.90939623 C6.96547549,10.0263638 7.39187647,10.8593641 8.30285108,11.4840999 L4.39732457,11.4840999 C4.17443857,11.4840999 4,11.6545035 4,11.8722091 C4,12.0899148 4.17443857,12.2603184 4.39732457,12.2603184 Z" id="sfsymbols:strikethrough" fill="#000000" fill-rule="nonzero"></path>
    </g>
</svg>