<?xml version="1.0" encoding="UTF-8"?>
<svg width="24px" height="24px" viewBox="0 0 24 24" version="1.1" xmlns="http://www.w3.org/2000/svg" xmlns:xlink="http://www.w3.org/1999/xlink">
    <title>icon/iOS/format-clear</title>
    <g id="icon/iOS/format-clear" stroke="none" stroke-width="1" fill="none" fill-rule="evenodd">
        <rect id="ViewBox" fill-rule="nonzero" x="0" y="0" width="24" height="24"></rect>
        <path d="M5.44282342,4.396997 L5.52695076,4.46960483 L19.030265,17.9696048 C19.3231942,18.2624621 19.3232524,18.7373358 19.0303952,19.030265 C18.7641613,19.2965642 18.3475006,19.3208214 18.0538624,19.103003 L17.969735,19.0303952 L4.46642078,5.53039517 C4.17349161,5.2375379 4.17343333,4.76266417 4.4662906,4.46973501 C4.73252448,4.20343577 5.14918519,4.17917858 5.44282342,4.396997 Z M11.0426858,13.5179629 L12.9556858,15.4309629 L12.9565154,18.0942882 C12.9565154,18.6132141 12.6301487,18.9493658 12.1166468,18.9947399 L11.9948879,19 C11.4439064,19 11.0958156,18.7009144 11.0488995,18.2107467 L11.0434637,18.0942882 L11.0426858,13.5179629 Z M7.47168577,4.99996293 L17.1099634,4.99996293 C17.6317162,4.99996293 18,5.31795736 18,5.80934779 C18,6.26295718 17.6861961,6.56877245 17.2275459,6.61313687 L17.1099634,6.61871531 L12.9565154,6.61871531 L12.9556858,10.4829629 L11.0426858,8.56996293 L11.0434637,6.61871531 L9.09068577,6.61796293 L7.47168577,4.99996293 Z" id="xabber:format-clear" fill="#000000" fill-rule="nonzero"></path>
    </g>
</svg>