<?xml version="1.0" encoding="UTF-8"?>
<svg width="24px" height="24px" viewBox="0 0 24 24" version="1.1" xmlns="http://www.w3.org/2000/svg" xmlns:xlink="http://www.w3.org/1999/xlink">
    <title>icon/iOS/format-list-bulleted</title>
    <g id="icon/iOS/format-list-bulleted" stroke="none" stroke-width="1" fill="none" fill-rule="evenodd">
        <rect id="ViewBox" fill-rule="nonzero" x="0" y="0" width="24" height="24"></rect>
        <path d="M3.25060983,7.40519059 C3.94540435,7.40519059 4.50123998,6.86858648 4.50123998,6.20738377 C4.50123998,5.53662373 3.94540435,5 3.25060983,5 C2.5558153,5 2,5.53662373 2,6.20738377 C2,6.86858648 2.5558153,7.40519059 3.25060983,7.40519059 Z M7.63769453,6.97399191 L21.1960467,6.97399191 C21.6426423,6.97399191 22,6.63860208 22,6.20738377 C22,5.76658851 21.6426423,5.4312183 21.1960467,5.4312183 L7.63769453,5.4312183 C7.1811385,5.4312183 6.83374124,5.76658851 6.83374124,6.20738377 C6.83374124,6.63860208 7.1811385,6.97399191 7.63769453,6.97399191 Z M3.25060983,13.202607 C3.94540435,13.202607 4.50123998,12.6659832 4.50123998,11.9952036 C4.50123998,11.3244435 3.94540435,10.7878198 3.25060983,10.7878198 C2.5558153,10.7878198 2,11.3244435 2,11.9952036 C2,12.6659832 2.5558153,13.202607 3.25060983,13.202607 Z M7.63769453,12.7713887 L21.1960467,12.7713887 C21.6426423,12.7713887 22,12.4264219 22,11.9952036 C22,11.5640049 21.6426423,11.2286151 21.1960467,11.2286151 L7.63769453,11.2286151 C7.1811385,11.2286151 6.83374124,11.5640049 6.83374124,11.9952036 C6.83374124,12.4264219 7.1811385,12.7713887 7.63769453,12.7713887 Z M3.25060983,19 C3.94540435,19 4.50123998,18.4537991 4.50123998,17.7926082 C4.50123998,17.1218344 3.94540435,16.5852166 3.25060983,16.5852166 C2.5558153,16.5852166 2,17.1218344 2,17.7926082 C2,18.4537991 2.5558153,19 3.25060983,19 Z M7.63769453,18.5592065 L21.1960467,18.5592065 C21.6426423,18.5592065 22,18.2238186 22,17.7926082 C22,17.3518129 21.6426423,17.016427 21.1960467,17.016427 L7.63769453,17.016427 C7.1811385,17.016427 6.83374124,17.3518129 6.83374124,17.7926082 C6.83374124,18.2238186 7.1811385,18.5592065 7.63769453,18.5592065 Z" id="sfsymbols:list.bullet" fill="#000000" fill-rule="nonzero"></path>
    </g>
</svg>