<?xml version="1.0" encoding="UTF-8"?>
<svg width="24px" height="24px" viewBox="0 0 24 24" version="1.1" xmlns="http://www.w3.org/2000/svg" xmlns:xlink="http://www.w3.org/1999/xlink">
    <title>icon/iOS/format-italic</title>
    <g id="icon/iOS/format-italic" stroke="none" stroke-width="1" fill="none" fill-rule="evenodd">
        <rect id="ViewBox" fill-rule="nonzero" x="0" y="0" width="24" height="24"></rect>
        <path d="M7.77219146,19 L13.872587,19 C14.326251,19 14.6544452,18.7160844 14.6544452,18.2559448 C14.6544452,17.8153844 14.3358979,17.5314673 13.882234,17.5314673 L11.7200702,17.5314673 L14.0656448,6.46852804 L16.2278085,6.46852804 C16.6814725,6.46852804 17,6.18461503 17,5.72447945 C17,5.28391302 16.6911195,5 16.2374555,5 L10.1080993,5 C9.65443533,5 9.34555479,5.28391302 9.34555479,5.72447945 C9.34555479,6.18461503 9.66408228,6.46852804 10.117766,6.46852804 L12.2799298,6.46852804 L9.93435523,17.5314673 L7.7625445,17.5314673 C7.30888054,17.5314673 7,17.8153844 7,18.2559448 C7,18.7160844 7.31852749,19 7.77219146,19 Z" id="sfsymbols:italic" fill="#000000" fill-rule="nonzero"></path>
    </g>
</svg>