<?xml version="1.0" encoding="UTF-8"?>
<svg width="24px" height="24px" viewBox="0 0 24 24" version="1.1" xmlns="http://www.w3.org/2000/svg" xmlns:xlink="http://www.w3.org/1999/xlink">
    <title>icon/iOS/format-bold</title>
    <g id="icon/iOS/format-bold" stroke="none" stroke-width="1" fill="none" fill-rule="evenodd">
        <rect id="ViewBox" fill-rule="nonzero" x="0" y="0" width="24" height="24"></rect>
        <path d="M7.7056252,19 L12.9638387,19 C16.0521491,19 18,17.4237769 18,15.0055879 C18,13.0964934 16.5769473,11.7160867 14.5281673,11.6083962 L14.5281673,11.5300595 C16.2035324,11.304894 17.3439919,10.0811207 17.3439919,8.52447131 C17.3439919,6.34124839 15.6181726,5 12.8225421,5 L7.7056252,5 C6.62572731,5 6,5.616789 6,6.69369352 L6,17.3160844 C6,18.3832164 6.62572731,19 7.7056252,19 Z M9.33053606,10.8153847 L9.33053606,7.30069794 L11.8132925,7.30069794 C13.2262378,7.30069794 14.06391,7.92727151 14.06391,9.00419608 C14.06391,10.1398682 13.1354161,10.8153847 11.5609801,10.8153847 L9.33053606,10.8153847 Z M9.33053606,16.7384598 L9.33053606,12.8517387 L11.8637468,12.8517387 C13.6299335,12.8517387 14.6190097,13.5174907 14.6190097,14.7706378 C14.6190097,16.0531387 13.6703011,16.7384598 11.9343951,16.7384598 L9.33053606,16.7384598 Z" id="sfsymbols:bold" fill="#000000" fill-rule="nonzero"></path>
    </g>
</svg>