<?xml version="1.0" encoding="UTF-8"?>
<svg width="24px" height="24px" viewBox="0 0 24 24" version="1.1" xmlns="http://www.w3.org/2000/svg" xmlns:xlink="http://www.w3.org/1999/xlink">
    <title>icon/iOS/format-text</title>
    <g id="icon/iOS/format-text" stroke="none" stroke-width="1" fill="none" fill-rule="evenodd">
        <rect id="ViewBox" fill-rule="nonzero" x="0" y="0" width="24" height="24"></rect>
        <path d="M15.6439083,22 L21.3186435,22 C21.7663693,22 22,21.7886685 22,21.4332295 C22,21.0682096 21.7663693,20.8760793 21.3186435,20.8760793 L19.1382626,20.8760793 L19.1382626,3.11432006 L21.3186435,3.11432006 C21.7663693,3.11432006 22,2.91258919 22,2.54754958 C22,2.19213025 21.7663693,2 21.3186435,2 L15.6439083,2 C15.1961625,2 14.9625517,2.19213025 14.9625517,2.54754958 C14.9625517,2.91258919 15.1961625,3.11432006 15.6439083,3.11432006 L17.8242293,3.11432006 L17.8242293,20.8760793 L15.6439083,20.8760793 C15.1961625,20.8760793 14.9625517,21.0682096 14.9625517,21.4332295 C14.9625517,21.7886685 15.1961625,22 15.6439083,22 Z M8.70387923,19.1181544 C9.25869243,19.1181544 9.61882664,18.7723333 9.61882664,18.2151776 L9.61882664,6.77425777 L13.5706547,6.77425777 C14.0670802,6.77425777 14.4174864,6.45726056 14.4174864,5.96733432 C14.4174864,5.47742774 14.0670802,5.16043053 13.5706547,5.16043053 L3.84681176,5.16043053 C3.35040624,5.16043053 3,5.47742774 3,5.96733432 C3,6.45726056 3.35040624,6.77425777 3.84681176,6.77425777 L7.79863985,6.77425777 L7.79863985,18.2151776 C7.79863985,18.7723333 8.13931812,19.1181544 8.70387923,19.1181544 Z" id="sfsymbols:text.cursor" fill="#000000" fill-rule="nonzero"></path>
    </g>
</svg>