<?xml version="1.0" encoding="UTF-8"?>
<svg width="24px" height="24px" viewBox="0 0 24 24" version="1.1" xmlns="http://www.w3.org/2000/svg" xmlns:xlink="http://www.w3.org/1999/xlink">
    <title>icon/iOS/forward</title>
    <g id="icon/iOS/forward" stroke="none" stroke-width="1" fill="none" fill-rule="evenodd">
        <rect id="ViewBox" fill-rule="nonzero" x="0" y="0" width="24" height="24"></rect>
        <path d="M13.4739975,21 C13.9512531,21 14.321388,20.7841979 14.8181329,20.3623992 L22.5030956,13.0544936 C22.8635558,12.6915588 23,12.328604 23,12.0049038 C23,11.6713799 22.8635558,11.3084452 22.5030956,10.9455105 L14.8181329,3.70626224 C14.2629404,3.24523106 13.9707423,3 13.4934667,3 C12.821399,3 12.3343888,3.54930391 12.3343888,4.20652798 L12.3343888,7.91444491 L12.0519253,7.91444491 C5.04868506,7.91444491 2,12.4365041 2,19.6855599 C2,20.5291552 2.4772696,21 2.9935036,21 C3.41233158,21 3.86038336,20.9019076 4.19155987,20.2741145 C5.89609558,17.0664833 8.28245355,16.1051663 12.0519253,16.1051663 L12.3343888,16.1051663 L12.3343888,19.8523158 C12.3343888,20.5095379 12.821399,21 13.4739975,21 Z M14.0389245,18.8910085 C13.9512531,18.8910085 13.9025601,18.832153 13.9025601,18.7438702 L13.9025601,14.9476765 C13.9025601,14.7220728 13.805154,14.6239764 13.5811381,14.6239764 L12.2662066,14.6239764 C7.64932433,14.6239764 4.65908089,16.2228901 3.54869603,18.7046317 C3.51947223,18.7732972 3.49024843,18.8027241 3.45129,18.8027241 C3.41233158,18.8027241 3.38310778,18.7634875 3.38310778,18.694824 C3.57791984,14.0648487 5.58440825,9.39563489 12.2662066,9.39563489 L13.5811381,9.39563489 C13.805154,9.39563489 13.9025601,9.29753845 13.9025601,9.07193471 L13.9025601,5.1776486 C13.9025601,5.09917948 13.9610077,5.0403176 14.0389245,5.0403176 C14.1071067,5.0403176 14.1557998,5.07955216 14.2045128,5.11880681 L21.1396506,11.8185346 C21.2174477,11.8872001 21.2467713,11.9460419 21.2467713,12.0049038 C21.2467713,12.0637657 21.2174477,12.1128039 21.1396506,12.191273 L14.2045128,18.8027241 C14.1460652,18.8615799 14.0973721,18.8910085 14.0389245,18.8910085 Z" id="sfsymbols:arrowshape.turn.up.right" fill="#000000" fill-rule="nonzero"></path>
    </g>
</svg>