<?xml version="1.0" encoding="UTF-8"?>
<svg width="24px" height="24px" viewBox="0 0 24 24" version="1.1" xmlns="http://www.w3.org/2000/svg" xmlns:xlink="http://www.w3.org/1999/xlink">
    <title>icon/iOS/fullscreen-exit</title>
    <g id="icon/iOS/fullscreen-exit" stroke="none" stroke-width="1" fill="none" fill-rule="evenodd">
        <rect id="ViewBox" fill-rule="nonzero" x="0" y="0" width="24" height="24"></rect>
        <path d="M6.92607178,14 C8.90190836,14 9.92973023,14.939475 10.0006259,16.8184251 L10.0045647,17.0310635 L10.0045647,19.4343343 C10.0045647,19.954227 9.72989292,20.2386925 9.2103656,20.2386925 C8.74883538,20.2386925 8.47108123,19.9963077 8.43108077,19.5501081 L8.42606509,19.4343343 L8.42606509,17.1193563 C8.42606509,16.1558736 7.92761087,15.6386153 7.0545837,15.5841159 L6.896657,15.5793055 L4.52411883,15.5793055 C4.01430944,15.5793055 3.73,15.2948199 3.73,14.7847509 C3.73,14.3261559 3.9688989,14.0489097 4.40139843,14.0058866 L4.52411883,14 L6.92607178,14 Z M19.4705674,14 C19.990175,14 20.2744844,14.2844654 20.2744844,14.7847509 C20.2744844,15.2555839 20.0322326,15.5342036 19.5862776,15.5742822 L19.4705674,15.5793055 L17.0980292,15.5793055 C16.1720904,15.5793055 15.6396926,16.0430369 15.5833952,16.9539654 L15.5784193,17.1193563 L15.5784193,19.4343343 C15.5784193,19.954227 15.3039081,20.2386925 14.7843005,20.2386925 C14.3227703,20.2386925 14.0450161,19.9963077 14.0050157,19.5501081 L14,19.4343343 L14,17.0310635 C14,15.0825227 14.9571816,14.0734569 16.8627773,14.0038662 L17.0784127,14 L19.4705674,14 Z M9.2103656,3.74 C9.68103302,3.74 9.95949004,3.98321305 9.99954456,4.43093752 L10.0045647,4.54710689 L10.0045647,6.94873722 C10.0045647,8.90393684 9.04730848,9.92560169 7.14170743,9.99608387 L6.92607178,10 L4.52411883,10 C4.01430944,10 3.73,9.71455843 3.73,9.21257741 C3.73,8.74012432 3.97225183,8.46056529 4.41050023,8.42035179 L4.52411883,8.41531166 L6.896657,8.41531166 C7.81332292,8.41531166 8.36270302,7.94999764 8.42091604,7.03595274 L8.42606509,6.86999597 L8.42606509,4.54710689 C8.42606509,4.02543754 8.70057629,3.74 9.2103656,3.74 Z M14.7843005,3.76 C15.2548938,3.76 15.5333451,4.00238474 15.5733992,4.4485844 L15.5784193,4.56435814 L15.5784193,6.87933619 C15.5784193,7.84282303 16.0593761,8.36007939 16.9387302,8.4145786 L17.0980292,8.41938903 L19.4705674,8.41938903 C19.990175,8.41938903 20.2744844,8.70385848 20.2744844,9.21393955 C20.2744844,9.67572856 20.0322326,9.95363896 19.5862776,9.99366192 L19.4705674,9.99868042 L17.0784127,9.99868042 C15.1025761,9.99868042 14.0748289,9.05920538 14.0039386,7.1714614 L14,6.95780928 L14,4.56435814 C14,4.04446543 14.2745112,3.76 14.7843005,3.76 Z" id="xabber:fullscreen-exit" fill="#000000" fill-rule="nonzero"></path>
    </g>
</svg>