<?xml version="1.0" encoding="UTF-8"?>
<svg width="24px" height="24px" viewBox="0 0 24 24" version="1.1" xmlns="http://www.w3.org/2000/svg" xmlns:xlink="http://www.w3.org/1999/xlink">
    <title>icon/iOS/fullscreen</title>
    <g id="icon/iOS/fullscreen" stroke="none" stroke-width="1" fill="none" fill-rule="evenodd">
        <rect id="ViewBox" fill-rule="nonzero" x="0" y="0" width="24" height="24"></rect>
        <path d="M20.2058009,9.23869248 C20.7253282,9.23869248 21,8.95422705 21,8.43433433 L21,6.03106352 C21,4.01035451 19.9705228,3 17.921507,3 L15.5195541,3 C15.0097447,3 14.7254353,3.28446543 14.7254353,3.78475092 C14.7254353,4.29481993 15.0097447,4.57930545 15.5195541,4.57930545 L17.8920923,4.57930545 C18.8626797,4.57930545 19.4215003,5.09919817 19.4215003,6.11935628 L19.4215003,8.43433433 C19.4215003,8.95422705 19.7058098,9.23869248 20.2058009,9.23869248 Z M3.78430051,9.23869248 C4.30390814,9.23869248 4.57841934,8.95422705 4.57841934,8.43433433 L4.57841934,6.11935628 C4.57841934,5.09919817 5.11762344,4.57930545 6.0980292,4.57930545 L8.47056737,4.57930545 C8.99017499,4.57930545 9.27448443,4.29481993 9.27448443,3.78475092 C9.27448443,3.28446543 8.99017499,3 8.47056737,3 L6.07841265,3 C4.02939694,3 3,4.01035451 3,6.03106352 L3,8.43433433 C3,8.95422705 3.28430944,9.23869248 3.78430051,9.23869248 Z M6.07841265,21 L8.47056737,21 C8.99017499,21 9.27448443,20.7155306 9.27448443,20.2152591 C9.27448443,19.7051781 8.99017499,19.4207086 8.47056737,19.4207086 L6.0980292,19.4207086 C5.11762344,19.4207086 4.57841934,18.9008183 4.57841934,17.8806558 L4.57841934,15.5656777 C4.57841934,15.045785 4.2941099,14.7613196 3.78430051,14.7613196 C3.2745112,14.7613196 3,15.045785 3,15.5656777 L3,17.9591289 C3,19.9896455 4.02939694,21 6.07841265,21 Z M15.5195541,21 L17.921507,21 C19.9705228,21 21,19.9798379 21,17.9591289 L21,15.5656777 C21,15.045785 20.7156906,14.7613196 20.2058009,14.7613196 C19.6960115,14.7613196 19.4215003,15.045785 19.4215003,15.5656777 L19.4215003,17.8806558 C19.4215003,18.9008183 18.8626797,19.4207086 17.8920923,19.4207086 L15.5195541,19.4207086 C15.0097447,19.4207086 14.7254353,19.7051781 14.7254353,20.2152591 C14.7254353,20.7155306 15.0097447,21 15.5195541,21 Z" id="feathers:maximize" fill="#000000" fill-rule="nonzero"></path>
    </g>
</svg>