<?xml version="1.0" encoding="UTF-8"?>
<svg width="24px" height="24px" viewBox="0 0 24 24" version="1.1" xmlns="http://www.w3.org/2000/svg" xmlns:xlink="http://www.w3.org/1999/xlink">
    <title>icon/iOS/group-incognito-add</title>
    <g id="icon/iOS/group-incognito-add" stroke="none" stroke-width="1" fill="none" fill-rule="evenodd">
        <rect id="ViewBox" fill-rule="nonzero" x="0" y="0" width="24" height="24"></rect>
        <path d="M11.6488424,12.8488794 C15.1519162,12.8488794 17.2912253,15.2861767 17.2912253,16.9710639 C17.2912253,17.6784588 16.7806375,18 15.7077466,18 L7.58997785,18 C6.51066721,18 6,17.6784588 6,16.9710639 C6,15.2861767 8.13942824,12.8488794 11.6488424,12.8488794 Z M19.1599555,12.9944424 C22.1379399,12.9944424 24,15.216903 24,17.065628 C24,17.6662953 23.6764469,18 22.8378673,18 L17.8261338,18 C18.5128627,16.992213 17.6742696,14.9632973 16.2480042,13.8553952 C16.9875543,13.3615105 17.9317896,12.9944424 19.1599555,12.9944424 Z M11.6488424,13.8199341 C8.68226034,13.8199341 7.04065983,15.7942149 7.04065983,16.8488767 C7.04065983,16.9839248 7.11174026,17.0289413 7.27971244,17.0289413 L16.0179856,17.0289413 C16.1860239,17.0289413 16.2506582,16.9839248 16.2506582,16.8488767 C16.2506582,15.7942149 14.6090179,13.8199341 11.6488424,13.8199341 Z M3.00943818,9 C3.33020123,9 3.62264005,9.20910056 3.62264005,9.5545419 L3.62264005,11.4363631 L5.42453155,11.4363631 C5.74529459,11.4363631 6,11.6909084 6,12 C6,12.2999981 5.74529459,12.5545438 5.42453155,12.5545438 L3.62264005,12.5545438 L3.62264005,14.4363538 C3.62264005,14.7818138 3.33020123,15 3.00943818,15 C2.67924662,15 2.38680779,14.7818138 2.38680779,14.4363538 L2.38680779,12.5545438 L0.584916293,12.5545438 C0.264153252,12.5545438 0,12.2999981 0,12 C0,11.6909084 0.264153252,11.4363631 0.584916293,11.4363631 L2.38680779,11.4363631 L2.38680779,9.5545419 C2.38680779,9.20910056 2.67924662,9 3.00943818,9 Z M19.1599555,6.90767187 C20.3815221,6.90767187 21.464423,7.99554953 21.457913,9.41713049 C21.457913,10.8520519 20.3881213,11.9733081 19.1599555,11.9733081 C17.9251903,11.9733081 16.8620872,10.8520519 16.8620872,9.40377634 C16.8620872,7.96885491 17.9317896,6.90767187 19.1599555,6.90767187 Z M11.6423565,6 C13.1806455,6 14.4409663,7.31833223 14.4345805,8.95176665 C14.4280474,10.6045089 13.1806455,11.9614173 11.6423565,11.9614173 C10.1041336,11.9614173 8.85036489,10.5980686 8.85036489,8.93891232 C8.85036489,7.29903757 10.0977801,6 11.6423565,6 Z M11.6423565,6.97106789 C10.6793954,6.97106789 9.89089235,7.81994067 9.89089235,8.93891232 C9.89089235,10.0771786 10.6923672,10.9903625 11.6423565,10.9903625 C12.5860451,10.9903625 13.3939397,10.090033 13.3939397,8.95176665 C13.4003992,7.83280816 12.6054235,6.97106789 11.6423565,6.97106789 Z" id="xabber:group-incognito-add" fill="#000000" fill-rule="nonzero"></path>
    </g>
</svg>