<?xml version="1.0" encoding="UTF-8"?>
<svg width="24px" height="24px" viewBox="0 0 24 24" version="1.1" xmlns="http://www.w3.org/2000/svg" xmlns:xlink="http://www.w3.org/1999/xlink">
    <title>icon/iOS/group-public</title>
    <g id="icon/iOS/group-public" stroke="none" stroke-width="1" fill="none" fill-rule="evenodd">
        <rect id="ViewBox" fill-rule="nonzero" x="0" y="0" width="24" height="24"></rect>
        <path d="M7.78730754,11.2747462 C6.06027536,11.2747462 4.56711729,9.67296626 4.56711729,7.58732067 C4.56711729,5.52668847 6.0682089,4 7.78730754,4 C9.51433972,4 11.0235136,5.56005675 11.015512,7.60399627 C11.015512,9.67296626 9.52242201,11.2747462 7.78730754,11.2747462 Z M17.08439,11.4666351 C15.5752326,11.4666351 14.2758843,10.0650649 14.2758843,8.25472042 C14.2758843,6.46106863 15.5832984,5.13458983 17.08439,5.13458983 C18.5774159,5.13458983 19.9009615,6.49443691 19.8929687,8.27141311 C19.8929687,10.0650649 18.5854816,11.4666351 17.08439,11.4666351 Z M21.5796156,19 L15.4541635,19 C16.2934989,17.7402663 15.2685518,15.2041216 13.5253385,13.819244 C14.429233,13.2018882 15.5832984,12.743053 17.08439,12.743053 C20.7241488,12.743053 23,15.5211288 23,17.8320351 C23,18.5828692 22.6045462,19 21.5796156,19 Z M12.8635657,19 L2.72719746,19 C1.45204642,19 1,18.6245821 1,17.8904338 C1,15.7380414 3.60682855,12.7680664 7.79540636,12.7680664 C11.9758192,12.7680664 14.5825651,15.7380414 14.5825651,17.8904338 C14.5825651,18.6245821 14.1306179,19 12.8635657,19 Z" id="xabber:group-public" fill="#000000" fill-rule="nonzero"></path>
    </g>
</svg>