<?xml version="1.0" encoding="UTF-8"?>
<svg width="24px" height="24px" viewBox="0 0 24 24" version="1.1" xmlns="http://www.w3.org/2000/svg" xmlns:xlink="http://www.w3.org/1999/xlink">
    <title>icon/iOS/group-public-add</title>
    <g id="icon/iOS/group-public-add" stroke="none" stroke-width="1" fill="none" fill-rule="evenodd">
        <rect id="ViewBox" fill-rule="nonzero" x="0" y="0" width="24" height="24"></rect>
        <path d="M19.1599555,12.9944424 C22.1379399,12.9944424 24,15.216903 24,17.065628 C24,17.6662953 23.6764469,18 22.8378673,18 L17.8261338,18 C18.5128627,16.992213 17.6742696,14.9632973 16.2480042,13.8553952 C16.9875543,13.3615105 17.9317896,12.9944424 19.1599555,12.9944424 Z M11.5598779,13.0144531 C14.9802157,13.0144531 17.1130078,15.3904331 17.1130078,17.112347 C17.1130078,17.6996657 16.7432328,18 15.7065537,18 L7.41316156,18 C6.36985616,18 6,17.6996657 6,17.112347 C6,15.3904331 8.13285973,13.0144531 11.5598779,13.0144531 Z M3.00943818,9 C3.33020123,9 3.62264005,9.20910056 3.62264005,9.5545419 L3.62264005,11.4363631 L5.42453155,11.4363631 C5.74529459,11.4363631 6,11.6909084 6,12 C6,12.2999981 5.74529459,12.5545438 5.42453155,12.5545438 L3.62264005,12.5545438 L3.62264005,14.4363538 C3.62264005,14.7818138 3.33020123,15 3.00943818,15 C2.67924662,15 2.38680779,14.7818138 2.38680779,14.4363538 L2.38680779,12.5545438 L0.584916293,12.5545438 C0.264153252,12.5545438 0,12.2999981 0,12 C0,11.6909084 0.264153252,11.4363631 0.584916293,11.4363631 L2.38680779,11.4363631 L2.38680779,9.5545419 C2.38680779,9.20910056 2.67924662,9 3.00943818,9 Z M19.1599555,6.90767187 C20.3815221,6.90767187 21.464423,7.99554953 21.457913,9.41713049 C21.457913,10.8520519 20.3881213,11.9733081 19.1599555,11.9733081 C17.9251903,11.9733081 16.8620872,10.8520519 16.8620872,9.40377634 C16.8620872,7.96885491 17.9317896,6.90767187 19.1599555,6.90767187 Z M11.5532516,6 C12.966278,6 14.2010566,7.2480454 14.1945357,8.88319701 C14.1945357,10.538373 12.9728907,11.8197969 11.5532516,11.8197969 C10.1402253,11.8197969 8.91855051,10.538373 8.91855051,8.86985654 C8.91855051,7.22135078 10.1467164,6 11.5532516,6 Z" id="xabber:group-public-add" fill="#000000" fill-rule="nonzero"></path>
    </g>
</svg>