<?xml version="1.0" encoding="UTF-8"?>
<svg width="24px" height="24px" viewBox="0 0 24 24" version="1.1" xmlns="http://www.w3.org/2000/svg" xmlns:xlink="http://www.w3.org/1999/xlink">
    <title>icon/iOS/group-incognito</title>
    <g id="icon/iOS/group-incognito" stroke="none" stroke-width="1" fill="none" fill-rule="evenodd">
        <rect id="ViewBox" fill-rule="nonzero" x="0" y="0" width="24" height="24"></rect>
        <path d="M7.9041407,12.5610992 C12.1856754,12.5610992 14.8003865,15.6077208 14.8003865,17.7138299 C14.8003865,18.5980735 14.1763348,19 12.8650237,19 L2.94330626,19 C1.62414881,19 1,18.5980735 1,17.7138299 C1,15.6077208 3.61485674,12.5610992 7.9041407,12.5610992 Z M17.08439,12.743053 C20.7241488,12.743053 23,15.5211288 23,17.8320351 C23,18.5828692 22.6045462,19 21.5796156,19 L15.4541635,19 C16.2934989,17.7402663 15.2685518,15.2041216 13.5253385,13.819244 C14.429233,13.2018882 15.5832984,12.743053 17.08439,12.743053 Z M7.9041407,13.7749176 C4.27831819,13.7749176 2.27191757,16.2427686 2.27191757,17.5610959 C2.27191757,17.7299061 2.35879365,17.7861767 2.56409299,17.7861767 L13.2442046,17.7861767 C13.4495848,17.7861767 13.5285822,17.7299061 13.5285822,17.5610959 C13.5285822,16.2427686 11.522133,13.7749176 7.9041407,13.7749176 Z M17.08439,5.13458983 C18.5774159,5.13458983 19.9009615,6.49443691 19.8929687,8.27141311 C19.8929687,10.0650649 18.5854816,11.4666351 17.08439,11.4666351 C15.5752326,11.4666351 14.2758843,10.0650649 14.2758843,8.25472042 C14.2758843,6.46106863 15.5832984,5.13458983 17.08439,5.13458983 Z M7.89621346,4 C9.77634447,4 11.3167366,5.64791529 11.3089019,7.68970831 C11.3009469,9.75563611 9.77634447,11.4517716 7.89621346,11.4517716 C6.01616333,11.4517716 4.48377931,9.7475857 4.48377931,7.6736404 C4.48377931,5.62379696 6.00839787,4 7.89621346,4 Z M7.89621346,5.21383486 C6.71926099,5.21383486 5.7555351,6.27492583 5.7555351,7.6736404 C5.7555351,9.09647329 6.73511547,10.2379532 7.89621346,10.2379532 C9.0496107,10.2379532 10.0370374,9.1125412 10.0370374,7.68970831 C10.0449323,6.2910102 9.07329535,5.21383486 7.89621346,5.21383486 Z" id="xabber:group-incognito" fill="#000000" fill-rule="nonzero"></path>
    </g>
</svg>