<?xml version="1.0" encoding="UTF-8"?>
<svg width="24px" height="24px" viewBox="0 0 24 24" version="1.1" xmlns="http://www.w3.org/2000/svg" xmlns:xlink="http://www.w3.org/1999/xlink">
    <title>icon/iOS/image</title>
    <g id="icon/iOS/image" stroke="none" stroke-width="1" fill="none" fill-rule="evenodd">
        <rect id="ViewBox" fill-rule="nonzero" x="0" y="0" width="24" height="24"></rect>
        <path d="M19.9372433,3 C21.9124509,3 22.9262245,3.94551785 22.9961175,5.81899437 L23,6.03097629 L23,17.9690417 C23,19.9112299 22.0567695,20.9260967 20.1527552,20.9961099 L19.9372433,21 L4.06275665,21 C2.09696866,21 1.07444833,20.0635888 1.00391854,18.1819975 L1,17.9690417 L1,6.03097629 C1,4.07934421 1.95231361,3.07322997 3.84821797,3.003854 L4.06275665,3 L19.9372433,3 Z M20,4.57415815 L4,4.57415815 C3.07877031,4.57415815 2.55967818,5.03637821 2.50484458,5.94433775 L2.5,6.10918961 L2.5,16.8935365 L5.4770942,14.2634385 C5.88676687,13.9016869 6.29641956,13.7159253 6.73535742,13.7159253 C7.13648775,13.7159253 7.53015446,13.8656305 7.89675215,14.1454155 L8.05215101,14.2732302 L9.85664444,15.91581 L14.2654599,11.9657772 C14.7141461,11.5649189 15.1920976,11.3791573 15.7285594,11.3791573 C16.1967669,11.3791573 16.6495379,11.5413735 17.0526535,11.8521083 L17.2014273,11.9755689 L21.5,16.5 L21.5,6.10918961 C21.5,5.14884715 21.0233741,4.63327473 20.1569307,4.57895292 L20,4.57415815 Z M8.50530481,7 C9.87474998,7 11,8.13347131 11,9.49998915 C11,10.8771158 9.87474998,12 8.50530481,12 C7.12527176,12 6,10.8771158 6,9.49998915 C6,8.13347131 7.12527176,7 8.50530481,7 Z" id="sfsymbols:photo" fill="#000000" fill-rule="nonzero"></path>
    </g>
</svg>