<?xml version="1.0" encoding="UTF-8"?>
<svg width="24px" height="24px" viewBox="0 0 24 24" version="1.1" xmlns="http://www.w3.org/2000/svg" xmlns:xlink="http://www.w3.org/1999/xlink">
    <title>icon/iOS/information</title>
    <g id="icon/iOS/information" stroke="none" stroke-width="1" fill="none" fill-rule="evenodd">
        <rect id="Bounds" x="0" y="0" width="24" height="24"></rect>
        <path d="M12,22 C17.4832482,22 22,17.4854162 22,12.0047796 C22,6.52415093 17.4736843,2 12,2 C6.51674593,2 2,6.52415093 2,12.0047796 C2,17.4854162 6.51674593,22 12,22 Z M11.9712859,8.89622682 C11.2248731,8.89622682 10.6124328,8.27452017 10.6124328,7.53802366 C10.6124328,6.77282967 11.2248731,6.1702612 11.9712859,6.1702612 C12.7272821,6.1702612 13.320575,6.77282967 13.320575,7.53802366 C13.320575,8.27452017 12.7272821,8.89622682 11.9712859,8.89622682 Z M10.2966488,17.150647 C9.83732842,17.150647 9.47368589,16.8158857 9.47368589,16.3472061 C9.47368589,15.9072239 9.83732842,15.5533342 10.2966488,15.5533342 L11.4067041,15.5533342 L11.4067041,11.8804501 L10.4688964,11.8804501 C10.009576,11.8804501 9.64593349,11.5552382 9.64593349,11.0769993 C9.64593349,10.6370172 10.009576,10.2926867 10.4688964,10.2926867 L12.3158007,10.2926867 C12.8995297,10.2926867 13.2057498,10.6944121 13.2057498,11.3161188 L13.2057498,15.5533342 L14.1722492,15.5533342 C14.6315892,15.5533342 14.9952121,15.9072239 14.9952121,16.3472061 C14.9952121,16.8158857 14.6315892,17.150647 14.1722492,17.150647 L10.2966488,17.150647 Z" id="sfsymbols:info.circle.fill" fill="#000000" fill-rule="nonzero"></path>
    </g>
</svg>