<?xml version="1.0" encoding="UTF-8"?>
<svg width="24px" height="24px" viewBox="0 0 24 24" version="1.1" xmlns="http://www.w3.org/2000/svg" xmlns:xlink="http://www.w3.org/1999/xlink">
    <title>icon/iOS/job</title>
    <g id="icon/iOS/job" stroke="none" stroke-width="1" fill="none" fill-rule="evenodd">
        <rect id="ViewBox" fill-rule="nonzero" x="0" y="0" width="24" height="24"></rect>
        <path d="M4.14424126,21 L19.8557785,21 C21.9358111,21 23,19.9545615 23,17.9116536 L23,8.52195475 C23,6.47904496 21.9358111,5.43360643 19.8557785,5.43360643 L17.8821847,5.43360643 L17.8821847,4.83896577 C17.8821847,2.91114201 16.8760299,2 15.0088351,2 L8.99122437,2 C7.20142154,2 6.11785494,2.91114201 6.11785494,4.83896577 L6.11785494,5.43360643 L4.14424126,5.43360643 C2.07387774,5.43360643 1,6.47904496 1,8.52195475 L1,17.9116536 C1,19.9545615 2.07387774,21 4.14424126,21 Z M7.91734663,4.7046889 C7.91734663,3.99494255 8.29465717,3.63047396 9.01058227,3.63047396 L14.9894772,3.63047396 C15.7054023,3.63047396 16.0827128,3.99494255 16.0827128,4.7046889 L16.0827128,5.43360643 L7.91734663,5.43360643 L7.91734663,4.7046889 Z M2.92524866,8.57948795 C2.92524866,7.70670795 3.37995115,7.27510093 4.22163322,7.27510093 L19.7785055,7.27510093 C20.6201875,7.27510093 21.0652012,7.70670795 21.0652012,8.57948795 L21.0652012,11.0060572 L2.92524866,11.0060572 L2.92524866,8.57948795 Z M4.22163322,19.1584996 C3.37995115,19.1584996 2.92524866,18.7268985 2.92524866,17.8541067 L2.92524866,12.6557219 L8.16888039,12.6557219 L8.16888039,13.202415 C8.16888039,14.0560238 8.67196771,14.545164 9.53300767,14.545164 L14.4670518,14.545164 C15.3280917,14.545164 15.82151,14.0560238 15.82151,13.202415 L15.82151,12.6557219 L21.0652012,12.6557219 L21.0652012,17.8541067 C21.0652012,18.7268985 20.6201875,19.1584996 19.7785055,19.1584996 L4.22163322,19.1584996 Z" id="sfsymbols:briefcase" fill="#000000" fill-rule="nonzero"></path>
    </g>
</svg>