<?xml version="1.0" encoding="UTF-8"?>
<svg width="24px" height="24px" viewBox="0 0 24 24" version="1.1" xmlns="http://www.w3.org/2000/svg" xmlns:xlink="http://www.w3.org/1999/xlink">
    <title>icon/iOS/key</title>
    <g id="icon/iOS/key" stroke="none" stroke-width="1" fill="none" fill-rule="evenodd">
        <rect id="ViewBox" fill-rule="nonzero" x="0" y="0" width="24" height="24"></rect>
        <path d="M20.3812816,1.38128157 C20.7229903,1.03957281 21.2770097,1.03957281 21.6187184,1.38128157 C21.9319515,1.69451459 21.9580542,2.1861475 21.6970267,2.52911384 L21.6187184,2.61871843 L20.2370837,4 L22.6187184,6.38128157 C22.9319515,6.69451459 22.9580542,7.1861475 22.6970267,7.52911384 L22.6187184,7.61871843 L19.1187184,11.1187184 C18.8054854,11.4319515 18.3138525,11.4580542 17.9708862,11.1970267 L17.8812816,11.1187184 L15.5000837,8.737 L12.5886455,11.6491761 C13.6739719,13.0661298 14.1191035,14.881489 13.8022865,16.6488476 L13.7508116,16.9055511 L13.6885045,17.1612721 C13.1013294,19.3723807 11.3743807,21.0993294 9.16327207,21.6865045 C6.95216348,22.2736795 4.59595463,21.6310412 2.98262282,19.9958728 C0.566674984,17.4944574 0.601226436,13.5183324 3.0602794,11.0592794 C5.31271194,8.80684686 8.83798513,8.58859853 11.3368731,10.4245141 L20.3812816,1.38128157 Z M10.7811272,12.2403772 C8.96637483,10.4876307 6.08173509,10.5126975 4.29771627,12.2967163 C2.51369745,14.0807351 2.48863071,16.9653748 4.23485008,18.773441 C5.40057114,19.9548889 7.10997756,20.4211166 8.71411517,19.9951269 C10.3182528,19.5691372 11.5711372,18.3162528 11.9971269,16.7121152 C12.4028314,15.1843651 11.9992684,13.561133 10.9393347,12.4030101 L10.7811272,12.2403772 Z M18.9990837,5.237 L16.7360837,7.5 L18.5,9.263 L20.763,7 L18.9990837,5.237 Z" id="feather:key" fill="#000000" fill-rule="nonzero"></path>
    </g>
</svg>