<?xml version="1.0" encoding="UTF-8"?>
<svg width="24px" height="24px" viewBox="0 0 24 24" version="1.1" xmlns="http://www.w3.org/2000/svg" xmlns:xlink="http://www.w3.org/1999/xlink">
    <title>icon/iOS/keyboard</title>
    <g id="icon/iOS/keyboard" stroke="none" stroke-width="1" fill="none" fill-rule="evenodd">
        <rect id="ViewBox" fill-rule="nonzero" x="0" y="0" width="24" height="24"></rect>
        <path d="M3.43411092,18 L20.5658891,18 C22.1860366,18 23,17.2101259 23,15.6531713 L23,8.35442708 C23,6.7898694 22.1860366,6 20.5658891,6 L3.43411092,6 C1.80620002,6 1,6.7898694 1,8.35442708 L1,15.6531713 C1,17.2177212 1.80620002,18 3.43411092,18 Z M3.44962179,16.7772151 C2.67441176,16.7772151 2.24806132,16.3746836 2.24806132,15.5848095 L2.24806132,8.42278879 C2.24806132,7.63291939 2.67441176,7.22278024 3.44962179,7.22278024 L20.5504893,7.22278024 C21.317936,7.22278024 21.7519863,7.63291939 21.7519863,8.42278879 L21.7519863,15.5848095 C21.7519863,16.3746836 21.317936,16.7772151 20.5504893,16.7772151 L3.44962179,16.7772151 Z M19.1861044,10.1392355 L19.7443052,10.1392355 C19.9613304,10.1392355 20.0697635,10.0405115 20.0697635,9.82026081 L20.0697635,9.2810199 C20.0697635,9.06835977 19.9613304,8.9620297 19.7443052,8.9620297 L19.1861044,8.9620297 C18.9690793,8.9620297 18.8604873,9.06835977 18.8604873,9.2810199 L18.8604873,9.82026081 C18.8604873,10.0405115 18.9690793,10.1392355 19.1861044,10.1392355 Z M16.6976975,10.1392355 L17.2481191,10.1392355 C17.4729235,10.1392355 17.5737362,10.0405115 17.5737362,9.82026081 L17.5737362,9.2810199 C17.5737362,9.06835977 17.4729235,8.9620297 17.2481191,8.9620297 L16.6976975,8.9620297 C16.4728931,8.9620297 16.3720804,9.06835977 16.3720804,9.2810199 L16.3720804,9.82026081 C16.3720804,10.0405115 16.4728931,10.1392355 16.6976975,10.1392355 Z M14.2015908,10.1392355 L14.759728,10.1392355 C14.9767373,10.1392355 15.0853293,10.0405115 15.0853293,9.82026081 L15.0853293,9.2810199 C15.0853293,9.06835977 14.9767373,8.9620297 14.759728,8.9620297 L14.2015908,8.9620297 C13.9845339,8.9620297 13.8760054,9.06835977 13.8760054,9.2810199 L13.8760054,9.82026081 C13.8760054,10.0405115 13.9845339,10.1392355 14.2015908,10.1392355 Z M11.7054523,10.1392355 L12.2635895,10.1392355 C12.4806464,10.1392355 12.5891749,10.0405115 12.5891749,9.82026081 L12.5891749,9.2810199 C12.5891749,9.06835977 12.4806464,8.9620297 12.2635895,8.9620297 L11.7054523,8.9620297 C11.4883954,8.9620297 11.3798669,9.06835977 11.3798669,9.2810199 L11.3798669,9.82026081 C11.3798669,10.0405115 11.4883954,10.1392355 11.7054523,10.1392355 Z M9.21707711,10.1392355 L9.76746687,10.1392355 C9.99227127,10.1392355 10.0930522,10.0405115 10.0930522,9.82026081 L10.0930522,9.2810199 C10.0930522,9.06835977 9.99227127,8.9620297 9.76746687,8.9620297 L9.21707711,8.9620297 C8.99227271,8.9620297 8.89149175,9.06835977 8.89149175,9.2810199 L8.89149175,9.82026081 C8.89149175,10.0405115 8.99227271,10.1392355 9.21707711,10.1392355 Z M6.72093859,10.1392355 L7.27909172,10.1392355 C7.49613275,10.1392355 7.6046612,10.0405115 7.6046612,9.82026081 L7.6046612,9.2810199 C7.6046612,9.06835977 7.49613275,8.9620297 7.27909172,8.9620297 L6.72093859,8.9620297 C6.50388169,8.9620297 6.39535323,9.06835977 6.39535323,9.2810199 L6.39535323,9.82026081 C6.39535323,10.0405115 6.50388169,10.1392355 6.72093859,10.1392355 Z M4.22481595,10.1392355 L4.7829532,10.1392355 C5.0000101,10.1392355 5.10853855,10.0405115 5.10853855,9.82026081 L5.10853855,9.2810199 C5.10853855,9.06835977 5.0000101,8.9620297 4.7829532,8.9620297 L4.22481595,8.9620297 C4.00775904,8.9620297 3.89923059,9.06835977 3.89923059,9.2810199 L3.89923059,9.82026081 C3.89923059,10.0405115 4.00775904,10.1392355 4.22481595,10.1392355 Z M9.21707711,12.5848115 L9.76746687,12.5848115 C9.99227127,12.5848115 10.0930522,12.4784814 10.0930522,12.2658213 L10.0930522,11.7265804 C10.0930522,11.5063297 9.99227127,11.4075902 9.76746687,11.4075902 L9.21707711,11.4075902 C8.99227271,11.4075902 8.89149175,11.5063297 8.89149175,11.7265804 L8.89149175,12.2658213 C8.89149175,12.4784814 8.99227271,12.5848115 9.21707711,12.5848115 Z M11.7054523,12.5848115 L12.2635895,12.5848115 C12.4806464,12.5848115 12.5891749,12.4784814 12.5891749,12.2658213 L12.5891749,11.7265804 C12.5891749,11.5063297 12.4806464,11.4075902 12.2635895,11.4075902 L11.7054523,11.4075902 C11.4883954,11.4075902 11.3798669,11.5063297 11.3798669,11.7265804 L11.3798669,12.2658213 C11.3798669,12.4784814 11.4883954,12.5848115 11.7054523,12.5848115 Z M14.2015908,12.5848115 L14.759728,12.5848115 C14.9767373,12.5848115 15.0853293,12.4784814 15.0853293,12.2658213 L15.0853293,11.7265804 C15.0853293,11.5063297 14.9767373,11.4075902 14.759728,11.4075902 L14.2015908,11.4075902 C13.9845339,11.4075902 13.8760054,11.5063297 13.8760054,11.7265804 L13.8760054,12.2658213 C13.8760054,12.4784814 13.9845339,12.5848115 14.2015908,12.5848115 Z M16.6976975,12.5848115 L17.2481191,12.5848115 C17.4729235,12.5848115 17.5737362,12.4784814 17.5737362,12.2658213 L17.5737362,11.7265804 C17.5737362,11.5063297 17.4729235,11.4075902 17.2481191,11.4075902 L16.6976975,11.4075902 C16.4728931,11.4075902 16.3720804,11.5063297 16.3720804,11.7265804 L16.3720804,12.2658213 C16.3720804,12.4784814 16.4728931,12.5848115 16.6976975,12.5848115 Z M6.72093859,12.5848115 L7.27909172,12.5848115 C7.49613275,12.5848115 7.6046612,12.4784814 7.6046612,12.2658213 L7.6046612,11.7265804 C7.6046612,11.5063297 7.49613275,11.4075902 7.27909172,11.4075902 L6.72093859,11.4075902 C6.50388169,11.4075902 6.39535323,11.5063297 6.39535323,11.7265804 L6.39535323,12.2658213 C6.39535323,12.4784814 6.50388169,12.5848115 6.72093859,12.5848115 Z M19.1861044,12.5848115 L19.7443052,12.5848115 C19.9613304,12.5848115 20.0697635,12.4784814 20.0697635,12.2658213 L20.0697635,11.7265804 C20.0697635,11.5063297 19.9613304,11.4075902 19.7443052,11.4075902 L19.1861044,11.4075902 C18.9690793,11.4075902 18.8604873,11.5063297 18.8604873,11.7265804 L18.8604873,12.2658213 C18.8604873,12.4784814 18.9690793,12.5848115 19.1861044,12.5848115 Z M4.22481595,12.5848115 L4.7829532,12.5848115 C5.0000101,12.5848115 5.10853855,12.4784814 5.10853855,12.2658213 L5.10853855,11.7265804 C5.10853855,11.5063297 5.0000101,11.4075902 4.7829532,11.4075902 L4.22481595,11.4075902 C4.00775904,11.4075902 3.89923059,11.5063297 3.89923059,11.7265804 L3.89923059,12.2658213 C3.89923059,12.4784814 4.00775904,12.5848115 4.22481595,12.5848115 Z M6.72093859,15.0303875 L17.2481191,15.0303875 C17.4729235,15.0303875 17.5737362,14.9240575 17.5737362,14.7113973 L17.5737362,14.1645503 C17.5737362,13.9519057 17.4729235,13.8455756 17.2481191,13.8455756 L6.72093859,13.8455756 C6.50388169,13.8455756 6.39535323,13.9519057 6.39535323,14.1645503 L6.39535323,14.7113973 C6.39535323,14.9240575 6.50388169,15.0303875 6.72093859,15.0303875 Z M19.1861044,15.0303875 L19.7443052,15.0303875 C19.9613304,15.0303875 20.0697635,14.9240575 20.0697635,14.7113973 L20.0697635,14.1645503 C20.0697635,13.9519057 19.9613304,13.8455756 19.7443052,13.8455756 L19.1861044,13.8455756 C18.9690793,13.8455756 18.8604873,13.9519057 18.8604873,14.1645503 L18.8604873,14.7113973 C18.8604873,14.9240575 18.9690793,15.0303875 19.1861044,15.0303875 Z M4.22481595,15.0303875 L4.7829532,15.0303875 C5.0000101,15.0303875 5.10853855,14.9240575 5.10853855,14.7113973 L5.10853855,14.1645503 C5.10853855,13.9519057 5.0000101,13.8455756 4.7829532,13.8455756 L4.22481595,13.8455756 C4.00775904,13.8455756 3.89923059,13.9519057 3.89923059,14.1645503 L3.89923059,14.7113973 C3.89923059,14.9240575 4.00775904,15.0303875 4.22481595,15.0303875 Z" id="sfsymbols:keyboard" fill="#000000" fill-rule="nonzero"></path>
    </g>
</svg>