<?xml version="1.0" encoding="UTF-8"?>
<svg width="24px" height="24px" viewBox="0 0 24 24" version="1.1" xmlns="http://www.w3.org/2000/svg" xmlns:xlink="http://www.w3.org/1999/xlink">
    <title>icon/iOS/kick</title>
    <g id="icon/iOS/kick" stroke="none" stroke-width="1" fill="none" fill-rule="evenodd">
        <rect id="ViewBox" fill-rule="nonzero" x="0" y="0" width="24" height="24"></rect>
        <path d="M15.7954064,12.7680664 C19.9758192,12.7680664 22.5825651,15.7380414 22.5825651,17.8904338 C22.5825651,18.6245821 22.1306179,19 20.8635657,19 L10.7271975,19 C9.45204642,19 9,18.6245821 9,17.8904338 C9,15.7380414 11.6068286,12.7680664 15.7954064,12.7680664 Z M8.72889428,8.27089295 C9.04662667,8.60220049 9.11571862,9.1129439 8.77034378,9.45804767 L6.68425943,11.542492 L8.60454576,13.4750759 C8.90847108,13.7925731 8.90847108,14.3033284 8.60454576,14.5932155 C8.30062043,14.8831033 7.78947587,14.896908 7.47171518,14.5932155 L5.55142885,12.6882382 L3.45153743,14.7588665 C3.10616259,15.117775 2.59501803,15.0487542 2.26345027,14.7312571 C1.94571787,14.4137622 1.890433,13.8892033 2.23583613,13.5440995 L4.32189219,11.4596665 L2.40160586,9.52708538 C2.09768053,9.20957408 2.09768053,8.68503444 2.40160586,8.39514388 C2.70553118,8.10525332 3.20286868,8.09145708 3.52062937,8.39514388 L5.46852984,10.3139231 L7.54080712,8.22947598 C7.88618195,7.8843722 8.41113359,7.95340992 8.72889428,8.27089295 Z M15.7873075,4 C17.5143397,4 19.0235136,5.56005675 19.0155436,7.60399627 C19.0155436,9.67296626 17.522422,11.2747462 15.7873075,11.2747462 C14.0602754,11.2747462 12.5671173,9.67296626 12.5671173,7.58732067 C12.5671173,5.52668847 14.0682089,4 15.7873075,4 Z" id="xabber:kick" fill="#000000" fill-rule="nonzero"></path>
    </g>
</svg>