<?xml version="1.0" encoding="UTF-8"?>
<svg width="24px" height="24px" viewBox="0 0 24 24" version="1.1" xmlns="http://www.w3.org/2000/svg" xmlns:xlink="http://www.w3.org/1999/xlink">
    <title>icon/iOS/link-variant</title>
    <g id="icon/iOS/link-variant" stroke="none" stroke-width="1" fill="none" fill-rule="evenodd">
        <rect id="ViewBox" fill-rule="nonzero" x="0" y="0" width="24" height="24"></rect>
        <path d="M11.8821153,15.876383 L13.1364006,14.6060182 C11.8915598,14.5119136 11.0805292,14.1355142 10.4675243,13.5238435 C8.81716821,11.8770793 8.82659341,9.54336848 10.4580991,7.91543295 L13.5324907,4.84773268 C15.1828468,3.2103732 17.5027783,3.20096851 19.153173,4.84773268 C20.8035485,6.49449685 20.7846208,8.81880303 19.153173,10.4467386 L17.3047332,12.2911167 C17.5687933,12.8933635 17.6253831,13.5897148 17.5310732,14.2013663 L20.3037039,11.4442133 C22.5576397,9.18579773 22.5763742,5.99575947 20.2942401,3.70911057 C18.0026035,1.42246167 14.7961819,1.44127104 12.5328402,3.69970589 L9.31699344,6.9179582 C7.05363246,9.17637378 7.03478206,12.3758167 9.32641863,14.6530609 C9.92055379,15.245903 10.6749946,15.6693451 11.8821153,15.876383 Z M12.1178804,8.12245165 L10.8636144,9.39281643 C12.1084552,9.49632578 12.9194858,9.86332048 13.5324907,10.4749719 C15.1828468,12.1217361 15.1734216,14.4554469 13.5419159,16.0834017 L10.4580991,19.1510904 C8.81716821,20.7884499 6.49723673,20.7978662 4.84688061,19.1605009 C3.19650519,17.5043224 3.2059497,15.1894363 4.84688061,13.5520768 L6.69528178,11.7076987 C6.43122171,11.1148566 6.36520669,10.4091005 6.46894182,9.79744914 L3.69633041,12.5546021 C1.44241588,14.8130369 1.42355389,18.0124683 3.70577493,20.2897145 C5.9974115,22.576373 9.20383311,22.5575444 11.4577496,20.3085335 L14.6830216,17.0808688 C16.9463633,14.8224416 16.965233,11.6229987 14.6735964,9.34575446 C14.0794612,8.7529317 13.3250011,8.32947034 12.1178804,8.12245165 Z" id="sfsymbols:link" fill="#000000" fill-rule="nonzero"></path>
    </g>
</svg>