<?xml version="1.0" encoding="UTF-8"?>
<svg width="24px" height="24px" viewBox="0 0 24 24" version="1.1" xmlns="http://www.w3.org/2000/svg" xmlns:xlink="http://www.w3.org/1999/xlink">
    <title>icon/iOS/link</title>
    <g id="icon/iOS/link" stroke="none" stroke-width="1" fill="none" fill-rule="evenodd">
        <rect id="ViewBox" fill-rule="nonzero" x="0" y="0" width="24" height="24"></rect>
        <path d="M9.75,7 C10.1642136,7 10.5,7.33578644 10.5,7.75 C10.5,8.16421356 10.1642136,8.5 9.75,8.5 L7,8.5 C5.06700338,8.5 3.5,10.0670034 3.5,12 C3.5,13.8685634 4.9642776,15.3951264 6.8079648,15.4948211 L7,15.5 L9.75,15.5 C10.1642136,15.5 10.5,15.8357864 10.5,16.25 C10.5,16.6642136 10.1642136,17 9.75,17 L7,17 C4.23857625,17 2,14.7614237 2,12 C2,9.23857625 4.23857625,7 7,7 L9.75,7 Z M17,7 C19.7614237,7 22,9.23857625 22,12 C22,14.7614237 19.7614237,17 17,17 L14.25,17 C13.8357864,17 13.5,16.6642136 13.5,16.25 C13.5,15.8357864 13.8357864,15.5 14.25,15.5 L17,15.5 C18.9329966,15.5 20.5,13.9329966 20.5,12 C20.5,10.1314366 19.0357224,8.60487355 17.1920352,8.50517886 L17,8.5 L14.25,8.5 C13.8357864,8.5 13.5,8.16421356 13.5,7.75 C13.5,7.33578644 13.8357864,7 14.25,7 L17,7 Z M16.5,11.25 C16.9142136,11.25 17.25,11.5857864 17.25,12 C17.25,12.4142136 16.9142136,12.75 16.5,12.75 L8,12.75 C7.58578644,12.75 7.25,12.4142136 7.25,12 C7.25,11.5857864 7.58578644,11.25 8,11.25 L16.5,11.25 Z" id="xabber:link" fill="#000000" fill-rule="nonzero"></path>
    </g>
</svg>