<?xml version="1.0" encoding="UTF-8"?>
<svg width="24px" height="24px" viewBox="0 0 24 24" version="1.1" xmlns="http://www.w3.org/2000/svg" xmlns:xlink="http://www.w3.org/1999/xlink">
    <title>icon/iOS/lock-open-outline</title>
    <g id="icon/iOS/lock-open-outline" stroke="none" stroke-width="1" fill="none" fill-rule="evenodd">
        <rect id="ViewBox" fill-rule="nonzero" x="0" y="0" width="24" height="24"></rect>
        <path d="M17.0558999,2 C19.537254,2 21.8799528,3.67631624 21.9955369,7.14569873 L22,7.41611289 L22,9.36357921 C22,9.98367134 21.6502773,10.2452808 21.2229711,10.2452808 C20.8105389,10.2452808 20.4891305,9.99760133 20.4421234,9.49464182 L20.4361945,9.36357921 L20.4361945,7.2126433 C20.4361945,4.7807114 18.8723094,3.4920905 17.0558999,3.4920905 C15.298065,3.4920905 13.7767627,4.69891549 13.6804433,6.98086906 L13.6756054,7.2126433 L13.6756054,9.78020175 C14.6786379,9.954615 15.1934804,10.6072939 15.2448959,11.8123733 L15.2491784,12.0183474 L15.2491784,18.6940343 C15.2491784,20.2075273 14.5890474,20.937964 13.2516444,20.9962062 L13.0733582,21 L4.18552809,21 C2.78921848,21 2.06197389,20.3326255 2.00379432,18.8870148 L2,18.6940343 L2,12.0183474 C2,10.5141502 2.66906502,9.79299411 4.00719506,9.73550922 L4.18552809,9.73176511 L12.1117203,9.73176511 L12.1117203,7.41611289 C12.1117203,3.76338329 14.5109612,2 17.0558999,2 Z M13.0247989,11.1851023 L4.23408742,11.1851023 C3.82450108,11.1851023 3.60265017,11.3479366 3.56851937,11.7930047 L3.56386517,11.9214741 L3.56386517,18.8006126 C3.56386517,19.2979781 3.75158389,19.5103946 4.12703664,19.5423434 L4.23408742,19.5466608 L13.0247989,19.5466608 C13.4462106,19.5466608 13.6524366,19.3732919 13.6816701,18.9198655 L13.6853132,18.8006126 L13.6853132,11.9214741 C13.6853132,11.4206259 13.5115035,11.2169795 13.1256909,11.1886129 L13.0247989,11.1851023 Z M8.6,13.5 C9.42842712,13.5 10.1,14.1715729 10.1,15 C10.1,15.8284271 9.42842712,16.5 8.6,16.5 C7.77157288,16.5 7.1,15.8284271 7.1,15 C7.1,14.1715729 7.77157288,13.5 8.6,13.5 Z" id="xabber:lock-open-outline" fill="#000000" fill-rule="nonzero"></path>
    </g>
</svg>