<?xml version="1.0" encoding="UTF-8"?>
<svg width="24px" height="24px" viewBox="0 0 24 24" version="1.1" xmlns="http://www.w3.org/2000/svg" xmlns:xlink="http://www.w3.org/1999/xlink">
    <title>icon/iOS/lock-open</title>
    <g id="icon/iOS/lock-open" stroke="none" stroke-width="1" fill="none" fill-rule="evenodd">
        <rect id="ViewBox" fill-rule="nonzero" x="0" y="0" width="24" height="24"></rect>
        <path d="M17.0219621,2 C19.5202105,2 21.8791218,3.68490866 21.995506,7.17207443 L22,7.44387468 L22,9.40132328 C22,10.0245939 21.6478852,10.2875442 21.2174559,10.2875442 C20.8022027,10.2875442 20.4785958,10.0385953 20.4312673,9.53305768 L20.4252978,9.40132328 L20.4252978,7.23936215 C20.4252978,4.79496471 18.8507959,3.49973862 17.0219621,3.49973862 C15.2521036,3.49973862 13.7203956,4.71274952 13.6234174,7.00639988 L13.6185463,7.23936215 L13.6185463,9.90773811 C14.5422034,10.0365053 15.0209706,10.6082826 15.0713162,11.6722993 L15.0757568,11.8651867 L15.0757568,19.0133305 C15.0757568,20.3147624 14.5054498,20.9418104 13.3563174,20.9961258 L13.1882172,21 L3.88751955,21 C2.68326075,21 2.05821478,20.4321081 2.00388056,19.1946727 L2,19.0133305 L2,11.8651867 C2,10.5797066 2.75161909,9.96246987 3.92109313,9.91122713 L4.08312553,9.90773811 L12.0439843,9.88825218 L12.0439843,7.44387468 C12.0439843,3.772422 14.459616,2 17.0219621,2 Z M8.5,13.5 C7.67157288,13.5 7,14.1715729 7,15 C7,15.8284271 7.67157288,16.5 8.5,16.5 C9.32842712,16.5 10,15.8284271 10,15 C10,14.1715729 9.32842712,13.5 8.5,13.5 Z" id="xabber:lock-open" fill="#000000" fill-rule="nonzero"></path>
    </g>
</svg>