<?xml version="1.0" encoding="UTF-8"?>
<svg width="24px" height="24px" viewBox="0 0 24 24" version="1.1" xmlns="http://www.w3.org/2000/svg" xmlns:xlink="http://www.w3.org/1999/xlink">
    <title>icon/iOS/lock-outline</title>
    <g id="icon/iOS/lock-outline" stroke="none" stroke-width="1" fill="none" fill-rule="evenodd">
        <rect id="ViewBox" fill-rule="nonzero" x="0" y="0" width="24" height="24"></rect>
        <path d="M12,2 C14.4330388,2 16.7303663,3.67411273 16.8465783,7.13885809 L16.8511843,7.41611289 L16.8511843,9.76083503 C17.9014669,9.90809749 18.4442687,10.571279 18.4959232,11.8168318 L18.5,12.0183474 L18.5,18.6940343 C18.5,20.2075273 17.8522841,20.937964 16.5400337,20.9962062 L16.3651006,21 L7.63489936,21 C6.26485027,21 5.5600311,20.3326255 5.50367473,18.8870148 L5.5,18.6940343 L5.5,12.0183474 C5.5,10.7113083 5.99028767,9.99013791 6.98719653,9.7883841 L7.14881572,9.76083503 L7.14881572,7.41611289 C7.14881572,3.76338329 9.50293387,2 12,2 Z M16.3174546,11.1851023 L7.69207075,11.1851023 C7.29018753,11.1851023 7.07250899,11.3479366 7.03902009,11.7930047 L7.03445343,11.9214741 L7.03445343,18.8006126 C7.03445343,19.2979781 7.2186417,19.5103946 7.58703328,19.5423434 L7.69207075,19.5466608 L16.3174546,19.5466608 C16.7193378,19.5466608 16.9290124,19.3756915 16.9611673,18.9292714 L16.9655466,18.8006126 L16.9655466,11.9214741 C16.9655466,11.424104 16.7893622,11.2198223 16.4223046,11.1892293 L16.3174546,11.1851023 Z M12,13.5 C12.8284271,13.5 13.5,14.1715729 13.5,15 C13.5,15.8284271 12.8284271,16.5 12,16.5 C11.1715729,16.5 10.5,15.8284271 10.5,15 C10.5,14.1715729 11.1715729,13.5 12,13.5 Z M12.0000098,3.4920905 C10.277151,3.4920905 8.78586091,4.69623514 8.68835586,6.97326653 L8.68328866,7.2126433 L8.68328866,9.73176511 L15.3167113,9.73176511 L15.3167113,7.2126433 C15.3167113,4.7807114 13.7822579,3.4920905 12.0000098,3.4920905 Z" id="xabber:lock-outline" fill="#000000" fill-rule="nonzero"></path>
    </g>
</svg>