<?xml version="1.0" encoding="UTF-8"?>
<svg width="24px" height="24px" viewBox="0 0 24 24" version="1.1" xmlns="http://www.w3.org/2000/svg" xmlns:xlink="http://www.w3.org/1999/xlink">
    <title>icon/iOS/lock</title>
    <g id="icon/iOS/lock" stroke="none" stroke-width="1" fill="none" fill-rule="evenodd">
        <rect id="ViewBox" fill-rule="nonzero" x="0" y="0" width="24" height="24"></rect>
        <path d="M12,2 C14.5494004,2 16.9528569,3.772422 16.9528569,7.44387468 L16.9528569,9.89800511 C17.9940238,10.0051279 18.5,10.6381315 18.5,11.8651867 L18.5,19.0133305 C18.5,20.3767354 17.8869897,21 16.6317344,21 L7.36826562,21 C6.11301033,21 5.5,20.3767354 5.5,19.0133305 L5.5,11.8651867 C5.5,10.7160353 6.09356044,10.0927647 7.04714314,9.94669003 L7.04714314,7.44387468 C7.04714314,3.772422 9.45059961,2 12,2 Z M12,13.5 C11.1715729,13.5 10.5,14.1715729 10.5,15 C10.5,15.8284271 11.1715729,16.5 12,16.5 C12.8284271,16.5 13.5,15.8284271 13.5,15 C13.5,14.1715729 12.8284271,13.5 12,13.5 Z M12.00001,3.49973862 C10.180389,3.49973862 8.61377603,4.79496471 8.61377603,7.23936215 L8.61377603,9.89800511 L15.386224,9.88825218 L15.386224,7.23936215 C15.386224,4.79496471 13.819611,3.49973862 12.00001,3.49973862 Z" id="xabber:lock" fill="#000000" fill-rule="nonzero"></path>
    </g>
</svg>