<?xml version="1.0" encoding="UTF-8"?>
<svg width="24px" height="24px" viewBox="0 0 24 24" version="1.1" xmlns="http://www.w3.org/2000/svg" xmlns:xlink="http://www.w3.org/1999/xlink">
    <title>icon/iOS/menu</title>
    <g id="icon/iOS/menu" stroke="none" stroke-width="1" fill="none" fill-rule="evenodd">
        <rect id="ViewBox" fill-rule="nonzero" x="0" y="0" width="24" height="24"></rect>
        <path d="M21,17.25 C21.4142136,17.25 21.75,17.5857864 21.75,18 C21.75,18.3796958 21.4678461,18.693491 21.1017706,18.7431534 L21,18.75 L3,18.75 C2.58578644,18.75 2.25,18.4142136 2.25,18 C2.25,17.6203042 2.53215388,17.306509 2.89822944,17.2568466 L3,17.25 L21,17.25 Z M21,11.25 C21.4142136,11.25 21.75,11.5857864 21.75,12 C21.75,12.3796958 21.4678461,12.693491 21.1017706,12.7431534 L21,12.75 L3,12.75 C2.58578644,12.75 2.25,12.4142136 2.25,12 C2.25,11.6203042 2.53215388,11.306509 2.89822944,11.2568466 L3,11.25 L21,11.25 Z M21,5.25 C21.4142136,5.25 21.75,5.58578644 21.75,6 C21.75,6.37969577 21.4678461,6.69349096 21.1017706,6.74315338 L21,6.75 L3,6.75 C2.58578644,6.75 2.25,6.41421356 2.25,6 C2.25,5.62030423 2.53215388,5.30650904 2.89822944,5.25684662 L3,5.25 L21,5.25 Z" id="feather.menu" fill="#000000" fill-rule="nonzero"></path>
    </g>
</svg>