<?xml version="1.0" encoding="UTF-8"?>
<svg width="24px" height="24px" viewBox="0 0 24 24" version="1.1" xmlns="http://www.w3.org/2000/svg" xmlns:xlink="http://www.w3.org/1999/xlink">
    <title>icon/iOS/menu-variant</title>
    <g id="icon/iOS/menu-variant" stroke="none" stroke-width="1" fill="none" fill-rule="evenodd">
        <rect id="ViewBox" fill-rule="nonzero" x="0" y="0" width="24" height="24"></rect>
        <path d="M21.6191834,15.5766253 L21.6708204,15.6645898 C21.8406255,16.0042 21.7285929,16.41105 21.4233747,16.6191834 L21.3354102,16.6708204 L12.3354102,21.1708204 C12.1594555,21.2587977 11.95754,21.2734606 11.7729318,21.2148091 L11.6645898,21.1708204 L2.6645898,16.6708204 C2.29410593,16.4855785 2.14393767,16.0350737 2.32917961,15.6645898 C2.49898472,15.3249796 2.8916843,15.1704957 3.24132194,15.2897902 L3.3354102,15.3291796 L12,19.661 L20.6645898,15.3291796 C21.0042,15.1593745 21.41105,15.2714071 21.6191834,15.5766253 Z M21.6191834,11.5766253 L21.6708204,11.6645898 C21.8406255,12.0042 21.7285929,12.41105 21.4233747,12.6191834 L21.3354102,12.6708204 L12.3354102,17.1708204 C12.1594555,17.2587977 11.95754,17.2734606 11.7729318,17.2148091 L11.6645898,17.1708204 L2.6645898,12.6708204 C2.29410593,12.4855785 2.14393767,12.0350737 2.32917961,11.6645898 C2.49898472,11.3249796 2.8916843,11.1704957 3.24132194,11.2897902 L3.3354102,11.3291796 L12,15.661 L20.6645898,11.3291796 C21.0042,11.1593745 21.41105,11.2714071 21.6191834,11.5766253 Z M11.6645898,2.82917961 C11.8405445,2.74120227 12.04246,2.72653938 12.2270682,2.78519094 L12.3354102,2.82917961 L21.3354102,7.32917961 C21.8536475,7.58829823 21.8860373,8.29782219 21.4325797,8.61324149 L21.3354102,8.67082039 L12.3354102,13.1708204 C12.1594555,13.2587977 11.95754,13.2734606 11.7729318,13.2148091 L11.6645898,13.1708204 L2.6645898,8.67082039 C2.14635255,8.41170177 2.11396272,7.70217781 2.56742032,7.38675851 L2.6645898,7.32917961 L11.6645898,2.82917961 Z M12,4.338 L4.676,8 L12,11.661 L19.323,8 L12,4.338 Z" id="xabber:menu-variant" fill="#000000" fill-rule="nonzero"></path>
    </g>
</svg>