<?xml version="1.0" encoding="UTF-8"?>
<svg width="24px" height="24px" viewBox="0 0 24 24" version="1.1" xmlns="http://www.w3.org/2000/svg" xmlns:xlink="http://www.w3.org/1999/xlink">
    <title>icon/iOS/menu-variant</title>
    <g id="icon/iOS/menu-variant" stroke="none" stroke-width="1" fill="none" fill-rule="evenodd">
        <rect id="ViewBox" fill-rule="nonzero" x="0" y="0" width="24" height="24"></rect>
        <path d="M23.6191834,16.0766253 L23.6708204,16.1645898 C23.8406255,16.5042 23.7285929,16.91105 23.4233747,17.1191834 L23.3354102,17.1708204 L12.3354102,22.6708204 C12.1594555,22.7587977 11.95754,22.7734606 11.7729318,22.7148091 L11.6645898,22.6708204 L0.664589803,17.1708204 C0.29410593,16.9855785 0.14393767,16.5350737 0.329179607,16.1645898 C0.498984715,15.8249796 0.891684297,15.6704957 1.24132194,15.7897902 L1.3354102,15.8291796 L12,21.161 L22.6645898,15.8291796 C23.0042,15.6593745 23.41105,15.7714071 23.6191834,16.0766253 Z M23.6191834,11.5766253 L23.6708204,11.6645898 C23.8406255,12.0042 23.7285929,12.41105 23.4233747,12.6191834 L23.3354102,12.6708204 L12.3354102,18.1708204 C12.1594555,18.2587977 11.95754,18.2734606 11.7729318,18.2148091 L11.6645898,18.1708204 L0.664589803,12.6708204 C0.29410593,12.4855785 0.14393767,12.0350737 0.329179607,11.6645898 C0.498984715,11.3249796 0.891684297,11.1704957 1.24132194,11.2897902 L1.3354102,11.3291796 L12,16.661 L22.6645898,11.3291796 C23.0042,11.1593745 23.41105,11.2714071 23.6191834,11.5766253 Z M11.6645898,1.32917961 C11.8405445,1.24120227 12.04246,1.22653938 12.2270682,1.28519094 L12.3354102,1.32917961 L23.3354102,6.82917961 C23.8536475,7.08829823 23.8860373,7.79782219 23.4325797,8.11324149 L23.3354102,8.17082039 L12.3354102,13.6708204 C12.1594555,13.7587977 11.95754,13.7734606 11.7729318,13.7148091 L11.6645898,13.6708204 L0.664589803,8.17082039 C0.146352549,7.91170177 0.113962721,7.20217781 0.567420318,6.88675851 L0.664589803,6.82917961 L11.6645898,1.32917961 Z M12,2.838 L2.676,7.5 L12,12.161 L21.323,7.5 L12,2.838 Z" id="xabber:menu-variant" fill="#000000" fill-rule="nonzero"></path>
    </g>
</svg>