<?xml version="1.0" encoding="UTF-8"?>
<svg width="24px" height="24px" viewBox="0 0 24 24" version="1.1" xmlns="http://www.w3.org/2000/svg" xmlns:xlink="http://www.w3.org/1999/xlink">
    <title>icon/iOS/message-burn</title>
    <g id="icon/iOS/message-burn" stroke="none" stroke-width="1" fill="none" fill-rule="evenodd">
        <rect id="ViewBox" fill-rule="nonzero" x="0" y="0" width="24" height="24"></rect>
        <path d="M12.1504156,1.99896869 L12.5505376,2.01276954 C12.9641331,2.03538844 13.2810823,2.38901009 13.2584634,2.80260562 C13.2377294,3.18173485 12.9388612,3.47965432 12.5706199,3.50925241 L12.4349504,3.50958043 L11.9997094,3.49798261 C11.7572027,3.5 11.5167831,3.51017992 11.2791447,3.53013623 L10.8506819,3.57704228 C10.6811052,3.60066554 10.5113729,3.62934588 10.3418938,3.66319477 L10.0776426,3.71829261 L9.90692476,3.75963672 L9.89128779,3.76567272 C9.49682743,3.8664834 9.11312964,3.99419774 8.742063,4.14757909 L8.29514408,4.3477425 C7.86249601,4.55759749 7.45032776,4.80306346 7.06244878,5.08033096 L6.81200852,5.26636665 L6.57271095,5.45758838 L6.34044046,5.65711327 L6.27812769,5.71420944 C6.00697653,5.96117785 5.75186608,6.22545336 5.51454267,6.50528963 L5.26976791,6.80783816 C4.85101189,7.35134372 4.49906002,7.94350558 4.22202356,8.57036223 L4.08244475,8.90144168 C4.00351128,9.10298188 3.93205081,9.30827061 3.86840424,9.51696699 L3.86630426,9.53036644 C3.81184218,9.71043927 3.76313392,9.89285828 3.72048425,10.0765597 C3.66737439,10.3066038 3.62389372,10.5360776 3.58991071,10.7651975 L3.54604299,11.1086389 L3.5357563,11.2151092 C3.51209292,11.4735667 3.5,11.7353711 3.5,12 L3.50572393,12.3148709 L3.52276359,12.6268544 L3.53535249,12.7853108 C3.57110098,13.1637808 3.63261298,13.542832 3.72048425,13.9234443 C3.76313392,14.1071457 3.81184218,14.2895647 3.86630426,14.4696376 L3.86840424,14.483033 C3.93184136,14.6910426 4.00304101,14.8956669 4.08166569,15.0965684 L4.08978583,15.1133869 C4.38238178,15.8546773 4.77792808,16.5522755 5.26370366,17.1842855 L5.48923346,17.4646929 L5.72596137,17.7347486 L5.87580673,17.8944399 L6.02967727,18.0502286 L6.24140014,18.2521423 L6.46659659,18.4530429 L6.63899758,18.5967317 L6.84574811,18.7595329 L7.08142432,18.9331942 C7.3828772,19.1474391 7.69890418,19.3425162 8.02772788,19.5166481 L8.23677178,19.6238868 C8.45312626,19.7304321 8.67438103,19.8278631 8.90012711,19.9159093 C9.11456879,19.9995465 9.33306324,20.0747152 9.55525992,20.1411834 L9.98666348,20.2601424 L10.087916,20.2821456 C10.2533671,20.3203429 10.419256,20.3535405 10.5854265,20.3817568 L10.9267603,20.4328917 L11.1565631,20.4586801 L11.442773,20.4809826 L11.6927137,20.4945489 L12.0680196,20.5018417 L12.4686274,20.4894726 C12.8822229,20.4668537 13.2358445,20.7838029 13.2584634,21.1973984 C13.2810823,21.6109939 12.9641331,21.9646156 12.5505376,21.9872345 L12.1075856,22.0013803 L11.7347203,21.9982949 C11.5467404,21.9935648 11.359099,21.9834556 11.1720081,21.9680199 L11.1480349,21.9642173 C10.9973967,21.9532149 10.8471142,21.9369628 10.6973054,21.9172845 L10.322344,21.860003 L10.0577072,21.8118959 L9.68988431,21.7318398 C9.12490238,21.5982318 8.5784469,21.4166976 8.05504686,21.1917661 L7.63492325,20.9993083 L7.44797066,20.9062292 L7.20548437,20.7783689 L6.92086767,20.6169597 L6.58132382,20.4062881 L6.23764606,20.1729499 C6.11274916,20.0849498 5.9899421,19.9941628 5.86931928,19.9006689 L5.59930303,19.6834676 L5.28625528,19.4121739 L5.07896393,19.2180007 L4.86361827,19.0070265 L4.81352921,18.953762 C4.64474537,18.7816148 4.48303172,18.6022431 4.32788798,18.4170354 L4.26211378,18.334909 L4.18974101,18.2484048 L4.0653695,18.0870131 C3.03293799,16.7432167 2.33420621,15.1296682 2.09311026,13.3703039 L2.04377755,12.9449262 L2.02223247,12.6721553 C2.00862165,12.4878448 2.00114222,12.3038365 1.99877296,12.1197918 L1.99877296,11.8802122 C2.00114222,11.6961675 2.00862165,11.5121592 2.02125241,11.328134 L2.04722708,11.0218797 C2.22071578,9.23472796 2.86463209,7.58530305 3.85358833,6.19899264 L4.18974101,5.75159924 C4.32374282,5.58432792 4.46299597,5.42156837 4.60724029,5.2635407 L4.85882737,4.99949235 L4.89003257,4.96804564 C4.96946855,4.88604969 5.05106759,4.80646109 5.13399831,4.72829028 L5.35517969,4.52596604 L5.61975374,4.2993976 L5.93560452,4.04839791 C6.14401708,3.88897842 6.35886423,3.7377287 6.5796918,3.59499908 L6.96277296,3.35898261 L6.92777296,3.37898261 L6.96907885,3.35578281 L6.92086767,3.38304432 C7.04496583,3.30993894 7.17065333,3.2395337 7.29786286,3.17187106 L7.66687825,2.98534062 C8.1784773,2.73872009 8.7142562,2.53458335 9.26969224,2.37728435 L9.71120181,2.26333141 L9.98932173,2.20193166 L10.3284012,2.13899962 L10.5977146,2.09628695 L10.9268965,2.0553817 L11.2363062,2.02696531 L11.6051858,2.00558062 L11.9998838,1.99798261 L12.1504156,1.99896869 Z M18.648192,18.4769095 C18.920298,18.7892094 18.8877145,19.2629639 18.5754146,19.5350699 L18.5217095,19.5789495 L18.5005482,19.6013728 C17.8889567,20.1252175 17.2156513,20.5735485 16.4929678,20.936227 L16.1275683,21.1103816 L16.0320074,21.1460501 C15.6779595,21.2515384 15.2916217,21.0817698 15.1352684,20.7357604 C14.9647012,20.3582956 15.1324248,19.9140278 15.5098896,19.7434606 L15.5858123,19.7070742 C16.3113143,19.3688633 16.9865848,18.9299137 17.5900316,18.4041322 C17.9023314,18.1320261 18.376086,18.1646097 18.648192,18.4769095 Z M21.2280385,12.9900495 C21.6349182,13.0676498 21.9018518,13.4603985 21.8242515,13.8672782 L21.8197095,13.8889495 L21.815398,13.9245494 C21.7453377,14.2808708 21.6559084,14.6326381 21.5477415,14.9783371 L21.4333521,15.3219571 L21.3368014,15.5836968 C21.2099105,15.9160016 21.0656702,16.2400199 20.9047308,16.5551755 L20.8501307,16.6458738 C20.6434679,16.9639704 20.2248355,17.0794945 19.8800372,16.9017134 C19.5118805,16.7118885 19.367314,16.259555 19.557139,15.8913983 L19.6902021,15.6217921 L19.8412985,15.2844407 L19.9879345,14.908536 C20.101949,14.5941379 20.1978771,14.2717915 20.2750007,13.9427943 L20.3508099,13.5862625 C20.4284102,13.1793828 20.8211589,12.9124492 21.2280385,12.9900495 Z M16.8181798,6.925 C16.961409,6.97708333 17.0574376,7.07311198 17.1062658,7.21308594 C17.1550939,7.3530599 17.1241694,7.50442708 17.0134923,7.6671875 L13.4099767,12.8332031 C13.1951329,13.1457031 12.9412267,13.3686849 12.6482579,13.5021484 C12.3552892,13.635612 12.0525548,13.6763021 11.7400548,13.6242187 C11.4275548,13.5721354 11.1410965,13.4191406 10.8806798,13.1652344 C10.6202632,12.8917969 10.4640132,12.6004557 10.4119298,12.2912109 C10.3598465,11.9819661 10.4005366,11.6808594 10.5340001,11.3878906 C10.6674637,11.0949219 10.8871902,10.8410156 11.1931798,10.6261719 L16.3591954,7.01289062 C16.5219559,6.90221354 16.6749507,6.87291667 16.8181798,6.925 Z M20.8376279,7.33387194 L20.8501307,7.35413017 C20.8701535,7.38264774 20.8884284,7.41290474 20.9047308,7.44482848 C21.0524466,7.73408929 21.1860947,8.03081631 21.3052282,8.33425387 L21.3950358,8.57182868 C21.5739943,9.06059786 21.714702,9.56332251 21.815398,10.0754546 L21.8242515,10.1327258 C21.8953851,10.5056989 21.6770145,10.8667979 21.3267245,10.984163 L21.2280385,11.0099545 C20.8211589,11.0875548 20.4284102,10.8206212 20.3508099,10.4137415 L20.3286067,10.3015517 L20.2750007,10.0572097 C20.2324691,9.87577653 20.1842186,9.69636597 20.1303697,9.51919571 L20.0397094,9.24098245 L19.9286912,8.93303667 L19.8527094,8.74698245 L19.7157863,8.43293298 C19.6652243,8.32378343 19.6123313,8.2156487 19.557139,8.10860575 C19.367314,7.74044903 19.5118805,7.28811553 19.8800372,7.0982906 C20.2175142,6.92428441 20.6257231,7.0312599 20.8376279,7.33387194 Z M16.0320074,2.8539539 L16.1275683,2.88962237 C16.989502,3.27910941 17.7870247,3.78747905 18.5005482,4.39863121 L18.5217095,4.41994952 L18.5754146,4.46493407 C18.8593236,4.71230317 18.912062,5.12632396 18.7148672,5.43419159 L18.648192,5.52309448 C18.376086,5.83539432 17.9023314,5.86797786 17.5900316,5.59587184 C17.0727915,5.14520195 16.502783,4.75832695 15.8936034,4.44400444 L15.6026755,4.2991481 C15.5718462,4.28476591 15.5409172,4.27056401 15.5098896,4.25654341 C15.1324248,4.08597617 14.9647012,3.64170841 15.1352684,3.26424359 C15.2916217,2.91823417 15.6779595,2.74846561 16.0320074,2.8539539 Z" id="xabber:message-burn" fill="#000000" fill-rule="nonzero"></path>
    </g>
</svg>