<?xml version="1.0" encoding="UTF-8"?>
<svg width="24px" height="24px" viewBox="0 0 24 24" version="1.1" xmlns="http://www.w3.org/2000/svg" xmlns:xlink="http://www.w3.org/1999/xlink">
    <title>icon/iOS/microphone-off</title>
    <g id="icon/iOS/microphone-off" stroke="none" stroke-width="1" fill="none" fill-rule="evenodd">
        <rect id="ViewBox" fill-rule="nonzero" x="0" y="0" width="24" height="24"></rect>
        <path d="M11.8432078,2 C9.88419955,2 8.55489296,3.40985482 8.50492703,5.46056927 L8.50492703,5.85493044 L15.1515009,12.4014148 C15.1714791,12.3324 15.1814887,12.2436582 15.1814887,12.16479 L15.1814887,5.56901808 C15.1814887,3.4591424 13.8421725,2 11.8432078,2 Z M19.1894071,20.1901388 C19.4892641,20.4859137 19.9790162,20.4859137 20.2788527,20.1901388 C20.5687001,19.8845043 20.5786892,19.4112649 20.2788527,19.115491 L4.8168233,3.87323072 C4.51696631,3.58731836 4.01722515,3.57746488 3.71738864,3.87323072 C3.42753712,4.16901674 3.42753712,4.66197325 3.71738864,4.94788561 L19.1894071,20.1901388 Z M4.69689279,12.3225264 C4.69689279,16.1873305 7.27555229,18.8985893 11.0935961,19.2140823 L11.0935961,21.5112649 L7.37550462,21.5112649 C6.95571713,21.5112649 6.62589287,21.8464769 6.62589287,22.2605612 C6.62589287,22.6746535 6.95571713,23 7.37550462,23 L16.3108906,23 C16.7306781,23 17.0605024,22.6746535 17.0605024,22.2605612 C17.0605024,21.8464769 16.7306781,21.5112649 16.3108906,21.5112649 L12.6028087,21.5112649 L12.6028087,19.2140823 C13.7222215,19.1253505 14.7417025,18.8295746 15.6012557,18.3464776 L14.5318088,17.2816923 C13.7722079,17.6464729 12.8626684,17.853517 11.8432078,17.853517 C8.42495288,17.853517 6.20610538,15.6253592 6.20610538,12.2633853 L6.20610538,10.3211197 C6.20610538,9.90703137 5.86627156,9.58168492 5.44650454,9.58168492 C5.02671704,9.58168492 4.69689279,9.90703137 4.69689279,10.3211197 L4.69689279,12.3225264 Z M17.1404765,14.3535137 L18.3098757,15.5070368 C18.7496414,14.580285 18.999512,13.5056301 18.999512,12.3225264 L18.999512,10.3211197 C18.999512,9.90703137 18.6596782,9.58168492 18.2399112,9.58168492 C17.8201237,9.58168492 17.4902994,9.90703137 17.4902994,10.3211197 L17.4902994,12.2633853 C17.4902994,13.022527 17.3703484,13.7225277 17.1404765,14.3535137 Z M11.8432078,15.7338081 C12.1930103,15.7338081 12.522855,15.6845003 12.8127024,15.5760515 L8.50492703,11.3366133 L8.50492703,12.16479 C8.50492703,14.264792 9.85423227,15.7338081 11.8432078,15.7338081 Z" id="sfsymbols:mic.slash.fill" fill="#000000" fill-rule="nonzero"></path>
    </g>
</svg>