<?xml version="1.0" encoding="UTF-8"?>
<svg width="24px" height="24px" viewBox="0 0 24 24" version="1.1" xmlns="http://www.w3.org/2000/svg" xmlns:xlink="http://www.w3.org/1999/xlink">
    <title>icon/iOS/microphone-off-outline</title>
    <g id="icon/iOS/microphone-off-outline" stroke="none" stroke-width="1" fill="none" fill-rule="evenodd">
        <rect id="ViewBox" fill-rule="nonzero" x="0" y="0" width="24" height="24"></rect>
        <path d="M5.73375123,9.64438972 C6.11937754,9.64438972 6.42279316,9.91649359 6.47068447,10.2793072 L6.47728021,10.3803691 L6.47728021,12.3135583 C6.47728021,15.6598215 8.64918066,17.8775669 12.0048889,17.8775669 C13.0212683,17.8775669 13.929318,17.6729249 14.7010659,17.2941721 L15.7582686,18.3297759 C14.9834822,18.7700714 14.0925725,19.0653296 13.1109508,19.1921554 L12.7386401,19.2317741 L12.7386401,21.5182218 L16.3682653,21.5182218 C16.7791708,21.5182218 17.1118143,21.8518674 17.1118143,22.2640166 C17.1118143,22.6418275 16.8323013,22.9454156 16.469214,22.9933899 L16.3682653,23 L7.63171468,23 C7.22080918,23 6.88818571,22.6761739 6.88818571,22.2640166 C6.88818571,21.8862132 7.16768182,21.5743746 7.53076637,21.5250251 L7.63171468,21.5182218 L11.2613599,21.5182218 L11.2613599,19.2317741 C7.61671013,18.9247337 5.1132062,16.3473027 5.00373918,12.6277831 L5,12.372423 L5,10.3803691 C5,9.96821581 5.32284573,9.64438972 5.73375123,9.64438972 Z M4.88038868,3.89183441 L4.9668233,3.96261156 L20.4288527,19.1336436 C20.7286892,19.4280353 20.7187001,19.8990633 20.4288527,20.2032695 C20.156274,20.4708992 19.7267404,20.4952292 19.4256091,20.2762594 L19.3394071,20.2032695 L3.86738864,5.03224451 C3.57753712,4.74766825 3.57753712,4.25701536 3.86738864,3.96261156 C4.13996728,3.69499002 4.57775639,3.67876611 4.88038868,3.89183441 Z M8.443,11.157 L9.98190825,12.6681084 C10.1763163,13.6497567 10.8234357,14.2857137 11.7367715,14.3889182 L13.0881616,15.7120555 C12.7522174,15.812724 12.3895114,15.865878 12.0048889,15.865878 C9.95984309,15.865878 8.53783611,14.3770775 8.44822176,12.2354613 L8.44372791,12.0191545 L8.443,11.157 Z M18.2662488,9.64438972 C18.6429121,9.64438972 18.9455809,9.91649359 18.9934099,10.2793072 L19,10.3803691 L19,12.372423 C19,13.5186229 18.7770372,14.5616703 18.3655295,15.4698777 L17.2185558,14.344866 C17.3893365,13.8178287 17.4908177,13.2422423 17.516327,12.6253897 L17.5227198,12.3135583 L17.5227198,10.3803691 C17.5227198,9.96821581 17.8553433,9.64438972 18.2662488,9.64438972 Z M12.0048889,2 C14.0404529,2 15.4621541,3.47961564 15.5517585,5.62952791 L15.5562521,5.84672349 L15.5562521,12.0191545 C15.5562521,12.2436725 15.541924,12.4615872 15.5140481,12.6719907 L14.078,11.263 L14.0789518,5.84672349 C14.0789518,4.45754428 13.3270675,3.54419946 12.1657552,3.46740422 L12.0048889,3.46215124 C10.8070635,3.46215124 9.99413546,4.31509697 9.92571038,5.66027322 L9.92102815,5.84672349 L9.921,7.184 L8.44488598,5.73607706 C8.4897387,3.60104496 9.83360582,2.10099233 11.8024874,2.00490208 L12.0048889,2 Z" id="sfsymbols:mic.slash" fill="#000000" fill-rule="nonzero"></path>
    </g>
</svg>