<?xml version="1.0" encoding="UTF-8"?>
<svg width="24px" height="24px" viewBox="0 0 24 24" version="1.1" xmlns="http://www.w3.org/2000/svg" xmlns:xlink="http://www.w3.org/1999/xlink">
    <title>icon/iOS/microphone</title>
    <g id="icon/iOS/microphone" stroke="none" stroke-width="1" fill="none" fill-rule="evenodd">
        <rect id="ViewBox" fill-rule="nonzero" x="0" y="0" width="24" height="24"></rect>
        <path d="M12.0048889,15.7338081 C13.9517811,15.7338081 15.2627596,14.264792 15.2627596,12.16479 L15.2627596,5.56901808 C15.2627596,3.4591424 13.9517811,2 12.0048889,2 C10.0482189,2 8.73724042,3.4591424 8.73724042,5.56901808 L8.73724042,12.16479 C8.73724042,14.264792 10.0482189,15.7338081 12.0048889,15.7338081 Z M5,12.3225264 C5,16.1873305 7.53387718,18.8985893 11.2613599,19.2140823 L11.2613599,21.5112649 L7.63171468,21.5112649 C7.22080918,21.5112649 6.88818571,21.8464769 6.88818571,22.2605612 C6.88818571,22.6746535 7.22080918,23 7.63171468,23 L16.3682653,23 C16.7791708,23 17.1118143,22.6746535 17.1118143,22.2605612 C17.1118143,21.8464769 16.7791708,21.5112649 16.3682653,21.5112649 L12.7386401,21.5112649 L12.7386401,19.2140823 C16.4758805,18.8985893 19,16.1873305 19,12.3225264 L19,10.3211197 C19,9.90703137 18.6771543,9.58168492 18.2662488,9.58168492 C17.8553433,9.58168492 17.5227198,9.90703137 17.5227198,10.3211197 L17.5227198,12.2633853 C17.5227198,15.6253592 15.3507993,17.853517 12.0048889,17.853517 C8.64918066,17.853517 6.47728021,15.6253592 6.47728021,12.2633853 L6.47728021,10.3211197 C6.47728021,9.90703137 6.15443447,9.58168492 5.73375123,9.58168492 C5.32284573,9.58168492 5,9.90703137 5,10.3211197 L5,12.3225264 Z" id="sfsymbols:mic.fill" fill="#000000" fill-rule="nonzero"></path>
    </g>
</svg>