<?xml version="1.0" encoding="UTF-8"?>
<svg width="24px" height="24px" viewBox="0 0 24 24" version="1.1" xmlns="http://www.w3.org/2000/svg" xmlns:xlink="http://www.w3.org/1999/xlink">
    <title>icon/iOS/microphone-outline</title>
    <g id="icon/iOS/microphone-outline" stroke="none" stroke-width="1" fill="none" fill-rule="evenodd">
        <rect id="ViewBox" fill-rule="nonzero" x="0" y="0" width="24" height="24"></rect>
        <path d="M12.0048889,15.865878 C14.1083051,15.865878 15.5562521,14.2761699 15.5562521,12.0191545 L15.5562521,5.84672349 C15.5562521,3.5799007 14.1083051,2 12.0048889,2 C9.8916749,2 8.44372791,3.5799007 8.44372791,5.84672349 L8.44372791,12.0191545 C8.44372791,14.2761699 9.8916749,15.865878 12.0048889,15.865878 Z M12.0048889,14.4037469 C10.7526169,14.4037469 9.92102815,13.4714984 9.92102815,12.0191545 L9.92102815,5.84672349 C9.92102815,4.39439977 10.7526169,3.46215124 12.0048889,3.46215124 C13.2571608,3.46215124 14.0789518,4.39439977 14.0789518,5.84672349 L14.0789518,12.0191545 C14.0789518,13.4714984 13.2571608,14.4037469 12.0048889,14.4037469 Z M7.63171468,23 L16.3682653,23 C16.7791708,23 17.1118143,22.6761739 17.1118143,22.2640166 C17.1118143,21.8518674 16.7791708,21.5182218 16.3682653,21.5182218 L12.7386401,21.5182218 L12.7386401,19.2317741 C16.4758805,18.9177555 19,16.228974 19,12.372423 L19,10.3803691 C19,9.96821581 18.6771543,9.64438972 18.2662488,9.64438972 C17.8553433,9.64438972 17.5227198,9.96821581 17.5227198,10.3803691 L17.5227198,12.3135583 C17.5227198,15.6598215 15.3507993,17.8775669 12.0048889,17.8775669 C8.64918066,17.8775669 6.47728021,15.6598215 6.47728021,12.3135583 L6.47728021,10.3803691 C6.47728021,9.96821581 6.15443447,9.64438972 5.73375123,9.64438972 C5.32284573,9.64438972 5,9.96821581 5,10.3803691 L5,12.372423 C5,16.228974 7.53387718,18.9177555 11.2613599,19.2317741 L11.2613599,21.5182218 L7.63171468,21.5182218 C7.22080918,21.5182218 6.88818571,21.8518674 6.88818571,22.2640166 C6.88818571,22.6761739 7.22080918,23 7.63171468,23 Z" id="sfsymbols:mic" fill="#000000" fill-rule="nonzero"></path>
    </g>
</svg>