<?xml version="1.0" encoding="UTF-8"?>
<svg width="24px" height="24px" viewBox="0 0 24 24" version="1.1" xmlns="http://www.w3.org/2000/svg" xmlns:xlink="http://www.w3.org/1999/xlink">
    <title>icon/iOS/moon</title>
    <g id="icon/iOS/moon" stroke="none" stroke-width="1" fill="none" fill-rule="evenodd">
        <rect id="ViewBox" fill-rule="nonzero" x="0" y="0" width="24" height="24"></rect>
        <path d="M17.6163656,15.4256064 C12.1392045,15.4256064 8.73959152,12.14336 8.73959152,6.87395639 C8.73959152,5.37123264 8.98810089,4.04646115 9.35588742,3.3346521 C9.50500933,3.04795235 9.53483371,2.90954279 9.53483371,2.71180905 C9.53483371,2.38556661 9.22667558,2 8.80917496,2 C8.72965685,2 8.54077588,2.02966209 8.26246249,2.13840957 C4.58449537,3.62135184 2,7.47701796 2,11.6292644 C2,17.6302525 6.3837097,22 12.4175383,22 C16.7416053,22 20.2505812,19.7459225 21.8609553,16.0484494 C21.9802528,15.7913915 22,15.5738966 22,15.4651491 C22,15.0598212 21.6520828,14.7830021 21.3440672,14.7830021 C21.1850717,14.7830021 21.0657742,14.7928827 20.8271791,14.8818487 C20.0219412,15.2081114 18.8092187,15.4256064 17.6163656,15.4256064 Z M3.56063353,11.5600596 C3.56063353,8.48542761 5.17098725,5.55906551 7.74555406,3.94759428 C7.42746125,4.86703793 7.25847,5.8853282 7.25847,7.01236595 C7.25847,13.1912921 11.0457593,16.869006 17.387746,16.869006 C18.4116078,16.869006 19.2764131,16.7503779 20.1014593,16.4636781 C18.5905337,18.9451312 15.6779844,20.4577356 12.477187,20.4577356 C7.31811876,20.4577356 3.56063353,16.7207158 3.56063353,11.5600596 Z" id="sfsymbols:moon" fill="#000000" fill-rule="nonzero"></path>
    </g>
</svg>