<?xml version="1.0" encoding="UTF-8"?>
<svg width="24px" height="24px" viewBox="0 0 24 24" version="1.1" xmlns="http://www.w3.org/2000/svg" xmlns:xlink="http://www.w3.org/1999/xlink">
    <title>icon/iOS/palette</title>
    <g id="icon/iOS/palette" stroke="none" stroke-width="1" fill="none" fill-rule="evenodd">
        <rect id="ViewBox" fill-rule="nonzero" x="0" y="0" width="24" height="24"></rect>
        <path d="M12,1.5 C17.7624571,1.5 22.5,5.71034125 22.5,11 C22.5,14.5898509 19.5898509,17.5 16,17.5 L14.23,17.5 C14.23,17.4955109 14.234458,17.5068662 14.2122052,17.4825798 L14.213,17.483 L14.3436606,17.6349959 C14.7169898,18.0986161 14.9452118,18.666534 14.9913188,19.2715228 L15,19.5 C15,21.1568542 13.6568542,22.5 12,22.5 C6.20101013,22.5 1.5,17.7989899 1.5,12 C1.5,6.20101013 6.20101013,1.5 12,1.5 Z M12,3 C7.02943725,3 3,7.02943725 3,12 C3,16.9705627 7.02943725,21 12,21 C12.8284271,21 13.5,20.3284271 13.5,19.5 C13.5,19.11 13.35,18.76 13.11,18.5 C12.88,18.23 12.73,17.88 12.73,17.5 C12.73,16.6715729 13.4015729,16 14.23,16 L16,16 L16.2168896,15.9953805 C18.8776933,15.8818181 21,13.6887547 21,11 C21,6.58 16.97,3 12,3 Z M17.5,9 C18.3284271,9 19,9.67157288 19,10.5 C19,11.3284271 18.3284271,12 17.5,12 C16.6715729,12 16,11.3284271 16,10.5 C16,9.67157288 16.6715729,9 17.5,9 Z M6.5,9 C7.32842712,9 8,9.67157288 8,10.5 C8,11.3284271 7.32842712,12 6.5,12 C5.67157288,12 5,11.3284271 5,10.5 C5,9.67157288 5.67157288,9 6.5,9 Z M14.5,5 C15.3284271,5 16,5.67157288 16,6.5 C16,7.32842712 15.3284271,8 14.5,8 C13.6715729,8 13,7.32842712 13,6.5 C13,5.67157288 13.6715729,5 14.5,5 Z M9.5,5 C10.3284271,5 11,5.67157288 11,6.5 C11,7.32842712 10.3284271,8 9.5,8 C8.67157288,8 8,7.32842712 8,6.5 C8,5.67157288 8.67157288,5 9.5,5 Z" id="xabber:palette.outline" fill="#000000" fill-rule="nonzero"></path>
    </g>
</svg>