<?xml version="1.0" encoding="UTF-8"?>
<svg width="24px" height="24px" viewBox="0 0 24 24" version="1.1" xmlns="http://www.w3.org/2000/svg" xmlns:xlink="http://www.w3.org/1999/xlink">
    <title>icon/iOS/pencil</title>
    <g id="icon/iOS/pencil" stroke="none" stroke-width="1" fill="none" fill-rule="evenodd">
        <rect id="ViewBox" fill-rule="nonzero" x="0" y="0" width="24" height="24"></rect>
        <path d="M16.4696699,2.46966992 L2.96966991,15.9696699 C2.87737819,16.0619616 2.81076927,16.1767408 2.77642713,16.3026619 L1.27642713,21.8026619 C1.12373417,22.3625361 1.63746387,22.8762658 2.19733805,22.7235729 L7.69733805,21.2235729 C7.82325923,21.1892307 7.93803836,21.1226218 8.03033009,21.0303301 L21.5303301,7.53033009 C22.43433,6.62633023 22.7873821,5.3087217 22.4564952,4.0738349 C22.1256083,2.83894809 21.1610519,1.8743917 19.9261651,1.54350479 C18.6912783,1.21261787 17.3736698,1.56567003 16.4696699,2.46966992 Z M19.5379365,2.99239353 C20.2551852,3.18457974 20.8154203,3.74481475 21.0076065,4.46206346 L21.0449406,4.62830407 C21.1663514,5.2956284 20.954343,5.98499684 20.4696699,6.46966991 L7.11,19.829 L3.068,20.931 L4.171,16.89 L17.5303301,3.53033009 C18.0150032,3.045657 18.7043716,2.83364856 19.3716959,2.95505942 L19.5379365,2.99239353 Z" id="feather:edit-2" fill="#000000" fill-rule="nonzero"></path>
    </g>
</svg>