<?xml version="1.0" encoding="UTF-8"?>
<svg width="24px" height="24px" viewBox="0 0 24 24" version="1.1" xmlns="http://www.w3.org/2000/svg" xmlns:xlink="http://www.w3.org/1999/xlink">
    <title>icon/iOS/phone-circle</title>
    <g id="icon/iOS/phone-circle" stroke="none" stroke-width="1" fill="none" fill-rule="evenodd">
        <rect id="Bounds" x="0" y="0" width="24" height="24"></rect>
        <path d="M11.9999568,22 C17.4705246,22 22,17.4607893 22,12.00001 C22,6.52941643 17.4607264,2 11.9901586,2 C6.52938903,2 2,6.52941643 2,12.00001 C2,17.4607893 6.53920735,22 11.9999568,22 Z M9.44115161,14.4411877 C7.00978368,12.0196066 5.460779,8.93136083 7.29409314,7.09803803 C7.40193397,6.9901967 7.51959311,6.88235536 7.62743394,6.77451403 C8.18625462,6.24508555 8.73527707,6.27450047 9.2058534,6.95098349 L10.4803669,8.76470972 C10.9117302,9.39216117 10.8136877,9.74510011 10.3529096,10.2352953 L9.94114272,10.676479 C9.80388711,10.8137152 9.86271668,11.000003 9.92154625,11.1176426 C10.1176114,11.4705816 10.637219,12.098033 11.2058379,12.6666747 C11.7940734,13.2549129 12.3921071,13.7549064 12.7646609,13.9607908 C12.9019165,14.0392172 13.1078,14.0588339 13.225439,13.9411742 L13.6470041,13.5392237 C14.1176005,13.0784234 14.4999526,12.9607838 15.1176028,13.3921491 C15.960733,13.9902057 16.4705223,14.3431447 16.9607353,14.6862853 C17.5783655,15.1372673 17.7254193,15.6960906 17.1077891,16.2647122 C16.99013,16.3725536 16.8921075,16.4901932 16.7842466,16.5980345 C14.9607307,18.4215731 11.8823178,16.872547 9.44115161,14.4411877 Z" id="phone-circle" fill="#000000" fill-rule="nonzero"></path>
    </g>
</svg>