<?xml version="1.0" encoding="UTF-8"?>
<svg width="24px" height="24px" viewBox="0 0 24 24" version="1.1" xmlns="http://www.w3.org/2000/svg" xmlns:xlink="http://www.w3.org/1999/xlink">
    <title>icon/iOS/phone-hangup</title>
    <g id="icon/iOS/phone-hangup" stroke="none" stroke-width="1" fill="none" fill-rule="evenodd">
        <rect id="ViewBox" fill-rule="nonzero" x="0" y="0" width="24" height="24"></rect>
        <path d="M11.9970534,7.5 C7.76213761,7.5 3.78152587,8.43053531 1.79610738,10.5063239 C0.896308457,11.4470789 0.446406991,12.5821125 0.505089617,13.9523454 C0.544212702,14.7806001 0.78872598,15.5168568 1.24840021,15.997454 C1.59071719,16.3655719 2.06996097,16.5700911 2.62744291,16.4780512 L6.2559629,15.8338344 C6.80367008,15.7418154 7.18510615,15.5679761 7.42961542,15.3021179 C7.75236285,14.9748997 7.85017056,14.4840619 7.85017056,13.8398661 L7.85017056,12.8070711 C7.85017056,12.6434725 7.91863396,12.5207526 8.01644168,12.4184929 C8.11422936,12.295794 8.26095095,12.2446746 8.36853343,12.2139946 C9.03359784,12.0503751 10.3832962,11.8969961 11.9970534,11.8969961 C13.6108306,11.8969961 14.9507342,12.0196951 15.6255734,12.2242143 C15.7233811,12.2548943 15.8603079,12.3162543 15.9678904,12.4184929 C16.0559233,12.5207526 16.114612,12.6332319 16.1243867,12.7968514 L16.1341615,13.8398661 C16.1439363,14.4840619 16.241744,14.9748997 16.5547167,15.3021179 C16.8090007,15.5679761 17.1904368,15.7418154 17.7381439,15.8338344 L21.31771,16.4678315 C21.8947815,16.5700911 22.3839202,16.3553522 22.7652962,15.966774 C23.2249905,15.4963965 23.4791744,14.7703804 23.498804,13.9421047 C23.5280482,12.5616522 23.0194801,11.4266186 22.1393509,10.5063239 C20.1539524,8.43053531 16.2319692,7.5 11.9970534,7.5 Z" id="sfsymbols:phone.down.fill" fill="#000000" fill-rule="nonzero"></path>
    </g>
</svg>