<?xml version="1.0" encoding="UTF-8"?>
<svg width="24px" height="24px" viewBox="0 0 24 24" version="1.1" xmlns="http://www.w3.org/2000/svg" xmlns:xlink="http://www.w3.org/1999/xlink">
    <title>icon/iOS/pin</title>
    <g id="icon/iOS/pin" stroke="none" stroke-width="1" fill="none" fill-rule="evenodd">
        <rect id="ViewBox" fill-rule="nonzero" x="0" y="0" width="24" height="24"></rect>
        <path d="M5.91982725,16.6293482 L11.1451998,16.6293482 L11.1451998,21.2372291 C11.1451998,22.7468845 11.7633588,24 12.0048266,24 C12.2366412,24 12.8548002,22.7468845 12.8548002,21.2372291 L12.8548002,16.6293482 L18.0801728,16.6293482 C18.9494527,16.6293482 19.5,16.0767907 19.5,15.2380933 C19.5,13.1561417 17.8676843,11.064349 15.3467625,10.0480467 L15.02801,5.42041884 C16.2546749,4.60146426 17.4137281,3.6739543 17.9063168,3.00300039 C18.1671106,2.66753354 18.283008,2.33204649 18.283008,2.04590646 C18.283008,1.44402223 17.8290518,1 17.1529342,1 L6.85671898,1 C6.17094817,1 5.72664513,1.44402223 5.72664513,2.04590646 C5.72664513,2.33204649 5.84256231,2.66753354 6.09368324,3.00300039 C6.58627192,3.6739543 7.75497824,4.60146426 8.97198998,5.42041884 L8.65325729,10.0480467 C6.13231571,11.064349 4.5,13.1561417 4.5,15.2380933 C4.5,16.0767907 5.05054728,16.6293482 5.91982725,16.6293482 Z M12.1034845,9.49610262 C11.4886942,9.49610262 10.8931247,9.55586768 10.3359574,9.6754386 L10.6241514,4.7336909 C10.633752,4.5942051 10.6145509,4.54439749 10.5184862,4.49456947 C9.07757505,3.72741797 7.96326022,2.82076026 7.88641634,2.6215094 C7.8095528,2.49198104 7.88641634,2.4122807 7.99208159,2.4122807 L16.2052868,2.4122807 C16.3109521,2.4122807 16.3878156,2.49198104 16.3109521,2.6215094 C16.2341082,2.82076026 15.1197934,3.72741797 13.6788822,4.49456947 C13.5924378,4.54439749 13.5636164,4.5942051 13.5828372,4.7336909 L13.8710116,9.6754386 C13.3042438,9.55586768 12.7182748,9.49610262 12.1034845,9.49610262 Z M6.36916178,15.122807 C6.14562756,15.122807 6.04843098,14.9961817 6.08730563,14.7332167 C6.30112617,12.9800303 8.53656789,10.8859649 12.1035411,10.8859649 C15.6608005,10.8859649 17.8962423,12.9800303 18.1100628,14.7332167 C18.1489374,14.9961817 18.0517409,15.122807 17.8282066,15.122807 L6.36916178,15.122807 Z" id="sfsymbols:pin" fill="#000000" fill-rule="nonzero"></path>
    </g>
</svg>