<?xml version="1.0" encoding="UTF-8"?>
<svg width="24px" height="24px" viewBox="0 0 24 24" version="1.1" xmlns="http://www.w3.org/2000/svg" xmlns:xlink="http://www.w3.org/1999/xlink">
    <title>icon/iOS/pinned</title>
    <g id="icon/iOS/pinned" stroke="none" stroke-width="1" fill="none" fill-rule="evenodd">
        <rect id="ViewBox" fill-rule="nonzero" x="0" y="0" width="24" height="24"></rect>
        <path d="M12.0000378,22 C17.4736542,22 22,17.4735843 22,12 C22,6.52642799 17.4736542,2 11.9900734,2 C6.51647734,2 2,6.52642799 2,12 C2,17.4735843 6.52644173,22 12.0000378,22 Z M11.9947985,21 C7.00798799,21 3,16.9816747 3,11.9948407 C3,7.00800678 7.00798799,3 11.9845011,3 C16.9713117,3 20.9896604,7.00800678 21,11.9948407 C21,16.9816747 16.9816302,21 11.9947985,21 Z M8.0917498,13.9740845 C8.0917498,14.3629187 8.35098736,14.602206 8.75975206,14.602206 L11.5015323,14.602206 L11.5015323,16.6460614 C11.5015323,17.553346 11.8504902,18.3210419 12.0000378,18.3210419 C12.1595702,18.3210419 12.5085281,17.553346 12.5085281,16.6460614 L12.5085281,14.602206 L15.2403439,14.602206 C15.6491086,14.602206 15.9183106,14.3629187 15.9183106,13.9740845 C15.9183106,12.8574241 15.0210048,11.7208349 13.6052443,11.2223316 L13.4257831,8.75972851 C14.0738361,8.390823 14.6720468,7.91226881 14.971142,7.55334806 C15.1007607,7.38385204 15.1705523,7.20439166 15.1705523,7.05484476 C15.1705523,6.77567964 14.9611776,6.57627015 14.622184,6.57627015 L9.37789152,6.57627015 C9.05884719,6.57627015 8.83950804,6.77567964 8.83950804,7.05484476 C8.83950804,7.20439166 8.91928444,7.39381639 9.068832,7.57327676 C9.35796274,7.93219751 9.9461886,8.390823 10.5743129,8.75972851 L10.4048161,11.2223316 C8.97909121,11.7208349 8.0917498,12.8574241 8.0917498,13.9740845 Z" id="sfsymbols:pin.circle" fill="#000000" fill-rule="nonzero"></path>
    </g>
</svg>