<?xml version="1.0" encoding="UTF-8"?>
<svg width="24px" height="24px" viewBox="0 0 24 24" version="1.1" xmlns="http://www.w3.org/2000/svg" xmlns:xlink="http://www.w3.org/1999/xlink">
    <title>icon/iOS/qrcode</title>
    <g id="icon/iOS/qrcode" stroke="none" stroke-width="1" fill="none" fill-rule="evenodd">
        <rect id="ViewBox" fill-rule="nonzero" x="0" y="0" width="24" height="24"></rect>
        <path d="M14.6838367,11.1933756 L19.1324956,11.1933756 C20.3742146,11.1933756 21,10.567629 21,9.27702919 L21,4.90657476 C21,3.61597493 20.3742146,3 19.1324956,3 L14.6838367,3 C13.4323461,3 12.8066008,3.61597493 12.8066008,4.90657476 L12.8066008,9.27702919 C12.8066008,10.567629 13.4323461,11.1933756 14.6838367,11.1933756 Z M4.86744433,11.1933756 L9.32589484,11.1933756 C10.5675938,11.1933756 11.1933392,10.567629 11.1933392,9.27702919 L11.1933392,4.90657476 C11.1933392,3.61597493 10.5675938,3 9.32589484,3 L4.86744433,3 C3.62574533,3 3,3.61597493 3,4.90657476 L3,9.27702919 C3,10.567629 3.62574533,11.1933756 4.86744433,11.1933756 Z M4.88700764,9.81477078 C4.54480003,9.81477078 4.37858204,9.6387808 4.37858204,9.27702919 L4.37858204,4.90657476 C4.37858204,4.5545948 4.54480003,4.37860483 4.88700764,4.37860483 L9.2965599,4.37860483 C9.63876751,4.37860483 9.81475713,4.5545948 9.81475713,4.90657476 L9.81475713,9.27702919 C9.81475713,9.6387808 9.63876751,9.81477078 9.2965599,9.81477078 L4.88700764,9.81477078 Z M14.70338,9.81477078 C14.3514008,9.81477078 14.1851828,9.6387808 14.1851828,9.27702919 L14.1851828,4.90657476 C14.1851828,4.5545948 14.3514008,4.37860483 14.70338,4.37860483 L19.1129323,4.37860483 C19.4551399,4.37860483 19.6213579,4.5545948 19.6213579,4.90657476 L19.6213579,9.27702919 C19.6213579,9.6387808 19.4551399,9.81477078 19.1129323,9.81477078 L14.70338,9.81477078 Z M6.25581804,8.12331268 L7.92772947,8.12331268 C8.06461252,8.12331268 8.1232824,8.06464268 8.1232824,7.89842436 L8.1232824,6.27540793 C8.1232824,6.11896127 8.06461252,6.06029127 7.92772947,6.06029127 L6.25581804,6.06029127 C6.10916336,6.06029127 6.06028514,6.11896127 6.06028514,6.27540793 L6.06028514,7.89842436 C6.06028514,8.06464268 6.10916336,8.12331268 6.25581804,8.12331268 Z M16.1210887,8.12331268 L17.7930001,8.12331268 C17.9396548,8.12331268 17.9983247,8.06464268 17.9983247,7.89842436 L17.9983247,6.27540793 C17.9983247,6.11896127 17.9396548,6.06029127 17.7930001,6.06029127 L16.1210887,6.06029127 C15.9842056,6.06029127 15.9353274,6.11896127 15.9353274,6.27540793 L15.9353274,7.89842436 C15.9353274,8.06464268 15.9842056,8.12331268 16.1210887,8.12331268 Z M4.86744433,21 L9.32589484,21 C10.5675938,21 11.1933392,20.3840311 11.1933392,19.0934294 L11.1933392,14.7131951 C11.1933392,13.432387 10.5675938,12.8066404 9.32589484,12.8066404 L4.86744433,12.8066404 C3.62574533,12.8066404 3,13.432387 3,14.7131951 L3,19.0934294 C3,20.3840311 3.62574533,21 4.86744433,21 Z M13.4714527,15.3389417 L15.1433641,15.3389417 C15.2802471,15.3389417 15.338917,15.2802918 15.338917,15.1140734 L15.338917,13.491037 C15.338917,13.3346103 15.2802471,13.2759403 15.1433641,13.2759403 L13.4714527,13.2759403 C13.324798,13.2759403 13.2758997,13.3346103 13.2758997,13.491037 L13.2758997,15.1140734 C13.2758997,15.2802918 13.324798,15.3389417 13.4714527,15.3389417 Z M18.6631766,15.3389417 L20.335088,15.3389417 C20.4719711,15.3389417 20.5306409,15.2802918 20.5306409,15.1140734 L20.5306409,13.491037 C20.5306409,13.3346103 20.4719711,13.2759403 20.335088,13.2759403 L18.6631766,13.2759403 C18.5165219,13.2759403 18.4676437,13.3346103 18.4676437,13.491037 L18.4676437,15.1140734 C18.4676437,15.2802918 18.5165219,15.3389417 18.6631766,15.3389417 Z M4.88700764,19.6214032 C4.54480003,19.6214032 4.37858204,19.4454112 4.37858204,19.0934294 L4.37858204,14.7229868 C4.37858204,14.3612152 4.54480003,14.1852252 4.88700764,14.1852252 L9.2965599,14.1852252 C9.63876751,14.1852252 9.81475713,14.3612152 9.81475713,14.7229868 L9.81475713,19.0934294 C9.81475713,19.4454112 9.63876751,19.6214032 9.2965599,19.6214032 L4.88700764,19.6214032 Z M6.25581804,17.9397087 L7.92772947,17.9397087 C8.06461252,17.9397087 8.1232824,17.8810447 8.1232824,17.7050548 L8.1232824,16.0918 C8.1232824,15.9353733 8.06461252,15.8767033 7.92772947,15.8767033 L6.25581804,15.8767033 C6.10916336,15.8767033 6.06028514,15.9353733 6.06028514,16.0918 L6.06028514,17.7050548 C6.06028514,17.8810447 6.10916336,17.9397087 6.25581804,17.9397087 Z M16.0917537,17.9397087 L17.7636652,17.9397087 C17.9005482,17.9397087 17.9592181,17.8810447 17.9592181,17.7050548 L17.9592181,16.0918 C17.9592181,15.9353733 17.9005482,15.8767033 17.7636652,15.8767033 L16.0917537,15.8767033 C15.9450991,15.8767033 15.8962208,15.9353733 15.8962208,16.0918 L15.8962208,17.7050548 C15.8962208,17.8810447 15.9450991,17.9397087 16.0917537,17.9397087 Z M13.4714527,20.5306921 L15.1433641,20.5306921 C15.2802471,20.5306921 15.338917,20.4720281 15.338917,20.3058138 L15.338917,18.6827833 C15.338917,18.5263467 15.2802471,18.4676827 15.1433641,18.4676827 L13.4714527,18.4676827 C13.324798,18.4676827 13.2758997,18.5263467 13.2758997,18.6827833 L13.2758997,20.3058138 C13.2758997,20.4720281 13.324798,20.5306921 13.4714527,20.5306921 Z M18.6631766,20.5306921 L20.335088,20.5306921 C20.4719711,20.5306921 20.5306409,20.4720281 20.5306409,20.3058138 L20.5306409,18.6827833 C20.5306409,18.5263467 20.4719711,18.4676827 20.335088,18.4676827 L18.6631766,18.4676827 C18.5165219,18.4676827 18.4676437,18.5263467 18.4676437,18.6827833 L18.4676437,20.3058138 C18.4676437,20.4720281 18.5165219,20.5306921 18.6631766,20.5306921 Z" id="sfsymbols:qrcode" fill="#000000" fill-rule="nonzero"></path>
    </g>
</svg>