<?xml version="1.0" encoding="UTF-8"?>
<svg width="23px" height="24px" viewBox="0 0 23 24" version="1.1" xmlns="http://www.w3.org/2000/svg" xmlns:xlink="http://www.w3.org/1999/xlink">
    <title>icon/iOS/qrcode-scan</title>
    <g id="icon/iOS/qrcode-scan" stroke="none" stroke-width="1" fill="none" fill-rule="evenodd">
        <rect id="ViewBox" fill-rule="nonzero" x="0" y="0" width="24" height="24"></rect>
        <path d="M3.78430051,9.23869248 C4.30390814,9.23869248 4.57841934,8.95422705 4.57841934,8.43433433 L4.57841934,6.11935628 C4.57841934,5.09919817 5.11762344,4.57930545 6.0980292,4.57930545 L8.47056737,4.57930545 C8.99017499,4.57930545 9.27448443,4.29481993 9.27448443,3.78475092 C9.27448443,3.28446543 8.99017499,3 8.47056737,3 L6.07841265,3 C4.02939694,3 3,4.01035451 3,6.03106352 L3,8.43433433 C3,8.95422705 3.28430944,9.23869248 3.78430051,9.23869248 Z M20.2058009,9.23869248 C20.7253282,9.23869248 21,8.95422705 21,8.43433433 L21,6.03106352 C21,4.01035451 19.9705228,3 17.921507,3 L15.5195541,3 C15.0097447,3 14.7254353,3.28446543 14.7254353,3.78475092 C14.7254353,4.29481993 15.0097447,4.57930545 15.5195541,4.57930545 L17.8920923,4.57930545 C18.8626797,4.57930545 19.4215003,5.09919817 19.4215003,6.11935628 L19.4215003,8.43433433 C19.4215003,8.95422705 19.7058098,9.23869248 20.2058009,9.23869248 Z M11.5783948,11.1515015 L11.5783948,7.72807257 C11.5783948,7.49264528 11.3921079,7.29645253 11.1470114,7.29645253 L7.72545979,7.29645253 C7.49018169,7.29645253 7.30389475,7.49264528 7.30389475,7.72807257 L7.30389475,11.1515015 C7.30389475,11.3869288 7.49018169,11.5732978 7.72545979,11.5732978 L11.1470114,11.5732978 C11.3921079,11.5732978 11.5783948,11.3869288 11.5783948,11.1515015 Z M13.2744532,8.14986891 L15.8430765,8.14986891 L15.8430765,10.7199016 L13.2744532,10.7199016 L13.2744532,8.14986891 Z M15.097989,9.97438516 L15.097989,8.9051889 L14.0195608,8.9051889 L14.0195608,9.97438516 L15.097989,9.97438516 Z M9.97056068,9.97438516 L9.97056068,8.9051889 L8.90193064,8.9051889 L8.90193064,9.97438516 L9.97056068,9.97438516 Z M8.14702483,13.2801105 L10.7254464,13.2801105 L10.7254464,15.8501431 L8.14702483,15.8501431 L8.14702483,13.2801105 Z M16.5685676,13.6136342 L16.5685676,12.5444178 L15.4999375,12.5444178 L15.4999375,13.6136342 L16.5685676,13.6136342 Z M13.6175922,13.6136342 L13.6175922,12.5444178 L12.5489823,12.5444178 L12.5489823,13.6136342 L13.6175922,13.6136342 Z M9.97056068,15.0948231 L9.97056068,14.0256068 L8.90193064,14.0256068 L8.90193064,15.0948231 L9.97056068,15.0948231 Z M15.0881707,15.0948231 L15.0881707,14.0256068 L14.0195608,14.0256068 L14.0195608,15.0948231 L15.0881707,15.0948231 Z M15.5195541,21 L17.921507,21 C19.9705228,21 21,19.9798379 21,17.9591289 L21,15.5656777 C21,15.045785 20.7156906,14.7613196 20.2058009,14.7613196 C19.6960115,14.7613196 19.4215003,15.045785 19.4215003,15.5656777 L19.4215003,17.8806558 C19.4215003,18.9008183 18.8626797,19.4207086 17.8920923,19.4207086 L15.5195541,19.4207086 C15.0097447,19.4207086 14.7254353,19.7051781 14.7254353,20.2152591 C14.7254353,20.7155306 15.0097447,21 15.5195541,21 Z M6.07841265,21 L8.47056737,21 C8.99017499,21 9.27448443,20.7155306 9.27448443,20.2152591 C9.27448443,19.7051781 8.99017499,19.4207086 8.47056737,19.4207086 L6.0980292,19.4207086 C5.11762344,19.4207086 4.57841934,18.9008183 4.57841934,17.8806558 L4.57841934,15.5656777 C4.57841934,15.045785 4.2941099,14.7613196 3.78430051,14.7613196 C3.2745112,14.7613196 3,15.045785 3,15.5656777 L3,17.9591289 C3,19.9896455 4.02939694,21 6.07841265,21 Z M13.6175922,16.5760322 L13.6175922,15.5068159 L12.5489823,15.5068159 L12.5489823,16.5760322 L13.6175922,16.5760322 Z M16.5685676,16.5760322 L16.5685676,15.5068159 L15.4999375,15.5068159 L15.4999375,16.5760322 L16.5685676,16.5760322 Z M16.6960249,11.1515015 L16.6960249,7.72807257 C16.6960249,7.49264528 16.509738,7.29645253 16.2646416,7.29645253 L12.8528882,7.29645253 C12.6077917,7.29645253 12.4215249,7.49264528 12.4215249,7.72807257 L12.4215249,11.1515015 C12.4215249,11.3869288 12.6077917,11.5732978 12.8528882,11.5732978 L16.2646416,11.5732978 C16.509738,11.5732978 16.6960249,11.3869288 16.6960249,11.1515015 Z M8.14702483,8.14986891 L10.7254464,8.14986891 L10.7254464,10.7199016 L8.14702483,10.7199016 L8.14702483,8.14986891 Z M11.5783948,16.2719395 L11.5783948,12.8485106 C11.5783948,12.6130833 11.3921079,12.4267142 11.1470114,12.4267142 L7.72545979,12.4267142 C7.49018169,12.4267142 7.30389475,12.6130833 7.30389475,12.8485106 L7.30389475,16.2719395 C7.30389475,16.5073668 7.49018169,16.7035394 7.72545979,16.7035394 L11.1470114,16.7035394 C11.3921079,16.7035394 11.5783948,16.5073668 11.5783948,16.2719395 Z" id="sfsymbols:qrcode.viewfinder" fill="#000000" fill-rule="nonzero"></path>
    </g>
</svg>