<?xml version="1.0" encoding="UTF-8"?>
<svg width="24px" height="24px" viewBox="0 0 24 24" version="1.1" xmlns="http://www.w3.org/2000/svg" xmlns:xlink="http://www.w3.org/1999/xlink">
    <title>icon/iOS/reply</title>
    <g id="icon/iOS/reply" stroke="none" stroke-width="1" fill="none" fill-rule="evenodd">
        <rect id="ViewBox" fill-rule="nonzero" x="0" y="0" width="24" height="24"></rect>
        <path d="M10.525999,21 C11.1786018,21 11.6656153,20.5095379 11.6656153,19.8523158 L11.6656153,16.1051663 L11.9481007,16.1051663 C15.7175779,16.1051663 18.103952,17.0664833 19.7987246,20.2741145 C20.139638,20.9019076 20.5876729,21 20.9968089,21 C21.5228409,21 22,20.5291552 22,19.6855599 C22,12.4365041 18.9513682,7.91444491 11.9481007,7.91444491 L11.6656153,7.91444491 L11.6656153,4.20652798 C11.6656153,3.54930391 11.1786018,3 10.5065296,3 C10.0195161,3 9.72729604,3.24523106 9.1818545,3.70626224 L1.49676014,10.9455105 C1.13635739,11.3084452 1,11.6713799 1,12.0049038 C1,12.328604 1.13635739,12.6915588 1.49676014,13.0544936 L9.1818545,20.3623992 C9.66886799,20.7841979 10.0389855,21 10.525999,21 Z M9.9610681,18.8910085 C9.9026201,18.8910085 9.85392673,18.8615799 9.79547873,18.8027241 L2.86039391,12.191273 C2.77274186,12.1128039 2.75325254,12.0637657 2.75325254,12.0049038 C2.75325254,11.9460419 2.78247654,11.8872001 2.86039391,11.8185346 L9.79547873,5.11880681 C9.83443741,5.07955216 9.89288542,5.0403176 9.9610681,5.0403176 C10.0389855,5.0403176 10.0974335,5.09917948 10.0974335,5.1776486 L10.0974335,9.07193471 C10.0974335,9.29753845 10.1948402,9.39563489 10.4188576,9.39563489 L11.733798,9.39563489 C18.4156414,9.39563489 20.4221034,14.0648487 20.6169966,18.694824 C20.6169966,18.7634875 20.5876729,18.8027241 20.548774,18.8027241 C20.5001006,18.8027241 20.4805514,18.7732972 20.4514272,18.7046317 C19.3409151,16.2228901 16.3507114,14.6239764 11.733798,14.6239764 L10.4188576,14.6239764 C10.1948402,14.6239764 10.0974335,14.7220728 10.0974335,14.9476765 L10.0974335,18.7438702 C10.0974335,18.832153 10.0389855,18.8910085 9.9610681,18.8910085 Z" id="sfsymbols:arrowshape.turn.up.left" fill="#000000" fill-rule="nonzero"></path>
    </g>
</svg>