<?xml version="1.0" encoding="UTF-8"?>
<svg width="24px" height="24px" viewBox="0 0 24 24" version="1.1" xmlns="http://www.w3.org/2000/svg" xmlns:xlink="http://www.w3.org/1999/xlink">
    <title>icon/iOS/search-circle</title>
    <g id="icon/iOS/search-circle" stroke="none" stroke-width="1" fill="none" fill-rule="evenodd">
        <rect id="Bounds" x="0" y="0" width="24" height="24"></rect>
        <path d="M11.9854661,2 C17.4663449,2 22,6.52393161 22,12.0048305 C22,17.4760763 17.4760256,22 11.995127,22 C6.5239091,22 2,17.4760763 2,12.0048305 C2,6.52393161 6.5142482,2 11.9854661,2 Z M10.9022551,6.5 C8.4793188,6.5 6.5,8.47435483 6.5,10.8661364 C6.5,13.2692166 8.4793188,15.2322958 10.9022551,15.2322958 C11.6505067,15.2322958 12.3538259,15.0361865 12.9642556,14.6994345 L13.1887188,14.5666682 L15.8278028,17.172824 C16.0553193,17.4097493 16.3055734,17.5 16.5899574,17.5 C17.1132266,17.5 17.5,17.1164 17.5,16.5635742 C17.5,16.3567401 17.4288962,16.1577362 17.2932814,15.986165 L17.2042239,15.886671 L14.5537711,13.257941 C15.0201496,12.5810147 15.2931647,11.7574369 15.2931647,10.8661364 C15.2931647,8.47435483 13.3138459,6.5 10.9022551,6.5 Z M10.9022551,7.94410323 C12.5061927,7.94410323 13.848484,9.26408289 13.848484,10.8661364 C13.848484,12.4794885 12.5061927,13.7994913 10.9022551,13.7994913 C9.27557988,13.7994913 7.93328858,12.4794885 7.93328858,10.8661364 C7.93328858,9.26408289 9.27557988,7.94410323 10.9022551,7.94410323 Z" id="search-circle" fill="#000000" fill-rule="nonzero"></path>
    </g>
</svg>