<?xml version="1.0" encoding="UTF-8"?>
<svg width="24px" height="24px" viewBox="0 0 24 24" version="1.1" xmlns="http://www.w3.org/2000/svg" xmlns:xlink="http://www.w3.org/1999/xlink">
    <title>icon/iOS/search</title>
    <g id="icon/iOS/search" stroke="none" stroke-width="1" fill="none" fill-rule="evenodd">
        <rect id="ViewBox" fill-rule="nonzero" x="0" y="0" width="24" height="24"></rect>
        <path d="M10.5,3 C14.6421356,3 18,6.35786438 18,10.5 C18,12.2101481 17.4276233,13.7866104 16.4639906,15.0482663 L20.7071068,19.2928932 C21.0976311,19.6834175 21.0976311,20.3165825 20.7071068,20.7071068 C20.3466228,21.0675907 19.7793918,21.0953203 19.3871006,20.7902954 L19.2928932,20.7071068 L15.0482663,16.4639906 C13.7866104,17.4276233 12.2101481,18 10.5,18 C6.35786438,18 3,14.6421356 3,10.5 C3,6.35786438 6.35786438,3 10.5,3 Z M10.5,4.5 C7.1862915,4.5 4.5,7.1862915 4.5,10.5 C4.5,13.8137085 7.1862915,16.5 10.5,16.5 C13.8137085,16.5 16.5,13.8137085 16.5,10.5 C16.5,7.1862915 13.8137085,4.5 10.5,4.5 Z" id="sfsymbols:search" fill="#000000" fill-rule="nonzero"></path>
    </g>
</svg>