<?xml version="1.0" encoding="UTF-8"?>
<svg width="24px" height="24px" viewBox="0 0 24 24" version="1.1" xmlns="http://www.w3.org/2000/svg" xmlns:xlink="http://www.w3.org/1999/xlink">
    <title>icon/iOS/security</title>
    <g id="icon/iOS/security" stroke="none" stroke-width="1" fill="none" fill-rule="evenodd">
        <rect id="ViewBox" fill-rule="nonzero" x="0" y="0" width="24" height="24"></rect>
        <path d="M12,2 C12.269557,2 12.5487355,2.05941222 12.8086711,2.14853056 L14.6010628,2.80382389 L14.6010628,2.80382389 L16.9560963,3.68794779 L16.9560963,3.68794779 L17.8587733,4.03658199 L17.8587733,4.03658199 L18.3594027,4.23530662 L18.3594027,4.23530662 L18.748488,4.39605649 L18.748488,4.39605649 C19.5156372,4.73021223 19.9443434,5.03825909 19.994935,5.93205728 L20,6.11880823 L20,13.693076 C20,16.3073512 19.0176051,17.729926 16.4004615,19.5125493 L15.9215102,19.8311833 L15.9215102,19.8311833 L15.4078227,20.1591874 L15.4078227,20.1591874 L14.8586024,20.4984566 L14.8586024,20.4984566 L14.2730527,20.8508862 L14.2730527,20.8508862 L13.6503768,21.2183711 L13.6503768,21.2183711 L12.6450087,21.8019728 L12.6450087,21.8019728 C12.4043355,21.9405878 12.1540213,22 12,22 C11.8459787,22 11.6052859,21.9405878 11.3549913,21.8019728 L10.0356509,21.0305127 L10.0356509,21.0305127 L9.43238549,20.6700229 L9.43238549,20.6700229 L8.86567891,20.3238148 C8.77423086,20.2671976 8.68427345,20.2110959 8.59579037,20.1554699 L8.0824532,19.8271054 L8.0824532,19.8271054 L7.60371647,19.5082506 L7.60371647,19.5082506 L7.15879684,19.1969968 C4.94605711,17.6052001 4.05604381,16.2413251 4.00257885,13.9206811 L4,13.693076 L4,6.11880823 C4,5.07921596 4.44284088,4.74257373 5.25151197,4.39605649 L6.09263446,4.05395817 L6.09263446,4.05395817 L7.57367025,3.47160205 L7.57367025,3.47160205 L8.87879745,2.97244577 L8.87879745,2.97244577 L9.80752065,2.62740921 L9.80752065,2.62740921 L10.3598387,2.42875858 L10.3598387,2.42875858 L10.8319597,2.26603783 L10.8319597,2.26603783 L11.20097,2.14853056 L11.20097,2.14853056 C11.4512645,2.07922306 11.730443,2 12,2 Z M12,20.198013 C12.1320183,20.198013 12.2711198,20.1543677 12.483978,20.029668 L14.0594826,19.0438151 L14.0594826,19.0438151 L14.5761818,18.7147459 L14.5761818,18.7147459 L15.0553773,18.4030314 L15.0553773,18.4030314 L15.4981047,18.1059328 C15.5689111,18.0574822 15.6382411,18.0095264 15.7061163,17.9620084 L16.0960826,17.6816977 C17.7739247,16.4398318 18.4226663,15.4339224 18.4668649,13.5407846 L18.4693096,13.3267277 L18.469,12 L12,12 L12,20.198013 Z M12,3.58415701 C11.8941054,3.58415701 11.7689483,3.61386312 11.614927,3.67327535 L11.3065261,3.79700733 L11.3065261,3.79700733 L10.5984702,4.06987064 L10.5984702,4.06987064 L9.38192947,4.52206994 L9.38192947,4.52206994 L7.26993631,5.29861774 L7.26993631,5.29861774 L6.51020102,5.58521044 C6.27269779,5.67631742 6.05311948,5.7623903 5.85801529,5.84159849 C5.61840904,5.9384064 5.54614239,6.05085129 5.53304123,6.31107848 L5.5306904,6.41584907 L5.53,12 L12,12 L12,3.58415701 Z" id="xabber:security" fill="#000000" fill-rule="nonzero"></path>
    </g>
</svg>