<?xml version="1.0" encoding="UTF-8"?>
<svg width="24px" height="24px" viewBox="0 0 24 24" version="1.1" xmlns="http://www.w3.org/2000/svg" xmlns:xlink="http://www.w3.org/1999/xlink">
    <title>icon/iOS/send</title>
    <g id="icon/iOS/send" stroke="none" stroke-width="1" fill="none" fill-rule="evenodd">
        <rect id="ViewBox" fill-rule="nonzero" x="0" y="0" width="24" height="24"></rect>
        <path d="M2.36938848,20.6531973 C2.85985131,21.1507756 3.6296007,21.0747568 4.53559634,20.6670093 L20.6529324,13.3691793 C21.0889169,13.1756871 21.4362983,12.9614036 21.6678999,12.7264419 C22.1106927,12.2772251 22.110707,11.7243772 21.667901,11.2751469 C21.4363137,11.0401998 21.0888908,10.8259593 20.6529345,10.6324678 L4.44706239,3.30000161 C3.65687504,2.94064608 2.86666516,2.84389937 2.36939345,3.34838542 C1.74268377,3.9841873 2.00834755,4.68218723 2.46475557,5.54604283 L5.02608141,10.41129 C5.32580538,10.9918078 5.57785887,11.2198622 6.15006128,11.2475034 L20.5984548,11.7382063 C20.7686437,11.7450139 20.8572746,11.8625866 20.8708907,12.0007809 C20.8708488,12.1389611 20.7755072,12.2495562 20.6051927,12.2564632 L6.14325197,12.8024583 C5.60510404,12.8231794 5.35305021,13.0374204 5.02607892,13.6317382 L2.51243038,18.3795158 C2.02878853,19.2848418 1.73585772,20.0104753 2.36938848,20.6531973 Z" id="xabber:send" fill="#000000" fill-rule="nonzero"></path>
    </g>
</svg>