<?xml version="1.0" encoding="UTF-8"?>
<svg width="24px" height="24px" viewBox="0 0 24 24" version="1.1" xmlns="http://www.w3.org/2000/svg" xmlns:xlink="http://www.w3.org/1999/xlink">
    <title>icon/iOS/settings</title>
    <g id="icon/iOS/settings" stroke="none" stroke-width="1" fill="none" fill-rule="evenodd">
        <rect id="ViewBox" fill-rule="nonzero" x="0" y="0" width="24" height="24"></rect>
        <path d="M12.000017,21.6543498 C12.2540076,21.6543498 12.4982347,21.6246112 12.7620088,21.604799 L13.3188473,22.6951005 C13.4263057,22.9131567 13.6412223,23.0320909 13.9147599,22.9924462 C14.158987,22.9428953 14.3250662,22.7644839 14.3641401,22.4968565 L14.5302194,21.2975268 C15.0186736,21.1686662 15.4973643,20.9803527 15.956508,20.7722025 L16.8357216,21.5750604 C17.0213478,21.7534718 17.2557914,21.7931166 17.5000185,21.6543498 C17.7149552,21.5354156 17.8028665,21.2975268 17.7540291,21.0398218 L17.509802,19.8504044 C17.9200883,19.5629607 18.3206312,19.2358715 18.6820801,18.8691331 L19.7664468,19.3349903 C20.0107339,19.4341082 20.2452175,19.3845492 20.4306837,19.1565769 C20.5967429,18.978164 20.6163499,18.7204561 20.4698977,18.5023958 L19.8348712,17.4715675 C20.1279757,17.0552754 20.3624594,16.6092365 20.5871395,16.1334793 L21.788568,16.1929363 C22.0426586,16.2028627 22.2477317,16.0640959 22.3357631,15.8163011 C22.4137909,15.5685062 22.3455666,15.3306174 22.1402934,15.1720182 L21.202559,14.4187274 C21.3296043,13.9429499 21.4272391,13.427548 21.4760565,12.8923135 L22.5994572,12.5354905 C22.8535478,12.4462746 23,12.257957 23,11.9903296 C23,11.7326286 22.8535478,11.5442907 22.5994572,11.4550951 L21.4760565,11.0883457 C21.4272391,10.5531112 21.3296043,10.0575215 21.202559,9.57183784 L22.1402934,8.80864101 C22.3357631,8.65996815 22.4137909,8.4319855 22.3357631,8.18419063 C22.2477317,7.93639576 22.0426586,7.797629 21.788568,7.80753511 L20.5871395,7.85710627 C20.3624594,7.38132875 20.1279757,6.93531016 19.8348712,6.51900991 L20.4698977,5.48818568 C20.6065464,5.28003555 20.5871395,5.02231427 20.4306837,4.84390278 C20.2452175,4.61594043 20.0107339,4.55646316 19.7664468,4.66549128 L18.6820801,5.11153017 C18.3206312,4.76461329 17.9200883,4.42760252 17.509802,4.14016291 L17.7540291,2.96066582 C17.8028665,2.69303843 17.7149552,2.45516997 17.5000185,2.33621544 C17.2557914,2.2073548 17.0213478,2.22718732 16.8357216,2.42543134 L15.956508,3.20846069 C15.4973643,3.00031056 15.0186736,2.83180518 14.5302194,2.69303843 L14.3641401,1.49370882 C14.3250662,1.23600784 14.1492235,1.04769023 13.9049964,1.00802519 C13.6412223,0.968380445 13.4263057,1.07740856 13.3188473,1.2954851 L12.7620088,2.38578659 C12.4982347,2.36595407 12.2540076,2.34612155 12.000017,2.34612155 C11.7362429,2.34612155 11.5017993,2.36595407 11.2380253,2.38578659 L10.6714232,1.2954851 C10.5639649,1.07740856 10.3490482,0.968380445 10.0852741,1.00802519 C9.84104704,1.04769023 9.66520433,1.23600784 9.63589387,1.49370882 L9.46005116,2.68313232 C8.97159696,2.83180518 8.50266972,3.00031056 8.0337625,3.20846069 L7.15454894,2.42543134 C6.96892273,2.22718732 6.73445912,2.2073548 6.49023202,2.33621544 C6.27531537,2.45516997 6.18740402,2.69303843 6.23624143,2.96066582 L6.48046853,4.14016291 C6.07994569,4.42760252 5.66963936,4.76461329 5.30817045,5.11153017 L4.22380373,4.66549128 C3.97957663,4.55646316 3.7548965,4.61594043 3.5692703,4.84390278 C3.40321107,5.02231427 3.3836641,5.28003555 3.52043288,5.47825927 L4.15541934,6.51900991 C3.8721183,6.93531016 3.6278912,7.38132875 3.40321107,7.85710627 L2.21136602,7.80753511 C1.95737543,7.797629 1.74245879,7.93639576 1.65452743,8.18419063 C1.57637956,8.4319855 1.64476395,8.65996815 1.84991711,8.80864101 L2.78775158,9.57183784 C2.66074628,10.0575215 2.56305144,10.5531112 2.53374099,11.0883457 L1.39077336,11.4550951 C1.13676878,11.5343846 1,11.7227022 1,11.9903296 C1,12.257957 1.13676878,12.4462746 1.39077336,12.5354905 L2.53374099,12.9022196 C2.56305144,13.427548 2.66074628,13.9429499 2.78775158,14.4187274 L1.84991711,15.1720182 C1.65452743,15.3306174 1.58614304,15.5685062 1.65452743,15.8163011 C1.74245879,16.0640959 1.95737543,16.2028627 2.21136602,16.1929363 L3.40321107,16.1334793 C3.6278912,16.6092365 3.8721183,17.0552754 4.15541934,17.4715675 L3.52043288,18.5023958 C3.3836641,18.7204561 3.40321107,18.978164 3.5692703,19.1565769 C3.7548965,19.3845492 3.97957663,19.4341082 4.22380373,19.3349903 L5.30817045,18.8691331 C5.66963936,19.2358715 6.07994569,19.5629607 6.48046853,19.8504044 L6.23624143,21.0398218 C6.18740402,21.2975268 6.27531537,21.5354156 6.49023202,21.6543498 C6.73445912,21.7931166 6.96892273,21.7534718 7.15454894,21.5750604 L8.0337625,20.7722025 C8.50266972,20.9803527 8.97159696,21.1686662 9.46005116,21.2975268 L9.63589387,22.4968565 C9.66520433,22.7644839 9.84104704,22.9428953 10.0852741,22.9924462 C10.3490482,23.0320909 10.5639649,22.9131567 10.6714232,22.6951005 L11.2380253,21.604799 C11.4920158,21.6246112 11.7362429,21.6543498 12.000017,21.6543498 Z M14.4520715,11.3658792 C14.0026912,10.1169987 13.0941672,9.43309139 11.98047,9.43309139 C11.8046273,9.43309139 11.6190211,9.45290361 11.2966462,9.52228699 L8.49290624,4.66549128 C9.54796251,4.14016291 10.7300241,3.8527233 12.000017,3.8527233 C16.259356,3.8527233 19.6003876,7.13353388 19.912899,11.3658792 L14.4520715,11.3658792 Z M4.06750798,12.0002357 C4.06750798,9.24475348 5.35702787,6.81635563 7.36946558,5.34941893 L10.2024959,10.235933 C9.66520433,10.791 9.42097723,11.3956178 9.42097723,12.0398804 C9.42097723,12.6643308 9.65544084,13.2392303 10.1927325,13.8141096 L7.31084468,18.611426 C5.32771742,17.1345649 4.06750798,14.7359057 4.06750798,12.0002357 Z M10.808192,12.0299743 C10.808192,11.3559731 11.3650305,10.8306447 12.000017,10.8306447 C12.6545504,10.8306447 13.2016255,11.3559731 13.2016255,12.0299743 C13.2016255,12.6940695 12.6545504,13.2392303 12.000017,13.2392303 C11.3650305,13.2392303 10.808192,12.6940695 10.808192,12.0299743 Z M12.000017,20.1477582 C10.7007336,20.1477582 9.48936162,19.8404922 8.42452185,19.3052541 L11.2966462,14.5376617 C11.5994942,14.6169715 11.8046273,14.6367837 11.98047,14.6367837 C13.1039307,14.6367837 14.0124547,13.9330438 14.4520715,12.6544247 L19.9032956,12.6544247 C19.5905841,16.8669375 16.259356,20.1477582 12.000017,20.1477582 Z" id="sfsymbols:gear" fill="#000000" fill-rule="nonzero"></path>
    </g>
</svg>