<?xml version="1.0" encoding="UTF-8"?>
<svg width="24px" height="24px" viewBox="0 0 24 24" version="1.1" xmlns="http://www.w3.org/2000/svg" xmlns:xlink="http://www.w3.org/1999/xlink">
    <title>icon/iOS/share</title>
    <g id="icon/iOS/share" stroke="none" stroke-width="1" fill="none" fill-rule="evenodd">
        <rect id="ViewBox" fill-rule="nonzero" x="0" y="0" width="24" height="24"></rect>
        <path d="M12.00186,15.35452 C12.4218,15.35452 12.77336,15.00296 12.77336,14.59282 L12.77336,4.56352 L12.71476,3.09866 L13.36906,3.79202 L14.85344,5.37406 C14.99016,5.5303 15.19522,5.60844 15.38078,5.60844 C15.78116,5.60844 16.09366,5.31546 16.09366,4.91508 C16.09366,4.71 16.00578,4.55374 15.8593,4.40726 L12.55852,1.22366 C12.3632,1.02836 12.19718,0.96 12.00186,0.96 C11.7968,0.96 11.63078,1.02836 11.43546,1.22366 L8.13468,4.40726 C7.9882,4.55374 7.9003,4.71 7.9003,4.91508 C7.9003,5.31546 8.19328,5.60844 8.60344,5.60844 C8.78898,5.60844 9.00382,5.5303 9.14054,5.37406 L10.62492,3.79202 L11.27922,3.09866 L11.22062,4.56352 L11.22062,14.59282 C11.22062,15.00296 11.58194,15.35452 12.00186,15.35452 Z M6.3964,23.00102 L17.59758,23.00102 C19.63858,23.00102 20.66398,21.98538 20.66398,19.97367 L20.66398,10.22758 C20.66398,8.21586 19.63858,7.20024 17.59758,7.20024 L14.87296,7.20024 L14.87296,8.7725 L17.56828,8.7725 C18.53508,8.7725 19.09172,9.29984 19.09172,10.31546 L19.09172,19.8857788 C19.09172,20.901404 18.53508,21.428748 17.56828,21.428748 L6.41594,21.428748 C5.43936,21.428748 4.90226,20.901404 4.90226,19.8857788 L4.90226,10.31546 C4.90226,9.29984 5.43936,8.7725 6.41594,8.7725 L9.121,8.7725 L9.121,7.20024 L6.3964,7.20024 C4.35538,7.20024 3.33,8.21586 3.33,10.22758 L3.33,19.97367 C3.33,21.98538 4.35538,23.00102 6.3964,23.00102 Z" id="sfsymbols:square.and.arrow.up" fill="#000000" fill-rule="nonzero"></path>
    </g>
</svg>