<?xml version="1.0" encoding="UTF-8"?>
<svg width="24px" height="24px" viewBox="0 0 24 24" version="1.1" xmlns="http://www.w3.org/2000/svg" xmlns:xlink="http://www.w3.org/1999/xlink">
    <title>icon/iOS/star-outline</title>
    <g id="icon/iOS/star-outline" stroke="none" stroke-width="1" fill="none" fill-rule="evenodd">
        <rect id="ViewBox" fill-rule="nonzero" x="0" y="0" width="24" height="24"></rect>
        <path d="M5.22103493,22.3183976 C5.62720317,22.6350272 6.14231864,22.5261877 6.7565213,22.0809204 L11.996964,18.2318926 L17.2473073,22.0809204 C17.8614897,22.5261877 18.3667045,22.6350272 18.7827734,22.3183976 C19.1889416,22.011657 19.2781282,21.5070357 19.0304305,20.7946121 L16.9600072,14.630227 L22.2499326,10.8405817 C22.864257,10.4052034 23.1117721,9.9401582 22.9533219,9.45531477 C22.7948716,8.97047135 22.3292592,8.73301439 21.5664257,8.74290336 L15.0778171,8.7923685 L13.1064606,2.5983043 C12.8687041,1.87600392 12.5120795,1.5 11.996964,1.5 C11.4917289,1.5 11.1351042,1.87600392 10.8973477,2.5983043 L8.92599126,8.7923685 L2.43736231,8.74290336 C1.67456943,8.73301439 1.20897727,8.97047135 1.05048645,9.45531477 C0.882074731,9.9401582 1.13963246,10.4052034 1.75383513,10.8405817 L7.04380114,14.630227 L4.9733778,20.7946121 C4.72572067,21.5070357 4.81488698,22.011657 5.22103493,22.3183976 Z M6.64755379,20.369141 C6.62773229,20.3394579 6.6376329,20.3295628 6.64755379,20.2701946 L8.61891021,14.620338 C8.75759983,14.2344451 8.67833413,13.9178156 8.33163038,13.6803384 L3.39826872,10.2765657 C3.34874541,10.2468988 3.33884481,10.2271006 3.34874541,10.2073226 C3.35864602,10.1776354 3.37846752,10.1776354 3.43791172,10.1776354 L9.43122641,10.2765657 C9.83737436,10.2864749 10.0949524,10.12815 10.2237211,9.72247918 L11.9474204,3.9934602 C11.957321,3.93408582 11.9771425,3.91430788 11.996964,3.91430788 C12.0266658,3.91430788 12.0464873,3.93408582 12.0563879,3.9934602 L13.7800872,9.72247918 C13.9088762,10.12815 14.166434,10.2864749 14.5726022,10.2765657 L20.5658154,10.1776354 C20.6252596,10.1776354 20.645142,10.1776354 20.6550832,10.2073226 C20.6650244,10.2271006 20.645142,10.2468988 20.6055802,10.2765657 L15.6721982,13.6803384 C15.3254742,13.9178156 15.2462288,14.2344451 15.3849184,14.620338 L17.3562748,20.2701946 C17.3661754,20.3295628 17.376076,20.3394579 17.3562748,20.369141 C17.3364533,20.3889311 17.3067312,20.3790361 17.2671085,20.349353 L12.5021789,16.7180163 C12.1851769,16.4706502 11.8186314,16.4706502 11.5016497,16.7180163 L6.73669981,20.349353 C6.6970771,20.3790361 6.667355,20.3889311 6.64755379,20.369141 Z" id="sfsymbols:star" fill="#000000" fill-rule="nonzero"></path>
    </g>
</svg>