<?xml version="1.0" encoding="UTF-8"?>
<svg width="24px" height="24px" viewBox="0 0 24 24" version="1.1" xmlns="http://www.w3.org/2000/svg" xmlns:xlink="http://www.w3.org/1999/xlink">
    <title>icon/iOS/star</title>
    <g id="icon/iOS/star" stroke="none" stroke-width="1" fill="none" fill-rule="evenodd">
        <rect id="ViewBox" fill-rule="nonzero" x="0" y="0" width="24" height="24"></rect>
        <path d="M5.22103493,22.3183976 C5.62720317,22.6350272 6.14231864,22.5261877 6.7565213,22.0809204 L11.996964,18.2318926 L17.2473073,22.0809204 C17.8614897,22.5261877 18.3667045,22.6350272 18.7827734,22.3183976 C19.1889416,22.011657 19.2781282,21.5070357 19.0304305,20.7946121 L16.9600072,14.630227 L22.2499326,10.8405817 C22.864257,10.4052034 23.1117721,9.9401582 22.9533219,9.45531477 C22.7948716,8.97047135 22.3292592,8.73301439 21.5664257,8.74290336 L15.0778171,8.7923685 L13.1064606,2.5983043 C12.8687041,1.87600392 12.5120795,1.5 11.996964,1.5 C11.4917289,1.5 11.1351042,1.87600392 10.8973477,2.5983043 L8.92599126,8.7923685 L2.43736231,8.74290336 C1.67456943,8.73301439 1.20897727,8.97047135 1.05048645,9.45531477 C0.882074731,9.9401582 1.13963246,10.4052034 1.75383513,10.8405817 L7.04380114,14.630227 L4.9733778,20.7946121 C4.72572067,21.5070357 4.81488698,22.011657 5.22103493,22.3183976 Z" id="sfsymbols:star.fill" fill="#000000" fill-rule="nonzero"></path>
    </g>
</svg>