<?xml version="1.0" encoding="UTF-8"?>
<svg width="24px" height="24px" viewBox="0 0 24 24" version="1.1" xmlns="http://www.w3.org/2000/svg" xmlns:xlink="http://www.w3.org/1999/xlink">
    <title>icon/iOS/sun</title>
    <g id="icon/iOS/sun" stroke="none" stroke-width="1" fill="none" fill-rule="evenodd">
        <rect id="ViewBox" fill-rule="nonzero" x="0" y="0" width="24" height="24"></rect>
        <path d="M12.8891515,1.88201818 C12.8891515,1.40552488 12.4826897,1 11.9949398,1 C11.5173248,1 11.110863,1.40552488 11.110863,1.88201818 L11.110863,4.01104977 C11.110863,4.48754306 11.5173248,4.89308871 11.9949398,4.89308871 C12.4826897,4.89308871 12.8891515,4.48754306 12.8891515,4.01104977 L12.8891515,1.88201818 Z M17.0148082,5.74468888 C16.679458,6.08939853 16.679458,6.65714582 17.0148082,6.99170229 C17.3602935,7.33639118 17.9293524,7.34654435 18.2748377,6.99170229 L19.7889291,5.48110082 C20.1345184,5.13639118 20.1345184,4.56866465 19.7889291,4.223955 C19.4535997,3.88939853 18.8845407,3.88939853 18.5492113,4.223955 L17.0148082,5.74468888 Z M5.71502109,6.99170229 C6.06050631,7.33639118 6.62956528,7.33639118 6.96489469,6.99170229 C7.31040072,6.66727824 7.31040072,6.07926612 6.97507132,5.74468888 L5.46097988,4.223955 C5.1358063,3.89953094 4.55659151,3.88939853 4.21108547,4.223955 C3.87575607,4.55851147 3.87575607,5.13639118 4.20092965,5.47096841 L5.71502109,6.99170229 Z M11.9949398,6.82947988 C9.15982156,6.82947988 6.81247412,9.17141671 6.81247412,12 C6.81247412,14.8285625 9.15982156,17.1806525 11.9949398,17.1806525 C14.8198814,17.1806525 17.1672288,14.8285625 17.1672288,12 C17.1672288,9.17141671 14.8198814,6.82947988 11.9949398,6.82947988 Z M11.9949398,8.38063177 C13.9764695,8.38063177 15.6226491,10.0230376 15.6226491,12 C15.6226491,13.9769624 13.9764695,15.6294799 11.9949398,15.6294799 C10.0032542,15.6294799 8.35705384,13.9769624 8.35705384,12 C8.35705384,10.0230376 10.0032542,8.38063177 11.9949398,8.38063177 Z M22.1057466,12.8820182 C22.593559,12.8820182 23,12.4764933 23,12 C23,11.5235067 22.593559,11.1179611 22.1057466,11.1179611 L19.9820146,11.1179611 C19.5043996,11.1179611 19.0979378,11.5235067 19.0979378,12 C19.0979378,12.4764933 19.5043996,12.8820182 19.9820146,12.8820182 L22.1057466,12.8820182 Z M1.88407049,11.1179611 C1.40647634,11.1179611 1,11.5235067 1,12 C1,12.4764933 1.40647634,12.8820182 1.88407049,12.8820182 L4.00786499,12.8820182 C4.49561496,12.8820182 4.90207673,12.4764933 4.90207673,12 C4.90207673,11.5235067 4.49561496,11.1179611 4.00786499,11.1179611 L1.88407049,11.1179611 Z M18.2646818,17.0184301 C17.9293524,16.6838736 17.3602935,16.6838736 17.0148082,17.0184301 C16.679458,17.3529928 16.679458,17.920736 17.0148082,18.2654352 L18.5492113,19.7861733 C18.8845407,20.120736 19.4535997,20.1105973 19.7889291,19.7760346 C20.1345184,19.441473 20.1345184,18.8737309 19.7889291,18.5290295 L18.2646818,17.0184301 Z M4.20092965,18.5188929 C3.86560025,18.8534536 3.86560025,19.4313347 4.19077383,19.765896 C4.52610323,20.1004587 5.10531802,20.1105973 5.45082406,19.7760346 L6.96489469,18.2654352 C7.31040072,17.9308725 7.31040072,17.3631315 6.97507132,17.0184301 C6.6397211,16.6838736 6.06050631,16.6838736 5.71502109,17.0184301 L4.20092965,18.5188929 Z M12.8891515,19.9889378 C12.8891515,19.5124407 12.4826897,19.1069113 11.9949398,19.1069113 C11.5173248,19.1069113 11.110863,19.5124407 11.110863,19.9889378 L11.110863,22.1179611 C11.110863,22.5944751 11.5173248,23 11.9949398,23 C12.4826897,23 12.8891515,22.5944751 12.8891515,22.1179611 L12.8891515,19.9889378 Z" id="sfsymbols:sun.max" fill="#000000" fill-rule="nonzero"></path>
    </g>
</svg>