<?xml version="1.0" encoding="UTF-8"?>
<svg width="24px" height="24px" viewBox="0 0 24 24" version="1.1" xmlns="http://www.w3.org/2000/svg" xmlns:xlink="http://www.w3.org/1999/xlink">
    <title>icon/iOS/translate</title>
    <g id="icon/iOS/translate" stroke="none" stroke-width="1" fill="none" fill-rule="evenodd">
        <rect id="ViewBox" fill-rule="nonzero" x="0" y="0" width="24" height="24"></rect>
        <path d="M12.65,15.67 C12.79,15.31 12.7,14.9 12.42,14.62 L10.33,12.56 L10.36,12.53 C12.0541502,10.6471017 13.3198948,8.41925464 14.07,6 L16,6 C16.548403,6.00002742 16.994516,5.55837554 17,5.01 L17,4.99 C17,4.45 16.55,4 16.01,4 L10,4 L10,3 C10,2.45 9.55,2 9,2 C8.45,2 8,2.45 8,3 L8,4 L1.99,4 C1.45,4 1,4.45 1,4.99 C1,5.54 1.45,5.98 1.99,5.98 L12.16,5.98 C11.5,7.92 10.44,9.75 9,11.35 C8.19,10.46 7.51,9.49 6.94,8.47 C6.7867358,8.18132091 6.48684118,8.00061517 6.16,8 C5.47,8 5.03,8.75 5.37,9.35 C6,10.48 6.77,11.56 7.67,12.56 L3.3,16.87 C3.10816636,17.0564103 2.99992753,17.3125137 2.99992753,17.58 C2.99992753,17.8474863 3.10816636,18.1035897 3.3,18.29 C3.69,18.68 4.32,18.68 4.72,18.29 L9,14 L11.02,16.02 C11.53,16.53 12.4,16.34 12.65,15.67 Z M17.42,10 C16.77,10 16.2,10.4 15.97,11 L12.33,20.69 C12.2181511,20.985336 12.2587095,21.3167908 12.4384695,21.5764442 C12.6182296,21.8360975 12.9141947,21.9907323 13.23,21.9900026 C13.64,21.9900026 14,21.73 14.14,21.35 L15,18.92 L19.84,18.92 L20.69,21.34 C20.83,21.73 21.19,21.9900026 21.6,21.9900026 C21.9158053,21.9907323 22.2117704,21.8360975 22.3915305,21.5764442 C22.5712905,21.3167908 22.6118489,20.985336 22.5,20.69 L18.87,11 C18.64,10.4 18.06,10 17.42,10 Z M15.63,17.19 L17.37,12.23 L17.47,12.23 L19.21,17.19 L15.63,17.19 L15.63,17.19 Z" id="ic:round-translate" fill="#000000" fill-rule="nonzero"></path>
    </g>
</svg>