<?xml version="1.0" encoding="UTF-8"?>
<svg width="24px" height="24px" viewBox="0 0 24 24" version="1.1" xmlns="http://www.w3.org/2000/svg" xmlns:xlink="http://www.w3.org/1999/xlink">
    <title>icon/iOS/trash</title>
    <g id="icon/iOS/trash" stroke="none" stroke-width="1" fill="none" fill-rule="evenodd">
        <rect id="ViewBox" fill-rule="nonzero" x="0" y="0" width="24" height="24"></rect>
        <path d="M7.3383308,23 L16.6714776,23 C17.8884216,23 18.6244731,22.3071677 18.6735552,21.0620734 L19.3016541,6.39205888 L20.7737569,6.39205888 C21.1762025,6.39205888 21.5,6.0406179 21.5,5.62894457 C21.5,5.21725069 21.1762025,4.875845 20.7737569,4.875845 L16.2985376,4.875845 L16.2985376,3.36968698 C16.2985376,1.92378186 15.346581,1 13.8352244,1 L10.1647756,1 C8.65339893,1 7.71125067,1.92378186 7.71125067,3.36968698 L7.71125067,4.875845 L3.22624305,4.875845 C2.83367826,4.875845 2.5,5.22728598 2.5,5.62894457 C2.5,6.0406179 2.83367826,6.39205888 3.22624305,6.39205888 L4.71798283,6.39205888 L5.34608167,21.0620734 C5.39514372,22.3071677 6.12138678,23 7.3383308,23 Z M9.28149777,4.875845 L9.28149777,3.47010162 C9.28149777,2.89776075 9.68388301,2.49612273 10.2825366,2.49612273 L13.7272718,2.49612273 C14.3259254,2.49612273 14.738119,2.89776075 14.738119,3.47010162 L14.738119,4.875845 L9.28149777,4.875845 Z M7.90753909,19.4956645 L7.46590018,8.55088127 C7.4462834,8.12917265 7.74069594,7.81789341 8.11363591,7.81789341 C8.4571306,7.81789341 8.75154314,8.14924324 8.77118002,8.55088127 L9.17354516,19.4956645 C9.18337366,19.9073502 8.9085779,20.2387052 8.52582954,20.2387052 C8.17252645,20.2387052 7.91734748,19.9374725 7.90753909,19.4956645 Z M11.3424458,19.4956645 L11.3326374,8.55088127 C11.3326374,8.14924324 11.6466869,7.81789341 11.99999,7.81789341 C12.3631215,7.81789341 12.6771709,8.14924324 12.6771709,8.55088127 L12.6771709,19.4956645 C12.6771709,19.9073502 12.353293,20.2387052 11.99999,20.2387052 C11.6466869,20.2387052 11.3424458,19.9073502 11.3424458,19.4956645 Z M14.8460716,19.4956645 L15.2484368,8.55088127 C15.2582653,8.14924324 15.5526778,7.81789341 15.9059809,7.81789341 C16.2691125,7.81789341 16.563525,8.12917265 16.5537166,8.55088127 L16.1120777,19.4956645 C16.1022693,19.9374725 15.8372819,20.2387052 15.4741705,20.2387052 C15.1012305,20.2387052 14.8362632,19.9073502 14.8460716,19.4956645 Z" id="sfsymbols:trash.fill" fill="#000000" fill-rule="nonzero"></path>
    </g>
</svg>