<?xml version="1.0" encoding="UTF-8"?>
<svg width="24px" height="24px" viewBox="0 0 24 24" version="1.1" xmlns="http://www.w3.org/2000/svg" xmlns:xlink="http://www.w3.org/1999/xlink">
    <title>icon/iOS/trash-outline</title>
    <g id="icon/iOS/trash-outline" stroke="none" stroke-width="1" fill="none" fill-rule="evenodd">
        <rect id="ViewBox" fill-rule="nonzero" x="0" y="0" width="24" height="24"></rect>
        <path d="M18.9189057,20.6686153 L19.5960666,6.30489552 L20.7737569,6.30489552 C21.1762025,6.30489552 21.5,5.95913563 21.5,5.55411706 C21.5,5.14907826 21.1762025,4.81319144 20.7737569,4.81319144 L16.2887292,4.81319144 L16.2887292,3.33138067 C16.2887292,1.9088488 15.3367726,1 13.825416,1 L10.1549471,1 C8.64359054,1 7.70144227,1.9088488 7.70144227,3.33138067 L7.70144227,4.81319144 L3.22624305,4.81319144 C2.83367826,4.81319144 2.5,5.15895134 2.5,5.55411706 C2.5,5.95913563 2.83367826,6.30489552 3.22624305,6.30489552 L4.4137418,6.30489552 L5.0909027,20.6784944 C5.15960163,22.0911512 6.08213311,23 7.50515385,23 L16.5046344,23 C17.9080585,23 18.8502068,22.0812781 18.9189057,20.6686153 Z M9.27168938,3.4301721 C9.27168938,2.86708319 9.67407462,2.4719377 10.2727282,2.4719377 L13.7174433,2.4719377 C14.316117,2.4719377 14.7282905,2.86708319 14.7282905,3.4301721 L14.7282905,4.81319144 L9.27168938,4.81319144 L9.27168938,3.4301721 Z M7.64255173,21.5083121 C7.08315182,21.5083121 6.6611498,21.0835251 6.63170453,20.5006779 L5.94473524,6.30489552 L18.0258195,6.30489552 L17.3780838,20.5006779 C17.3486586,21.0934023 16.936465,21.5083121 16.3476198,21.5083121 L7.64255173,21.5083121 Z M14.9147706,19.7795268 C15.2386284,19.7795268 15.4741705,19.5128001 15.4839789,19.1374068 L15.7784115,8.77458015 C15.7882199,8.40907411 15.5428694,8.13246619 15.2091831,8.13246619 C14.9049622,8.13246619 14.6497832,8.41894718 14.6399748,8.77458015 L14.3455422,19.1275297 C14.3357338,19.4930438 14.5810843,19.7795268 14.9147706,19.7795268 Z M9.09503783,19.7795268 C9.42872414,19.7795268 9.67407462,19.4930438 9.66424613,19.1275297 L9.3600252,8.77458015 C9.35019671,8.41894718 9.09503783,8.13246619 8.7907968,8.13246619 C8.4571306,8.13246619 8.21178012,8.40907411 8.22158851,8.77458015 L8.51600105,19.1374068 C8.52582954,19.5128001 8.76135153,19.7795268 9.09503783,19.7795268 Z M11.99999,19.7795268 C12.3238679,19.7795268 12.5986435,19.4930438 12.5986435,19.1374068 L12.5986435,8.77458015 C12.5986435,8.41894718 12.3238679,8.13246619 11.99999,8.13246619 C11.6859405,8.13246619 11.4111448,8.41894718 11.4111448,8.77458015 L11.4111448,19.1374068 C11.4111448,19.4930438 11.6859405,19.7795268 11.99999,19.7795268 Z" id="sfsymbols:trash" fill="#000000" fill-rule="nonzero"></path>
    </g>
</svg>