<?xml version="1.0" encoding="UTF-8"?>
<svg width="24px" height="24px" viewBox="0 0 24 24" version="1.1" xmlns="http://www.w3.org/2000/svg" xmlns:xlink="http://www.w3.org/1999/xlink">
    <title>icon/iOS/video-outline</title>
    <g id="icon/iOS/video-outline" stroke="none" stroke-width="1" fill="none" fill-rule="evenodd">
        <rect id="ViewBox" fill-rule="nonzero" x="1" y="0" width="24" height="24"></rect>
        <path d="M16,5 C17.1045695,5 18,5.8954305 18,7 L18,9.675 L21.8958339,7.58889002 C22.3642319,7.33796252 22.9248421,7.64041203 22.9930887,8.14622879 L23,8.25 L23,15.75 C23,16.2813768 22.4686647,16.6327203 21.9905698,16.4540208 L21.8958339,16.41111 L18,14.324 L18,17 C18,18.1045695 17.1045695,19 16,19 L3,19 C1.8954305,19 1,18.1045695 1,17 L1,7 C1,5.8954305 1.8954305,5 3,5 L16,5 Z M16,6.5 L3,6.5 C2.75454011,6.5 2.55039163,6.67687516 2.50805567,6.91012437 L2.5,7 L2.5,17 C2.5,17.2454599 2.67687516,17.4496084 2.91012437,17.4919443 L3,17.5 L16,17.5 C16.2454599,17.5 16.4496084,17.3231248 16.4919443,17.0898756 L16.5,17 L16.5,7 C16.5,6.75454011 16.3231248,6.55039163 16.0898756,6.50805567 L16,6.5 Z M21.5,9.502 L18,11.377 L18,12.622 L21.5,14.497 L21.5,9.502 Z" id="xabber:video-outline" fill="#000000" fill-rule="nonzero"></path>
    </g>
</svg>