<?xml version="1.0" encoding="UTF-8"?>
<svg width="24px" height="24px" viewBox="0 0 24 24" version="1.1" xmlns="http://www.w3.org/2000/svg" xmlns:xlink="http://www.w3.org/1999/xlink">
    <title>icon/iOS/video-off-outline</title>
    <g id="icon/iOS/video-off-outline" stroke="none" stroke-width="1" fill="none" fill-rule="evenodd">
        <rect id="ViewBox" fill-rule="nonzero" x="0" y="0" width="24" height="24"></rect>
        <path d="M1.94621165,0.897051761 L2.03033009,0.969669914 L23.0303301,21.9696699 C23.3232233,22.2625631 23.3232233,22.7374369 23.0303301,23.0303301 C22.7640635,23.2965966 22.3473998,23.3208027 22.0537883,23.1029482 L21.9696699,23.0303301 L0.969669914,2.03033009 C0.676776695,1.73743687 0.676776695,1.26256313 0.969669914,0.969669914 C1.23593648,0.703403352 1.65260016,0.6791973 1.94621165,0.897051761 Z M2.45803444,5.07430117 L3.883,6.49996311 L3,6.5 C2.75454011,6.5 2.55039163,6.67687516 2.50805567,6.91012437 L2.5,7 L2.5,17 C2.5,17.2454599 2.67687516,17.4496084 2.91012437,17.4919443 L3,17.5 L14.883,17.4999631 L16.3519352,18.9691358 C16.2376828,18.989418 16.1200772,19 16,19 L3,19 C1.8954305,19 1,18.1045695 1,17 L1,7 C1,6.08325788 1.61679402,5.31057573 2.45803444,5.07430117 Z M16,4.99996311 C17.1045695,4.99996311 18,5.8954305 18,7 L18,9.675 L21.8958339,7.58889002 C22.3642319,7.33796252 22.9248421,7.64041203 22.9930887,8.14622879 L23,8.25 L23,15.75 C23,16.2813768 22.4686647,16.6327203 21.9905698,16.4540208 L21.8958339,16.41111 L18,14.324 L18,15.3829631 L16.5,13.8829631 L16.5,7 C16.5,6.75454011 16.3231248,6.55039163 16.0898756,6.50805567 L16,6.5 L9.116,6.49996311 L7.616,4.99996311 L16,4.99996311 Z M21.5,9.502 L18,11.377 L18,12.622 L21.5,14.497 L21.5,9.502 Z" id="xabber:video-off-outline" fill="#000000" fill-rule="nonzero"></path>
    </g>
</svg>