<?xml version="1.0" encoding="UTF-8"?>
<svg width="24px" height="24px" viewBox="0 0 24 24" version="1.1" xmlns="http://www.w3.org/2000/svg" xmlns:xlink="http://www.w3.org/1999/xlink">
    <title>icon/iOS/volume-off-outline</title>
    <g id="icon/iOS/volume-off-outline" stroke="none" stroke-width="1" fill="none" fill-rule="evenodd">
        <rect id="ViewBox" fill-rule="nonzero" x="0" y="0" width="24" height="24"></rect>
        <path d="M5.61796485,8.30021531 L6.75128931,9.43459359 C6.60515723,9.52178915 6.5357676,9.68579064 6.5357676,9.92912325 L6.5357676,14.0905127 C6.5357676,14.4830921 6.70746772,14.6597538 7.0794879,14.6597538 L10.2559694,14.6597538 C10.5135098,14.6597538 10.7042964,14.7088388 10.9332364,14.9247565 L15.168519,18.8407854 C15.2257589,18.8996741 15.2734653,18.9291178 15.3306857,18.9291178 C15.4069925,18.9291178 15.4642324,18.8702303 15.4642324,18.7818995 L15.464,18.146 L17,19.681 L17,19.8516908 C17,20.4654321 16.5845262,20.9338279 16.0017556,20.9935529 L15.874406,21 C15.4069925,21 15.0349723,20.7938933 14.5675784,20.36205 L10.0938028,16.2300914 C10.0270294,16.1712175 9.94116958,16.1417706 9.84577628,16.1417706 L7.01271455,16.1417706 C5.667714,16.1417706 5,15.4449327 5,13.9629159 L5,10.0567201 C5,9.23465863 5.20544371,8.65418271 5.61796485,8.30021531 Z M4.1870887,3.14529803 L4.27047647,3.21705015 L20.7793634,19.7315148 C21.0783641,20.0209032 21.0686871,20.4839237 20.7793634,20.7829647 C20.5252111,21.0460378 20.1116136,21.0699535 19.8139154,20.8547119 L19.7283582,20.7829647 L3.20973497,4.2684842 C2.93008834,3.98874451 2.93008834,3.49678985 3.20973497,3.21705015 C3.47273852,2.95395906 3.89512185,2.93004169 4.1870887,3.14529803 Z M15.8553391,3 C16.5230531,3 17,3.53981421 17,4.1973962 L17,14.325 L15.464,12.789 L15.4642324,5.20830163 C15.4642324,5.14547607 15.4275989,5.0952317 15.3738764,5.07764698 L15.3306857,5.07089584 C15.2639123,5.07089584 15.206692,5.11015177 15.1589856,5.14940769 L11.366,8.69 L10.288,7.611 L14.5675784,3.69683792 C15.0311687,3.27285582 15.3247777,3.04760279 15.719608,3.006792 L15.8553391,3 Z" id="xabber:volume-off-outline" fill="#000000" fill-rule="nonzero"></path>
    </g>
</svg>