<?xml version="1.0" encoding="UTF-8"?>
<svg width="24px" height="24px" viewBox="0 0 24 24" version="1.1" xmlns="http://www.w3.org/2000/svg" xmlns:xlink="http://www.w3.org/1999/xlink">
    <title>icon/iOS/volume-medium</title>
    <g id="icon/iOS/volume-medium" stroke="none" stroke-width="1" fill="none" fill-rule="evenodd">
        <rect id="ViewBox" fill-rule="nonzero" x="0" y="0" width="24" height="24"></rect>
        <path d="M18.2489126,16.1892042 C18.5799359,16.418141 19.0569907,16.3513686 19.3393235,15.9698203 C20.0986114,14.968234 20.5562059,13.4992603 20.5562059,12.001667 C20.5562059,10.5040737 20.0986114,9.04463333 19.3393235,8.03351368 C19.0569907,7.65196536 18.589666,7.58519294 18.2489126,7.80457687 C17.8302784,8.09075276 17.7718778,8.57722638 18.0834209,8.98739424 C18.6480866,9.73142421 18.98884,10.8665358 18.98884,12.001667 C18.98884,13.1367786 18.6286064,14.2719098 18.0736709,15.0254731 C17.7816079,15.4356409 17.8302784,15.9030479 18.2489126,16.1892042 Z M14.8562051,21 C15.5153492,21 16,20.5092708 16,19.8516908 L16,4.1973962 C16,3.53981421 15.5153492,3 14.8368302,3 C14.3618669,3 14.0420021,3.20610869 13.5282691,3.69683792 L9.23424423,7.78954462 C9.17609964,7.84841846 9.08885297,7.87786543 8.99191885,7.87786543 L6.10338912,7.87786543 C4.73668347,7.87786543 4,8.63359728 4,10.1155939 L4,13.913851 C4,15.3860387 4.73668347,16.1417706 6.10338912,16.1417706 L8.99191885,16.1417706 C9.08885297,16.1417706 9.17609964,16.1712175 9.23424423,16.2300914 L13.5282691,20.36205 C13.9935252,20.8037083 14.3812617,21 14.8562051,21 Z" id="xabber:volume-medium" fill="#000000" fill-rule="nonzero"></path>
    </g>
</svg>