<?xml version="1.0" encoding="UTF-8"?>
<svg width="24px" height="24px" viewBox="0 0 24 24" version="1.1" xmlns="http://www.w3.org/2000/svg" xmlns:xlink="http://www.w3.org/1999/xlink">
    <title>icon/iOS/volume-off</title>
    <g id="icon/iOS/volume-off" stroke="none" stroke-width="1" fill="none" fill-rule="evenodd">
        <rect id="ViewBox" fill-rule="nonzero" x="0" y="0" width="24" height="24"></rect>
        <path d="M5.65079448,8.33428734 L17,19.681 L17,19.8516908 C17,20.4654321 16.5778153,20.9338279 15.9856155,20.9935529 L15.8562051,21 C15.3812617,21 14.9935252,20.8037083 14.5282691,20.36205 L10.2342442,16.2300914 C10.1760996,16.1712175 10.088853,16.1417706 9.99191885,16.1417706 L7.10338912,16.1417706 C5.73668347,16.1417706 5,15.3860387 5,13.913851 L5,10.1155939 C5,9.30049577 5.22284675,8.70509272 5.65079448,8.33428734 Z M4.1870887,3.14529803 L4.27047647,3.21705015 L20.7793634,19.7315148 C21.0783641,20.0209032 21.0686871,20.4839237 20.7793634,20.7829647 C20.5252111,21.0460378 20.1116136,21.0699535 19.8139154,20.8547119 L19.7283582,20.7829647 L3.20973497,4.2684842 C2.93008834,3.98874451 2.93008834,3.49678985 3.20973497,3.21705015 C3.47273852,2.95395906 3.89512185,2.93004169 4.1870887,3.14529803 Z M15.8368302,3 C16.5153492,3 17,3.53981421 17,4.1973962 L17,14.325 L10.353,7.676 L14.5282691,3.69683792 C14.9906288,3.25518161 15.2959553,3.04406794 15.6986452,3.00626177 L15.8368302,3 Z" id="xabber:volume-off" fill="#000000" fill-rule="nonzero"></path>
    </g>
</svg>