<?xml version="1.0" encoding="UTF-8"?>
<svg width="24px" height="24px" viewBox="0 0 24 24" version="1.1" xmlns="http://www.w3.org/2000/svg" xmlns:xlink="http://www.w3.org/1999/xlink">
    <title>icon/iOS/volume-low-outline</title>
    <g id="icon/iOS/volume-low-outline" stroke="none" stroke-width="1" fill="none" fill-rule="evenodd">
        <rect id="ViewBox" fill-rule="nonzero" x="0" y="0" width="24" height="24"></rect>
        <path d="M8.01271455,16.1417706 L10.8457763,16.1417706 C10.9411696,16.1417706 11.0270294,16.1712175 11.0938028,16.2300914 L15.5675784,20.36205 C16.0349723,20.7938933 16.4069925,21 16.874406,21 C17.5230531,21 18,20.5092708 18,19.8516908 L18,4.1973962 C18,3.53981421 17.5230531,3 16.8553391,3 C16.3879256,3 16.0826787,3.2257467 15.5675784,3.69683792 L11.0938028,7.78954462 C11.0270294,7.84841846 10.9411696,7.87786543 10.8457763,7.87786543 L8.01271455,7.87786543 C6.667714,7.87786543 6,8.57470334 6,10.0567201 L6,13.9629159 C6,15.4449327 6.667714,16.1417706 8.01271455,16.1417706 Z M8.0794879,14.6597538 C7.70746772,14.6597538 7.5357676,14.4830921 7.5357676,14.0905127 L7.5357676,9.92912325 C7.5357676,9.54635285 7.70746772,9.35988217 8.0794879,9.35988217 L11.2559694,9.35988217 C11.5135098,9.35988217 11.7042964,9.32060615 11.9332364,9.09487954 L16.1589856,5.14940769 C16.206692,5.11015177 16.2639123,5.07089584 16.3306857,5.07089584 C16.4069925,5.07089584 16.4642324,5.12976968 16.4642324,5.20830163 L16.4642324,18.7818995 C16.4642324,18.8702303 16.4069925,18.9291178 16.3306857,18.9291178 C16.2734653,18.9291178 16.2257589,18.8996741 16.168519,18.8407854 L11.9332364,14.9247565 C11.7042964,14.7088388 11.5135098,14.6597538 11.2559694,14.6597538 L8.0794879,14.6597538 Z" id="sfsymbols:speaker" fill="#000000" fill-rule="nonzero"></path>
    </g>
</svg>