<?xml version="1.0" encoding="UTF-8"?>
<svg width="24px" height="24px" viewBox="0 0 24 24" version="1.1" xmlns="http://www.w3.org/2000/svg" xmlns:xlink="http://www.w3.org/1999/xlink">
    <title>icon/iOS/volume-low</title>
    <g id="icon/iOS/volume-low" stroke="none" stroke-width="1" fill="none" fill-rule="evenodd">
        <rect id="ViewBox" fill-rule="nonzero" x="0" y="0" width="24" height="24"></rect>
        <path d="M16.8562051,21 C17.5153492,21 18,20.5092708 18,19.8516908 L18,4.1973962 C18,3.53981421 17.5153492,3 16.8368302,3 C16.3618669,3 16.0420021,3.20610869 15.5282691,3.69683792 L11.2342442,7.78954462 C11.1760996,7.84841846 11.088853,7.87786543 10.9919188,7.87786543 L8.10338912,7.87786543 C6.73668347,7.87786543 6,8.63359728 6,10.1155939 L6,13.913851 C6,15.3860387 6.73668347,16.1417706 8.10338912,16.1417706 L10.9919188,16.1417706 C11.088853,16.1417706 11.1760996,16.1712175 11.2342442,16.2300914 L15.5282691,20.36205 C15.9935252,20.8037083 16.3812617,21 16.8562051,21 Z" id="sfsymbols:speaker.fill" fill="#000000" fill-rule="nonzero"></path>
    </g>
</svg>