<?xml version="1.0" encoding="UTF-8"?>
<svg width="24px" height="24px" viewBox="0 0 24 24" version="1.1" xmlns="http://www.w3.org/2000/svg" xmlns:xlink="http://www.w3.org/1999/xlink">
    <title>icon/iOS/volume-high</title>
    <g id="icon/iOS/volume-high" stroke="none" stroke-width="1" fill="none" fill-rule="evenodd">
        <rect id="ViewBox" fill-rule="nonzero" x="0" y="0" width="24" height="24"></rect>
        <path d="M12.8368302,3 C13.5153492,3 14,3.53981421 14,4.1973962 L14,4.1973962 L14,19.8516908 C14,20.5092708 13.5153492,21 12.8562051,21 C12.3812617,21 11.9935252,20.8037083 11.5282691,20.36205 L11.5282691,20.36205 L7.23424423,16.2300914 C7.17609964,16.1712175 7.08885297,16.1417706 6.99191885,16.1417706 L6.99191885,16.1417706 L4.10338912,16.1417706 C2.73668347,16.1417706 2,15.3860387 2,13.913851 L2,13.913851 L2,10.1155939 C2,8.63359728 2.73668347,7.87786543 4.10338912,7.87786543 L4.10338912,7.87786543 L6.99191885,7.87786543 C7.08885297,7.87786543 7.17609964,7.84841846 7.23424423,7.78954462 L7.23424423,7.78954462 L11.5282691,3.69683792 C12.0420021,3.20610869 12.3618669,3 12.8368302,3 Z M19.1335612,5.23766998 C19.5131952,4.98964697 19.9707897,5.08503893 20.2531226,5.45705391 C21.5577156,7.20265066 22.287873,9.54921873 22.287873,12.0006926 C22.287873,14.4426331 21.5381756,16.7796483 20.2531226,18.5347901 C19.9805597,18.9163431 19.5131952,19.0117315 19.1335612,18.7637218 C18.7634978,18.5157117 18.7148473,18.0483086 18.9971801,17.6381408 C20.0680909,16.1310103 20.7204871,14.108771 20.7204871,12.0006926 C20.7204871,9.89261417 20.0583209,7.88946108 18.9971801,6.36324826 C18.7050773,5.9530804 18.7634978,5.48567346 19.1335612,5.23766998 Z M16.2489126,7.80457687 C16.589666,7.58519294 17.0569907,7.65196536 17.3393235,8.03351368 C18.0986114,9.04463333 18.5562059,10.5040737 18.5562059,12.001667 C18.5562059,13.4992603 18.0986114,14.968234 17.3393235,15.9698203 C17.0569907,16.3513686 16.5799359,16.418141 16.2489126,16.1892042 C15.8302784,15.9030479 15.7816079,15.4356409 16.0736709,15.0254731 C16.6286064,14.2719098 16.98884,13.1367786 16.98884,12.001667 C16.98884,10.8665358 16.6480866,9.73142421 16.0834209,8.98739424 C15.7718778,8.57722638 15.8302784,8.09075276 16.2489126,7.80457687 Z" id="xabber:volume-high" fill="#000000" fill-rule="nonzero"></path>
    </g>
</svg>