<?xml version="1.0" encoding="UTF-8"?>
<svg width="24px" height="24px" viewBox="0 0 24 24" version="1.1" xmlns="http://www.w3.org/2000/svg" xmlns:xlink="http://www.w3.org/1999/xlink">
    <title>icon/iOS/volume-high-outline</title>
    <g id="icon/iOS/volume-high-outline" stroke="none" stroke-width="1" fill="none" fill-rule="evenodd">
        <rect id="ViewBox" fill-rule="nonzero" x="0" y="0" width="24" height="24"></rect>
        <path d="M12.8553391,3 C13.5230531,3 14,3.53981421 14,4.1973962 L14,4.1973962 L14,19.8516908 C14,20.5092708 13.5230531,21 12.874406,21 C12.4069925,21 12.0349723,20.7938933 11.5675784,20.36205 L11.5675784,20.36205 L7.09380276,16.2300914 C7.0270294,16.1712175 6.94116958,16.1417706 6.84577628,16.1417706 L6.84577628,16.1417706 L4.01271455,16.1417706 C2.667714,16.1417706 2,15.4449327 2,13.9629159 L2,13.9629159 L2,10.0567201 C2,8.57470334 2.667714,7.87786543 4.01271455,7.87786543 L4.01271455,7.87786543 L6.84577628,7.87786543 C6.94116958,7.87786543 7.0270294,7.84841846 7.09380276,7.78954462 L7.09380276,7.78954462 L11.5675784,3.69683792 C12.0826787,3.2257467 12.3879256,3 12.8553391,3 Z M12.3306857,5.07089584 C12.2639123,5.07089584 12.206692,5.11015177 12.1589856,5.14940769 L12.1589856,5.14940769 L7.93323641,9.09487954 C7.70429641,9.32060615 7.51350982,9.35988217 7.25596941,9.35988217 L7.25596941,9.35988217 L4.0794879,9.35988217 C3.70746772,9.35988217 3.5357676,9.54635285 3.5357676,9.92912325 L3.5357676,9.92912325 L3.5357676,14.0905127 C3.5357676,14.4830921 3.70746772,14.6597538 4.0794879,14.6597538 L4.0794879,14.6597538 L7.25596941,14.6597538 C7.51350982,14.6597538 7.70429641,14.7088388 7.93323641,14.9247565 L7.93323641,14.9247565 L12.168519,18.8407854 C12.2257589,18.8996741 12.2734653,18.9291178 12.3306857,18.9291178 C12.4069925,18.9291178 12.4642324,18.8702303 12.4642324,18.7818995 L12.4642324,18.7818995 L12.4642324,5.20830163 C12.4642324,5.12976968 12.4069925,5.07089584 12.3306857,5.07089584 Z M19.1335612,5.23766998 C19.5131952,4.98964697 19.9707897,5.08503893 20.2531226,5.45705391 C21.5577156,7.20265066 22.287873,9.54921873 22.287873,12.0006926 C22.287873,14.4426331 21.5381756,16.7796483 20.2531226,18.5347901 C19.9805597,18.9163431 19.5131952,19.0117315 19.1335612,18.7637218 C18.7634978,18.5157117 18.7148473,18.0483086 18.9971801,17.6381408 C20.0680909,16.1310103 20.7204871,14.108771 20.7204871,12.0006926 C20.7204871,9.89261417 20.0583209,7.88946108 18.9971801,6.36324826 C18.7050773,5.9530804 18.7634978,5.48567346 19.1335612,5.23766998 Z M16.2489126,7.80457687 C16.589666,7.58519294 17.0569907,7.65196536 17.3393235,8.03351368 C18.0986114,9.04463333 18.5562059,10.5040737 18.5562059,12.001667 C18.5562059,13.4992603 18.0986114,14.968234 17.3393235,15.9698203 C17.0569907,16.3513686 16.5799359,16.418141 16.2489126,16.1892042 C15.8302784,15.9030479 15.7816079,15.4356409 16.0736709,15.0254731 C16.6286064,14.2719098 16.98884,13.1367786 16.98884,12.001667 C16.98884,10.8665358 16.6480866,9.73142421 16.0834209,8.98739424 C15.7718778,8.57722638 15.8302784,8.09075276 16.2489126,7.80457687 Z" id="xabber:volume-high-outline" fill="#000000" fill-rule="nonzero"></path>
    </g>
</svg>