<?xml version="1.0" encoding="UTF-8"?>
<svg width="24px" height="24px" viewBox="0 0 24 24" version="1.1" xmlns="http://www.w3.org/2000/svg" xmlns:xlink="http://www.w3.org/1999/xlink">
    <title>icon/iOS/volume-medium-outline</title>
    <g id="icon/iOS/volume-medium-outline" stroke="none" stroke-width="1" fill="none" fill-rule="evenodd">
        <rect id="ViewBox" fill-rule="nonzero" x="0" y="0" width="24" height="24"></rect>
        <path d="M14.8553391,3 C15.5230531,3 16,3.53981421 16,4.1973962 L16,4.1973962 L16,19.8516908 C16,20.5092708 15.5230531,21 14.874406,21 C14.4069925,21 14.0349723,20.7938933 13.5675784,20.36205 L13.5675784,20.36205 L9.09380276,16.2300914 C9.0270294,16.1712175 8.94116958,16.1417706 8.84577628,16.1417706 L8.84577628,16.1417706 L6.01271455,16.1417706 C4.667714,16.1417706 4,15.4449327 4,13.9629159 L4,13.9629159 L4,10.0567201 C4,8.57470334 4.667714,7.87786543 6.01271455,7.87786543 L6.01271455,7.87786543 L8.84577628,7.87786543 C8.94116958,7.87786543 9.0270294,7.84841846 9.09380276,7.78954462 L9.09380276,7.78954462 L13.5675784,3.69683792 C14.0826787,3.2257467 14.3879256,3 14.8553391,3 Z M14.3306857,5.07089584 C14.2639123,5.07089584 14.206692,5.11015177 14.1589856,5.14940769 L14.1589856,5.14940769 L9.93323641,9.09487954 C9.70429641,9.32060615 9.51350982,9.35988217 9.25596941,9.35988217 L9.25596941,9.35988217 L6.0794879,9.35988217 C5.70746772,9.35988217 5.5357676,9.54635285 5.5357676,9.92912325 L5.5357676,9.92912325 L5.5357676,14.0905127 C5.5357676,14.4830921 5.70746772,14.6597538 6.0794879,14.6597538 L6.0794879,14.6597538 L9.25596941,14.6597538 C9.51350982,14.6597538 9.70429641,14.7088388 9.93323641,14.9247565 L9.93323641,14.9247565 L14.168519,18.8407854 C14.2257589,18.8996741 14.2734653,18.9291178 14.3306857,18.9291178 C14.4069925,18.9291178 14.4642324,18.8702303 14.4642324,18.7818995 L14.4642324,18.7818995 L14.4642324,5.20830163 C14.4642324,5.12976968 14.4069925,5.07089584 14.3306857,5.07089584 Z M18.2489126,7.80457687 C18.589666,7.58519294 19.0569907,7.65196536 19.3393235,8.03351368 C20.0986114,9.04463333 20.5562059,10.5040737 20.5562059,12.001667 C20.5562059,13.4992603 20.0986114,14.968234 19.3393235,15.9698203 C19.0569907,16.3513686 18.5799359,16.418141 18.2489126,16.1892042 C17.8302784,15.9030479 17.7816079,15.4356409 18.0736709,15.0254731 C18.6286064,14.2719098 18.98884,13.1367786 18.98884,12.001667 C18.98884,10.8665358 18.6480866,9.73142421 18.0834209,8.98739424 C17.7718778,8.57722638 17.8302784,8.09075276 18.2489126,7.80457687 Z" id="xabber:volume-high-outline" fill="#000000" fill-rule="nonzero"></path>
    </g>
</svg>