<?xml version="1.0" encoding="UTF-8"?>
<svg width="24px" height="24px" viewBox="0 0 24 24" version="1.1" xmlns="http://www.w3.org/2000/svg" xmlns:xlink="http://www.w3.org/1999/xlink">
    <title>icon/iOS/web</title>
    <g id="icon/iOS/web" stroke="none" stroke-width="1" fill="none" fill-rule="evenodd">
        <rect id="ViewBox" fill-rule="nonzero" x="0" y="0" width="24" height="24"></rect>
        <path d="M12.0100616,22 C17.4783389,22 22,17.4682807 22,12 C22,6.54177778 17.4682536,2 12,2 C6.53171957,2 2,6.54177778 2,12 C2,17.4682807 6.54178426,22 12.0100616,22 Z M9.10976287,6.78347492 C9.70392967,5.28296859 10.5297079,4.2054271 11.4259801,3.87310642 L11.4259801,7.01510736 C10.5901166,6.99495734 9.82476772,6.9143985 9.10976287,6.78347492 Z M12.5840784,3.87310642 C13.4702859,4.2054271 14.2960641,5.28296859 14.8902103,6.78347492 C14.1852908,6.9143985 13.4098566,6.99495734 12.5840784,7.01510736 L12.5840784,3.87310642 Z M14.6988783,4.15508298 C15.7764179,4.52768308 16.7532488,5.10170089 17.579027,5.85698641 C17.1258688,6.10874824 16.6122607,6.32023066 16.0382439,6.50149836 C15.6757092,5.56494515 15.222551,4.76938022 14.6988783,4.15508298 Z M6.42094621,5.85698641 C7.24672442,5.11178622 8.22355533,4.52768308 9.30109494,4.15508298 C8.78750746,4.76938022 8.32426402,5.56494515 7.96172926,6.50149836 C7.38771245,6.32023066 6.87410435,6.10874824 6.42094621,5.85698641 Z M16.9949455,11.4159175 C16.9446015,10.01612 16.7431841,8.71701078 16.4007993,7.56897515 C17.1560835,7.33736334 17.8307884,7.04532208 18.3846758,6.70291608 C19.4622154,7.99193999 20.1470056,9.6233699 20.2678643,11.4159175 L16.9949455,11.4159175 Z M3.74219423,11.4159175 C3.86303227,9.6233699 4.54784307,7.99193999 5.61529737,6.70291608 C6.17924949,7.04532208 6.84391031,7.33736334 7.5991945,7.56897515 C7.26685378,8.71701078 7.05539235,10.01612 7.0050277,11.4159175 L3.74219423,11.4159175 Z M12.5840784,11.4159175 L12.5840784,8.17320769 C13.52063,8.14299297 14.4169022,8.03221941 15.2527451,7.86101641 C15.5649358,8.9385579 15.7562885,10.147023 15.8066325,11.4159175 L12.5840784,11.4159175 Z M8.19334067,11.4159175 C8.24370532,10.147023 8.44510206,8.9385579 8.74722811,7.86101641 C9.583071,8.03221941 10.4793432,8.14299297 11.4259801,8.17320769 L11.4259801,11.4159175 L8.19334067,11.4159175 Z M3.73212955,12.5740178 L7.0050277,12.5740178 C7.04530705,13.9939653 7.2567891,15.3232686 7.5991945,16.481369 C6.85397499,16.7130014 6.19939948,16.9949573 5.64551203,17.3373633 C4.55790775,16.0281894 3.86303227,14.3867154 3.73212955,12.5740178 Z M8.19334067,12.5740178 L11.4259801,12.5740178 L11.4259801,15.8771364 C10.4793432,15.9073511 9.583071,16.00806 8.74722811,16.1893277 C8.43503738,15.1017215 8.23362002,13.8630417 8.19334067,12.5740178 Z M12.5840784,15.8771364 L12.5840784,12.5740178 L15.8066325,12.5740178 C15.7663532,13.8630417 15.5649358,15.1017215 15.2527451,16.1893277 C14.4169022,16.00806 13.52063,15.9073511 12.5840784,15.8771364 Z M16.4007993,16.481369 C16.7431841,15.3232686 16.9546661,13.9939653 16.9949455,12.5740178 L20.2779289,12.5740178 C20.1570703,14.3867154 19.4622154,16.0382747 18.3746111,17.3373633 C17.810659,17.0050427 17.1459982,16.7130014 16.4007993,16.481369 Z M9.10976287,17.2668692 C9.82476772,17.1359456 10.5901166,17.0553868 11.4259801,17.0352574 L11.4259801,20.1772439 C10.5297079,19.844917 9.70392967,18.7673735 9.10976287,17.2668692 Z M12.5840784,17.0352574 C13.4098566,17.0553868 14.1852908,17.1359456 14.8902103,17.2668692 C14.2960641,18.7673735 13.4702859,19.844917 12.5840784,20.1772439 L12.5840784,17.0352574 Z M6.46122556,18.1732139 C6.90431902,17.9315229 7.39777713,17.7200426 7.96172926,17.5488437 C8.31419934,18.4551884 8.75729279,19.2205466 9.25075091,19.8348482 C8.20342597,19.4723091 7.2567891,18.8982909 6.46122556,18.1732139 Z M16.0382439,17.5488437 C16.6021961,17.7200426 17.1057189,17.9315229 17.5588976,18.1832848 C16.7431841,18.9083617 15.7965678,19.4823796 14.7391576,19.844917 C15.2426804,19.2306173 15.6857945,18.4551884 16.0382439,17.5488437 Z" id="sfsymbols:globe" fill="#000000" fill-rule="nonzero"></path>
    </g>
</svg>