<?xml version="1.0" encoding="UTF-8"?>
<!--Generator: Apple Native CoreSVG 232.5-->
<!DOCTYPE svg
PUBLIC "-//W3C//DTD SVG 1.1//EN"
       "http://www.w3.org/Graphics/SVG/1.1/DTD/svg11.dtd">
<svg version="1.1" xmlns="http://www.w3.org/2000/svg" xmlns:xlink="http://www.w3.org/1999/xlink" width="3300" height="2200">
 <!--glyph: "", point size: 100.0, font version: "19.2d2e1", template writer version: "128"-->
 <style>.monochrome-0 {-sfsymbols-motion-group:1}
.monochrome-1 {opacity:0.0;-sfsymbols-clear-behind:true;-sfsymbols-motion-group:0;-sfsymbols-always-pulses:true}

.multicolor-0:tintColor {-sfsymbols-motion-group:1}
.multicolor-1:white {-sfsymbols-motion-group:0;-sfsymbols-always-pulses:true}

.hierarchical-0:tertiary {-sfsymbols-motion-group:1}
.hierarchical-1:primary {-sfsymbols-motion-group:0}

.SFSymbolsPreviewWireframe {fill:none;opacity:1.0;stroke:black;stroke-width:0.5}
</style>
 <g id="Notes">
  <rect height="2200" id="artboard" style="fill:white;opacity:1" width="3300" x="0" y="0"/>
  <line style="fill:none;stroke:black;opacity:1;stroke-width:0.5;" x1="263" x2="3036" y1="292" y2="292"/>
  <text style="stroke:none;fill:black;font-family:sans-serif;font-size:13;font-weight:bold;" transform="matrix(1 0 0 1 263 322)">Weight/Scale Variations</text>
  <text style="stroke:none;fill:black;font-family:sans-serif;font-size:13;text-anchor:middle;" transform="matrix(1 0 0 1 559.711 322)">Ultralight</text>
  <text style="stroke:none;fill:black;font-family:sans-serif;font-size:13;text-anchor:middle;" transform="matrix(1 0 0 1 856.422 322)">Thin</text>
  <text style="stroke:none;fill:black;font-family:sans-serif;font-size:13;text-anchor:middle;" transform="matrix(1 0 0 1 1153.13 322)">Light</text>
  <text style="stroke:none;fill:black;font-family:sans-serif;font-size:13;text-anchor:middle;" transform="matrix(1 0 0 1 1449.84 322)">Regular</text>
  <text style="stroke:none;fill:black;font-family:sans-serif;font-size:13;text-anchor:middle;" transform="matrix(1 0 0 1 1746.56 322)">Medium</text>
  <text style="stroke:none;fill:black;font-family:sans-serif;font-size:13;text-anchor:middle;" transform="matrix(1 0 0 1 2043.27 322)">Semibold</text>
  <text style="stroke:none;fill:black;font-family:sans-serif;font-size:13;text-anchor:middle;" transform="matrix(1 0 0 1 2339.98 322)">Bold</text>
  <text style="stroke:none;fill:black;font-family:sans-serif;font-size:13;text-anchor:middle;" transform="matrix(1 0 0 1 2636.69 322)">Heavy</text>
  <text style="stroke:none;fill:black;font-family:sans-serif;font-size:13;text-anchor:middle;" transform="matrix(1 0 0 1 2933.4 322)">Black</text>
  <line style="fill:none;stroke:black;opacity:1;stroke-width:0.5;" x1="263" x2="3036" y1="1903" y2="1903"/>
  <g transform="matrix(0.2 0 0 0.2 263 1933)">
   <path d="m46.2402 4.15039c21.5332 0 39.4531-17.8711 39.4531-39.4043s-17.9688-39.4043-39.502-39.4043c-21.4844 0-39.3555 17.8711-39.3555 39.4043s17.9199 39.4043 39.4043 39.4043Zm0-7.42188c-17.7246 0-31.8848-14.209-31.8848-31.9824s14.1113-31.9824 31.8359-31.9824c17.7734 0 32.0312 14.209 32.0312 31.9824s-14.209 31.9824-31.9824 31.9824Zm-17.9688-31.9824c0 2.14844 1.51367 3.61328 3.75977 3.61328h10.498v10.5957c0 2.19727 1.46484 3.71094 3.61328 3.71094 2.24609 0 3.71094-1.51367 3.71094-3.71094v-10.5957h10.5957c2.19727 0 3.71094-1.46484 3.71094-3.61328 0-2.19727-1.51367-3.71094-3.71094-3.71094h-10.5957v-10.5469c0-2.24609-1.46484-3.75977-3.71094-3.75977-2.14844 0-3.61328 1.51367-3.61328 3.75977v10.5469h-10.498c-2.24609 0-3.75977 1.51367-3.75977 3.71094Z"/>
  </g>
  <g transform="matrix(0.2 0 0 0.2 281.506 1933)">
   <path d="m58.5449 14.5508c27.2461 0 49.8047-22.6074 49.8047-49.8047 0-27.2461-22.6074-49.8047-49.8535-49.8047-27.1973 0-49.7559 22.5586-49.7559 49.8047 0 27.1973 22.6074 49.8047 49.8047 49.8047Zm0-8.30078c-23.0469 0-41.4551-18.457-41.4551-41.5039s18.3594-41.5039 41.4062-41.5039 41.5527 18.457 41.5527 41.5039-18.457 41.5039-41.5039 41.5039Zm-22.6562-41.5039c0 2.39258 1.66016 4.00391 4.15039 4.00391h14.3555v14.4043c0 2.44141 1.66016 4.15039 4.05273 4.15039 2.44141 0 4.15039-1.66016 4.15039-4.15039v-14.4043h14.4043c2.44141 0 4.15039-1.61133 4.15039-4.00391 0-2.44141-1.70898-4.15039-4.15039-4.15039h-14.4043v-14.3555c0-2.49023-1.70898-4.19922-4.15039-4.19922-2.39258 0-4.05273 1.70898-4.05273 4.19922v14.3555h-14.3555c-2.49023 0-4.15039 1.70898-4.15039 4.15039Z"/>
  </g>
  <g transform="matrix(0.2 0 0 0.2 304.924 1933)">
   <path d="m74.8535 28.3203c34.8145 0 63.623-28.8086 63.623-63.5742 0-34.8145-28.8574-63.623-63.6719-63.623-34.7656 0-63.5254 28.8086-63.5254 63.623 0 34.7656 28.8086 63.5742 63.5742 63.5742Zm0-9.08203c-30.1758 0-54.4434-24.3164-54.4434-54.4922 0-30.2246 24.2188-54.4922 54.3945-54.4922 30.2246 0 54.541 24.2676 54.541 54.4922 0 30.1758-24.2676 54.4922-54.4922 54.4922Zm-28.8574-54.4922c0 2.58789 1.85547 4.39453 4.58984 4.39453h19.7266v19.7754c0 2.68555 1.85547 4.58984 4.44336 4.58984 2.68555 0 4.54102-1.85547 4.54102-4.58984v-19.7754h19.7754c2.68555 0 4.58984-1.80664 4.58984-4.39453 0-2.73438-1.85547-4.58984-4.58984-4.58984h-19.7754v-19.7266c0-2.73438-1.85547-4.63867-4.54102-4.63867-2.58789 0-4.44336 1.9043-4.44336 4.63867v19.7266h-19.7266c-2.73438 0-4.58984 1.85547-4.58984 4.58984Z"/>
  </g>
  <text style="stroke:none;fill:black;font-family:sans-serif;font-size:13;font-weight:bold;" transform="matrix(1 0 0 1 263 1953)">Design Variations</text>
  <text style="stroke:none;fill:black;font-family:sans-serif;font-size:13;" transform="matrix(1 0 0 1 263 1971)">Symbols are supported in up to nine weights and three scales.</text>
  <text style="stroke:none;fill:black;font-family:sans-serif;font-size:13;" transform="matrix(1 0 0 1 263 1989)">For optimal layout with text and other symbols, vertically align</text>
  <text style="stroke:none;fill:black;font-family:sans-serif;font-size:13;" transform="matrix(1 0 0 1 263 2007)">symbols with the adjacent text.</text>
  <line style="fill:none;stroke:#00AEEF;stroke-width:0.5;opacity:1.0;" x1="776" x2="776" y1="1919" y2="1933"/>
  <g transform="matrix(0.2 0 0 0.2 776 1933)">
   <path d="m16.5527 0.78125c2.58789 0 3.85742-0.976562 4.78516-3.71094l6.29883-17.2363h28.8086l6.29883 17.2363c0.927734 2.73438 2.19727 3.71094 4.73633 3.71094 2.58789 0 4.24805-1.5625 4.24805-4.00391 0-0.830078-0.146484-1.61133-0.537109-2.63672l-22.9004-60.9863c-1.12305-2.97852-3.125-4.49219-6.25-4.49219-3.02734 0-5.07812 1.46484-6.15234 4.44336l-22.9004 61.084c-0.390625 1.02539-0.537109 1.80664-0.537109 2.63672 0 2.44141 1.5625 3.95508 4.10156 3.95508Zm13.4766-28.3691 11.8652-32.8613h0.244141l11.8652 32.8613Z"/>
  </g>
  <line style="fill:none;stroke:#00AEEF;stroke-width:0.5;opacity:1.0;" x1="792.836" x2="792.836" y1="1919" y2="1933"/>
  <text style="stroke:none;fill:black;font-family:sans-serif;font-size:13;font-weight:bold;" transform="matrix(1 0 0 1 776 1953)">Margins</text>
  <text style="stroke:none;fill:black;font-family:sans-serif;font-size:13;" transform="matrix(1 0 0 1 776 1971)">Leading and trailing margins on the left and right side of each symbol</text>
  <text style="stroke:none;fill:black;font-family:sans-serif;font-size:13;" transform="matrix(1 0 0 1 776 1989)">can be adjusted by modifying the x-location of the margin guidelines.</text>
  <text style="stroke:none;fill:black;font-family:sans-serif;font-size:13;" transform="matrix(1 0 0 1 776 2007)">Modifications are automatically applied proportionally to all</text>
  <text style="stroke:none;fill:black;font-family:sans-serif;font-size:13;" transform="matrix(1 0 0 1 776 2025)">scales and weights.</text>
  <g transform="matrix(0.2 0 0 0.2 1289 1933)">
   <path d="m14.209 9.32617 8.49609 8.54492c4.29688 4.3457 9.22852 4.05273 13.8672-1.07422l53.4668-58.9355-4.83398-4.88281-53.0762 58.3984c-1.75781 2.00195-3.41797 2.49023-5.76172 0.146484l-5.85938-5.81055c-2.34375-2.29492-1.80664-4.00391 0.195312-5.81055l57.373-54.0039-4.88281-4.83398-57.959 54.4434c-4.93164 4.58984-5.32227 9.47266-1.02539 13.8184Zm32.0801-90.9668c-2.09961 2.05078-2.24609 4.93164-1.07422 6.88477 1.17188 1.80664 3.4668 2.97852 6.68945 2.14844 7.32422-1.70898 14.9414-2.00195 22.0703 2.68555l-2.92969 7.27539c-1.70898 4.15039-0.830078 7.08008 1.85547 9.81445l11.4746 11.5723c2.44141 2.44141 4.49219 2.53906 7.32422 2.05078l5.32227-0.976562 3.32031 3.36914-0.195312 2.7832c-0.195312 2.49023 0.439453 4.39453 2.88086 6.78711l3.80859 3.71094c2.39258 2.39258 5.46875 2.53906 7.8125 0.195312l14.5508-14.5996c2.34375-2.34375 2.24609-5.32227-0.146484-7.71484l-3.85742-3.80859c-2.39258-2.39258-4.24805-3.17383-6.64062-2.97852l-2.88086 0.244141-3.22266-3.17383 1.2207-5.61523c0.634766-2.83203-0.146484-5.0293-3.07617-7.95898l-10.9863-10.9375c-16.6992-16.6016-38.8672-16.2109-53.3203-1.75781Zm7.4707 1.85547c12.1582-8.88672 28.6133-7.37305 39.7461 3.75977l12.1582 12.0605c1.17188 1.17188 1.36719 2.09961 1.02539 3.80859l-1.61133 7.42188 7.51953 7.42188 4.93164-0.292969c1.26953-0.0488281 1.66016 0.0488281 2.63672 1.02539l2.88086 2.88086-12.207 12.207-2.88086-2.88086c-0.976562-0.976562-1.12305-1.36719-1.07422-2.68555l0.341797-4.88281-7.4707-7.42188-7.61719 1.26953c-1.61133 0.341797-2.34375 0.195312-3.56445-0.976562l-10.0098-10.0098c-1.26953-1.17188-1.41602-2.00195-0.634766-3.85742l4.39453-10.4492c-7.8125-7.27539-17.9688-10.4004-28.125-7.42188-0.78125 0.195312-1.07422-0.439453-0.439453-0.976562Z"/>
  </g>
  <text style="stroke:none;fill:black;font-family:sans-serif;font-size:13;font-weight:bold;" transform="matrix(1 0 0 1 1289 1953)">Exporting</text>
  <text style="stroke:none;fill:black;font-family:sans-serif;font-size:13;" transform="matrix(1 0 0 1 1289 1971)">Symbols should be outlined when exporting to ensure the</text>
  <text style="stroke:none;fill:black;font-family:sans-serif;font-size:13;" transform="matrix(1 0 0 1 1289 1989)">design is preserved when submitting to Xcode.</text>
  <text id="template-version" style="stroke:none;fill:black;font-family:sans-serif;font-size:13;text-anchor:end;" transform="matrix(1 0 0 1 3036 1933)">Template v.5.0</text>
  <text style="stroke:none;fill:black;font-family:sans-serif;font-size:13;text-anchor:end;" transform="matrix(1 0 0 1 3036 1951)">Requires Xcode 15 or greater</text>
  <text id="descriptive-name" style="stroke:none;fill:black;font-family:sans-serif;font-size:13;text-anchor:end;" transform="matrix(1 0 0 1 3036 1969)">Generated from square.fill</text>
  <text style="stroke:none;fill:black;font-family:sans-serif;font-size:13;text-anchor:end;" transform="matrix(1 0 0 1 3036 1987)">Typeset at 100.0 points</text>
  <text style="stroke:none;fill:black;font-family:sans-serif;font-size:13;" transform="matrix(1 0 0 1 263 726)">Small</text>
  <text style="stroke:none;fill:black;font-family:sans-serif;font-size:13;" transform="matrix(1 0 0 1 263 1156)">Medium</text>
  <text style="stroke:none;fill:black;font-family:sans-serif;font-size:13;" transform="matrix(1 0 0 1 263 1586)">Large</text>
 </g>
 <g id="Guides">
  <g id="H-reference" style="fill:#27AAE1;stroke:none;" transform="matrix(1 0 0 1 339 696)">
   <path d="M0.993654 0L3.63775 0L29.3281-67.1323L30.0303-67.1323L30.0303-70.459L28.1226-70.459ZM11.6885-24.4799L46.9815-24.4799L46.2315-26.7285L12.4385-26.7285ZM55.1196 0L57.7637 0L30.6382-70.459L29.4326-70.459L29.4326-67.1323Z"/>
  </g>
  <line id="Baseline-S" style="fill:none;stroke:#27AAE1;opacity:1;stroke-width:0.5;" x1="263" x2="3036" y1="696" y2="696"/>
  <line id="Capline-S" style="fill:none;stroke:#27AAE1;opacity:1;stroke-width:0.5;" x1="263" x2="3036" y1="625.541" y2="625.541"/>
  <g id="H-reference" style="fill:#27AAE1;stroke:none;" transform="matrix(1 0 0 1 339 1126)">
   <path d="M0.993654 0L3.63775 0L29.3281-67.1323L30.0303-67.1323L30.0303-70.459L28.1226-70.459ZM11.6885-24.4799L46.9815-24.4799L46.2315-26.7285L12.4385-26.7285ZM55.1196 0L57.7637 0L30.6382-70.459L29.4326-70.459L29.4326-67.1323Z"/>
  </g>
  <line id="Baseline-M" style="fill:none;stroke:#27AAE1;opacity:1;stroke-width:0.5;" x1="263" x2="3036" y1="1126" y2="1126"/>
  <line id="Capline-M" style="fill:none;stroke:#27AAE1;opacity:1;stroke-width:0.5;" x1="263" x2="3036" y1="1055.54" y2="1055.54"/>
  <g id="H-reference" style="fill:#27AAE1;stroke:none;" transform="matrix(1 0 0 1 339 1556)">
   <path d="M0.993654 0L3.63775 0L29.3281-67.1323L30.0303-67.1323L30.0303-70.459L28.1226-70.459ZM11.6885-24.4799L46.9815-24.4799L46.2315-26.7285L12.4385-26.7285ZM55.1196 0L57.7637 0L30.6382-70.459L29.4326-70.459L29.4326-67.1323Z"/>
  </g>
  <line id="Baseline-L" style="fill:none;stroke:#27AAE1;opacity:1;stroke-width:0.5;" x1="263" x2="3036" y1="1556" y2="1556"/>
  <line id="Capline-L" style="fill:none;stroke:#27AAE1;opacity:1;stroke-width:0.5;" x1="263" x2="3036" y1="1485.54" y2="1485.54"/>
  <line id="left-margin-Ultralight-S" style="fill:none;stroke:#00AEEF;stroke-width:0.5;opacity:1.0;" x1="516.35" x2="516.35" y1="600.785" y2="720.121"/>
  <line id="right-margin-Ultralight-S" style="fill:none;stroke:#00AEEF;stroke-width:0.5;opacity:1.0;" x1="603.073" x2="603.073" y1="600.785" y2="720.121"/>
  <line id="left-margin-Regular-S" style="fill:none;stroke:#00AEEF;stroke-width:0.5;opacity:1.0;" x1="1404.51" x2="1404.51" y1="600.785" y2="720.121"/>
  <line id="right-margin-Regular-S" style="fill:none;stroke:#00AEEF;stroke-width:0.5;opacity:1.0;" x1="1495.18" x2="1495.18" y1="600.785" y2="720.121"/>
  <line id="left-margin-Black-S" style="fill:none;stroke:#00AEEF;stroke-width:0.5;opacity:1.0;" x1="2885.5" x2="2885.5" y1="600.785" y2="720.121"/>
  <line id="right-margin-Black-S" style="fill:none;stroke:#00AEEF;stroke-width:0.5;opacity:1.0;" x1="2981.3" x2="2981.3" y1="600.785" y2="720.121"/>
 </g>
 <g id="Symbols">
  <g id="Black-S" transform="matrix(1 0 0 1 2885.5 696)">
   <path class="monochrome-0 multicolor-0:tintColor hierarchical-0:tertiary SFSymbolsPreviewWireframe" d="M25 2.92969L70.8008 2.92969C80.3711 2.92969 86.0352-2.73438 86.0352-12.3047L86.0352-58.1055C86.0352-67.6758 80.3711-73.3398 70.8008-73.3398L25-73.3398C15.4297-73.3398 9.76562-67.6758 9.76562-58.1055L9.76562-12.3047C9.76562-2.73438 15.4297 2.92969 25 2.92969Z"/>
   <path class="monochrome-1 multicolor-1:white hierarchical-1:primary SFSymbolsPreviewWireframe" d="M44.8153-13.8587L50.9926-13.8587L50.9926-26.298L44.8153-26.298L44.8153-13.8587ZM28.5941-11.9418L67.2771-11.9418C68.9817-11.9418 70.3512-13.3159 70.3512-15.019C70.3512-16.7206 68.9817-18.1221 67.2771-18.1221L28.5941-18.1221C26.8924-18.1221 25.5199-16.7206 25.5199-15.019C25.5199-13.3159 26.8924-11.9418 28.5941-11.9418ZM47.8895-9.10192C51.181-9.10192 53.8475-11.7684 53.8475-15.0645C53.8475-18.356 51.181-21.0225 47.8895-21.0225C44.5934-21.0225 41.9284-18.356 41.9284-15.0645C41.9284-11.7684 44.5934-9.10192 47.8895-9.10192ZM47.9-26.1578C53.8242-26.1578 58.4455-33.7638 58.4455-42.8655C58.4455-51.9917 53.8227-59.6251 47.9-59.6251C41.9774-59.6251 37.353-51.9917 37.353-42.8655C37.353-33.7638 41.9759-26.1578 47.9-26.1578ZM47.9-55.9454C51.2221-55.9454 54.578-49.3375 54.578-42.8655C54.578-36.3852 51.2221-29.8375 47.9-29.8375C44.5765-29.8375 41.2205-36.3274 41.2205-42.8655C41.2205-49.3375 44.5765-55.9454 47.9-55.9454ZM45.9906-59.3885L45.9906-26.4921L49.8093-26.4921L49.8093-59.3885L45.9906-59.3885ZM47.9-39.2467C41.3528-39.2467 35.4118-37.7195 33.017-35.3212L35.894-32.8999C38.0071-34.4221 42.9034-35.431 47.9-35.431C52.8951-35.431 57.793-34.4221 59.9045-32.8999L62.7815-35.3212C60.3882-37.7195 54.4457-39.2467 47.9-39.2467ZM64.643-44.8237L31.1569-44.8237L31.1569-41.005L64.643-41.005L64.643-44.8237ZM47.9-46.4844C54.4457-46.4844 60.3882-48.0115 62.7815-50.4099L59.9045-52.8312C57.793-51.3089 52.8951-50.3 47.9-50.3C42.9324-50.3 38.0649-51.3089 35.894-52.8312L33.017-50.4099C35.4118-48.0115 41.3528-46.4844 47.9-46.4844ZM47.9-21.5059C59.6933-21.5059 69.278-31.0921 69.278-42.8854C69.278-54.6787 59.6948-64.2649 47.9015-64.2649C36.1098-64.2649 26.5205-54.6787 26.5205-42.8854C26.5205-31.0921 36.1082-21.5059 47.9-21.5059ZM47.9-27.5746C39.4777-27.5746 32.5877-34.4631 32.5877-42.8854C32.5877-51.3078 39.4792-58.1962 47.9015-58.1962C56.3253-58.1962 63.2108-51.3078 63.2108-42.8854C63.2108-34.4631 56.3239-27.5746 47.9-27.5746Z"/>
  </g>
  <g id="Regular-S" transform="matrix(1 0 0 1 1404.51 696)">
   <path class="monochrome-0 multicolor-0:tintColor hierarchical-0:tertiary SFSymbolsPreviewWireframe" d="M22.2168 0.390625L68.457 0.390625C76.8066 0.390625 80.9082-3.71094 80.9082-11.9141L80.9082-58.4961C80.9082-66.6992 76.8066-70.8008 68.457-70.8008L22.2168-70.8008C13.916-70.8008 9.76562-66.6992 9.76562-58.4961L9.76562-11.9141C9.76562-3.71094 13.916 0.390625 22.2168 0.390625Z"/>
   <path class="monochrome-1 multicolor-1:white hierarchical-1:primary SFSymbolsPreviewWireframe" d="M42.9972-15.6741L47.6676-15.6741L47.6676-26.4547L42.9972-26.4547L42.9972-15.6741ZM26.9539-13.8122L63.742-13.8122C65.0202-13.8122 66.071-14.8508 66.071-16.1429C66.071-17.4196 65.0202-18.4842 63.742-18.4842L26.9539-18.4842C25.6773-18.4842 24.6248-17.4196 24.6248-16.1429C24.6248-14.8508 25.6773-13.8122 26.9539-13.8122ZM45.3263-10.9206C48.2209-10.9206 50.5674-13.267 50.5674-16.1493C50.5674-19.0439 48.2209-21.3903 45.3263-21.3903C42.444-21.3903 40.0837-19.0439 40.0837-16.1493C40.0837-13.267 42.444-10.9206 45.3263-10.9206ZM45.3294-25.3917C51.0021-25.3917 55.4471-33.26 55.4471-43.0874C55.4471-52.9687 51.0161-60.863 45.3294-60.863C39.6427-60.863 35.2255-52.9687 35.2255-43.0874C35.2255-33.26 39.6566-25.3917 45.3294-25.3917ZM45.3294-57.7461C48.8246-57.7461 52.1242-50.6696 52.1242-43.0874C52.1242-35.5527 48.8246-28.5086 45.3294-28.5086C41.8481-28.5086 38.5484-35.5284 38.5484-43.0874C38.5484-50.6696 41.8481-57.7461 45.3294-57.7461ZM43.6923-60.6082L43.6923-25.7442L46.9664-25.7442L46.9664-60.6082L43.6923-60.6082ZM45.3294-37.6112C39.1346-37.6112 33.5446-36.0461 30.9958-33.544L33.4861-31.476C35.8145-33.2782 40.2476-34.3388 45.3294-34.3388C50.425-34.3388 54.8442-33.2782 57.1866-31.476L59.6768-33.544C57.1142-36.0461 51.538-37.6112 45.3294-37.6112ZM62.5507-44.7733L28.108-44.7733L28.108-41.4992L62.5507-41.4992L62.5507-44.7733ZM45.3294-48.5636C51.538-48.5636 57.1142-50.1287 59.6768-52.6309L57.1866-54.6989C54.8442-52.8967 50.425-51.836 45.3294-51.836C40.2598-51.836 35.8388-52.8967 33.4861-54.6989L30.9958-52.6309C33.5446-50.1287 39.1346-48.5636 45.3294-48.5636ZM45.3294-22.7011C56.5353-22.7011 65.7663-31.9182 65.7663-43.1241C65.7663-54.33 56.5214-63.5472 45.3155-63.5472C34.1251-63.5472 24.9063-54.33 24.9063-43.1241C24.9063-31.9182 34.139-22.7011 45.3294-22.7011ZM45.3294-26.977C36.5044-26.977 29.1962-34.2991 29.1962-43.1241C29.1962-51.9491 36.4905-59.2712 45.3155-59.2712C54.156-59.2712 61.4765-51.9491 61.4765-43.1241C61.4765-34.2991 54.1699-26.977 45.3294-26.977Z"/>
  </g>
  <g id="Ultralight-S" transform="matrix(1 0 0 1 516.35 696)">
   <path class="monochrome-0 multicolor-0:tintColor hierarchical-0:tertiary SFSymbolsPreviewWireframe" d="M19.7647-1.562L66.9585-1.562C73.4917-1.562 76.9576-5.11864 76.9576-11.5508L76.9576-58.7686C76.9576-65.2007 73.4917-68.7573 66.9585-68.7573L19.7647-68.7573C13.2349-68.7573 9.76562-65.2915 9.76562-58.7686L9.76562-11.5508C9.76562-5.02782 13.2349-1.562 19.7647-1.562Z"/>
   <path class="monochrome-1 multicolor-1:white hierarchical-1:primary SFSymbolsPreviewWireframe" d="M42.355-17.1801L44.3453-17.1801L44.3453-24.7787L42.355-24.7787L42.355-17.1801ZM25.3925-16.3189L61.0045-16.3189C61.5393-16.3189 61.9996-16.7547 61.9996-17.2996C61.9996-17.8488 61.5393-18.2947 61.0045-18.2947L25.3925-18.2947C24.8433-18.2947 24.3974-17.8488 24.3974-17.2996C24.3974-16.7547 24.8433-16.3189 25.3925-16.3189ZM43.3501-13.3748C45.4776-13.3748 47.2174-15.1146 47.2174-17.2176C47.2174-19.345 45.4776-21.0849 43.3501-21.0849C41.2472-21.0849 39.4973-19.345 39.4973-17.2176C39.4973-15.1146 41.2472-13.3748 43.3501-13.3748ZM43.3566-23.5458C48.3073-23.5458 52.7149-30.9881 52.7149-41.9252C52.7149-52.8925 48.3173-60.3448 43.3566-60.3448C38.3959-60.3448 34.0083-52.8925 34.0083-41.9252C34.0083-30.9881 38.4059-23.5458 43.3566-23.5458ZM43.3566-58.8205C47.3972-58.8205 50.9565-51.2403 50.9565-41.9252C50.9565-32.9381 47.3972-25.0701 43.3566-25.0701C39.326-25.0701 35.7667-32.9381 35.7667-41.9252C35.7667-51.2403 39.326-58.8205 43.3566-58.8205ZM42.5018-60.0619L42.5018-23.9265L44.2114-23.9265L44.2114-60.0619L42.5018-60.0619ZM43.3566-34.0864C37.5966-34.0864 32.6054-32.629 29.9155-30.3821L31.2105-29.305C33.8446-31.2494 38.0181-32.3624 43.3566-32.3624C48.705-32.3624 52.8685-31.2494 55.5127-29.305L56.8077-30.3821C54.1078-32.629 49.1265-34.0864 43.3566-34.0864ZM61.1937-42.8289L25.5194-42.8289L25.5194-41.1193L61.1937-41.1193L61.1937-42.8289ZM43.3566-49.7642C49.1265-49.7642 54.1078-51.2216 56.8077-53.4685L55.5127-54.5456C52.8685-52.6012 48.705-51.4881 43.3566-51.4881C38.0181-51.4881 33.8446-52.6012 31.2105-54.5456L29.9155-53.4685C32.6054-51.2216 37.5966-49.7642 43.3566-49.7642ZM43.3566-22.9627C53.7778-22.9627 62.378-31.5529 62.378-41.9741C62.378-52.3953 53.7678-60.9855 43.3465-60.9855C32.921-60.9855 24.3452-52.3953 24.3452-41.9741C24.3452-31.5529 32.931-22.9627 43.3566-22.9627ZM43.3566-24.7124C33.8804-24.7124 26.1049-32.4979 26.1049-41.9741C26.1049-51.4503 33.8703-59.2358 43.3465-59.2358C52.8184-59.2358 60.6183-51.4503 60.6183-41.9741C60.6183-32.4979 52.8284-24.7124 43.3566-24.7124Z"/>
  </g>
 </g>
</svg>
