<?xml version="1.0" encoding="UTF-8"?>
<svg width="24px" height="24px" viewBox="0 0 24 24" version="1.1" xmlns="http://www.w3.org/2000/svg" xmlns:xlink="http://www.w3.org/1999/xlink">
    <title>icon/iOS/xmpp</title>
    <g id="icon/iOS/xmpp" stroke="none" stroke-width="1" fill="none" fill-rule="evenodd">
        <rect id="ViewBox" fill-rule="nonzero" x="0" y="0" width="24" height="24"></rect>
        <path d="M21.8418861,4.52565835 L15.8418861,6.52565835 C15.637715,6.59371537 15.5,6.7847848 15.5,7 L15.4941573,7.34460438 C15.3970626,10.2233061 14.0969514,13.2643899 12.1271603,15.5242461 L12,15.666 L11.8728397,15.5242461 C9.82425696,13.1739957 8.5,9.97876943 8.5,7 C8.5,6.7847848 8.36228495,6.59371537 8.15811388,6.52565835 L2.15811388,4.52565835 C1.83434833,4.4177365 1.5,4.65872114 1.5,5 L1.50479388,5.3316901 C1.6419648,10.0759337 4.71194958,14.3848182 9.30770639,17.4621095 L9.522,17.603 L9.37360452,17.6594778 C8.94709877,17.8097589 8.46481735,17.9253877 7.92646195,18.0054374 L7.86548584,18.0100526 C7.34799936,18.1019153 7,18.5145897 7,19 C7,19.4854103 7.34799936,19.8980847 7.82083067,19.983906 L7.95536148,19.9980034 L8.3416345,19.9888805 L8.91921915,19.9540333 C9.03656362,19.9448053 9.14141718,19.9344976 9.25132505,19.9215521 L9.45705449,19.894148 C10.1331094,19.7933709 10.7885245,19.5872188 11.6489487,19.1873228 L11.999,19.018 L12.3675396,19.196864 C13.7677155,19.8540702 14.5866253,20 16,20 C16.5522847,20 17,19.5522847 17,19 C17,18.4683221 16.5945915,18.0914004 16.0814493,18.0066786 L15.4134749,17.8911102 C15.2982369,17.8686216 15.2021672,17.8471102 15.1138978,17.8237468 L14.9302358,17.7691924 L14.7588389,17.7077399 C14.728162,17.6957992 14.6958415,17.6827543 14.6609949,17.668223 L14.489,17.594 L14.6925495,17.4606407 C19.3943386,14.3064869 22.5,9.8707673 22.5,5 C22.5,4.65872114 22.1656517,4.4177365 21.8418861,4.52565835 Z M21.475,5.702 L21.4560837,5.95335987 C21.0485273,10.3765595 17.8369868,14.4182322 13.1909617,17.2323329 C12.8504762,17.4385652 12.8757951,17.9406259 13.235301,18.1115577 L13.829944,18.3920483 C14.267601,18.5953354 14.4482383,18.6669462 14.6888177,18.7418038 C14.7973624,18.775578 14.9064846,18.8045665 15.0282649,18.8320616 L15.4822805,18.9202608 L15.954,19 L16,19 C14.5507135,19 13.8674723,18.8472256 12.2263185,18.0141526 C12.0840778,17.9419491 11.9159222,17.9419491 11.7736815,18.0141526 C10.7039357,18.5571707 10.015731,18.799502 9.31108409,18.9048417 L9.13434948,18.9284174 C9.00410034,18.9437586 8.87912751,18.9551197 8.72072013,18.9658115 L8.19338022,18.9950276 L8.04463852,18.9980034 C9.16637807,18.8320648 10.079018,18.5314305 10.8097183,18.0872545 C11.1305893,17.8922044 11.1299739,17.4262628 10.8085888,17.2320609 L10.479152,17.0294176 C6.01072809,14.2315612 2.94164248,10.2758422 2.54390344,5.95421644 L2.524,5.702 L7.505,7.362 L7.52321023,7.72290851 C7.73093205,10.986335 9.31707891,14.3621312 11.6418256,16.7488712 C11.8380968,16.9503763 12.1619032,16.9503763 12.3581744,16.7488712 L12.6134076,16.4796636 C14.7985226,14.1122264 16.2767614,10.8654673 16.4767898,7.72290851 L16.494,7.362 L21.475,5.702 Z" id="xabber:xmpp" fill="#000000" fill-rule="nonzero"></path>
    </g>
</svg>