<?xml version="1.0" encoding="UTF-8"?>
<svg width="24px" height="24px" viewBox="0 0 24 24" version="1.1" xmlns="http://www.w3.org/2000/svg" xmlns:xlink="http://www.w3.org/1999/xlink">
    <title>icon/material/account-cancel-outline</title>
    <g id="icon/material/account-cancel-outline" stroke="none" fill="none" fill-rule="nonzero">
        <rect id="ViewBox" x="0" y="0" width="24" height="24"></rect>
        <path d="M10,4 C7.790861,4 6,5.790861 6,8 C6,10.209139 7.790861,12 10,12 C12.209139,12 14,10.209139 14,8 C14,5.790861 12.209139,4 10,4 M10,6 C11.1045695,6 12,6.8954305 12,8 C12,9.1045695 11.1045695,10 10,10 C8.8954305,10 8,9.1045695 8,8 C8,6.8954305 8.8954305,6 10,6 M10,13 C7.33,13 2,14.33 2,17 L2,20 L11.5,20 C11.2483307,19.3940198 11.0898679,18.7534258 11.03,18.1 L3.9,18.1 L3.9,17 C3.9,16.36 7.03,14.9 10,14.9 C10.5,14.9 11,14.95 11.5,15.03 C11.756604,14.3985343 12.1109338,13.8113592 12.55,13.29 C11.61,13.1 10.71,13 10,13 M17.5,13 C15,13 13,15 13,17.5 C13,20 15,22 17.5,22 C20,22 22,20 22,17.5 C22,15 20,13 17.5,13 M17.5,14.5 C19.16,14.5 20.5,15.84 20.5,17.5 C20.5,18.06 20.35,18.58 20.08,19 L16,14.92 C16.42,14.65 16.94,14.5 17.5,14.5 M14.92,16 L19,20.08 C18.58,20.35 18.06,20.5 17.5,20.5 C15.84,20.5 14.5,19.16 14.5,17.5 C14.5,16.94 14.65,16.42 14.92,16 Z" id="mdi:account-cancel-outline" fill="#000000"></path>
    </g>
</svg>