<?xml version="1.0" encoding="UTF-8"?>
<svg width="24px" height="24px" viewBox="0 0 24 24" version="1.1" xmlns="http://www.w3.org/2000/svg" xmlns:xlink="http://www.w3.org/1999/xlink">
    <title>icon/material/alarm-bell-outline</title>
    <g id="icon/material/alarm-bell-outline" stroke="none" fill="none" fill-rule="nonzero">
        <rect id="ViewBox" x="0" y="0" width="24" height="24"></rect>
        <path d="M15,18.66 L15,22 L5,22 L5,18.66 C8.09301265,20.4500491 11.9069873,20.4500491 15,18.66 Z M20,2 C21.1045695,2 22,2.8954305 22,4 C22,4.64 21.69,5.24 21.17,5.62 C21.72,7 22,8.5 22,10 C22,13.86 20.14,17.5 17,19.74 L17,21 L16,21 L16,19.22 C16.35,19 16.68,18.75 17,18.5 C20.66,15.46 21.97,10.43 20.24,6 L20,6 C19.2519508,6.00355658 18.564644,5.58874591 18.219194,4.92522914 C17.873744,4.26171236 17.9280885,3.46077217 18.36,2.85 C18.56,2.58 18.82,2.36 19.12,2.21 C19.39,2.07 19.69,2 20,2 Z M10,2 C14.418278,2 18,5.581722 18,10 C18,14.418278 14.418278,18 10,18 C5.581722,18 2,14.418278 2,10 C2,5.581722 5.581722,2 10,2 Z M10,4 C6.6862915,4 4,6.6862915 4,10 C4,13.3137085 6.6862915,16 10,16 C13.3137085,16 16,13.3137085 16,10 C16,6.6862915 13.3137085,4 10,4 Z M20,3.25 C19.5857864,3.25 19.25,3.58578644 19.25,4 C19.25,4.41421356 19.5857864,4.75 20,4.75 C20.4142136,4.75 20.75,4.41421356 20.75,4 C20.75,3.58578644 20.4142136,3.25 20,3.25 Z" id="xabber:alarm-bell-outline" fill="#000000"></path>
    </g>
</svg>