<?xml version="1.0" encoding="UTF-8"?>
<svg width="24px" height="24px" viewBox="0 0 24 24" version="1.1" xmlns="http://www.w3.org/2000/svg" xmlns:xlink="http://www.w3.org/1999/xlink">
    <title>icon/material/alert-circle-outline</title>
    <g id="icon/material/alert-circle-outline" stroke="none" fill="none" fill-rule="nonzero">
        <rect id="ViewBox" x="0" y="0" width="24" height="24"></rect>
        <path d="M11,15 L13,15 L13,17 L11,17 L11,15 M11,7 L13,7 L13,13 L11,13 L11,7 M12,2 C6.47,2 2,6.5 2,12 C2,14.6521649 3.0535684,17.195704 4.92893219,19.0710678 C6.80429597,20.9464316 9.3478351,22 12,22 C17.5228475,22 22,17.5228475 22,12 C22,9.3478351 20.9464316,6.80429597 19.0710678,4.92893219 C17.195704,3.0535684 14.6521649,2 12,2 M12,20 C7.581722,20 4,16.418278 4,12 C4,7.581722 7.581722,4 12,4 C14.1217319,4 16.1565632,4.84285472 17.6568542,6.34314575 C19.1571453,7.84343678 20,9.87826808 20,12 C20,16.418278 16.418278,20 12,20 Z" id="mdi:alert-circle-outline" fill="#000000"></path>
    </g>
</svg>