<?xml version="1.0" encoding="UTF-8"?>
<svg width="24px" height="24px" viewBox="0 0 24 24" version="1.1" xmlns="http://www.w3.org/2000/svg" xmlns:xlink="http://www.w3.org/1999/xlink">
    <title>icon/material/archive-put</title>
    <g id="icon/material/archive-put" stroke="none" stroke-width="1" fill="none" fill-rule="evenodd">
        <rect id="ViewBox" fill-rule="nonzero" x="0" y="0" width="24" height="24"></rect>
        <path d="M5.12,5 L5.93,4 L17.93,4 L18.87,5 M12,17.5 L6.5,12 L10,12 L10,10 L14,10 L14,12 L17.5,12 L12,17.5 M20.54,5.23 L19.15,3.55 C18.88,3.21 18.47,3 18,3 L6,3 C5.53,3 5.12,3.21 4.84,3.55 L3.46,5.23 C3.17,5.57 3,6 3,6.5 L3,19 C3,20.1045695 3.8954305,21 5,21 L19,21 C20.1045695,21 21,20.1045695 21,19 L21,6.5 C21,6 20.83,5.57 20.54,5.23 Z" id="mdi:package-down" fill="#000000" fill-rule="nonzero"></path>
    </g>
</svg>