<?xml version="1.0" encoding="UTF-8"?>
<svg width="24px" height="24px" viewBox="0 0 24 24" version="1.1" xmlns="http://www.w3.org/2000/svg" xmlns:xlink="http://www.w3.org/1999/xlink">
    <title>icon/material/archive-outline</title>
    <g id="icon/material/archive-outline" stroke="none" stroke-width="1" fill="none" fill-rule="evenodd">
        <rect id="ViewBox" fill-rule="nonzero" x="0" y="0" width="24" height="24"></rect>
        <path d="M20,21 L4,21 L4,10 L6,10 L6,19 L18,19 L18,10 L20,10 L20,21 M3,3 L21,3 L21,9 L3,9 L3,3 M9.5,11 L14.5,11 C14.78,11 15,11.22 15,11.5 L15,13 L9,13 L9,11.5 C9,11.22 9.22,11 9.5,11 M5,5 L5,7 L19,7 L19,5 L5,5 Z" id="mdi:archive-outline" fill="#000000" fill-rule="nonzero"></path>
    </g>
</svg>