<?xml version="1.0" encoding="UTF-8"?>
<svg width="24px" height="24px" viewBox="0 0 24 24" version="1.1" xmlns="http://www.w3.org/2000/svg" xmlns:xlink="http://www.w3.org/1999/xlink">
    <title>icon/material/attach</title>
    <g id="icon/material/attach" stroke="none" fill="none" fill-rule="nonzero">
        <rect id="ViewBox" x="0" y="0" width="24" height="24"></rect>
        <path d="M16.5,6 L16.5,17.5 C16.5,19.71 14.71,21.5 12.5,21.5 C10.29,21.5 8.5,19.71 8.5,17.5 L8.5,5 C8.5,3.61928813 9.61928813,2.5 11,2.5 C12.3807119,2.5 13.5,3.61928813 13.5,5 L13.5,15.5 C13.5,16.05 13.05,16.5 12.5,16.5 C11.95,16.5 11.5,16.05 11.5,15.5 L11.5,6 L10,6 L10,15.5 C10,16.8807119 11.1192881,18 12.5,18 C13.8807119,18 15,16.8807119 15,15.5 L15,5 C15,2.79 13.21,1 11,1 C8.79,1 7,2.79 7,5 L7,17.5 C7,20.54 9.46,23 12.5,23 C15.54,23 18,20.54 18,17.5 L18,6 L16.5,6 Z" id="paperclip" fill="#000000"></path>
    </g>
</svg>