<?xml version="1.0" encoding="UTF-8"?>
<svg width="24px" height="24px" viewBox="0 0 24 24" version="1.1" xmlns="http://www.w3.org/2000/svg" xmlns:xlink="http://www.w3.org/1999/xlink">
    <title>icon/material/bell-mention-outline</title>
    <g id="icon/material/bell-mention-outline" stroke="none" stroke-width="1" fill="none" fill-rule="evenodd">
        <rect id="ViewBox" fill-rule="nonzero" x="0" y="0" width="24" height="24"></rect>
        <path d="M14,21 C14,22.1 13.1,23 12,23 C10.9,23 10,22.1 10,21 L14,21 Z M12,2 C13.1,2 14,2.9 14,4 L14,4.3 C17,5.2 19,7.9 19,11 L19,12.543 L18.999,12.042 L18.9949102,12.27675 C18.943875,13.6347187 18.507,14.613 17.592,15.528 L17.46,15.652 L17.4024933,15.7075041 C17.3062051,15.7938677 17.2070188,15.8757882 17.105305,15.953091 C17.0733773,15.9773563 17.0411891,16.0011749 17.0087632,16.0245328 C17.0061398,16.0264226 17.0034385,16.0283642 17.0007355,16.0303026 C16.2760416,16.5500402 15.4331881,16.84 14.6,16.84 C13.976,16.84 13.464,16.6 13.224,16.216 C13.1782857,16.1428571 13.1534694,16.0853878 13.1316385,15.9958251 L13.0988921,15.8314402 C13.0930612,15.7980408 13.0868571,15.7611429 13.08,15.72 C12.472,16.424 11.832,16.728 10.936,16.728 C9.352,16.728 8.344,15.544 8.344,13.72 C8.344,11.016 10.12,8.776 12.248,8.776 C13.0842667,8.776 13.5302756,8.97112889 13.9372587,9.54350696 L14.024,9.672 L14.184,9.112 L16.072,9.112 L15.8028093,10.033262 L15.6418217,10.6213114 L15.608,10.76 L14.648,14.312 C14.6,14.488 14.584,14.648 14.584,14.792 C14.584,15.048 14.728,15.192 15,15.192 C15.304,15.192 15.688,15.032 16.008,14.776 C16.4307164,14.4481791 16.7743586,13.9529069 17.0013073,13.3729457 L17,11 C17,8.2 14.8,6 12,6 C9.2,6 7,8.2 7,11 L7,18 L17,18 L17.0006992,17.7714707 C17.6016313,17.4785446 18.1622532,17.0790671 18.6526602,16.5886602 L18.8321931,16.4030808 L19,16.216 L19,17 L21,19 L21,20 L3,20 L3,19 L5,17 L5,11 C5,7.9 7,5.2 10,4.3 L10,4 C10,2.9 10.9,2 12,2 Z M12.488,10.296 C11.88,10.296 11.32,10.696 10.92,11.448 C10.536,12.168 10.28,13.112 10.28,13.848 C10.28,14.696 10.6,15.144 11.208,15.144 C11.8,15.144 12.36,14.68 12.776,13.864 C13.16,13.112 13.416,12.136 13.416,11.4 C13.416,10.744 13.048,10.296 12.488,10.296 Z" id="xabber:bell-mention-outline" fill="#000000" fill-rule="nonzero"></path>
    </g>
</svg>