<?xml version="1.0" encoding="UTF-8"?>
<svg width="24px" height="24px" viewBox="0 0 24 24" version="1.1" xmlns="http://www.w3.org/2000/svg" xmlns:xlink="http://www.w3.org/1999/xlink">
    <title>icon/material/bell-1d</title>
    <g id="icon/material/bell-1d" stroke="none" stroke-width="1" fill="none" fill-rule="evenodd">
        <rect id="ViewBox" fill-rule="nonzero" x="0" y="0" width="24" height="24"></rect>
        <path d="M10,21 L14,21 C14,22.1045695 13.1045695,23 12,23 C10.8954305,23 10,22.1045695 10,21 L10,21 Z M12,2 C13.1045695,2 14,2.8954305 14,4 L14,4.29 C16.97,5.17 19,7.9 19,11 L19,17 L21,19 L21,20 L3,20 L3,19 L5,17 L5,11 C5,7.9 7.03,5.17 10,4.29 L10,4 C10,2.8954305 10.8954305,2 12,2 Z M10.1518555,8.88085938 L10.0053711,8.88085938 L7.41259766,9.94042969 L7.41259766,11.0927734 L8.76513672,10.5703125 L8.76513672,16 L10.1518555,16 L10.1518555,8.88085938 Z M14.1557617,8.890625 L12.2758789,8.890625 L12.2758789,16 L14.1166992,16 C14.982589,16 15.6621069,15.7338894 16.1552734,15.2016602 C16.64844,14.6694309 16.8950195,13.9362026 16.8950195,13.0019531 L16.8950195,11.8496094 C16.8852539,10.931636 16.6337915,10.208987 16.140625,9.68164062 C15.6474585,9.15429424 14.985844,8.890625 14.1557617,8.890625 Z M14.2338867,10.0869141 C14.6798525,10.099935 14.9956045,10.2374661 15.1811523,10.4995117 C15.3667001,10.7615573 15.4594727,11.2246061 15.4594727,11.8886719 L15.4594727,13.1240234 C15.449707,13.7425161 15.3471689,14.1778959 15.1518555,14.4301758 C14.956542,14.6824557 14.6196313,14.8085938 14.1411133,14.8085938 L13.7114258,14.8085938 L13.7114258,10.0869141 Z" id="xabber.bell-1d" fill="#000000" fill-rule="nonzero"></path>
    </g>
</svg>