<?xml version="1.0" encoding="UTF-8"?>
<svg width="24px" height="24px" viewBox="0 0 24 24" version="1.1" xmlns="http://www.w3.org/2000/svg" xmlns:xlink="http://www.w3.org/1999/xlink">
    <title>icon/material/bell-outline</title>
    <g id="icon/material/bell-outline" stroke="none" stroke-width="1" fill="none" fill-rule="evenodd">
        <rect id="ViewBox" fill-rule="nonzero" x="0" y="0" width="24" height="24"></rect>
        <path d="M10,21 L14,21 C14,22.1 13.1,23 12,23 C10.9,23 10,22.1 10,21 M21,19 L21,20 L3,20 L3,19 L5,17 L5,11 C5,7.9 7,5.2 10,4.3 L10,4 C10,2.9 10.9,2 12,2 C13.1,2 14,2.9 14,4 L14,4.3 C17,5.2 19,7.9 19,11 L19,17 L21,19 M17,11 C17,8.2 14.8,6 12,6 C9.2,6 7,8.2 7,11 L7,18 L17,18 L17,11 Z" id="mdi:bell-outline" fill="#000000" fill-rule="nonzero"></path>
    </g>
</svg>