<?xml version="1.0" encoding="UTF-8"?>
<svg width="24px" height="24px" viewBox="0 0 24 24" version="1.1" xmlns="http://www.w3.org/2000/svg" xmlns:xlink="http://www.w3.org/1999/xlink">
    <title>icon/material/bell-1h</title>
    <g id="icon/material/bell-1h" stroke="none" stroke-width="1" fill="none" fill-rule="evenodd">
        <rect id="ViewBox" fill-rule="nonzero" x="0" y="0" width="24" height="24"></rect>
        <path d="M10,21 L14,21 C14,22.1045695 13.1045695,23 12,23 C10.8954305,23 10,22.1045695 10,21 L10,21 Z M12,2 C13.1045695,2 14,2.8954305 14,4 L14,4.29 L14,4.29 C16.97,5.17 19,7.9 19,11 L19,17 L21,19 L21,20 L3,20 L3,19 L5,17 L5,11 C5,7.9 7.03,5.17 10,4.29 L10,4 L10,4 C10,2.8954305 10.8954305,2 12,2 Z M10.515625,8.88085938 L10.3691406,8.88085938 L7.77636719,9.94042969 L7.77636719,11.0927734 L9.12890625,10.5703125 L9.12890625,16 L10.515625,16 L10.515625,8.88085938 Z M13.9189453,8.5 L12.5371094,8.5 L12.5371094,16 L13.9189453,16 L13.9189453,12.1230469 C14.05892,11.8919259 14.2542305,11.7763672 14.5048828,11.7763672 C14.7197276,11.7763672 14.8751623,11.8455397 14.9711914,11.9838867 C15.0672205,12.1222338 15.1152344,12.3460271 15.1152344,12.6552734 L15.1152344,12.6552734 L15.1152344,16 L16.5019531,16 L16.5019531,12.640625 C16.4986979,11.9700487 16.371746,11.4654965 16.1210938,11.1269531 C15.8704415,10.7884098 15.5042342,10.6191406 15.0224609,10.6191406 C14.5862608,10.6191406 14.218426,10.8063132 13.9189453,11.1806641 L13.9189453,11.1806641 L13.9189453,8.5 Z" id="xabber.bell-1h" fill="#000000" fill-rule="nonzero"></path>
    </g>
</svg>