<?xml version="1.0" encoding="UTF-8"?>
<svg width="24px" height="24px" viewBox="0 0 24 24" version="1.1" xmlns="http://www.w3.org/2000/svg" xmlns:xlink="http://www.w3.org/1999/xlink">
    <title>icon/material/bell-1d-outline</title>
    <g id="icon/material/bell-1d-outline" stroke="none" fill="none" fill-rule="nonzero">
        <rect id="ViewBox" x="0" y="0" width="24" height="24"></rect>
        <path d="M14,21 C14,22.1 13.1,23 12,23 C10.9,23 10,22.1 10,21 L14,21 Z M12,2 C13.1,2 14,2.9 14,4 L14,4.3 C17,5.2 19,7.9 19,11 L19,17 L21,19 L21,20 L3,20 L3,19 L5,17 L5,11 C5,7.9 7,5.2 10,4.3 L10,4 C10,2.9 10.9,2 12,2 Z M12,6 C9.2,6 7,8.2 7,11 L7,18 L17,18 L17,11 C17,8.2 14.8,6 12,6 Z M10.9892578,8.88085938 L10.9892578,16 L9.60253906,16 L9.60253906,10.5703125 L8.25,11.0927734 L8.25,9.94042969 L10.8427734,8.88085938 L10.9892578,8.88085938 Z M13.627907,8.890625 C14.3467266,8.890625 14.9196596,9.15429424 15.346723,9.68164062 C15.7737865,10.208987 15.9915433,10.931636 16,11.8496094 L16,13.0019531 C16,13.9362026 15.7864715,14.6694309 15.359408,15.2016602 C14.9323446,15.7338894 14.3439079,16 13.5940803,16 L12,16 L12,8.890625 L13.627907,8.890625 Z M13.6955603,10.0869141 L13.243129,10.0869141 L13.243129,14.8085938 L13.615222,14.8085938 C14.0296004,14.8085938 14.3213522,14.6824557 14.4904863,14.4301758 C14.6596203,14.1778959 14.7484143,13.7425161 14.756871,13.1240234 L14.756871,11.8886719 C14.756871,11.2246061 14.6765336,10.7615573 14.5158562,10.4995117 C14.3551789,10.2374661 14.0817496,10.099935 13.6955603,10.0869141 Z" id="xabber:bell-1d-outline" fill="#000000"></path>
    </g>
</svg>