<?xml version="1.0" encoding="UTF-8"?>
<svg width="24px" height="24px" viewBox="0 0 24 24" version="1.1" xmlns="http://www.w3.org/2000/svg" xmlns:xlink="http://www.w3.org/1999/xlink">
    <title>icon/material/bell-settings</title>
    <g id="icon/material/bell-settings" stroke="none" stroke-width="1" fill="none" fill-rule="evenodd">
        <rect id="ViewBox" fill-rule="nonzero" x="0" y="0" width="24" height="24"></rect>
        <path d="M10,21 L14,21 C14,22.1045695 13.1045695,23 12,23 C10.8954305,23 10,22.1045695 10,21 Z M21,19 L21,20 L3,20 L3,19 L5,17 L5,11 C5,7.9 7.03,5.17 10,4.29 L10,4 C10,2.8954305 10.8954305,2 12,2 C13.1045695,2 14,2.8954305 14,4 L14,4.29 C16.97,5.17 19,7.9 19,11 L19,17 L21,19 Z M15.71375,12.99 C15.73375,12.83 15.75375,12.67 15.75375,12.5 C15.75375,12.33 15.74375,12.17 15.71375,12.01 L16.77375,11.18 C16.86375,11.1 16.89375,10.97 16.83375,10.86 L15.83375,9.13 C15.77375,9.02 15.64375,8.98 15.52375,9.02 L14.28375,9.52 C14.02375,9.32 13.74375,9.15 13.43375,9.03 L13.24375,7.71 C13.23375,7.59 13.12375,7.5 13.00375,7.5 L11.00375,7.5 C10.88375,7.5 10.77375,7.59 10.75375,7.71 L10.56375,9.03 C10.26375,9.16 9.97375,9.32 9.71375,9.52 L8.47375,9.02 C8.36375,8.98 8.23375,9.02 8.16375,9.13 L7.16375,10.86 C7.10375,10.97 7.12375,11.1 7.22375,11.18 L8.28375,12.01 C8.26375,12.17 8.25375,12.33 8.25375,12.5 C8.25375,12.67 8.26375,12.83 8.28375,12.99 L7.22375,13.82 C7.13375,13.9 7.10375,14.03 7.16375,14.14 L8.16375,15.87 C8.22375,15.98 8.35375,16.02 8.47375,15.98 L9.71375,15.48 C9.97375,15.68 10.25375,15.85 10.56375,15.97 L10.75375,17.29 C10.77375,17.41 10.87375,17.5 11.00375,17.5 L13.00375,17.5 C13.12375,17.5 13.23375,17.41 13.25375,17.29 L13.44375,15.97 C13.74375,15.84 14.03375,15.68 14.28375,15.48 L15.53375,15.98 C15.64375,16.02 15.77375,15.98 15.84375,15.87 L16.84375,14.14 C16.90375,14.03 16.87375,13.9 16.78375,13.82 L15.71375,12.99 Z M12.00375,14 C11.17375,14 10.50375,13.33 10.50375,12.5 C10.50375,11.67 11.17375,11 12.00375,11 C12.83375,11 13.50375,11.67 13.50375,12.5 C13.50375,13.33 12.83375,14 12.00375,14 Z" id="xabber.bell-settings" fill="#000000" fill-rule="nonzero"></path>
    </g>
</svg>