<?xml version="1.0" encoding="UTF-8"?>
<svg width="24px" height="24px" viewBox="0 0 24 24" version="1.1" xmlns="http://www.w3.org/2000/svg" xmlns:xlink="http://www.w3.org/1999/xlink">
    <title>icon/material/bell-2h-outline</title>
    <g id="icon/material/bell-2h-outline" stroke="none" fill="none" fill-rule="nonzero">
        <rect id="ViewBox" x="0" y="0" width="24" height="24"></rect>
        <path d="M14,21 C14,22.1 13.1,23 12,23 C10.9,23 10,22.1 10,21 L14,21 Z M12,2 C13.1,2 14,2.9 14,4 L14,4.3 C17,5.2 19,7.9 19,11 L19,17 L21,19 L21,20 L3,20 L3,19 L5,17 L5,11 C5,7.9 7,5.2 10,4.3 L10,4 C10,2.9 10.9,2 12,2 Z M12,6 C9.2,6 7,8.2 7,11 L7,18 L17,18 L17,11 C17,8.2 14.8,6 12,6 Z M9.59092971,8.79296875 C10.1805018,8.79296875 10.6377913,8.96793445 10.9628118,9.31787109 C11.2878323,9.66780774 11.4503401,10.1650358 11.4503401,10.8095703 C11.4503401,11.2099629 11.3603939,11.6160461 11.1804989,12.027832 C11.0006038,12.4396179 10.6748323,12.9466116 10.2031746,13.5488281 L9.35510204,14.8525391 L11.6,14.8525391 L11.6,16 L7.70884354,16 L7.70884354,15.0234375 L9.49569161,12.5771484 C9.72245011,12.2386051 9.88949304,11.9415703 9.9968254,11.6860352 C10.1041578,11.4305 10.1578231,11.185548 10.1578231,10.9511719 C10.1578231,10.6354151 10.1071812,10.3880217 10.0058957,10.2089844 C9.90461023,10.029947 9.75873111,9.94042969 9.56825397,9.94042969 C9.35963615,9.94042969 9.19410492,10.0445953 9.07165533,10.2529297 C8.94920574,10.4612641 8.88798186,10.7542299 8.88798186,11.1318359 L7.6,11.1318359 C7.6,10.6956358 7.68389939,10.2968768 7.85170068,9.93554688 C8.01950197,9.57421694 8.25532728,9.29345803 8.55918367,9.09326172 C8.86304007,8.89306541 9.20695197,8.79296875 9.59092971,8.79296875 Z M13.3818359,8.5 L13.3818359,11.1806641 C13.6813166,10.8063132 14.0491515,10.6191406 14.4853516,10.6191406 C14.9671248,10.6191406 15.3333321,10.7884098 15.5839844,11.1269531 C15.8346367,11.4654965 15.9615885,11.9700487 15.9648438,12.640625 L15.9648438,16 L14.578125,16 L14.578125,12.6552734 C14.578125,12.3460271 14.5301112,12.1222338 14.434082,11.9838867 C14.3380529,11.8455397 14.1826183,11.7763672 13.9677734,11.7763672 C13.7171211,11.7763672 13.5218106,11.8919259 13.3818359,12.1230469 L13.3818359,16 L12,16 L12,8.5 L13.3818359,8.5 Z" id="xabber:bell-2h-outline" fill="#000000"></path>
    </g>
</svg>