<?xml version="1.0" encoding="UTF-8"?>
<svg width="24px" height="24px" viewBox="0 0 24 24" version="1.1" xmlns="http://www.w3.org/2000/svg" xmlns:xlink="http://www.w3.org/1999/xlink">
    <title>icon/material/bell-sleep-outline</title>
    <g id="icon/material/bell-sleep-outline" stroke="none" stroke-width="1" fill="none" fill-rule="evenodd">
        <rect id="ViewBox" fill-rule="nonzero" x="0" y="0" width="24" height="24"></rect>
        <path d="M10,21 L14,21 C14,22.1045695 13.1045695,23 12,23 C10.8954305,23 10,22.1045695 10,21 M21,19 L21,20 L3,20 L3,19 L5,17 L5,11 C5,7.9 7.03,5.17 10,4.29 L10,4 C10,2.8954305 10.8954305,2 12,2 C13.1045695,2 14,2.8954305 14,4 L14,4.29 C16.97,5.17 19,7.9 19,11 L19,17 L21,19 M17,11 C17,8.23857625 14.7614237,6 12,6 C9.23857625,6 7,8.23857625 7,11 L7,18 L17,18 L17,11 M9,9 L9,11 L12.24,11 L9,13.7 L9,16 L15,16 L15,14 L11.76,14 L15,11.3 L15,9 L9,9 Z" id="mdi:bell-sleep-outline" fill="#000000" fill-rule="nonzero"></path>
    </g>
</svg>