<?xml version="1.0" encoding="UTF-8"?>
<svg width="24px" height="24px" viewBox="0 0 24 24" version="1.1" xmlns="http://www.w3.org/2000/svg" xmlns:xlink="http://www.w3.org/1999/xlink">
    <title>icon/material/bell-15m</title>
    <g id="icon/material/bell-15m" stroke="none" stroke-width="1" fill="none" fill-rule="evenodd">
        <rect id="ViewBox" fill-rule="nonzero" x="0" y="0" width="24" height="24"></rect>
        <path d="M10,21 L14,21 C14,22.1045695 13.1045695,23 12,23 C10.8954305,23 10,22.1045695 10,21 L10,21 Z M12,2 C13.1045695,2 14,2.8954305 14,4 L14,4.29 L14,4.29 C16.97,5.17 19,7.9 19,11 L19,17 L21,19 L21,20 L3,20 L3,19 L5,17 L5,11 C5,7.9 7.03,5.17 10,4.29 L10,4 L10,4 C10,2.8954305 10.8954305,2 12,2 Z M15.5195312,9.8125 L12.765625,9.8125 L12.484375,12.703125 L13.3632812,12.9296875 L13.4335938,12.8320312 C13.5481777,12.6888014 13.7096344,12.6171875 13.9179688,12.6171875 C14.1315115,12.6171875 14.2975254,12.70052 14.4160156,12.8671875 C14.5345058,13.033855 14.59375,13.2812484 14.59375,13.609375 C14.59375,13.9583351 14.5442713,14.2207022 14.4453125,14.3964844 C14.3463537,14.5722665 14.2057301,14.6601562 14.0234375,14.6601562 C13.8671867,14.6601562 13.7395838,14.5950527 13.640625,14.4648438 C13.5416662,14.3346348 13.483073,14.1510429 13.4648438,13.9140625 L13.4648438,13.9140625 L12.3710938,13.9140625 C12.3736979,14.2343766 12.448567,14.5208321 12.5957031,14.7734375 C12.7428393,15.0260429 12.9440091,15.2233066 13.1992188,15.3652344 C13.4544284,15.5071622 13.7317693,15.578125 14.03125,15.578125 C14.5364609,15.578125 14.9401027,15.4036476 15.2421875,15.0546875 C15.5442723,14.7057274 15.6953125,14.2460966 15.6953125,13.6757812 C15.6953125,13.0664032 15.5683606,12.5950537 15.3144531,12.2617188 C15.0605456,11.9283838 14.6992211,11.7617188 14.2304688,11.7617188 C14.0039051,11.7617188 13.7838552,11.8333326 13.5703125,11.9765625 L13.5703125,11.9765625 L13.671875,10.7578125 L15.5195312,10.7578125 L15.5195312,9.8125 Z M10.7578125,9.8046875 L10.640625,9.8046875 L8.56640625,10.6523438 L8.56640625,11.5742188 L9.6484375,11.15625 L9.6484375,15.5 L10.7578125,15.5 L10.7578125,9.8046875 Z" id="xabber.bell-15m" fill="#000000" fill-rule="nonzero"></path>
    </g>
</svg>