<?xml version="1.0" encoding="UTF-8"?>
<svg width="24px" height="24px" viewBox="0 0 24 24" version="1.1" xmlns="http://www.w3.org/2000/svg" xmlns:xlink="http://www.w3.org/1999/xlink">
    <title>icon/material/bell-2h</title>
    <g id="icon/material/bell-2h" stroke="none" stroke-width="1" fill="none" fill-rule="evenodd">
        <rect id="ViewBox" fill-rule="nonzero" x="0" y="0" width="24" height="24"></rect>
        <path d="M10,21 L14,21 C14,22.1045695 13.1045695,23 12,23 C10.8954305,23 10,22.1045695 10,21 L10,21 Z M12,2 C13.1045695,2 14,2.8954305 14,4 L14,4.29 L14,4.29 C16.97,5.17 19,7.9 19,11 L19,17 L21,19 L21,20 L3,20 L3,19 L5,17 L5,11 C5,7.9 7.03,5.17 10,4.29 L10,4 L10,4 C10,2.8954305 10.8954305,2 12,2 Z M9.5,8.79296875 C9.08658647,8.79296875 8.71631023,8.89306541 8.38916016,9.09326172 C8.06201008,9.29345803 7.80810637,9.57421694 7.62744141,9.93554688 C7.44677644,10.2968768 7.35644531,10.6956358 7.35644531,11.1318359 L7.35644531,11.1318359 L8.74316406,11.1318359 C8.74316406,10.7542299 8.80908137,10.4612641 8.94091797,10.2529297 C9.07275457,10.0445953 9.25097544,9.94042969 9.47558594,9.94042969 C9.68066509,9.94042969 9.83772732,10.029947 9.94677734,10.2089844 C10.0558274,10.3880217 10.1103516,10.6354151 10.1103516,10.9511719 C10.1103516,11.185548 10.0525722,11.4305 9.93701172,11.6860352 C9.82145125,11.9415703 9.64160278,12.2386051 9.39746094,12.5771484 L9.39746094,12.5771484 L7.47363281,15.0234375 L7.47363281,16 L11.6630859,16 L11.6630859,14.8525391 L9.24609375,14.8525391 L10.1591797,13.5488281 C10.6669947,12.9466116 11.0177399,12.4396179 11.2114258,12.027832 C11.4051116,11.6160461 11.5019531,11.2099629 11.5019531,10.8095703 C11.5019531,10.1650358 11.3269874,9.66780774 10.9770508,9.31787109 C10.6271141,8.96793445 10.1347688,8.79296875 9.5,8.79296875 Z M13.9189453,8.5 L12.5371094,8.5 L12.5371094,16 L13.9189453,16 L13.9189453,12.1230469 C14.05892,11.8919259 14.2542305,11.7763672 14.5048828,11.7763672 C14.7197276,11.7763672 14.8751623,11.8455397 14.9711914,11.9838867 C15.0672205,12.1222338 15.1152344,12.3460271 15.1152344,12.6552734 L15.1152344,12.6552734 L15.1152344,16 L16.5019531,16 L16.5019531,12.640625 C16.4986979,11.9700487 16.371746,11.4654965 16.1210938,11.1269531 C15.8704415,10.7884098 15.5042342,10.6191406 15.0224609,10.6191406 C14.5862608,10.6191406 14.218426,10.8063132 13.9189453,11.1806641 L13.9189453,11.1806641 L13.9189453,8.5 Z" id="xabber.bell-2h" fill="#000000" fill-rule="nonzero"></path>
    </g>
</svg>