<?xml version="1.0" encoding="UTF-8"?>
<svg width="24px" height="24px" viewBox="0 0 24 24" version="1.1" xmlns="http://www.w3.org/2000/svg" xmlns:xlink="http://www.w3.org/1999/xlink">
    <title>icon/material/bell-settings-variant</title>
    <g id="icon/material/bell-settings-variant" stroke="none" stroke-width="1" fill="none" fill-rule="evenodd">
        <rect id="ViewBox" fill-rule="nonzero" x="0" y="0" width="24" height="24"></rect>
        <path d="M10,21 L14,21 C14,22.1045695 13.1045695,23 12,23 C10.8954305,23 10,22.1045695 10,21 Z M12,2 C13.1045695,2 14,2.8954305 14,4 L14,4.29 C16.97,5.17 19,7.9 19,11 L19,17 L21,19 L21,20 L3,20 L3,19 L5,17 L5,11 C5,7.9 7.03,5.17 10,4.29 L10,4 C10,2.8954305 10.8954305,2 12,2 Z M9,12 L7,12 L7,14 L9,14 L9,12 Z M13,12 L11,12 L11,14 L13,14 L13,12 Z M17,12 L15,12 L15,14 L17,14 L17,12 Z" id="xabber.bell-settings-variant" fill="#000000" fill-rule="nonzero"></path>
    </g>
</svg>