<?xml version="1.0" encoding="UTF-8"?>
<svg width="24px" height="24px" viewBox="0 0 24 24" version="1.1" xmlns="http://www.w3.org/2000/svg" xmlns:xlink="http://www.w3.org/1999/xlink">
    <title>icon/material/bell-circle</title>
    <g id="icon/material/bell-circle" stroke="none" stroke-width="1" fill="none" fill-rule="evenodd">
        <rect id="ViewBox" fill-rule="nonzero" x="0" y="0" width="24" height="24"></rect>
        <path d="M12,2 C14.6521649,2 17.195704,3.0535684 19.0710678,4.92893219 C20.9464316,6.80429597 22,9.3478351 22,12 C22,17.5228475 17.5228475,22 12,22 C9.3478351,22 6.80429597,20.9464316 4.92893219,19.0710678 C3.0535684,17.195704 2,14.6521649 2,12 C2,9.3478351 3.0535684,6.80429597 4.92893219,4.92893219 C6.80429597,3.0535684 9.3478351,2 12,2 M17,16 L17,15 L16,14 L16,11.39 C16,10.3 15.73,9.34 15.21,8.53 C14.7,7.72 13.96,7.21 13,7 L13,6.5 C13,5.94771525 12.5522847,5.5 12,5.5 C11.4477153,5.5 11,5.94771525 11,6.5 L11,7 C10.04,7.21 9.3,7.72 8.79,8.53 C8.27,9.34 8,10.3 8,11.39 L8,14 L7,15 L7,16 L17,16 M13.5,17 L10.5,17 C10.5,17.8284271 11.1715729,18.5 12,18.5 C12.8284271,18.5 13.5,17.8284271 13.5,17 Z" id="mdi:bell-circle" fill="#000000" fill-rule="nonzero"></path>
    </g>
</svg>