<?xml version="1.0" encoding="UTF-8"?>
<svg width="24px" height="24px" viewBox="0 0 24 24" version="1.1" xmlns="http://www.w3.org/2000/svg" xmlns:xlink="http://www.w3.org/1999/xlink">
    <title>icon/material/birthday-circle</title>
    <g id="icon/material/birthday-circle" stroke="none" stroke-width="1" fill="none" fill-rule="evenodd">
        <rect id="ViewBox" fill-rule="nonzero" x="0" y="0" width="24" height="24"></rect>
        <path d="M12,2 C17.5228475,2 22,6.4771525 22,12 C22,17.5228475 17.5228475,22 12,22 C6.4771525,22 2,17.5228475 2,12 C2,6.4771525 6.4771525,2 12,2 Z M14.487,14.47 L14.4241872,14.5342798 C12.931076,15.9885734 11.068924,15.9885734 9.5758128,14.5342798 L9.512,14.47 L9.45509549,14.5342798 C8.60869015,15.4498708 7.81104346,15.789026 7.0007607,15.5517455 L7,17 C7,17.5522847 7.44771525,18 8,18 L16,18 C16.5522847,18 17,17.5522847 17,17 L16.999,15.551 L16.8485305,15.5892583 C16.1403605,15.7343518 15.4389546,15.4376902 14.7031243,14.6992735 L14.5449045,14.5342798 L14.487,14.47 Z M13,9 L11,9 L11,10 L9,10 C7.8954305,10 7,10.8954305 7,12 L7.0007607,14.2011249 C7.6037413,14.6053838 8.08841208,14.3047174 8.86737685,13.2991257 L9.5,12.4583333 L10,13.125 C11.25,14.7916667 12.75,14.7916667 14,13.125 L14.5,12.4583333 L15.1326719,13.2991886 C15.9119168,14.3051285 16.3966554,14.6056136 16.9999559,14.2006439 L17,12 C17,10.8954305 16.1045695,10 15,10 L13,10 L13,9 Z M12,3.5 C11,4.94771525 10.5,5.94771525 10.5,6.5 C10.5,7.32842712 11.1715729,8 12,8 C12.8284271,8 13.5,7.32842712 13.5,6.5 C13.5,5.94771525 13,4.94771525 12,3.5 Z" id="xabber:birthday-circle" fill="#000000" fill-rule="nonzero"></path>
    </g>
</svg>