<?xml version="1.0" encoding="UTF-8"?>
<svg width="24px" height="24px" viewBox="0 0 24 24" version="1.1" xmlns="http://www.w3.org/2000/svg" xmlns:xlink="http://www.w3.org/1999/xlink">
    <title>icon/material/book-outline</title>
    <g id="icon/material/book-outline" stroke="none" fill="none" fill-rule="nonzero">
        <rect id="ViewBox" x="0" y="0" width="24" height="24"></rect>
        <path d="M18,2 C19.1045695,2 20,2.8954305 20,4 L20,20 C20,21.1045695 19.1045695,22 18,22 L6,22 C4.8954305,22 4,21.1045695 4,20 L4,4 C4,2.8954305 4.8954305,2 6,2 L18,2 M18,4 L13,4 L13,12 L10.5,9.75 L8,12 L8,4 L6,4 L6,20 L18,20 L18,4 Z" id="mdi:book-outline" fill="#000000"></path>
    </g>
</svg>