<?xml version="1.0" encoding="UTF-8"?>
<svg width="24px" height="24px" viewBox="0 0 24 24" version="1.1" xmlns="http://www.w3.org/2000/svg" xmlns:xlink="http://www.w3.org/1999/xlink">
    <title>icon/material/bot</title>
    <g id="icon/material/bot" stroke="none" stroke-width="1" fill="none" fill-rule="evenodd">
        <rect id="ViewBox" fill-rule="nonzero" x="0" y="0" width="24" height="24"></rect>
        <path d="M13.5,1 C14.3284271,1 15,1.67157288 15,2.5 C15,3.05462494 14.6989883,3.53894484 14.2514212,3.79850357 L14.25,6 L17,6 C18.6568542,6 20,7.34314575 20,9 L20,10 C21.1045695,10 22,10.8954305 22,12 L22,14 C22,15.1045695 21.1045695,16 20,16 L20,18 C20,19.6568542 18.6568542,21 17,21 L7,21 C5.34314575,21 4,19.6568542 4,18 L4,16 C2.8954305,16 2,15.1045695 2,14 L2,12 C2,10.8954305 2.8954305,10 4,10 L4,9 C4,7.34314575 5.34314575,6 7,6 L12.75,6 L12.7495789,3.799083 C12.3408039,3.56244224 12.0540655,3.13840028 12.0068666,2.64446001 L12,2.5 C12,1.67157288 12.6715729,1 13.5,1 Z M15,17 L9,17 C8.44771525,17 8,17.4477153 8,18 C8,18.5522847 8.44771525,19 9,19 L9,19 L15,19 C15.5522847,19 16,18.5522847 16,18 C16,17.4477153 15.5522847,17 15,17 L15,17 Z M8.5,9 C8.22385763,9 8,9.22385763 8,9.5 L8,9.5 L8,11 L6.5,11 C6.22385763,11 6,11.2238576 6,11.5 C6,11.7761424 6.22385763,12 6.5,12 L6.5,12 L8,12 L8,13.5 C8,13.7761424 8.22385763,14 8.5,14 C8.77614237,14 9,13.7761424 9,13.5 L9,13.5 L9,12 L10.5,12 C10.7761424,12 11,11.7761424 11,11.5 C11,11.2238576 10.7761424,11 10.5,11 L10.5,11 L9,11 L9,9.5 C9,9.22385763 8.77614237,9 8.5,9 Z M15.5,10 C14.6715729,10 14,10.6715729 14,11.5 C14,12.3284271 14.6715729,13 15.5,13 C16.3284271,13 17,12.3284271 17,11.5 C17,10.6715729 16.3284271,10 15.5,10 Z" id="xabber.bot" fill="#000000" fill-rule="nonzero"></path>
    </g>
</svg>