<?xml version="1.0" encoding="UTF-8"?>
<svg width="24px" height="24px" viewBox="0 0 24 24" version="1.1" xmlns="http://www.w3.org/2000/svg" xmlns:xlink="http://www.w3.org/1999/xlink">
    <title>icon/material/bug-outline</title>
    <g id="icon/material/bug-outline" stroke="none" fill="none" fill-rule="nonzero">
        <rect id="ViewBox" x="0" y="0" width="24" height="24"></rect>
        <path d="M20,8 L17.19,8 C16.74,7.2 16.12,6.5 15.37,6 L17,4.41 L15.59,3 L13.42,5.17 C12.4901518,4.94442551 11.5198482,4.94442551 10.59,5.17 L8.41,3 L7,4.41 L8.62,6 C7.87,6.5 7.26,7.21 6.81,8 L4,8 L4,10 L6.09,10 C6.03,10.33 6,10.66 6,11 L6,12 L4,12 L4,14 L6,14 L6,15 C6,15.34 6.03,15.67 6.09,16 L4,16 L4,18 L6.81,18 C7.60605888,19.3761348 8.91668505,20.3792176 10.4529898,20.7881485 C11.9892945,21.1970795 13.6251571,20.9782879 15,20.18 C15.91,19.66 16.67,18.9 17.19,18 L20,18 L20,16 L17.91,16 C17.97,15.67 18,15.34 18,15 L18,14 L20,14 L20,12 L18,12 L18,11 C18,10.66 17.97,10.33 17.91,10 L20,10 L20,8 M16,15 C16,17.209139 14.209139,19 12,19 C9.790861,19 8,17.209139 8,15 L8,11 C8,8.790861 9.790861,7 12,7 C14.209139,7 16,8.790861 16,11 L16,15 M14,10 L14,12 L10,12 L10,10 L14,10 M10,14 L14,14 L14,16 L10,16 L10,14 Z" id="mdi:bug-outline" fill="#000000"></path>
    </g>
</svg>