<?xml version="1.0" encoding="UTF-8"?>
<svg width="24px" height="24px" viewBox="0 0 24 24" version="1.1" xmlns="http://www.w3.org/2000/svg" xmlns:xlink="http://www.w3.org/1999/xlink">
    <title>icon/material/camera-outline</title>
    <g id="icon/material/camera-outline" stroke="none" fill="none" fill-rule="nonzero">
        <rect id="ViewBox" x="0" y="0" width="24" height="24"></rect>
        <path d="M20,4 L16.83,4 L15,2 L9,2 L7.17,4 L4,4 C2.8954305,4 2,4.8954305 2,6 L2,18 C2,19.1045695 2.8954305,20 4,20 L20,20 C21.1045695,20 22,19.1045695 22,18 L22,6 C22,4.8954305 21.1045695,4 20,4 M20,18 L4,18 L4,6 L8.05,6 L9.88,4 L14.12,4 L15.95,6 L20,6 L20,18 M12,7 C9.23857625,7 7,9.23857625 7,12 C7,14.7614237 9.23857625,17 12,17 C14.7614237,17 17,14.7614237 17,12 C17,9.23857625 14.7614237,7 12,7 M12,15 C10.3431458,15 9,13.6568542 9,12 C9,10.3431458 10.3431458,9 12,9 C13.6568542,9 15,10.3431458 15,12 C15,13.6568542 13.6568542,15 12,15 L12,15 Z" id="mdi:camera-outline" fill="#000000"></path>
    </g>
</svg>