<?xml version="1.0" encoding="UTF-8"?>
<svg width="24px" height="24px" viewBox="0 0 24 24" version="1.1" xmlns="http://www.w3.org/2000/svg" xmlns:xlink="http://www.w3.org/1999/xlink">
    <title>icon/material/camera-iris</title>
    <g id="icon/material/camera-iris" stroke="none" fill="none" fill-rule="nonzero">
        <rect id="ViewBox" x="0" y="0" width="24" height="24"></rect>
        <path d="M13.73,15 L9.83,21.76 C10.53,21.91 11.25,22 12,22 C14.4,22 16.6,21.15 18.32,19.75 L14.66,13.4 M2.46,15 C3.38,17.92 5.61,20.26 8.45,21.34 L12.12,15 M8.54,12 L4.64,5.25 C3,7 2,9.39 2,12 C2,12.68 2.07,13.35 2.2,14 L9.69,14 M21.8,10 L14.31,10 L14.6,10.5 L19.36,18.75 C21,16.97 22,14.6 22,12 C22,11.31 21.93,10.64 21.8,10 M21.54,9 C20.62,6.07 18.39,3.74 15.55,2.66 L11.88,9 M9.4,10.5 L14.17,2.24 C13.47,2.09 12.75,2 12,2 C9.6,2 7.4,2.84 5.68,4.25 L9.34,10.6 L9.4,10.5 Z" id="mdi:camera-iris" fill="#000000"></path>
    </g>
</svg>