<?xml version="1.0" encoding="UTF-8"?>
<svg width="24px" height="24px" viewBox="0 0 24 24" version="1.1" xmlns="http://www.w3.org/2000/svg" xmlns:xlink="http://www.w3.org/1999/xlink">
    <title>icon/material/channel-add</title>
    <g id="icon/material/channel-add" stroke="none" stroke-width="1" fill="none" fill-rule="evenodd">
        <rect id="ViewBox" fill-rule="nonzero" x="0" y="0" width="24" height="24"></rect>
        <path d="M9.5,16 C10.8807119,16 12,17.1192881 12,18.5 C12,19.8807119 10.8807119,21 9.5,21 C8.11928813,21 7,19.8807119 7,18.5 C7,17.1192881 8.11928813,16 9.5,16 Z M10.3271555,4.02319717 C17.9504217,4.45191644 24,10.7694809 24,18.5 C24,18.6673129 23.9971662,18.833964 23.991544,18.9999078 L21.9927221,18.9306084 C21.997561,18.7876679 22,18.6441188 22,18.5 C22,11.8357333 16.7848055,6.38954052 10.212988,6.01999322 L10.3271555,4.02319717 Z M10.0987647,8.01678614 C15.6191598,8.32713384 20,12.9019669 20,18.5 C20,18.621023 19.9979525,18.7415677 19.9938903,18.8616015 L17.9950388,18.7931758 C17.9983374,18.6958566 18,18.5981225 18,18.5 C18,13.968157 14.453446,10.264656 9.98441267,10.0135718 L10.0987647,8.01678614 Z M9.87002474,12.0103555 C13.2877132,12.2021583 16,15.0343349 16,18.5 L15.9951238,18.7231972 L13.9973766,18.6551187 C13.9991208,18.6036272 14,18.5519163 14,18.5 C14,16.1006757 12.1222353,14.1399269 9.75611872,14.0071663 L9.87002474,12.0103555 Z M5,8.5 L5,11 L7.5,11 L7.5,13 L5,13 L5,15.5 L3,15.5 L3,13 L0.5,13 L0.5,11 L3,11 L3,8.5 L5,8.5 Z" id="xabber:channel-add" fill="#000000" fill-rule="nonzero"></path>
    </g>
</svg>