<?xml version="1.0" encoding="UTF-8"?>
<svg width="24px" height="24px" viewBox="0 0 24 24" version="1.1" xmlns="http://www.w3.org/2000/svg" xmlns:xlink="http://www.w3.org/1999/xlink">
    <title>icon/material/channel</title>
    <g id="icon/material/channel" stroke="none" stroke-width="1" fill="none" fill-rule="evenodd">
        <rect id="ViewBox" fill-rule="nonzero" x="0" y="0" width="24" height="24"></rect>
        <path d="M6.5,15 C7.88071187,15 9,16.1192881 9,17.5 C9,18.8807119 7.88071187,20 6.5,20 C5.11928813,20 4,18.8807119 4,17.5 C4,16.1192881 5.11928813,15 6.5,15 Z M7.32715551,3.02319717 C14.9504217,3.45191644 21,9.76948086 21,17.5 C21,17.6673129 20.9971662,17.833964 20.991544,17.9999078 L18.9927221,17.9306084 C18.997561,17.7876679 19,17.6441188 19,17.5 C19,10.8357333 13.7848055,5.38954052 7.21298796,5.01999322 L7.32715551,3.02319717 Z M7.09876473,7.01678614 C12.6191598,7.32713384 17,11.9019669 17,17.5 C17,17.621023 16.9979525,17.7415677 16.9938903,17.8616015 L14.9950388,17.7931758 C14.9983374,17.6958566 15,17.5981225 15,17.5 C15,12.968157 11.453446,9.26465599 6.98441267,9.01357183 L7.09876473,7.01678614 Z M6.87002474,11.0103555 C10.2877132,11.2021583 13,14.0343349 13,17.5 L12.9951238,17.7231972 L10.9973766,17.6551187 C10.9991208,17.6036272 11,17.5519163 11,17.5 C11,15.1006757 9.12223532,13.1399269 6.75611872,13.0071663 L6.87002474,11.0103555 Z" id="xabber:channel" fill="#000000" fill-rule="nonzero"></path>
    </g>
</svg>