<?xml version="1.0" encoding="UTF-8"?>
<svg width="24px" height="24px" viewBox="0 0 24 24" version="1.1" xmlns="http://www.w3.org/2000/svg" xmlns:xlink="http://www.w3.org/1999/xlink">
    <title>icon/material/chart-arc</title>
    <g id="icon/material/chart-arc" stroke="none" fill="none" fill-rule="nonzero">
        <rect id="ViewBox" x="0" y="0" width="24" height="24"></rect>
        <path d="M16.1800587,19.6 L14.1700587,16.12 C15.1500587,15.4 15.8300587,14.28 15.9700587,13 L20.0000587,13 C19.8326627,15.6774609 18.4183021,18.1211205 16.1800587,19.6 M13.0000587,7.03 L13.0000587,3 C17.3000587,3.26 20.7400587,6.7 21.0000587,11 L16.9700587,11 C16.7400124,8.91011232 15.0899464,7.26004632 13.0000587,7.03 M7.00005873,12.5 C7.00005873,13.14 7.13005873,13.75 7.38005873,14.3 L3.90005873,16.31 C3.30488328,15.1283497 2.99654994,13.8230718 3.00002912,12.5 C3.00002912,7.97 6.54005873,4.27 11.0000587,4 L11.0000587,8.03 C8.75005873,8.28 7.00005873,10.18 7.00005873,12.5 M11.5000587,21 C8.53005873,21 5.92005873,19.5 4.40005873,17.18 L7.88005873,15.17 C8.72456732,16.323892 10.070148,17.0041165 11.5000587,17 C12.1400587,17 12.7500587,16.87 13.3000587,16.62 L15.3100587,20.1 C14.1600587,20.68 12.8700587,21 11.5000587,21 Z" id="mdi:chart-arc" fill="#000000"></path>
    </g>
</svg>