<?xml version="1.0" encoding="UTF-8"?>
<svg width="24px" height="24px" viewBox="0 0 24 24" version="1.1" xmlns="http://www.w3.org/2000/svg" xmlns:xlink="http://www.w3.org/1999/xlink">
    <title>icon/material/chat-settings-outline</title>
    <g id="icon/material/chat-settings-outline" stroke="none" stroke-width="1" fill="none" fill-rule="evenodd">
        <rect id="ViewBox" fill-rule="nonzero" x="0" y="0" width="24" height="24"></rect>
        <path d="M20,2 L4,2 C2.9,2 2,2.9 2,4 L2,22 L6,18 L20,18 C21.1,18 22,17.1 22,16 L22,4 C22,2.9 21.1,2 20,2 M20,16 L5.2,16 L4,17.2 L4,4 L20,4 L20,16 M11,24 L13,24 L13,22 L11,22 L11,24 M7,24 L9,24 L9,22 L7,22 L7,24 M15,24 L17,24 L17,22 L15,22 L15,24" id="mdi:message-settings-outline" fill="#000000" fill-rule="nonzero"></path>
    </g>
</svg>