<?xml version="1.0" encoding="UTF-8"?>
<svg width="24px" height="24px" viewBox="0 0 24 24" version="1.1" xmlns="http://www.w3.org/2000/svg" xmlns:xlink="http://www.w3.org/1999/xlink">
    <title>icon/material/chat-alert-outline</title>
    <g id="icon/material/chat-alert-outline" stroke="none" stroke-width="1" fill="none" fill-rule="evenodd">
        <rect id="ViewBox" fill-rule="nonzero" x="0" y="0" width="24" height="24"></rect>
        <path d="M13,10 L11,10 L11,6 L13,6 L13,10 Z M13,12 L11,12 L11,14 L13,14 L13,12 Z M22,4 L22,16 C22,17.1 21.1,18 20,18 L6,18 L2,22 L2,4 C2,2.9 2.9,2 4,2 L20,2 C21.1,2 22,2.9 22,4 Z M20,4 L4,4 L4,17.2 L5.2,16 L20,16 L20,4 Z" id="mdi:message-alert-outline" fill="#000000" fill-rule="nonzero"></path>
    </g>
</svg>