<?xml version="1.0" encoding="UTF-8"?>
<svg width="24px" height="24px" viewBox="0 0 24 24" version="1.1" xmlns="http://www.w3.org/2000/svg" xmlns:xlink="http://www.w3.org/1999/xlink">
    <title>icon/material/cloud-outline</title>
    <g id="icon/material/cloud-outline" stroke="none" stroke-width="1" fill="none" fill-rule="evenodd">
        <rect id="ViewBox" fill-rule="nonzero" x="0" y="0" width="24" height="24"></rect>
        <path d="M6.5,20 C4.98,20 3.68333333,19.4766667 2.61,18.43 C1.53666667,17.3766667 1,16.0933333 1,14.58 C1,13.28 1.39,12.12 2.17,11.1 C2.95666667,10.08 3.98333333,9.43 5.25,9.15 C5.67,7.61666667 6.50333333,6.37666667 7.75,5.43 C9.00333333,4.47666667 10.42,4 12,4 C13.9533333,4 15.6066667,4.68 16.96,6.04 C18.32,7.39333333 19,9.04666667 19,11 C20.1533333,11.1333333 21.1066667,11.6333333 21.86,12.5 C22.62,13.3533333 23,14.3533333 23,15.5 C23,16.7533333 22.5633333,17.8166667 21.69,18.69 C20.8166667,19.5633333 19.7533333,20 18.5,20 M6.5,18 L18.5,18 C19.2,18 19.79,17.7566667 20.27,17.27 C20.7566667,16.79 21,16.2 21,15.5 C21,14.8 20.7566667,14.21 20.27,13.73 C19.79,13.2433333 19.2,13 18.5,13 L17,13 L17,11 C17,9.62 16.5133333,8.44 15.54,7.46 C14.5666667,6.48666667 13.3866667,6 12,6 C10.62,6 9.44,6.48666667 8.46,7.46 C7.48666667,8.44 7,9.62 7,11 L6.5,11 C5.53333333,11 4.71,11.3433333 4.03,12.03 C3.34333333,12.71 3,13.5333333 3,14.5 C3,15.4666667 3.34333333,16.3 4.03,17 C4.71,17.6666667 5.53333333,18 6.5,18" id="mdi:cloud-outline" fill="#000000" fill-rule="nonzero"></path>
    </g>
</svg>