<?xml version="1.0" encoding="UTF-8"?>
<svg width="24px" height="24px" viewBox="0 0 24 24" version="1.1" xmlns="http://www.w3.org/2000/svg" xmlns:xlink="http://www.w3.org/1999/xlink">
    <title>icon/material/cloud-sync</title>
    <g id="icon/material/cloud-sync" stroke="none" stroke-width="1" fill="none" fill-rule="evenodd">
        <rect id="ViewBox" fill-rule="nonzero" x="0" y="0" width="24" height="24"></rect>
        <path d="M12,4 C15.64,4 18.67,6.59 19.35,10.04 C21.95,10.22 24,12.36 24,15 C24,16.3260824 23.4732158,17.597852 22.5355339,18.5355339 C21.597852,19.4732158 20.3260824,20 19,20 L6,20 C2.6862915,20 0,17.3137085 0,14 C0,10.91 2.34,8.36 5.35,8.04 C6.6,5.64 9.11,4 12,4 M7.5,9.69 C6.06,11.5 6.2,14.06 7.82,15.68 C8.66,16.5 9.81,17 11,17 L11,18.86 L13.83,16.04 L11,13.21 L11,15 C10.34,15 9.7,14.74 9.23,14.27 C8.39,13.43 8.26,12.11 8.92,11.12 L7.5,9.69 M9.17,8.97 L10.62,10.42 L12,11.79 L12,10 C12.66,10 13.3,10.26 13.77,10.73 C14.61,11.57 14.74,12.89 14.08,13.88 L15.5,15.31 C16.94,13.5 16.8,10.94 15.18,9.32 C14.34,8.5 13.19,8 12,8 L12,6.14 L9.17,8.97 Z" id="xabber.cloud-sync" fill="#000000" fill-rule="nonzero"></path>
    </g>
</svg>