<?xml version="1.0" encoding="UTF-8"?>
<svg width="24px" height="24px" viewBox="0 0 24 24" version="1.1" xmlns="http://www.w3.org/2000/svg" xmlns:xlink="http://www.w3.org/1999/xlink">
    <title>icon/material/cloud-sync-outline</title>
    <g id="icon/material/cloud-sync-outline" stroke="none" stroke-width="1" fill="none" fill-rule="evenodd">
        <rect id="ViewBox" fill-rule="nonzero" x="0" y="0" width="24" height="24"></rect>
        <path d="M13.03,18 C13.08,18.7 13.24,19.38 13.5,20 L6.5,20 C5,20 3.69,19.5 2.61,18.43 C1.54,17.38 1,16.09 1,14.58 C1,13.28 1.39,12.12 2.17,11.1 C2.95,10.08 4,9.43 5.25,9.15 C5.67,7.62 6.5,6.38 7.75,5.43 C9,4.48 10.42,4 12,4 C13.95,4 15.6,4.68 16.96,6.04 C18.32,7.4 19,9.05 19,11 L19.1,11 C18.36,11.07 17.65,11.23 17,11.5 L17,11 C17,9.62 16.5,8.44 15.54,7.46 C14.56,6.5 13.38,6 12,6 C10.62,6 9.44,6.5 8.46,7.46 C7.5,8.44 7,9.62 7,11 L6.5,11 C5.53,11 4.71,11.34 4.03,12.03 C3.34,12.71 3,13.53 3,14.5 C3,15.47 3.34,16.29 4.03,17 C4.71,17.66 5.53,18 6.5,18 L13.03,18 M19,13.5 L19,12 L16.75,14.25 L19,16.5 L19,15 C20.3807119,15 21.5,16.1192881 21.5,17.5 C21.5,17.9 21.41,18.28 21.24,18.62 L22.33,19.71 C22.75,19.08 23,18.32 23,17.5 C23,15.29 21.21,13.5 19,13.5 M19,20 C17.6192881,20 16.5,18.8807119 16.5,17.5 C16.5,17.1 16.59,16.72 16.76,16.38 L15.67,15.29 C15.25,15.92 15,16.68 15,17.5 C15,19.71 16.79,21.5 19,21.5 L19,23 L21.25,20.75 L19,18.5 L19,20 Z" id="mdi:cloud-sync-outline" fill="#000000" fill-rule="nonzero"></path>
    </g>
</svg>