<?xml version="1.0" encoding="UTF-8"?>
<svg width="24px" height="24px" viewBox="0 0 24 24" version="1.1" xmlns="http://www.w3.org/2000/svg" xmlns:xlink="http://www.w3.org/1999/xlink">
    <title>icon/material/cloud-upload-outline</title>
    <g id="icon/material/cloud-upload-outline" stroke="none" fill="none" fill-rule="nonzero">
        <rect id="ViewBox" x="0" y="0" width="24" height="24"></rect>
        <path d="M4.03,12.03 C3.34,12.71 3,13.53 3,14.5 C3,15.47 3.34,16.29 4.03,17 C4.71,17.66 5.53,18 6.5,18 L13.09,18 C13.04,18.33 13,18.66 13,19 C13,19.34 13.04,19.67 13.09,20 L6.5,20 C5,20 3.69,19.5 2.61,18.43 C1.54,17.38 1,16.09 1,14.58 C1,13.28 1.39,12.12 2.17,11.1 C2.95,10.08 4,9.43 5.25,9.15 C5.67,7.62 6.5,6.38 7.75,5.43 C9,4.48 10.42,4 12,4 C13.95,4 15.6,4.68 16.96,6.04 C18.32,7.4 19,9.05 19,11 C20.15,11.13 21.1,11.63 21.86,12.5 C22.37,13.07 22.7,13.71 22.86,14.42 C21.7849381,13.4996266 20.4152128,12.995738 19,13 L17,13 L17,11 C17,9.62 16.5,8.44 15.54,7.46 C14.56,6.5 13.38,6 12,6 C10.62,6 9.44,6.5 8.46,7.46 C7.5,8.44 7,9.62 7,11 L6.5,11 C5.53,11 4.71,11.34 4.03,12.03 M16,18 L18,18 L18,22 L20,22 L20,18 L22,18 L19,15 L16,18 Z" id="mdi:cloud-arrow-up-outline" fill="#000000"></path>
    </g>
</svg>