<?xml version="1.0" encoding="UTF-8"?>
<svg width="24px" height="24px" viewBox="0 0 24 24" version="1.1" xmlns="http://www.w3.org/2000/svg" xmlns:xlink="http://www.w3.org/1999/xlink">
    <title>icon/material/cloud-check</title>
    <g id="icon/material/cloud-check" stroke="none" stroke-width="1" fill="none" fill-rule="evenodd">
        <rect id="ViewBox" fill-rule="nonzero" x="0" y="0" width="24" height="24"></rect>
        <path d="M10,17 L6.5,13.5 L7.91,12.08 L10,14.17 L15.18,9 L16.59,10.41 M19.35,10.03 C18.67,6.59 15.64,4 12,4 C9.11,4 6.6,5.64 5.35,8.03 C2.34,8.36 -1.77635684e-15,10.9 -1.77635684e-15,14 C-1.77635684e-15,17.3137085 2.6862915,20 6,20 L19,20 C20.3260824,20 21.597852,19.4732158 22.5355339,18.5355339 C23.4732158,17.597852 24,16.3260824 24,15 C24,12.36 21.95,10.22 19.35,10.03 Z" id="mdi:cloud-check" fill="#000000" fill-rule="nonzero"></path>
    </g>
</svg>