<?xml version="1.0" encoding="UTF-8"?>
<svg width="24px" height="24px" viewBox="0 0 24 24" version="1.1" xmlns="http://www.w3.org/2000/svg" xmlns:xlink="http://www.w3.org/1999/xlink">
    <title>icon/material/code-alert</title>
    <g id="icon/material/code-alert" stroke="none" stroke-width="1" fill="none" fill-rule="evenodd">
        <rect id="ViewBox" fill-rule="nonzero" x="0" y="0" width="24" height="24"></rect>
        <path d="M17.5,15 C18.3284271,15 19,15.6715729 19,16.5 L19,18.5 C19,19.3284271 18.3284271,20 17.5,20 C16.6715729,20 16,19.3284271 16,18.5 L16,16.5 C16,15.6715729 16.6715729,15 17.5,15 Z M13.5,15 C14.3284271,15 15,15.6715729 15,16.5 L15,18.5 C15,19.3284271 14.3284271,20 13.5,20 C12.6715729,20 12,19.3284271 12,18.5 L12,16.5 C12,15.6715729 12.6715729,15 13.5,15 Z M9.5,15 C10.3284271,15 11,15.6715729 11,16.5 L11,18.5 C11,19.3284271 10.3284271,20 9.5,20 C8.67157288,20 8,19.3284271 8,18.5 L8,16.5 C8,15.6715729 8.67157288,15 9.5,15 Z M6.5,15 C6.77614237,15 7,15.2238576 7,15.5 L7,19.5 C7,19.7761424 6.77614237,20 6.5,20 C6.22385763,20 6,19.7761424 6,19.5 L6,15.5 C6,15.2238576 6.22385763,15 6.5,15 Z M4.5,15 C4.77614237,15 5,15.2238576 5,15.5 L5,19.5 C5,19.7761424 4.77614237,20 4.5,20 C4.22385763,20 4,19.7761424 4,19.5 L4,15.5 C4,15.2238576 4.22385763,15 4.5,15 Z M2.5,15 C2.77614237,15 3,15.2238576 3,15.5 L3,19.5 C3,19.7761424 2.77614237,20 2.5,20 C2.22385763,20 2,19.7761424 2,19.5 L2,15.5 C2,15.2238576 2.22385763,15 2.5,15 Z M17.5,16 C17.2545401,16 17.0503916,16.1768752 17.0080557,16.4101244 L17,16.5 L17,18.5 C17,18.7761424 17.2238576,19 17.5,19 C17.7454599,19 17.9496084,18.8231248 17.9919443,18.5898756 L18,18.5 L18,16.5 C18,16.2238576 17.7761424,16 17.5,16 Z M13.5,16 C13.2545401,16 13.0503916,16.1768752 13.0080557,16.4101244 L13,16.5 L13,18.5 C13,18.7761424 13.2238576,19 13.5,19 C13.7454599,19 13.9496084,18.8231248 13.9919443,18.5898756 L14,18.5 L14,16.5 C14,16.2238576 13.7761424,16 13.5,16 Z M9.5,16 C9.25454011,16 9.05039163,16.1768752 9.00805567,16.4101244 L9,16.5 L9,18.5 C9,18.7761424 9.22385763,19 9.5,19 C9.74545989,19 9.94960837,18.8231248 9.99194433,18.5898756 L10,18.5 L10,16.5 C10,16.2238576 9.77614237,16 9.5,16 Z M23,15 L23,17 L21,17 L21,15 L23,15 Z M18.5,9 C18.7761424,9 19,9.22385763 19,9.5 L19,13.5 C19,13.7761424 18.7761424,14 18.5,14 C18.2238576,14 18,13.7761424 18,13.5 L18,9.5 C18,9.22385763 18.2238576,9 18.5,9 Z M15.5,9 C16.3284271,9 17,9.67157288 17,10.5 L17,12.5 C17,13.3284271 16.3284271,14 15.5,14 C14.6715729,14 14,13.3284271 14,12.5 L14,10.5 C14,9.67157288 14.6715729,9 15.5,9 Z M12.5,9 C12.7761424,9 13,9.22385763 13,9.5 L13,13.5 C13,13.7761424 12.7761424,14 12.5,14 C12.2238576,14 12,13.7761424 12,13.5 L12,9.5 C12,9.22385763 12.2238576,9 12.5,9 Z M9.5,9 C10.3284271,9 11,9.67157288 11,10.5 L11,12.5 C11,13.3284271 10.3284271,14 9.5,14 C8.67157288,14 8,13.3284271 8,12.5 L8,10.5 C8,9.67157288 8.67157288,9 9.5,9 Z M5.5,9 C6.32842712,9 7,9.67157288 7,10.5 L7,12.5 C7,13.3284271 6.32842712,14 5.5,14 C4.67157288,14 4,13.3284271 4,12.5 L4,10.5 C4,9.67157288 4.67157288,9 5.5,9 Z M2.5,9 C2.77614237,9 3,9.22385763 3,9.5 L3,13.5 C3,13.7761424 2.77614237,14 2.5,14 C2.22385763,14 2,13.7761424 2,13.5 L2,9.5 C2,9.22385763 2.22385763,9 2.5,9 Z M23,7 L23,13 L21,13 L21,7 L23,7 Z M15.5,10 C15.2545401,10 15.0503916,10.1768752 15.0080557,10.4101244 L15,10.5 L15,12.5 C15,12.7761424 15.2238576,13 15.5,13 C15.7454599,13 15.9496084,12.8231248 15.9919443,12.5898756 L16,12.5 L16,10.5 C16,10.2238576 15.7761424,10 15.5,10 Z M9.5,10 C9.25454011,10 9.05039163,10.1768752 9.00805567,10.4101244 L9,10.5 L9,12.5 C9,12.7761424 9.22385763,13 9.5,13 C9.74545989,13 9.94960837,12.8231248 9.99194433,12.5898756 L10,12.5 L10,10.5 C10,10.2238576 9.77614237,10 9.5,10 Z M5.5,10 C5.25454011,10 5.05039163,10.1768752 5.00805567,10.4101244 L5,10.5 L5,12.5 C5,12.7761424 5.22385763,13 5.5,13 C5.74545989,13 5.94960837,12.8231248 5.99194433,12.5898756 L6,12.5 L6,10.5 C6,10.2238576 5.77614237,10 5.5,10 Z M18.5,3 C18.7761424,3 19,3.22385763 19,3.5 L19,7.5 C19,7.77614237 18.7761424,8 18.5,8 C18.2238576,8 18,7.77614237 18,7.5 L18,3.5 C18,3.22385763 18.2238576,3 18.5,3 Z M16.5,3 C16.7761424,3 17,3.22385763 17,3.5 L17,7.5 C17,7.77614237 16.7761424,8 16.5,8 C16.2238576,8 16,7.77614237 16,7.5 L16,3.5 C16,3.22385763 16.2238576,3 16.5,3 Z M13.5,3 C14.3284271,3 15,3.67157288 15,4.5 L15,6.5 C15,7.32842712 14.3284271,8 13.5,8 C12.6715729,8 12,7.32842712 12,6.5 L12,4.5 C12,3.67157288 12.6715729,3 13.5,3 Z M9.5,3 C10.3284271,3 11,3.67157288 11,4.5 L11,6.5 C11,7.32842712 10.3284271,8 9.5,8 C8.67157288,8 8,7.32842712 8,6.5 L8,4.5 C8,3.67157288 8.67157288,3 9.5,3 Z M6.5,3 C6.77614237,3 7,3.22385763 7,3.5 L7,7.5 C7,7.77614237 6.77614237,8 6.5,8 C6.22385763,8 6,7.77614237 6,7.5 L6,3.5 C6,3.22385763 6.22385763,3 6.5,3 Z M3.5,3 C4.32842712,3 5,3.67157288 5,4.5 L5,6.5 C5,7.32842712 4.32842712,8 3.5,8 C2.67157288,8 2,7.32842712 2,6.5 L2,4.5 C2,3.67157288 2.67157288,3 3.5,3 Z M13.5,4 C13.2545401,4 13.0503916,4.17687516 13.0080557,4.41012437 L13,4.5 L13,6.5 C13,6.77614237 13.2238576,7 13.5,7 C13.7454599,7 13.9496084,6.82312484 13.9919443,6.58987563 L14,6.5 L14,4.5 C14,4.22385763 13.7761424,4 13.5,4 Z M9.5,4 C9.25454011,4 9.05039163,4.17687516 9.00805567,4.41012437 L9,4.5 L9,6.5 C9,6.77614237 9.22385763,7 9.5,7 C9.74545989,7 9.94960837,6.82312484 9.99194433,6.58987563 L10,6.5 L10,4.5 C10,4.22385763 9.77614237,4 9.5,4 Z M3.5,4 C3.25454011,4 3.05039163,4.17687516 3.00805567,4.41012437 L3,4.5 L3,6.5 C3,6.77614237 3.22385763,7 3.5,7 C3.74545989,7 3.94960837,6.82312484 3.99194433,6.58987563 L4,6.5 L4,4.5 C4,4.22385763 3.77614237,4 3.5,4 Z" id="xabber.code-alert" fill="#000000" fill-rule="nonzero"></path>
    </g>
</svg>