<?xml version="1.0" encoding="UTF-8"?>
<svg width="24px" height="24px" viewBox="0 0 24 24" version="1.1" xmlns="http://www.w3.org/2000/svg" xmlns:xlink="http://www.w3.org/1999/xlink">
    <title>icon/material/contact-add-outline</title>
    <g id="icon/material/contact-add-outline" stroke="none" fill="none" fill-rule="nonzero">
        <rect id="ViewBox" x="0" y="0" width="24" height="24"></rect>
        <path d="M15,4 C12.790861,4 11,5.790861 11,8 C11,10.209139 12.790861,12 15,12 C17.209139,12 19,10.209139 19,8 C19,5.790861 17.209139,4 15,4 M15,5.9 C15.7502577,5.9 16.4435245,6.30025772 16.8186534,6.94999999 C17.1937823,7.59974225 17.1937823,8.40025775 16.8186534,9.05000001 C16.4435245,9.69974228 15.7502577,10.1 15,10.1 C13.840202,10.1 12.9,9.15979797 12.9,8 C12.9,6.84020203 13.840202,5.9 15,5.9 M4,7 L4,10 L1,10 L1,12 L4,12 L4,15 L6,15 L6,12 L9,12 L9,10 L6,10 L6,7 L4,7 Z M15,13 C12.33,13 7,14.33 7,17 L7,20 L23,20 L23,17 C23,14.33 17.67,13 15,13 M15,14.9 C17.97,14.9 21.1,16.36 21.1,17 L21.1,18.1 L8.9,18.1 L8.9,17 C8.9,16.36 12,14.9 15,14.9" id="mdi:account-plus-outline" fill="#000000"></path>
    </g>
</svg>