<?xml version="1.0" encoding="UTF-8"?>
<svg width="24px" height="24px" viewBox="0 0 24 24" version="1.1" xmlns="http://www.w3.org/2000/svg" xmlns:xlink="http://www.w3.org/1999/xlink">
    <title>icon/material/database-outline</title>
    <g id="icon/material/database-outline" stroke="none" stroke-width="1" fill="none" fill-rule="evenodd">
        <rect id="ViewBox" fill-rule="nonzero" x="0" y="0" width="24" height="24"></rect>
        <path d="M12,3 C7.58,3 4,4.79 4,7 L4,17 C4,19.21 7.59,21 12,21 C16.41,21 20,19.21 20,17 L20,7 C20,4.79 16.42,3 12,3 M18,17 C18,17.5 15.87,19 12,19 C8.13,19 6,17.5 6,17 L6,14.77 C7.61,15.55 9.72,16 12,16 C14.28,16 16.39,15.55 18,14.77 L18,17 M18,12.45 C16.7,13.4 14.42,14 12,14 C9.58,14 7.3,13.4 6,12.45 L6,9.64 C7.47,10.47 9.61,11 12,11 C14.39,11 16.53,10.47 18,9.64 L18,12.45 M12,9 C8.13,9 6,7.5 6,7 C6,6.5 8.13,5 12,5 C15.87,5 18,6.5 18,7 C18,7.5 15.87,9 12,9 Z" id="mdi:database-outline" fill="#000000" fill-rule="nonzero"></path>
    </g>
</svg>