<?xml version="1.0" encoding="UTF-8"?>
<svg width="24px" height="24px" viewBox="0 0 24 24" version="1.1" xmlns="http://www.w3.org/2000/svg" xmlns:xlink="http://www.w3.org/1999/xlink">
    <title>icon/material/discover-outline</title>
    <g id="icon/material/discover-outline" stroke="none" stroke-width="1" fill="none" fill-rule="evenodd">
        <rect id="ViewBox" fill-rule="nonzero" x="0" y="0" width="24" height="24"></rect>
        <path d="M7,17 L10.2,10.2 L17,7 L13.8,13.8 L7,17 L7,17 Z M12,11.1 C11.5029437,11.1 11.1,11.5029437 11.1,12 C11.1,12.4970563 11.5029437,12.9 12,12.9 C12.4970563,12.9 12.9,12.4970563 12.9,12 C12.9,11.5029437 12.4970563,11.1 12,11.1 L12,11.1 Z M12,2 C14.6521649,2 17.195704,3.0535684 19.0710678,4.92893219 C20.9464316,6.80429597 22,9.3478351 22,12 C22,17.5228475 17.5228475,22 12,22 C9.3478351,22 6.80429597,20.9464316 4.92893219,19.0710678 C3.0535684,17.195704 2,14.6521649 2,12 C2,9.3478351 3.0535684,6.80429597 4.92893219,4.92893219 C6.80429597,3.0535684 9.3478351,2 12,2 L12,2 Z M12,4 C7.581722,4 4,7.581722 4,12 C4,16.418278 7.581722,20 12,20 C14.1217319,20 16.1565632,19.1571453 17.6568542,17.6568542 C19.1571453,16.1565632 20,14.1217319 20,12 C20,7.581722 16.418278,4 12,4 Z" id="mdi:compass-outline" fill="#000000" fill-rule="nonzero"></path>
    </g>
</svg>