<?xml version="1.0" encoding="UTF-8"?>
<svg width="24px" height="24px" viewBox="0 0 24 24" version="1.1" xmlns="http://www.w3.org/2000/svg" xmlns:xlink="http://www.w3.org/1999/xlink">
    <title>icon/material/discover</title>
    <g id="icon/material/discover" stroke="none" fill="none" fill-rule="nonzero">
        <rect id="ViewBox" x="0" y="0" width="24" height="24"></rect>
        <path d="M14.19,14.19 L6,18 L9.81,9.81 L18,6 M12,2 C6.4771525,2 2,6.4771525 2,12 C2,14.6521649 3.0535684,17.195704 4.92893219,19.0710678 C6.80429597,20.9464316 9.3478351,22 12,22 C14.6521649,22 17.195704,20.9464316 19.0710678,19.0710678 C20.9464316,17.195704 22,14.6521649 22,12 C22,9.3478351 20.9464316,6.80429597 19.0710678,4.92893219 C17.195704,3.0535684 14.6521649,2 12,2 M12,10.9 C11.3924868,10.9 10.9,11.3924868 10.9,12 C10.9,12.6075132 11.3924868,13.1 12,13.1 C12.6075132,13.1 13.1,12.6075132 13.1,12 C13.1,11.3924868 12.6075132,10.9 12,10.9 Z" id="mdi:compass" fill="#000000"></path>
    </g>
</svg>