<?xml version="1.0" encoding="UTF-8"?>
<svg width="25px" height="24px" viewBox="0 0 25 24" version="1.1" xmlns="http://www.w3.org/2000/svg" xmlns:xlink="http://www.w3.org/1999/xlink">
    <title>icon/material/email-plus</title>
    <g id="icon/material/email-plus" stroke="none" fill="none" fill-rule="nonzero">
        <rect id="ViewBox" x="0" y="0" width="24" height="24"></rect>
        <path d="M4,4 C2.89,4 2,4.89 2,6 L2,18 C2,19.1045695 2.8954305,20 4,20 L15.09,20 C15.03,19.67 15,19.34 15,19 C15,15.6862915 17.6862915,13 21,13 C21.34,13 21.67,13.03 22,13.09 L22,6 C22,4.89 21.1,4 20,4 L4,4 M4,6 L12,11 L20,6 L20,8 L12,13 L4,8 L4,6 M20,15 L20,18 L17,18 L17,20 L20,20 L20,23 L22,23 L22,20 L25,20 L25,18 L22,18 L22,15 L20,15 Z" id="mdi:email-plus" fill="#000000"></path>
    </g>
</svg>