<?xml version="1.0" encoding="UTF-8"?>
<svg width="24px" height="24px" viewBox="0 0 24 24" version="1.1" xmlns="http://www.w3.org/2000/svg" xmlns:xlink="http://www.w3.org/1999/xlink">
    <title>icon/material/email-check</title>
    <g id="icon/material/email-check" stroke="none" stroke-width="1" fill="none" fill-rule="evenodd">
        <rect id="ViewBox" fill-rule="nonzero" x="0" y="0" width="24" height="24"></rect>
        <path d="M22,13.34 C21.37,13.12 20.7,13 20,13 C16.6862915,13 14,15.6862915 14,19 C14,19.34 14.03,19.67 14.08,20 L4,20 C2.8954305,20 2,19.1045695 2,18 L2,6 C2,4.89 2.89,4 4,4 L20,4 C21.1045695,4 22,4.8954305 22,6 L22,13.34 M24.5,17 L19.5,22 L16,18.5 L17.5,17 L19.5,19 L23,15.5 L24.5,17 M4,6 L4,8 L12,13 L20,8 L20,6 L12,11 L4,6 Z" id="mdi:email-check" fill="#000000" fill-rule="nonzero"></path>
    </g>
</svg>