<?xml version="1.0" encoding="UTF-8"?>
<svg width="24px" height="24px" viewBox="0 0 24 24" version="1.1" xmlns="http://www.w3.org/2000/svg" xmlns:xlink="http://www.w3.org/1999/xlink">
    <title>icon/material/emoji-flags</title>
    <g id="icon/material/emoji-flags" stroke="none" stroke-width="1" fill="none" fill-rule="evenodd">
        <rect id="ViewBox" fill-rule="nonzero" x="0" y="0" width="24" height="24"></rect>
        <path d="M20.5875,4.3681692 C20.3312909,4.24582886 20.0285097,4.27466516 19.8,4.4431692 C17.146875,6.4306692 14.896875,5.4650442 12.3,4.3494192 C9.703125,3.2337942 6.646875,1.9306692 3.3,4.4431692 L3.290625,4.4431692 L3.253125,4.4712942 L3.234375,4.4900442 L3.20625,4.5181692 L3.178125,4.5462942 L3.159375,4.5744192 L3.13125,4.6025442 C3.13125,4.6119192 3.121875,4.6212942 3.1125,4.6306692 L3.09375,4.6681692 C3.09375,4.6775442 3.084375,4.6869192 3.084375,4.6962942 C3.07468719,4.70675758 3.06818302,4.71976592 3.065625,4.7337942 C3.05625,4.7431692 3.05625,4.7525442 3.046875,4.7712942 C3.0375,4.7900442 3.0375,4.7900442 3.0375,4.7994192 C3.0375,4.8087942 3.028125,4.8275442 3.028125,4.8369192 C3.028125,4.8462942 3.01875,4.8556692 3.01875,4.8650442 C3.01875,4.8744192 3.009375,4.8931692 3.009375,4.9025442 L3.009375,4.9494192 C3.009375,4.9587942 3,4.9775442 3,4.9869192 L3,20.7931692 C3,21.2073828 3.33578644,21.5431692 3.75,21.5431692 C4.16421356,21.5431692 4.5,21.2073828 4.5,20.7931692 L4.5,16.6775442 C7.021875,14.9806692 9.196875,15.9087942 11.7,16.9869192 C13.228125,17.6337942 14.86875,18.3369192 16.63125,18.3369192 C17.925,18.3369192 19.284375,17.9619192 20.7,16.8931692 C20.8877064,16.7505733 20.9985471,16.5288918 21,16.2931692 L21,5.0431692 C20.9976974,4.75925903 20.8390978,4.49973231 20.5875,4.3681692 Z M19.5,15.9087942 C16.978125,17.6056692 14.803125,16.6775442 12.3,15.5994192 C9.965625,14.6056692 7.36875,13.4900442 4.5,14.9431692 L4.5,5.4275442 C7.021875,3.7306692 9.196875,4.6587942 11.7,5.7369192 C14.034375,6.7306692 16.63125,7.8462942 19.5,6.3931692 L19.5,15.9087942 Z" id="ph:flag" fill="#000000" fill-rule="nonzero"></path>
    </g>
</svg>