<?xml version="1.0" encoding="UTF-8"?>
<svg width="24px" height="24px" viewBox="0 0 24 24" version="1.1" xmlns="http://www.w3.org/2000/svg" xmlns:xlink="http://www.w3.org/1999/xlink">
    <title>icon/material/emoji-food</title>
    <g id="icon/material/emoji-food" stroke="none" stroke-width="1" fill="none" fill-rule="evenodd">
        <rect id="ViewBox" fill-rule="nonzero" x="0" y="0" width="24" height="24"></rect>
        <path d="M5.075,10.5 L19.925,10.5 C20.378219,10.4990208 20.8066958,10.2931762 21.0907073,9.93998239 C21.3747188,9.58678858 21.4838103,9.12411875 21.3875,8.68125 C20.703125,5.390625 16.9625,3 12.5,3 C8.0375,3 4.296875,5.390625 3.6125,8.68125 C3.51618968,9.12411875 3.62528121,9.58678858 3.90929273,9.93998239 C4.19330425,10.2931762 4.62178101,10.4990208 5.075,10.5 Z M12.5,4.5 C16.19375,4.5 19.38125,6.43125 19.925,8.990625 L5.075,8.990625 C5.61875,6.43125 8.80625,4.5 12.5,4.5 Z M21.59375,15.05625 L18.125,16.44375 L14.65625,15.05625 C14.47625,14.98125 14.27375,14.98125 14.09375,15.05625 L10.625,16.44375 L7.15625,15.05625 C6.97625,14.98125 6.77375,14.98125 6.59375,15.05625 L2.84375,16.55625 C2.51303188,16.6920884 2.32417803,17.0424856 2.39254133,17.3934173 C2.46090464,17.7443489 2.76747597,17.9982347 3.125,18 C3.22149567,17.9995178 3.3169916,17.9804186 3.40625,17.94375 L4.25,17.60625 L4.25,18 C4.25,20.0710678 5.92893219,21.75 8,21.75 L17,21.75 C17.9945618,21.75 18.948389,21.3549118 19.6516504,20.6516504 C20.3549118,19.948389 20.75,18.9945618 20.75,18 L20.75,17.00625 L22.15625,16.44375 C22.5137802,16.2726134 22.6764125,15.8528157 22.5274912,15.4854765 C22.3785699,15.1181373 21.9695193,14.930103 21.59375,15.05625 L21.59375,15.05625 Z M19.25,18 C19.2448633,19.2405067 18.2405067,20.2448633 17,20.25 L8,20.25 C6.75949325,20.2448633 5.75513674,19.2405067 5.75,18 L5.75,17.00625 L6.875,16.55625 L10.34375,17.94375 C10.52375,18.01875 10.72625,18.01875 10.90625,17.94375 L14.375,16.55625 L17.84375,17.94375 C18.02375,18.01875 18.22625,18.01875 18.40625,17.94375 L19.25,17.60625 L19.25,18 Z M23,12.75 C23,13.1642136 22.6642136,13.5 22.25,13.5 L2.75,13.5 C2.33578644,13.5 2,13.1642136 2,12.75 C2,12.3357864 2.33578644,12 2.75,12 L22.25,12 C22.6642136,12 23,12.3357864 23,12.75 Z" id="ph:hamburger" fill="#000000" fill-rule="nonzero"></path>
    </g>
</svg>