<?xml version="1.0" encoding="UTF-8"?>
<svg width="24px" height="24px" viewBox="0 0 24 24" version="1.1" xmlns="http://www.w3.org/2000/svg" xmlns:xlink="http://www.w3.org/1999/xlink">
    <title>icon/material/emoji-items</title>
    <g id="icon/material/emoji-items" stroke="none" fill="none" fill-rule="nonzero">
        <rect id="ViewBox" x="0" y="0" width="24" height="24"></rect>
        <path d="M16.7503238,21.252585 C16.7503238,21.6667986 16.4145374,22.002585 16.0003238,22.002585 L8.5003238,22.002585 C8.08611024,22.002585 7.7503238,21.6667986 7.7503238,21.252585 C7.7503238,20.8383714 8.08611024,20.502585 8.5003238,20.502585 L16.0003238,20.502585 C16.4145374,20.502585 16.7503238,20.8383714 16.7503238,21.252585 Z M20.5003401,9.25258499 C20.5053666,11.7847778 19.3433208,14.1780387 17.3503238,15.740085 C16.9737709,16.0243297 16.7517879,16.4682959 16.7503238,16.940085 L16.7503238,17.502585 C16.7503238,18.3310121 16.0787509,19.002585 15.2503238,19.002585 L9.2503238,19.002585 C8.42189668,19.002585 7.7503238,18.3310121 7.7503238,17.502585 L7.7503238,16.940085 C7.74902532,16.4751634 7.53484927,16.0364479 7.1690738,15.74946 C5.18050465,14.1984154 4.01270844,11.8213627 4.00016096,9.29945999 C3.9721988,4.82758499 7.5909488,1.10570999 12.0534488,1.00258499 C14.2761389,0.94693475 16.4270032,1.79180327 18.0176021,3.34532937 C19.608201,4.89885547 20.5035498,7.0292007 20.5003401,9.25258499 Z M19.0003621,9.25258499 C18.9982508,7.43521935 18.264442,5.69524906 16.9644641,4.42525707 C15.6644862,3.15526509 13.9078681,2.46225389 12.0909488,2.50258499 C8.4346988,2.58695999 5.4815738,5.63383499 5.50023501,9.29008499 C5.50706268,11.3533313 6.46098191,13.2991883 8.0878238,14.56821 C8.82126644,15.1365216 9.25046707,16.0122293 9.2503238,16.940085 L9.2503238,17.502585 L15.2503238,17.502585 L15.2503238,16.940085 C15.250947,16.0076499 15.6837608,15.1281722 16.4221988,14.558835 C18.0555544,13.2836605 19.0073215,11.3247509 19.0003621,9.25258499 L19.0003621,9.25258499 Z M17.4253238,8.37133499 C17.0525932,6.17450467 15.3292136,4.45488789 13.1315738,4.08695999 C12.7225379,4.01965029 12.3363835,4.2966741 12.2690738,4.70570999 C12.2017641,5.11474589 12.4787879,5.50090029 12.8878238,5.56820999 C14.4543432,5.83046637 15.6818174,7.05794056 15.9440738,8.62445999 C16.0078444,8.98324943 16.3202877,9.24427801 16.6846988,9.24321326 L16.8159488,9.24321326 C17.0138581,9.21133465 17.1903938,9.10059648 17.3052313,8.93629048 C17.4200688,8.77198449 17.4633988,8.56814558 17.4253238,8.37133499 L17.4253238,8.37133499 Z" id="ph:lightbulb" fill="#000000"></path>
    </g>
</svg>