<?xml version="1.0" encoding="UTF-8"?>
<svg width="24px" height="24px" viewBox="0 0 24 24" version="1.1" xmlns="http://www.w3.org/2000/svg" xmlns:xlink="http://www.w3.org/1999/xlink">
    <title>icon/material/emoji-history</title>
    <g id="icon/material/emoji-history" stroke="none" fill="none" fill-rule="nonzero">
        <rect id="ViewBox" x="0" y="0" width="24" height="24"></rect>
        <path d="M11.75,2 C6.36522369,2 2,6.36522369 2,11.75 C2,17.1347763 6.36522369,21.5 11.75,21.5 C17.1347763,21.5 21.5,17.1347763 21.5,11.75 C21.4896826,6.36950308 17.1304969,2.01031738 11.75,2 Z M11.75,20 C7.19365081,20 3.5,16.3063492 3.5,11.75 C3.5,7.19365081 7.19365081,3.5 11.75,3.5 C16.3063492,3.5 20,7.19365081 20,11.75 C19.9948336,16.3042075 16.3042075,19.9948336 11.75,20 Z M17.75,11.75 C17.75,12.1642136 17.4142136,12.5 17,12.5 L11.75,12.5 C11.3357864,12.5 11,12.1642136 11,11.75 L11,6.5 C11,6.08578644 11.3357864,5.75 11.75,5.75 C12.1642136,5.75 12.5,6.08578644 12.5,6.5 L12.5,11 L17,11 C17.4142136,11 17.75,11.3357864 17.75,11.75 Z" id="ph:clock" fill="#000000"></path>
    </g>
</svg>