<?xml version="1.0" encoding="UTF-8"?>
<svg width="24px" height="24px" viewBox="0 0 24 24" version="1.1" xmlns="http://www.w3.org/2000/svg" xmlns:xlink="http://www.w3.org/1999/xlink">
    <title>icon/material/emoji-animal</title>
    <g id="icon/material/emoji-animal" stroke="none" stroke-width="1" fill="none" fill-rule="evenodd">
        <rect id="ViewBox" fill-rule="nonzero" x="0" y="0" width="24" height="24"></rect>
        <path d="M9.4485665,13.7018212 C9.4485665,14.3231415 8.94488685,14.8268212 8.3235665,14.8268212 C7.70224616,14.8268212 7.1985665,14.3231415 7.1985665,13.7018212 C7.1985665,13.0805008 7.70224616,12.5768212 8.3235665,12.5768212 C8.94488685,12.5768212 9.4485665,13.0805008 9.4485665,13.7018212 Z M15.0735665,12.5768212 C14.4522462,12.5768212 13.9485665,13.0805008 13.9485665,13.7018212 C13.9485665,14.3231415 14.4522462,14.8268212 15.0735665,14.8268212 C15.6948868,14.8268212 16.1985665,14.3231415 16.1985665,13.7018212 C16.1985665,13.0805008 15.6948868,12.5768212 15.0735665,12.5768212 Z M21.5141915,14.0768212 C21.316644,14.1650864 21.1024287,14.2098478 20.8860665,14.2080712 C20.5436954,14.2087737 20.2119287,14.0893377 19.9485665,13.8705712 L19.9485665,17.8268212 C19.9485665,19.897889 18.2696343,21.5768212 16.1985665,21.5768212 L7.1985665,21.5768212 C6.20400467,21.5768212 5.25017749,21.181733 4.54691607,20.4784716 C3.84365465,19.7752102 3.4485665,18.821383 3.4485665,17.8268212 L3.4485665,13.8705712 C3.18520428,14.0893377 2.85343761,14.2087737 2.5110665,14.2080712 C2.2947043,14.2098478 2.08048897,14.1650864 1.8829415,14.0768212 C1.24620092,13.7955943 0.891177042,13.1089547 1.0298165,12.4268212 L2.5673165,4.22369615 C2.64542774,3.81846636 2.88605717,3.46289226 3.23320262,3.23972733 C3.58034807,3.0165624 4.00373094,2.94527145 4.4048165,3.04244615 L9.5423165,4.32682115 L13.8548165,4.32682115 L18.9923165,3.04244615 C19.3934021,2.94527145 19.8167849,3.0165624 20.1639304,3.23972733 C20.5110758,3.46289226 20.7517053,3.81846636 20.8298165,4.22369615 L22.3673165,12.4268212 C22.505956,13.1089547 22.1509321,13.7955943 21.5141915,14.0768212 L21.5141915,14.0768212 Z M8.1454415,5.52682115 L4.0391915,4.49557115 L2.5016915,12.7080712 L8.1454415,5.52682115 Z M18.4485665,17.8268212 L18.4485665,12.0143212 L13.5829415,5.82682115 L9.8141915,5.82682115 L4.9485665,12.0143212 L4.9485665,17.8268212 C4.95370324,19.0673279 5.95805975,20.0716844 7.1985665,20.0768212 L10.9485665,20.0768212 L10.9485665,18.8861962 L9.6641915,17.6111962 C9.41640723,17.3092864 9.4380482,16.8686551 9.71422435,16.592479 C9.99040049,16.3163029 10.4310318,16.2946619 10.7329415,16.5424462 L11.6985665,17.5174462 L12.6641915,16.5424462 C12.9661012,16.2946619 13.4067325,16.3163029 13.6829087,16.592479 C13.9590848,16.8686551 13.9807258,17.3092864 13.7329415,17.6111962 L12.4485665,18.8861962 L12.4485665,20.0768212 L16.1985665,20.0768212 C17.4390733,20.0716844 18.4434298,19.0673279 18.4485665,17.8268212 Z M20.8954415,12.7080712 L19.3579415,4.49557115 L15.2516915,5.52682115 L20.8954415,12.7080712 Z" id="ph:dog" fill="#000000" fill-rule="nonzero"></path>
    </g>
</svg>