<?xml version="1.0" encoding="UTF-8"?>
<svg width="24px" height="24px" viewBox="0 0 24 24" version="1.1" xmlns="http://www.w3.org/2000/svg" xmlns:xlink="http://www.w3.org/1999/xlink">
    <title>icon/material/emoji-signs</title>
    <g id="icon/material/emoji-signs" stroke="none" stroke-width="1" fill="none" fill-rule="evenodd">
        <rect id="ViewBox" fill-rule="nonzero" x="0" y="0" width="24" height="24"></rect>
        <path d="M10.5,16.4567623 C10.5,16.8709759 10.1642136,17.2067623 9.75,17.2067623 L7.5,17.2067623 L7.5,19.4567623 C7.5,19.8709759 7.16421356,20.2067623 6.75,20.2067623 C6.33578644,20.2067623 6,19.8709759 6,19.4567623 L6,17.2067623 L3.75,17.2067623 C3.33578644,17.2067623 3,16.8709759 3,16.4567623 C3,16.0425487 3.33578644,15.7067623 3.75,15.7067623 L6,15.7067623 L6,13.4567623 C6,13.0425487 6.33578644,12.7067623 6.75,12.7067623 C7.16421356,12.7067623 7.5,13.0425487 7.5,13.4567623 L7.5,15.7067623 L9.75,15.7067623 C10.1642136,15.7067623 10.5,16.0425487 10.5,16.4567623 Z M9.75,5.20676231 L3.75,5.20676231 C3.33578644,5.20676231 3,5.54254874 3,5.95676231 C3,6.37097587 3.33578644,6.70676231 3.75,6.70676231 L9.75,6.70676231 C10.1642136,6.70676231 10.5,6.37097587 10.5,5.95676231 C10.5,5.54254874 10.1642136,5.20676231 9.75,5.20676231 Z M14.25,15.7161373 L20.25,15.7161373 C20.6642136,15.7161373 21,15.3803509 21,14.9661373 C21,14.5519237 20.6642136,14.2161373 20.25,14.2161373 L14.25,14.2161373 C13.8357864,14.2161373 13.5,14.5519237 13.5,14.9661373 C13.5,15.3803509 13.8357864,15.7161373 14.25,15.7161373 Z M20.25,17.1973873 L14.25,17.1973873 C13.8357864,17.1973873 13.5,17.5331737 13.5,17.9473873 C13.5,18.3616009 13.8357864,18.6973873 14.25,18.6973873 L20.25,18.6973873 C20.6642136,18.6973873 21,18.3616009 21,17.9473873 C21,17.5331737 20.6642136,17.1973873 20.25,17.1973873 Z M14.465625,8.74113731 C14.7636138,9.02927317 15.2363862,9.02927317 15.534375,8.74113731 L17.25,7.01613731 L18.965625,8.74113731 C19.2636138,9.02927317 19.7363862,9.02927317 20.034375,8.74113731 C20.3275003,8.44518375 20.3275003,7.96834087 20.034375,7.67238731 L18.309375,5.95676231 L20.034375,4.24113731 C20.2821593,3.93922759 20.2605183,3.4985963 19.9843422,3.22242015 C19.708166,2.94624401 19.2675347,2.92460303 18.965625,3.17238731 L17.25,4.89738731 L15.534375,3.17238731 C15.2324653,2.92460303 14.791834,2.94624401 14.5156578,3.22242015 C14.2394817,3.4985963 14.2178407,3.93922759 14.465625,4.24113731 L16.190625,5.95676231 L14.465625,7.67238731 C14.1724997,7.96834087 14.1724997,8.44518375 14.465625,8.74113731 L14.465625,8.74113731 Z" id="ph:math-operations" fill="#000000" fill-rule="nonzero"></path>
    </g>
</svg>