<?xml version="1.0" encoding="UTF-8"?>
<svg width="24px" height="24px" viewBox="0 0 24 24" version="1.1" xmlns="http://www.w3.org/2000/svg" xmlns:xlink="http://www.w3.org/1999/xlink">
    <title>icon/material/emoji-sports</title>
    <g id="icon/material/emoji-sports" stroke="none" fill="none" fill-rule="nonzero">
        <rect id="ViewBox" x="0" y="0" width="24" height="24"></rect>
        <path d="M21.481271,12.3875778 C21.4859769,12.3502254 21.4859769,12.3124302 21.481271,12.2750778 C21.490646,12.0969528 21.5000315,11.9282028 21.5000315,11.7500778 C21.5032972,9.52847758 20.7419127,7.3734284 19.343771,5.6469528 C19.3112131,5.58552248 19.2665683,5.5313109 19.212521,5.4875778 C18.1789139,4.25204739 16.8550215,3.29214491 15.359396,2.6938278 L15.256271,2.6563278 C13.0006754,1.78122407 10.4993665,1.78122407 8.24377099,2.6563278 L8.14064599,2.6938278 C6.64502046,3.29214491 5.32112811,4.25204739 4.28752099,5.4875778 C4.23347367,5.5313109 4.18882883,5.58552248 4.15627099,5.6469528 C2.75812927,7.3734284 1.99674477,9.52847758 2.00001046,11.7500778 C2.00001046,11.9282028 2.00939599,12.0969528 2.01877099,12.2750778 C2.01406504,12.3124302 2.01406504,12.3502254 2.01877099,12.3875778 C2.1268932,13.9984694 2.632595,15.5574482 3.49064599,16.9250778 C3.51948354,16.9815878 3.55403923,17.034992 3.59377099,17.0844528 C4.91149393,19.0956638 6.92405444,20.5508485 9.24689599,21.1719528 L9.27502099,21.1719528 C10.8976568,21.596928 12.6023852,21.596928 14.225021,21.1719528 L14.253146,21.1719528 C16.5759875,20.5508485 18.5885481,19.0956638 19.906271,17.0844528 C19.9460027,17.034992 19.9805584,16.9815878 20.009396,16.9250778 C20.867447,15.5574482 21.3731488,13.9984694 21.481271,12.3875778 L21.481271,12.3875778 Z M3.54689599,12.6407028 L6.17189599,10.7282028 L7.40939599,11.1313278 L8.60002099,14.8063278 L7.84064599,15.8563278 L4.59689599,15.8563278 C4.02396623,14.8705284 3.6661279,13.7746485 3.54689599,12.6407028 L3.54689599,12.6407028 Z M4.55002099,7.7282028 L5.15939599,9.6125778 L3.55627099,10.7750778 C3.68421552,9.70404743 4.0218941,8.66871216 4.55002099,7.7282028 L4.55002099,7.7282028 Z M9.97814599,14.1875778 L8.89064599,10.8219528 L11.750021,8.7407028 L14.609396,10.8219528 L13.521896,14.1875778 L9.97814599,14.1875778 Z M15.659396,15.8563278 L14.900021,14.8063278 L16.090646,11.1313278 L17.328146,10.7282028 L19.953146,12.6407028 C19.8339141,13.7746485 19.4760758,14.8705284 18.903146,15.8563278 L15.659396,15.8563278 Z M19.943771,10.7750778 L18.340646,9.6125778 L18.950021,7.7282028 C19.4781479,8.66871216 19.8158265,9.70404743 19.943771,10.7750778 L19.943771,10.7750778 Z M17.862521,6.2188278 L16.859396,9.3032028 L15.621896,9.7063278 L12.500021,7.4282028 L12.500021,6.1344528 L15.125021,4.2219528 C16.1672475,4.68860467 17.09987,5.36890807 17.862521,6.2188278 Z M13.353146,3.6594528 L11.750021,4.8219528 L10.146896,3.6594528 C11.2050948,3.44707017 12.2949472,3.44707017 13.353146,3.6594528 L13.353146,3.6594528 Z M8.37502099,4.2219528 L11.000021,6.1344528 L11.000021,7.4282028 L7.87814599,9.7063278 L6.64064599,9.3032028 L5.63752099,6.2188278 C6.40017197,5.36890807 7.33279448,4.68860467 8.37502099,4.2219528 L8.37502099,4.2219528 Z M5.70314599,17.3563278 L7.68127099,17.3563278 L8.29064599,19.2407028 C7.31485594,18.7850484 6.43626366,18.145204 5.70314599,17.3563278 Z M10.062521,19.8219528 L9.05939599,16.7375778 L9.81877099,15.6875778 L13.681271,15.6875778 L14.440646,16.7375778 L13.437521,19.8219528 C12.3250596,20.0594899 11.1749824,20.0594899 10.062521,19.8219528 Z M15.209396,19.2407028 L15.818771,17.3563278 L17.796896,17.3563278 C17.0637783,18.145204 16.185186,18.7850484 15.209396,19.2407028 Z" id="ph:soccer-ball" fill="#000000"></path>
    </g>
</svg>