<?xml version="1.0" encoding="UTF-8"?>
<svg width="24px" height="24px" viewBox="0 0 24 24" version="1.1" xmlns="http://www.w3.org/2000/svg" xmlns:xlink="http://www.w3.org/1999/xlink">
    <title>icon/material/emoji-city</title>
    <g id="icon/material/emoji-city" stroke="none" stroke-width="1" fill="none" fill-rule="evenodd">
        <rect id="ViewBox" fill-rule="nonzero" x="0" y="0" width="24" height="24"></rect>
        <path d="M22.75,20.25 L22,20.25 L22,10.5 C22,9.67157288 21.3284271,9 20.5,9 L14.5,9 L14.5,4.5 C14.5,3.67157288 13.8284271,3 13,3 L4,3 C3.17157288,3 2.5,3.67157288 2.5,4.5 L2.5,20.25 L1.75,20.25 C1.33578644,20.25 1,20.5857864 1,21 C1,21.4142136 1.33578644,21.75 1.75,21.75 L22.75,21.75 C23.1642136,21.75 23.5,21.4142136 23.5,21 C23.5,20.5857864 23.1642136,20.25 22.75,20.25 Z M20.5,10.5 L20.5,20.25 L14.5,20.25 L14.5,10.5 L20.5,10.5 Z M4,4.5 L13,4.5 L13,20.25 L4,20.25 L4,4.5 Z M5.5,7.5 C5.5,7.08578644 5.83578644,6.75 6.25,6.75 L9.25,6.75 C9.66421356,6.75 10,7.08578644 10,7.5 C10,7.91421356 9.66421356,8.25 9.25,8.25 L6.25,8.25 C5.83578644,8.25 5.5,7.91421356 5.5,7.5 Z M11.5,13.5 C11.5,13.9142136 11.1642136,14.25 10.75,14.25 L7.75,14.25 C7.33578644,14.25 7,13.9142136 7,13.5 C7,13.0857864 7.33578644,12.75 7.75,12.75 L10.75,12.75 C11.1642136,12.75 11.5,13.0857864 11.5,13.5 Z M10,17.25 C10,17.6642136 9.66421356,18 9.25,18 L6.25,18 C5.83578644,18 5.5,17.6642136 5.5,17.25 C5.5,16.8357864 5.83578644,16.5 6.25,16.5 L9.25,16.5 C9.66421356,16.5 10,16.8357864 10,17.25 Z M19,17.25 C19,17.6642136 18.6642136,18 18.25,18 L16.75,18 C16.3357864,18 16,17.6642136 16,17.25 C16,16.8357864 16.3357864,16.5 16.75,16.5 L18.25,16.5 C18.6642136,16.5 19,16.8357864 19,17.25 Z M16,13.5 C16,13.0857864 16.3357864,12.75 16.75,12.75 L18.25,12.75 C18.6642136,12.75 19,13.0857864 19,13.5 C19,13.9142136 18.6642136,14.25 18.25,14.25 L16.75,14.25 C16.3357864,14.25 16,13.9142136 16,13.5 Z" id="ph:buildings" fill="#000000" fill-rule="nonzero"></path>
    </g>
</svg>