<?xml version="1.0" encoding="UTF-8"?>
<svg width="24px" height="24px" viewBox="0 0 24 24" version="1.1" xmlns="http://www.w3.org/2000/svg" xmlns:xlink="http://www.w3.org/1999/xlink">
    <title>icon/material/emoji-smiley</title>
    <g id="icon/material/emoji-smiley" stroke="none" stroke-width="1" fill="none" fill-rule="evenodd">
        <rect id="ViewBox" fill-rule="nonzero" x="0" y="0" width="24" height="24"></rect>
        <path d="M11.75,2 C6.36522369,2 2,6.36522369 2,11.75 C2,17.1347763 6.36522369,21.5 11.75,21.5 C17.1347763,21.5 21.5,17.1347763 21.5,11.75 C21.4896826,6.36950308 17.1304969,2.01031738 11.75,2 Z M11.75,20 C7.19365081,20 3.5,16.3063492 3.5,11.75 C3.5,7.19365081 7.19365081,3.5 11.75,3.5 C16.3063492,3.5 20,7.19365081 20,11.75 C19.9948336,16.3042075 16.3042075,19.9948336 11.75,20 Z M7.25,9.875 C7.25,9.25367966 7.75367966,8.75 8.375,8.75 C8.99632034,8.75 9.5,9.25367966 9.5,9.875 C9.5,10.4963203 8.99632034,11 8.375,11 C7.75367966,11 7.25,10.4963203 7.25,9.875 Z M14,9.875 C14,9.25367966 14.5036797,8.75 15.125,8.75 C15.7463203,8.75 16.25,9.25367966 16.25,9.875 C16.25,10.4963203 15.7463203,11 15.125,11 C14.5036797,11 14,10.4963203 14,9.875 Z M16.296875,14.375 C15.359116,15.9995915 13.625817,17.0004186 11.75,17.0004186 C9.87418299,17.0004186 8.14088396,15.9995915 7.203125,14.375 C7.04310421,14.1428504 7.02680663,13.840567 7.16093973,13.5925581 C7.29507283,13.3445493 7.55697011,13.1927248 7.8388446,13.1995698 C8.12071909,13.2064149 8.3749382,13.3707727 8.496875,13.625 C9.16909629,14.7856307 10.4087524,15.5002099 11.75,15.5002099 C13.0912476,15.5002099 14.3309037,14.7856307 15.003125,13.625 C15.225319,13.3026529 15.6580763,13.2054435 15.9967848,13.4017962 C16.3354933,13.598149 16.4661882,14.0219973 16.296875,14.375 L16.296875,14.375 Z" id="ph:smiley" fill="#000000" fill-rule="nonzero"></path>
    </g>
</svg>