<?xml version="1.0" encoding="UTF-8"?>
<svg width="24px" height="24px" viewBox="0 0 24 24" version="1.1" xmlns="http://www.w3.org/2000/svg" xmlns:xlink="http://www.w3.org/1999/xlink">
    <title>icon/material/exit</title>
    <g id="icon/material/exit" stroke="none" stroke-width="1" fill="none" fill-rule="evenodd">
        <rect id="ViewBox" fill-rule="nonzero" x="0" y="0" width="24" height="24"></rect>
        <path d="M19,3 L5,3 C3.89,3 3,3.89 3,5 L3,9 L5,9 L5,5 L19,5 L19,19 L5,19 L5,15 L3,15 L3,19 C3,20.1045695 3.8954305,21 5,21 L19,21 C20.1045695,21 21,20.1045695 21,19 L21,5 C21,3.8954305 20.1045695,3 19,3 M10.08,15.58 L11.5,17 L16.5,12 L11.5,7 L10.08,8.41 L12.67,11 L3,11 L3,13 L12.67,13 L10.08,15.58 Z" id="mdi:exit-to-app" fill="#000000" fill-rule="nonzero"></path>
    </g>
</svg>