<?xml version="1.0" encoding="UTF-8"?>
<svg width="24px" height="24px" viewBox="0 0 24 24" version="1.1" xmlns="http://www.w3.org/2000/svg" xmlns:xlink="http://www.w3.org/1999/xlink">
    <title>icon/material/expires-outline</title>
    <g id="icon/material/expires-outline" stroke="none" stroke-width="1" fill="none" fill-rule="evenodd">
        <rect id="ViewBox" fill-rule="nonzero" x="0" y="0" width="24" height="24"></rect>
        <path d="M12,20 C8.13400675,20 5,16.8659932 5,13 C5,9.13400675 8.13400675,6 12,6 C15.8659932,6 19,9.13400675 19,13 C19,16.8659932 15.8659932,20 12,20 M19.03,7.39 L20.45,5.97 C20,5.46 19.55,5 19.04,4.56 L17.62,6 C16.07,4.74 14.12,4 12,4 C7.02943725,4 3,8.02943725 3,13 C3,17.9705627 7.02943725,22 12,22 C17,22 21,17.97 21,13 C21,10.88 20.26,8.93 19.03,7.39 M11,14 L13,14 L13,8 L11,8 M15,1 L9,1 L9,3 L15,3 L15,1 Z" id="mdi:timer-outline" fill="#000000" fill-rule="nonzero"></path>
    </g>
</svg>