<?xml version="1.0" encoding="UTF-8"?>
<svg width="24px" height="24px" viewBox="0 0 24 24" version="1.1" xmlns="http://www.w3.org/2000/svg" xmlns:xlink="http://www.w3.org/1999/xlink">
    <title>icon/material/eye-outline</title>
    <g id="icon/material/eye-outline" stroke="none" fill="none" fill-rule="nonzero">
        <rect id="ViewBox" x="0" y="0" width="24" height="24"></rect>
        <path d="M12,9 C13.6568542,9 15,10.3431458 15,12 C15,13.6568542 13.6568542,15 12,15 C10.3431458,15 9,13.6568542 9,12 C9,10.3431458 10.3431458,9 12,9 M12,4.5 C17,4.5 21.27,7.61 23,12 C21.27,16.39 17,19.5 12,19.5 C7,19.5 2.73,16.39 1,12 C2.73,7.61 7,4.5 12,4.5 M3.18,12 C4.82898186,15.3669202 8.25096109,17.5013193 12,17.5013193 C15.7490389,17.5013193 19.1710181,15.3669202 20.82,12 C19.1710181,8.63307981 15.7490389,6.49868066 12,6.49868066 C8.25096109,6.49868066 4.82898186,8.63307981 3.18,12 L3.18,12 Z" id="mdi:eye-outline" fill="#000000"></path>
    </g>
</svg>