<?xml version="1.0" encoding="UTF-8"?>
<svg width="24px" height="24px" viewBox="0 0 24 24" version="1.1" xmlns="http://www.w3.org/2000/svg" xmlns:xlink="http://www.w3.org/1999/xlink">
    <title>icon/material/eye-off-outline</title>
    <g id="icon/material/eye-off-outline" stroke="none" stroke-width="1" fill="none" fill-rule="evenodd">
        <rect id="ViewBox" fill-rule="nonzero" x="0" y="0" width="24" height="24"></rect>
        <path d="M2,5.27 L3.28,4 L20,20.72 L18.73,22 L15.65,18.92 C14.5,19.3 13.28,19.5 12,19.5 C7,19.5 2.73,16.39 1,12 C1.69,10.24 2.79,8.69 4.19,7.46 L2,5.27 M12,8.9999967 C13.6568542,8.9999967 15,10.3431458 15,11.9999967 C15.0005052,12.3405664 14.943017,12.6787324 14.83,12.9999967 L11,9.17 C11.3212676,9.05698299 11.6594336,8.99949476 12,8.9999967 M12,4.5 C17,4.5 21.27,7.61 23,12 C22.1838527,14.0732052 20.7969497,15.8727119 19,17.19 L17.58,15.76 C18.9628877,14.8033799 20.07821,13.5090553 20.82,12 C19.1706451,8.63359301 15.7487421,6.49975331 12,6.5 C10.91,6.5 9.84,6.68 8.84,7 L7.3,5.47 C8.74,4.85 10.33,4.5 12,4.5 M3.18,12 C4.82935493,15.366407 8.25125786,17.5002467 12,17.5 C12.69,17.5 13.37,17.43 14,17.29 L11.72,15 C10.286252,14.8463215 9.15367852,13.713748 9,12.28 L5.6,8.87 C4.61,9.72 3.78,10.78 3.18,12 Z" id="mdi:eye-off-outline" fill="#000000" fill-rule="nonzero"></path>
    </g>
</svg>