<?xml version="1.0" encoding="UTF-8"?>
<svg width="24px" height="24px" viewBox="0 0 24 24" version="1.1" xmlns="http://www.w3.org/2000/svg" xmlns:xlink="http://www.w3.org/1999/xlink">
    <title>icon/material/file-table</title>
    <g id="icon/material/file-table" stroke="none" fill="none" fill-rule="nonzero">
        <rect id="ViewBox" x="0" y="0" width="24" height="24"></rect>
        <path d="M4,2 L20,2 C21.1045695,2 22,2.8954305 22,4 L22,19 C22,20.1045695 21.1045695,21 20,21 L4,21 C2.8954305,21 2,20.1045695 2,19 L2,4 C2,2.8954305 2.8954305,2 2,2 M4,6 L4,9 L8,9 L8,6 L4,6 M10,6 L10,9 L14,9 L14,6 L10,6 M20,9 L20,6 L16,6 L16,9 L20,9 M4,11 L4,14 L8,14 L8,11 L4,11 M4,19 L8,19 L8,16 L4,16 L4,19 M10,11 L10,14 L14,14 L14,11 L10,11 M10,19 L14,19 L14,16 L10,16 L10,19 M20,19 L20,16 L16,16 L16,19 L20,19 M20,11 L16,11 L16,14 L20,14 L20,11 Z" id="mdi:table-large" fill="#000000"></path>
    </g>
</svg>