<?xml version="1.0" encoding="UTF-8"?>
<svg width="24px" height="24px" viewBox="0 0 24 24" version="1.1" xmlns="http://www.w3.org/2000/svg" xmlns:xlink="http://www.w3.org/1999/xlink">
    <title>icon/material/file-document-outline</title>
    <g id="icon/material/file-document-outline" stroke="none" fill="none" fill-rule="nonzero">
        <rect id="ViewBox" x="0" y="0" width="24" height="24"></rect>
        <path d="M6,2 C4.8954305,2 4,2.8954305 4,2 L4,20 C4,21.1045695 4.8954305,22 6,22 L18,22 C19.1045695,22 20,21.1045695 20,20 L20,8 L14,2 L6,2 M6,4 L13,4 L13,9 L18,9 L18,20 L6,20 L6,4 M8,12 L8,14 L16,14 L16,12 L8,12 M8,16 L8,18 L13,18 L13,16 L8,16 Z" id="mdi:file-document-outline" fill="#000000"></path>
    </g>
</svg>