<?xml version="1.0" encoding="UTF-8"?>
<svg width="24px" height="24px" viewBox="0 0 24 24" version="1.1" xmlns="http://www.w3.org/2000/svg" xmlns:xlink="http://www.w3.org/1999/xlink">
    <title>icon/material/flashlight</title>
    <g id="icon/material/flashlight" stroke="none" fill="none" fill-rule="nonzero">
        <rect id="ViewBox" x="0" y="0" width="24" height="24"></rect>
        <path d="M9,10 L6,5 L18,5 L15,10 L9,10 M18,4 L6,4 L6,2 L18,2 L18,4 M9,22 L9,11 L15,11 L15,22 L9,22 M12,13 C11.4477153,13 11,13.4477153 11,14 C11,14.5522847 11.4477153,15 12,15 C12.5522847,15 13,14.5522847 13,14 C13,13.4477153 12.5522847,13 12,13 Z" id="mdi:flashlight" fill="#000000"></path>
    </g>
</svg>