<?xml version="1.0" encoding="UTF-8"?>
<svg width="24px" height="24px" viewBox="0 0 24 24" version="1.1" xmlns="http://www.w3.org/2000/svg" xmlns:xlink="http://www.w3.org/1999/xlink">
    <title>icon/material/format-list-numbered</title>
    <g id="icon/material/format-list-numbered" stroke="none" fill="none" fill-rule="nonzero">
        <rect id="ViewBox" x="0" y="0" width="24" height="24"></rect>
        <path d="M8,13 L8,11 L22,11 L22,13 L8,13 M8,19 L8,17 L22,17 L22,19 L8,19 M8,7 L8,5 L22,5 L22,7 L8,7 M4,8 L4,5 L3,5 L3,4 L5,4 L5,8 L4,8 M3,17 L3,16 L6,16 L6,20 L3,20 L3,19 L5,19 L5,18.5 L4,18.5 L4,17.5 L5,17.5 L5,17 L3,17 M5.25,10 C5.66421356,10 6,10.3357864 6,10.75 C6,10.95 5.92,11.14 5.79,11.27 L4.12,13 L6,13 L6,14 L3,14 L3,13.08 L5,11 L3,11 L3,10 L5.25,10 Z" id="mdi:format-list-numbered" fill="#000000"></path>
    </g>
</svg>