<?xml version="1.0" encoding="UTF-8"?>
<svg width="24px" height="24px" viewBox="0 0 24 24" version="1.1" xmlns="http://www.w3.org/2000/svg" xmlns:xlink="http://www.w3.org/1999/xlink">
    <title>icon/material/format-text</title>
    <g id="icon/material/format-text" stroke="none" fill="none" fill-rule="nonzero">
        <rect id="ViewBox" x="0" y="0" width="24" height="24"></rect>
        <path d="M18.5,5 L19.66,9.35 L18.7,9.61 C18.25,8.74 17.79,7.87 17.26,7.43 C16.73,7 16.11,7 15.5,7 L13,7 L13,17.5 C13,18 13,18.5 13.33,18.75 C13.67,19 14.33,19 15,19 L15,20 L9,20 L9,19 C9.67,19 10.33,19 10.67,18.75 C11,18.5 11,18 11,17.5 L11,7 L8.5,7 C7.89,7 7.27,7 6.74,7.43 C6.21,7.87 5.75,8.74 5.3,9.61 L4.34,9.35 L5.5,5 L18.5,5 Z" id="mdi:format-text" fill="#000000"></path>
    </g>
</svg>