<?xml version="1.0" encoding="UTF-8"?>
<svg width="24px" height="24px" viewBox="0 0 24 24" version="1.1" xmlns="http://www.w3.org/2000/svg" xmlns:xlink="http://www.w3.org/1999/xlink">
    <title>icon/material/fullscreen</title>
    <g id="icon/material/fullscreen" stroke="none" stroke-width="1" fill="none" fill-rule="evenodd">
        <rect id="ViewBox" fill-rule="nonzero" x="0" y="0" width="24" height="24"></rect>
        <path d="M5,5 L10,5 L10,7 L7,7 L7,10 L5,10 L5,5 M14,5 L19,5 L19,10 L17,10 L17,7 L14,7 L14,5 M17,14 L19,14 L19,19 L14,19 L14,17 L17,17 L17,14 M10,17 L10,19 L5,19 L5,14 L7,14 L7,17 L10,17 Z" id="mdi:fullscreen" fill="#000000" fill-rule="nonzero"></path>
    </g>
</svg>