<?xml version="1.0" encoding="UTF-8"?>
<svg width="24px" height="24px" viewBox="0 0 24 24" version="1.1" xmlns="http://www.w3.org/2000/svg" xmlns:xlink="http://www.w3.org/1999/xlink">
    <title>icon/material/group-public</title>
    <g id="icon/material/group-public" stroke="none" stroke-width="1" fill="none" fill-rule="evenodd">
        <rect id="ViewBox" fill-rule="nonzero" x="0" y="0" width="24" height="24"></rect>
        <path d="M16.5,12 C17.1630412,12 17.798926,11.7366079 18.267767,11.267767 C18.7366079,10.798926 19,10.1630412 19,9.5 C19,8.11928813 17.8807119,7 16.5,7 C15.1192881,7 14,8.11928813 14,9.5 C14,10.8807119 15.1192881,12 16.5,12 M9,11 C10.6568542,11 12,9.65685425 12,8 C12,6.34314575 10.6568542,5 9,5 C7.34314575,5 6,6.34314575 6,8 C6,9.65685425 7.34314575,11 9,11 M16.5,14 C14.67,14 11,14.92 11,16.75 L11,19 L22,19 L22,16.75 C22,14.92 18.33,14 16.5,14 M9,13 C6.67,13 2,14.17 2,16.5 L2,19 L9,19 L9,16.75 C9,15.9 9.33,14.41 11.37,13.28 C10.5,13.1 9.66,13 9,13 Z" id="mdi:account-supervisor" fill="#000000" fill-rule="nonzero"></path>
    </g>
</svg>