<?xml version="1.0" encoding="UTF-8"?>
<svg width="24px" height="24px" viewBox="0 0 24 24" version="1.1" xmlns="http://www.w3.org/2000/svg" xmlns:xlink="http://www.w3.org/1999/xlink">
    <title>icon/material/group-private-circle</title>
    <g id="icon/material/group-private-circle" stroke="none" stroke-width="1" fill="none" fill-rule="evenodd">
        <rect id="ViewBox" fill-rule="nonzero" x="0" y="0" width="24" height="24"></rect>
        <path d="M12,2 C17.5,2 22,6.5 22,12 C22,17.5 17.5,22 12,22 C6.5,22 2,17.5 2,12 C2,6.5 6.5,2 12,2 M14.92,12.81 C13.84,12.81 12.95,13.56 12.71,14.56 C12.17,14.33 11.66,14.39 11.29,14.55 C11.05,13.55 10.15,12.81 9.08,12.81 C7.83,12.81 6.82,13.82 6.82,15.07 C6.82,16.32 7.83,17.33 9.08,17.33 C10.28,17.33 11.24,16.42 11.33,15.25 C11.53,15.12 12.04,14.86 12.67,15.26 C12.7576617,16.4777462 13.7973988,17.4052612 15.0172141,17.3538721 C16.2370295,17.302483 17.195071,16.2908043 17.18,15.07 C17.18,13.82 16.17,12.81 14.92,12.81 M9.08,13.45 C10,13.45 10.7,14.18 10.7,15.07 C10.7,15.96 10,16.69 9.08,16.69 C8.19,16.69 7.46,15.96 7.46,15.07 C7.46,14.18 8.19,13.45 9.08,13.45 M14.92,13.45 C15.81,13.45 16.54,14.18 16.54,15.07 C16.54,15.96 15.81,16.69 14.92,16.69 C14,16.69 13.3,15.96 13.3,15.07 C13.3,14.18 14,13.45 14.92,13.45 M17.83,11.5 L6.17,11.5 L6.17,12.17 L17.83,12.17 L17.83,11.5 M14.15,6.89 C14.0092429,6.58848261 13.6690183,6.43538153 13.35,6.53 L12,7 L10.65,6.53 L10.61,6.5 C10.284756,6.43010964 9.95732621,6.60870769 9.84,6.92 L8.36,10.83 L15.64,10.83 L14.16,6.92 L14.15,6.89 L14.15,6.89 Z" id="mdi:incognito-circle" fill="#000000" fill-rule="nonzero"></path>
    </g>
</svg>