<?xml version="1.0" encoding="UTF-8"?>
<svg width="24px" height="24px" viewBox="0 0 24 24" version="1.1" xmlns="http://www.w3.org/2000/svg" xmlns:xlink="http://www.w3.org/1999/xlink">
    <title>icon/material/group-incognito-circle</title>
    <g id="icon/material/group-incognito-circle" stroke="none" stroke-width="1" fill="none" fill-rule="evenodd">
        <rect id="ViewBox" fill-rule="nonzero" x="0" y="0" width="24" height="24"></rect>
        <path d="M12,2 C17.5228475,2 22,6.4771525 22,12 C22,17.5228475 17.5228475,22 12,22 C6.4771525,22 2,17.5228475 2,12 C2,6.4771525 6.4771525,2 12,2 Z M15,13 C14.7036521,13 14.4148312,13.0241702 14.1368094,13.0705945 C15.2772357,13.7799247 16,14.799528 16,16 L15.9998094,17 L19,17 L19,16 C19,14.3431458 17.209139,13 15,13 Z M10,13 C7.32225576,13 5.13615141,14.2629764 5.00611913,15.8502697 L5,16 L5,17 L15,17 L15,16 C15,14.3431458 12.7614237,13 10,13 Z M10,14 L10.2339134,14.0036343 C12.3975084,14.0710563 14,15.0647996 14,16 L6,16 L6.003,15.926 L6.01733627,15.8296259 C6.19660087,14.9431205 7.74530742,14.067351 9.76492811,14.0036952 L10,14 Z M15,8 C14.6100535,8 14.2461721,8.11159786 13.9398942,8.30533337 C13.9794003,8.53094872 14,8.7630687 14,9 C14,9.79411853 13.7685877,10.5341878 13.3685004,11.157087 C13.7309315,11.6671935 14.3266002,12 15,12 C16.1045695,12 17,11.1045695 17,10 C17,8.8954305 16.1045695,8 15,8 Z M10,6 C8.34314575,6 7,7.34314575 7,9 C7,10.6568542 8.34314575,12 10,12 C11.6568542,12 13,10.6568542 13,9 C13,7.34314575 11.6568542,6 10,6 Z M10,7 C11.1045695,7 12,7.8954305 12,9 C12,10.1045695 11.1045695,11 10,11 C8.8954305,11 8,10.1045695 8,9 C8,7.8954305 8.8954305,7 10,7 Z" id="xabber:group-incognito-circle" fill="#000000" fill-rule="nonzero"></path>
    </g>
</svg>