<?xml version="1.0" encoding="UTF-8"?>
<svg width="24px" height="24px" viewBox="0 0 24 24" version="1.1" xmlns="http://www.w3.org/2000/svg" xmlns:xlink="http://www.w3.org/1999/xlink">
    <title>icon/material/group-public</title>
    <g id="icon/material/group-public" stroke="none" stroke-width="1" fill="none" fill-rule="evenodd">
        <rect id="ViewBox" fill-rule="nonzero" x="0" y="0" width="24" height="24"></rect>
        <path d="M16.5,14 C22.1134544,14 22.8790826,16.9832777 22.9835079,17.7970659 L23,17.9964738 L23,20 L16.999545,20 L17,17.689265 L16.9977664,17.5918314 C16.9449169,16.5291342 16.4853023,15.3275044 15.3679756,14.261045 C15.2973955,14.1936781 15.2249214,14.1277223 15.150545,14.0631904 C15.5641531,14.0223709 16.0139001,14 16.5,14 Z M16.5,5.25 C18.2949254,5.25 19.75,6.70507456 19.75,8.5 C19.75,10.2949254 18.2949254,11.75 16.5,11.75 C14.7050746,11.75 13.25,10.2949254 13.25,8.5 C13.25,6.70507456 14.7050746,5.25 16.5,5.25 Z M8,14 C14.4206897,14 14.9520571,17.1064557 14.9960323,17.6206277 L15,17.689265 L15,20 L1,20 L1.000875,17.6655385 L1.01079042,17.555878 C1.09340963,16.8885283 1.80862069,14 8,14 Z M8,4.25 C10.0710678,4.25 11.75,5.92893219 11.75,8 C11.75,10.0710678 10.0710678,11.75 8,11.75 C5.92893219,11.75 4.25,10.0710678 4.25,8 C4.25,5.92893219 5.92893219,4.25 8,4.25 Z" id="xabber:group-public" fill="#000000" fill-rule="nonzero"></path>
    </g>
</svg>