<?xml version="1.0" encoding="UTF-8"?>
<svg width="24px" height="24px" viewBox="0 0 24 24" version="1.1" xmlns="http://www.w3.org/2000/svg" xmlns:xlink="http://www.w3.org/1999/xlink">
    <title>icon/material/group-public-circle</title>
    <g id="icon/material/group-public-circle" stroke="none" fill="none" fill-rule="nonzero">
        <rect id="ViewBox" x="0" y="0" width="24" height="24"></rect>
        <path d="M12,2 C17.5228475,2 22,6.4771525 22,12 C22,17.5228475 17.5228475,22 12,22 C6.4771525,22 2,17.5228475 2,12 C2,6.4771525 6.4771525,2 12,2 Z M9.5,12 C7.09238367,12 5.12637945,13.2605108 5.00585537,14.8456204 L5,15 L5,16 L10,16 L10.0015528,14.9442936 L10.0078849,14.8308019 L10.0125326,14.7753209 C10.1238784,13.7801067 10.9147191,13.0076645 12.0604362,12.5326285 C11.3336312,12.1967865 10.4512871,12 9.5,12 Z M15,13 C12.8670382,13 11.124005,13.8347414 11.006332,14.8865084 L11,15 L11,16 L19,16 L19,15 C19,13.8954305 17.209139,13 15,13 Z M15,8 C13.8954305,8 13,8.8954305 13,10 C13,11.1045695 13.8954305,12 15,12 C16.1045695,12 17,11.1045695 17,10 C17,8.8954305 16.1045695,8 15,8 Z M9.5,6 C8.11928813,6 7,7.11928813 7,8.5 C7,9.88071187 8.11928813,11 9.5,11 C10.8807119,11 12,9.88071187 12,8.5 C12,7.11928813 10.8807119,6 9.5,6 Z" id="xabber:group-public-circle" fill="#000000"></path>
    </g>
</svg>