<?xml version="1.0" encoding="UTF-8"?>
<svg width="24px" height="24px" viewBox="0 0 24 24" version="1.1" xmlns="http://www.w3.org/2000/svg" xmlns:xlink="http://www.w3.org/1999/xlink">
    <title>icon/material/group-incognito</title>
    <g id="icon/material/group-incognito" stroke="none" stroke-width="1" fill="none" fill-rule="evenodd">
        <rect id="ViewBox" fill-rule="nonzero" x="0" y="0" width="24" height="24"></rect>
        <path d="M8,14 C14.4206897,14 14.9520571,17.1064557 14.9960323,17.6206277 L15,17.689265 L15,20 L1,20 L1.000875,17.6655385 L1.01079042,17.555878 C1.09340963,16.8885283 1.80862069,14 8,14 Z M16.5,14 C22.1134544,14 22.8790826,16.9832777 22.9835079,17.7970659 L23,17.9964738 L23,20 L16.999545,20 L17,17.689265 L16.9977664,17.5918314 C16.9449169,16.5291342 16.4853023,15.3275044 15.3679756,14.261045 C15.2973955,14.1936781 15.2249214,14.1277223 15.150545,14.0631904 C15.5641531,14.0223709 16.0139001,14 16.5,14 Z M8,16 C5.44657764,16 4.00409325,16.5072473 3.326508,17.2220625 C3.19313055,17.3627683 3.10564572,17.497827 3.05124123,17.6245382 L3.00361403,17.7537621 L3,18 L13,18 L12.9998676,17.7299946 C12.9996028,17.7490771 12.9988084,17.7563834 12.9964253,17.7537621 L12.9835598,17.7179643 C12.9352284,17.5650034 12.8402138,17.3979448 12.673492,17.2220625 C11.9959068,16.5072473 10.5534224,16 8,16 Z M8,4 C10.209139,4 12,5.790861 12,8 C12,10.209139 10.209139,12 8,12 C5.790861,12 4,10.209139 4,8 C4,5.790861 5.790861,4 8,4 Z M16.5,5.25 C18.2949254,5.25 19.75,6.70507456 19.75,8.5 C19.75,10.2949254 18.2949254,11.75 16.5,11.75 C14.7050746,11.75 13.25,10.2949254 13.25,8.5 C13.25,6.70507456 14.7050746,5.25 16.5,5.25 Z M8,6 C6.8954305,6 6,6.8954305 6,8 C6,9.1045695 6.8954305,10 8,10 C9.1045695,10 10,9.1045695 10,8 C10,6.8954305 9.1045695,6 8,6 Z" id="xabber:group-incognito" fill="#000000" fill-rule="nonzero"></path>
    </g>
</svg>