<?xml version="1.0" encoding="UTF-8"?>
<svg width="24px" height="24px" viewBox="0 0 24 24" version="1.1" xmlns="http://www.w3.org/2000/svg" xmlns:xlink="http://www.w3.org/1999/xlink">
    <title>icon/material/group-private</title>
    <g id="icon/material/group-private" stroke="none" stroke-width="1" fill="none" fill-rule="evenodd">
        <rect id="ViewBox" fill-rule="nonzero" x="0" y="0" width="24" height="24"></rect>
        <path d="M17.06,13 C15.2,13 13.64,14.33 13.24,16.1 C12.29,15.69 11.42,15.8 10.76,16.09 C10.35,14.31 8.79,13 6.94,13 C4.77,13 3,14.79 3,17 C3,19.21 4.77,21 6.94,21 C9,21 10.68,19.38 10.84,17.32 C11.18,17.08 12.07,16.63 13.16,17.34 C13.34,19.39 15,21 17.06,21 C19.23,21 21,19.21 21,17 C21,14.79 19.23,13 17.06,13 M6.94,19.86 C5.38,19.86 4.13,18.58 4.13,17 C4.13,15.42 5.39,14.14 6.94,14.14 C8.5,14.14 9.75,15.42 9.75,17 C9.75,18.58 8.5,19.86 6.94,19.86 M17.06,19.86 C15.5,19.86 14.25,18.58 14.25,17 C14.25,15.42 15.5,14.14 17.06,14.14 C18.62,14.14 19.88,15.42 19.88,17 C19.88,18.58 18.61,19.86 17.06,19.86 M22,10.5 L2,10.5 L2,12 L22,12 L22,10.5 M15.53,2.63 C15.31,2.14 14.75,1.88 14.22,2.05 L12,2.79 L9.77,2.05 L9.72,2.04 C9.19,1.89 8.63,2.17 8.43,2.68 L6,9 L18,9 L15.56,2.68 L15.53,2.63 Z" id="mdi:incognito" fill="#000000" fill-rule="nonzero"></path>
    </g>
</svg>