<?xml version="1.0" encoding="UTF-8"?>
<svg width="24px" height="24px" viewBox="0 0 24 24" version="1.1" xmlns="http://www.w3.org/2000/svg" xmlns:xlink="http://www.w3.org/1999/xlink">
    <title>icon/material/group-incognito-add</title>
    <g id="icon/material/group-incognito-add" stroke="none" fill="none" fill-rule="nonzero">
        <rect id="ViewBox" x="0" y="0" width="24" height="24"></rect>
        <path d="M13,11 C14.6568542,11 16,9.65685425 16,8 C16,6.34314575 14.6568542,5 13,5 C11.3431458,5 10,6.34314575 10,8 C10,9.65685425 11.3431458,11 13,11 M13,7 C13.5522847,7 14,7.44771525 14,8 C14,8.55228475 13.5522847,9 13,9 C12.4477153,9 12,8.55228475 12,8 C12,7.44771525 12.4477153,7 13,7 M17.11,10.86 C18.3083092,9.14161283 18.3083092,6.85838717 17.11,5.14 C17.3975619,5.04725413 17.6978516,5 18,5 C19.6568542,5 21,6.34314575 21,8 C21,9.65685425 19.6568542,11 18,11 C17.6978516,11 17.3975619,10.9527459 17.11,10.86 M13,13 C7,13 7,17 7,17 L7,19 L19,19 L19,17 C19,17 19,13 13,13 M9,17 C9,16.71 9.32,15 13,15 C16.5,15 16.94,16.56 17,17 M24,17 L24,19 L21,19 L21,17 C20.9527979,15.4983867 20.3042162,14.0787134 19.2,13.06 C24,13.55 24,17 24,17 M8,12 L5,12 L5,15 L3,15 L3,12 L0,12 L0,10 L3,10 L3,7 L5,7 L5,10 L8,10 L8,12 Z" id="mdi:account-multiple-plus-outline" fill="#000000"></path>
    </g>
</svg>