<?xml version="1.0" encoding="UTF-8"?>
<svg width="24px" height="24px" viewBox="0 0 24 24" version="1.1" xmlns="http://www.w3.org/2000/svg" xmlns:xlink="http://www.w3.org/1999/xlink">
    <title>icon/material/group-incognito</title>
    <g id="icon/material/group-incognito" stroke="none" stroke-width="1" fill="none" fill-rule="evenodd">
        <rect id="ViewBox" fill-rule="nonzero" x="0" y="0" width="24" height="24"></rect>
        <path d="M9,13 C15.65,13 15.9825,16.61 15.999125,16.971 L15.9999676,16.9967037 C16,16.9988889 16,17 16,17 L16,19 L2,19 L2.000875,16.971 C2.0175,16.61 2.35,13 9,13 Z M15.95,13.001 L16.2588802,13.0229008 C21.686848,13.4725444 21.982919,16.6270193 21.9990683,16.9698061 L21.9999655,16.9965667 L21.9999655,16.9965667 L22,17 L22,19 L18,19 L18,17 C17.941124,15.4292971 17.1906849,13.9650258 15.95,13 L15.95,13.001 Z M9,15 C5.33,15 4.07,16.31 4,17 L14,17 C13.86,16.22 12.67,15 9,15 Z M9,4 C10.9329966,4 12.5,5.56700338 12.5,7.5 C12.5,9.43299662 10.9329966,11 9,11 C7.06700338,11 5.5,9.43299662 5.5,7.5 C5.5,5.56700338 7.06700338,4 9,4 Z M15,4.99994742 C16.6568542,4.99994742 18,6.34309317 18,7.99994742 C18,9.65680167 16.6568542,10.9999474 15,10.9999474 C14.4666004,10.9999474 13.9657142,10.8607408 13.5316897,10.6166758 C14.1426018,9.73098505 14.5,8.65722994 14.5,7.5 C14.5,6.66919575 14.3157911,5.88141579 13.9859888,5.17527548 C14.3028689,5.06188633 14.6442012,4.99994742 15,4.99994742 Z M9,6 C8.17157288,6 7.5,6.67157288 7.5,7.5 C7.5,8.32842712 8.17157288,9 9,9 C9.82842712,9 10.5,8.32842712 10.5,7.5 C10.5,6.67157288 9.82842712,6 9,6 Z" id="xabber:group-incognito" fill="#000000" fill-rule="nonzero"></path>
    </g>
</svg>