<?xml version="1.0" encoding="UTF-8"?>
<svg width="24px" height="24px" viewBox="0 0 24 24" version="1.1" xmlns="http://www.w3.org/2000/svg" xmlns:xlink="http://www.w3.org/1999/xlink">
    <title>icon/material/lightning-bolt-circle</title>
    <g id="icon/material/lightning-bolt-circle" stroke="none" fill="none" fill-rule="nonzero">
        <rect id="ViewBox" x="0" y="0" width="24" height="24"></rect>
        <path d="M11.5,20 L16.36,10.27 L13,10.27 L13,4 L8,13.73 L11.5,13.73 L11.5,20 M12,2 C14.75,2 17.1,3 19.05,4.95 C21,6.9 22,9.25 22,12 C22,14.75 21,17.1 19.05,19.05 C17.1,21 14.75,22 12,22 C9.25,22 6.9,21 4.95,19.05 C3,17.1 2,14.75 2,12 C2,9.25 3,6.9 4.95,4.95 C6.9,3 9.25,2 12,2 Z" id="mdi:lightning-bolt-circle" fill="#000000"></path>
    </g>
</svg>