<?xml version="1.0" encoding="UTF-8"?>
<svg width="24px" height="24px" viewBox="0 0 24 24" version="1.1" xmlns="http://www.w3.org/2000/svg" xmlns:xlink="http://www.w3.org/1999/xlink">
    <title>icon/material/lock-question-outline</title>
    <g id="icon/material/lock-question-outline" stroke="none" stroke-width="1" fill="none" fill-rule="evenodd">
        <rect id="ViewBox" fill-rule="nonzero" x="0" y="0" width="24" height="24"></rect>
        <path d="M13,17 L13,19 L11,19 L11,17 L13,17 Z M12.19,10.75 C13.12,10.75 13.85,10.9608333 14.38,11.3733333 C14.92,11.7858333 15.19,12.345 15.19,13.0416667 C15.19,13.5 15.04,13.8758333 14.75,14.2425 C14.46,14.6091667 14.09,14.875 13.64,15.095 C13.39,15.2416667 13.22,15.4066667 13.13,15.5716667 C13.04,15.7366667 13,15.9658333 13,16.25 L13,16.25 L11,16.25 C11,15.7916667 11.11,15.4066667 11.31,15.1683333 C11.5,14.9208333 11.85,14.6458333 12.36,14.3341667 C12.62,14.1875 12.83,14.0041667 12.97,13.7933333 C13.13,13.5825 13.2,13.335 13.2,13.0416667 C13.2,12.7666667 13.12,12.5283333 12.94,12.3541667 C12.76,12.1891667 12.5,12.0975 12.19,12.0975 C11.93,12.0975 11.71,12.1708333 11.53,12.3083333 C11.35,12.455 11.26,12.6658333 11.25,12.9408333 L11.25,12.9408333 L9.32,12.9408333 L9.31,12.9133333 C9.3,12.1891667 9.56,11.6666667 10.08,11.2908333 C10.62,10.9333333 11.32,10.75 12.19,10.75 Z M18,20 L18,10 L6,10 L6,20 L18,20 M18,8 C19.1045695,8 20,8.8954305 20,10 L20,20 C20,21.1045695 19.1045695,22 18,22 L6,22 C4.89,22 4,21.1 4,20 L4,10 C4,8.89 4.89,8 6,8 L7,8 L7,6 C7,3.23857625 9.23857625,1 12,1 C13.3260824,1 14.597852,1.5267842 15.5355339,2.46446609 C16.4732158,3.40214799 17,4.67391755 17,6 L17,8 L18,8 M12,3 C10.3431458,3 9,4.34314575 9,6 L9,8 L15,8 L15,6 C15,4.34314575 13.6568542,3 12,3 Z" id="mdi:lock-question-outline" fill="#000000" fill-rule="nonzero"></path>
    </g>
</svg>