<?xml version="1.0" encoding="UTF-8"?>
<svg width="24px" height="24px" viewBox="0 0 24 24" version="1.1" xmlns="http://www.w3.org/2000/svg" xmlns:xlink="http://www.w3.org/1999/xlink">
    <title>icon/material/lock-open-outline</title>
    <g id="icon/material/lock-open-outline" stroke="none" fill="none" fill-rule="nonzero">
        <rect id="ViewBox" x="0" y="0" width="24" height="24"></rect>
        <path d="M10,13 C11.1045695,13 12,13.8954305 12,15 C12,16.11 11.11,17 10,17 C8.89,17 8,16.11 8,15 C8,13.89 8.9,13 10,13 M18,1 C15.24,1 13,3.24 13,6 L13,8 L4,8 C2.9,8 2,8.9 2,10 L2,20 C2,21.1 2.9,22 4,22 L16,22 C17.1,22 18,21.1 18,20 L18,10 C18,8.9 17.1,8 16,8 L15,8 L15,6 C15,4.34 16.34,3 18,3 C19.66,3 21,4.34 21,6 L21,8 L23,8 L23,6 C23,3.24 20.76,1 18,1 M16,10 L16,20 L4,20 L4,10 L16,10 Z" id="mdi:lock-open-variant-outline" fill="#000000"></path>
    </g>
</svg>