<?xml version="1.0" encoding="UTF-8"?>
<svg width="24px" height="24px" viewBox="0 0 24 24" version="1.1" xmlns="http://www.w3.org/2000/svg" xmlns:xlink="http://www.w3.org/1999/xlink">
    <title>icon/material/message-burn</title>
    <g id="icon/material/message-burn" stroke="none" stroke-width="1" fill="none" fill-rule="evenodd">
        <rect id="ViewBox" fill-rule="nonzero" x="0" y="0" width="24" height="24"></rect>
        <path d="M17.6007289,17.7150035 L18.9992346,19.1447523 L18.6962484,19.4290182 L18.4913984,19.6098386 L18.4143506,19.6733159 C17.6654304,20.3013903 16.8244654,20.816859 15.9126121,21.2034144 L15.481272,21.374856 L15.3814419,21.4110625 L14.7061109,19.5285302 C14.869981,19.4697442 15.0312456,19.4059534 15.1897459,19.3372966 C15.5109809,19.1968738 15.8222489,19.0364762 16.1216907,18.8566656 C16.332544,18.7300512 16.5375335,18.5938111 16.7359399,18.4483793 L17.0330713,18.2197213 C17.2298878,18.0607982 17.4193672,17.892402 17.6007289,17.7150035 Z M8.43475729,4.83704711 L8.3275615,4.89166924 L8.1485615,4.98666924 L8.02285883,5.05708475 C7.90465609,5.1249415 7.78835088,5.19572995 7.6740424,5.26935091 L7.42649485,5.43537956 L7.1925615,5.60466924 L6.89905138,5.83567858 L6.81081304,5.91109078 C6.39945119,6.26200583 6.02408605,6.65387399 5.69102721,7.08038569 L5.4935615,7.34466924 L5.2916971,7.64074053 C5.0167374,8.0644887 4.78177679,8.51400146 4.59050842,8.982982 L4.43145429,9.4015453 L4.39244782,9.52509595 C4.28705943,9.84944806 4.20286435,10.1771294 4.13974431,10.5067271 L4.08364491,10.8369113 L4.0655615,10.9666692 L4.03039183,11.297816 C4.01027113,11.5291973 4,11.7633992 4,12 C4,12.3704671 4.0251817,12.7350526 4.07392679,13.0921384 C4.13811911,13.5568325 4.24436078,14.0191709 4.39244782,14.474936 L4.45372355,14.6624426 C4.69547749,15.340748 5.02554963,15.9836772 5.43495968,16.572539 L5.47553672,16.6305081 C5.55633449,16.744148 5.64002686,16.8555864 5.7265063,16.9647156 C5.9203987,17.2093902 6.12830129,17.4424572 6.34900206,17.6627045 L6.5855615,17.8886692 L6.92469214,18.1852618 L7.23118839,18.4238944 L7.34709496,18.5084765 L7.50944881,18.6213308 L7.69727242,18.7455539 C7.82384477,18.8264576 7.95284557,18.9038966 8.08414111,18.9777371 L8.37149782,19.1312594 C8.64272751,19.2687928 8.92283828,19.3913373 9.21100821,19.4982576 L9.52786405,19.6084521 C9.76741513,19.686287 10.0089136,19.752539 10.251748,19.8072532 L10.5825243,19.8748086 L10.8299628,19.9150487 C11.2118737,19.9710168 11.6025521,20 12,20 C12.1541634,20.0024858 12.3081589,19.9980236 12.4619572,19.9890806 L12.8424989,19.9577635 L13.0543289,21.9465139 L12.9745615,21.9526692 L12.862806,21.9650446 L12.4360242,21.9927988 L12.1593968,22.0011588 L11.8744112,22.001686 L11.4117465,21.9851105 L11.1381296,21.9648221 C10.9857571,21.9517959 10.8339818,21.9351549 10.6827735,21.9150011 L10.4050042,21.8734918 C9.468721,21.7234158 8.57585729,21.4433664 7.74550192,21.0524327 L7.36269006,20.8613769 L7.19873474,20.7740445 L6.87555111,20.5890154 L6.67231049,20.4651411 L6.26479123,20.1925709 L6.12397545,20.0923252 L5.904663,19.9286796 L5.78462847,19.8343477 C5.59925938,19.6883223 5.41968742,19.5354707 5.24575344,19.3764696 L5.00358756,19.1472718 L4.71071632,18.8490363 L4.5545615,18.6775752 L4.41741554,18.5215421 C4.36192795,18.4586918 4.30795668,18.3943584 4.25478445,18.3293197 L4.20319035,18.2633961 C4.00050988,18.0134807 3.8105093,17.7520519 3.63317316,17.4810262 L3.40973876,17.1223108 C2.8015654,16.1045795 2.36912242,14.9697156 2.15431144,13.7596209 L2.07639272,13.2464119 L2.0325615,12.8365752 L2.0155615,12.6085752 L2.0068538,12.4312683 L1.99795368,12.0892391 L2.00228358,11.6956187 L2.0155615,11.3905752 L2.03741352,11.1094439 L2.0878596,10.6648846 L2.09437415,10.6205048 C2.29541911,9.16346236 2.81036956,7.80663457 3.56876861,6.6204783 L3.63463485,6.5203404 C3.81215566,6.24546388 4.00403884,5.98169791 4.20795132,5.72843622 L4.43047936,5.46173048 L4.60933561,5.26039649 L4.82631602,5.03015874 C4.94418847,4.90899847 5.06510183,4.79088114 5.18893271,4.67590986 L5.26760397,4.6056642 C5.42820559,4.45767177 5.59444071,4.31623457 5.76522935,4.18029763 L5.97993474,4.01410969 L6.1214054,3.90946344 L6.42587254,3.69646768 L6.7095615,3.51166924 L6.9315615,3.37766924 L7.19875145,3.22584935 L7.39360558,3.12258744 C8.19729658,2.70404647 9.06495715,2.39202276 9.97802173,2.20452488 L10.5015615,2.11166924 L10.783955,2.07211709 L10.9605756,2.05190939 L11.4117732,2.01492979 L11.6500919,2.00380383 L11.8744112,1.99834596 L12.1593352,1.99888171 L12.4160761,2.00624319 L12.6464328,2.01875659 L12.8503735,2.03394001 L13.0543289,2.05351803 L12.8424989,4.04226841 L12.4619572,4.01095133 L12.2958744,4.00303886 L12.007608,3.99756736 C11.7866988,3.99885841 11.5755883,4.00795584 11.3666682,4.02457402 L10.9557532,4.06753647 L10.6305615,4.11666924 L10.274933,4.18759075 C10.107834,4.2247225 9.94135792,4.26731302 9.77570384,4.31537697 L9.50356551,4.3988419 C9.25673652,4.4804043 9.0161336,4.5725132 8.78172601,4.67516432 L8.43475729,4.83704711 Z M19.9395912,12.9946525 L21.9237666,13.245746 L21.9195418,13.2825455 C21.8532609,13.7927113 21.7476819,14.2958576 21.6045457,14.7875574 L21.4935615,15.1395752 L21.4901788,15.1541168 L21.3825615,15.4565752 L21.2550691,15.7878557 L21.1210599,16.1014095 L20.9371208,16.4891916 L20.8633775,16.6304402 C20.7657285,16.8208639 20.6610727,17.0068454 20.5506234,17.1891599 L20.534943,17.2113665 L18.8275499,16.1698249 C19.0293203,15.8390638 19.206584,15.4947882 19.3581784,15.139991 C19.4474998,14.9311948 19.5277897,14.7178128 19.5991692,14.5005478 C19.7651602,13.9898194 19.8761781,13.4957518 19.9395912,12.9946525 Z M15.5,7 L17,8.5 L12,13.5 L10.5,12 L15.5,7 Z M21.3070039,8.34146758 L21.4072327,8.60802426 L21.3573369,8.471981 C21.6169968,9.15950287 21.8010799,9.87525301 21.9044355,10.6061341 L21.9237666,10.7542859 L19.9395912,11.0053795 C19.8761781,10.5042802 19.7651602,10.0102125 19.5991692,9.49948417 C19.5156705,9.24533064 19.4199788,8.99649063 19.3125899,8.75375524 C19.1708003,8.43635974 19.009095,8.12781293 18.8275499,7.83020707 L20.534943,6.78866545 L20.5485615,6.81157522 C20.6587474,6.9893483 20.7613193,7.17133881 20.8582054,7.35665283 L21.0410671,7.72467208 L21.2015671,8.08312812 L21.3070039,8.34146758 Z M14.7061109,4.47150174 L15.3814419,2.58896938 L15.5935615,2.66757522 L15.9306474,2.80478571 L16.1603481,2.90559961 L16.2377618,2.94232366 C17.0249131,3.30844841 17.7553599,3.77386497 18.4151041,4.32572116 L18.5945798,4.47969704 L18.9245615,4.78257522 L18.9992346,4.85527963 L17.6007289,6.28502845 L17.340676,6.04177479 L17.0338065,5.77907026 L16.8868407,5.66293115 L16.7495615,5.55966924 L16.7815615,5.58566924 L16.4861733,5.3757753 C16.1770496,5.1667742 15.8534559,4.97934762 15.5179052,4.81501118 L15.2073164,4.6703711 C15.0431677,4.59880279 14.8760402,4.53246138 14.7061109,4.47150174 Z" id="xabber:message-burn" fill="#000000" fill-rule="nonzero"></path>
    </g>
</svg>