<?xml version="1.0" encoding="UTF-8"?>
<svg width="24px" height="24px" viewBox="0 0 24 24" version="1.1" xmlns="http://www.w3.org/2000/svg" xmlns:xlink="http://www.w3.org/1999/xlink">
    <title>icon/material/microphone</title>
    <g id="icon/material/microphone" stroke="none" fill="none" fill-rule="nonzero">
        <rect id="ViewBox" x="0" y="0" width="24" height="24"></rect>
        <path d="M12,2 C13.6568542,2 15,3.34314575 15,5 L15,11 C15,12.6568542 13.6568542,14 12,14 C10.3431458,14 9,12.6568542 9,11 L9,5 C9,3.34314575 10.3431458,2 12,2 Z M19,11 C19.0004627,14.4802188 16.4444618,17.4323998 13,17.93 L13,21 L11,21 L11,17.93 C7.55553817,17.4323998 4.9995373,14.4802188 5,11 L7,11 C7,13.7614237 9.23857625,16 12,16 C14.7614237,16 17,13.7614237 17,11 L19,11 L19,11 Z" id="mdi:microphone" fill="#000000"></path>
    </g>
</svg>