<?xml version="1.0" encoding="UTF-8"?>
<svg width="24px" height="24px" viewBox="0 0 24 24" version="1.1" xmlns="http://www.w3.org/2000/svg" xmlns:xlink="http://www.w3.org/1999/xlink">
    <title>icon/material/mute-outline</title>
    <g id="icon/material/mute-outline" stroke="none" fill="none" fill-rule="nonzero">
        <rect id="ViewBox" x="0" y="0" width="24" height="24"></rect>
        <path d="M2.39,2.73 L21.11,21.46 L19.84,22.73 L17,19.89 L17,21 L1,21 L1,18 C1,15.9826667 4.04270617,14.7302914 6.68187479,14.2385609 L7.14272,14.15968 L7.59097855,14.0965858 C7.6644056,14.0873853 7.73713284,14.0788425 7.80907259,14.070957 L8.23055978,14.0315329 C8.50431605,14.0105086 8.76266667,14 9,14 C9.66244162,14 10.4886231,14.0818699 11.3565174,14.2457625 L9.97,12.86 C9.66,12.94 9.34,13 9,13 C6.79,13 5,11.21 5,9 C5,8.745 5.03375,8.50125 5.084375,8.26453125 L5.14,8.03 L1.11,4 L2.39,2.73 Z M9,15.9 C7.812,15.9 6.5984,16.1336 5.56976,16.45488 L5.14085224,16.5975142 C5.00206694,16.6465647 4.8676702,16.6969791 4.73827592,16.7483321 L4.36571429,16.9047813 C3.47489796,17.3008163 2.9,17.7257143 2.9,18 L2.9,19.1 L15.1,19.1 L15.1,18 L14.4195232,17.3094603 C13.3371344,16.6491792 11.1275163,15.9 9,15.9 Z M20.06,2 C23.9283636,5.97636364 23.9601388,11.8903008 20.2688985,15.7856912 L20.06,16 L18.43,14.37 C21.1370455,11.2622727 21.1985692,6.85566116 18.6145713,3.83823065 L18.43,3.63 L20.06,2 Z M16.75,5.36 C18.7105882,7.49529412 18.7682526,10.4313235 16.9229931,12.4491395 L16.75,12.63 L15.07,10.94 C15.868,9.819 15.9079,8.382125 15.1897,7.2295375 L15.07,7.05 L16.75,5.36 Z M9,5 C11.21,5 13,6.79 13,9 C13,9.53 12.89,10.04 12.7,10.5 L11,8.78 C10.8674423,7.85739016 10.1426098,7.13255774 9.22,7 L7.5,5.3 C7.96,5.11 8.47,5 9,5 Z" id="xabber:mute-outline" fill="#000000"></path>
    </g>
</svg>