<?xml version="1.0" encoding="UTF-8"?>
<svg width="24px" height="24px" viewBox="0 0 24 24" version="1.1" xmlns="http://www.w3.org/2000/svg" xmlns:xlink="http://www.w3.org/1999/xlink">
    <title>icon/material/palette-outline</title>
    <g id="icon/material/palette-outline" stroke="none" fill="none" fill-rule="nonzero">
        <rect id="ViewBox" x="0" y="0" width="24" height="24"></rect>
        <path d="M11.9999987,22 C10.6333333,22 9.34166667,21.7373333 8.125,21.212 C6.90833333,20.6866667 5.84566667,19.97 4.937,19.062 C4.029,18.154 3.31233333,17.0916667 2.787,15.875 C2.26166667,14.6583333 1.99933333,13.3666667 1.99999873,12 C1.99999873,10.6166667 2.271,9.31666667 2.813,8.1 C3.355,6.88333333 4.08833333,5.825 5.013,4.925 C5.93766667,4.025 7.01666667,3.31266667 8.25,2.788 C9.48333333,2.26333333 10.8,2.00066667 12.2,2 C13.5333333,2 14.7916667,2.22933333 15.975,2.688 C17.1583333,3.14666667 18.196,3.78 19.088,4.588 C19.9793333,5.396 20.6876667,6.35433333 21.213,7.463 C21.7383333,8.57166667 22.0006667,9.76733333 21.9999987,11.05 C21.9999987,12.9666667 21.4166667,14.4376667 20.25,15.463 C19.0833333,16.4883333 17.6666667,17.0006667 15.9999987,17 L14.15,17 C13.9999987,17 13.8956667,17.0416667 13.837,17.125 C13.7783333,17.2083333 13.7493333,17.3 13.75,17.4 C13.75,17.6 13.875,17.8876667 14.125,18.263 C14.375,18.6383333 14.4999987,19.0673333 14.4999987,19.55 C14.4999987,20.3833333 14.2706667,21 13.812,21.4 C13.3533333,21.8 12.7493333,22 11.9999987,22 Z M6.5,13 C6.93333333,13 7.29166667,12.8583333 7.575,12.575 C7.85833333,12.2916667 8,11.9333333 8,11.5 C8,11.0666667 7.85833333,10.7083333 7.575,10.425 C7.29166667,10.1416667 6.93333333,10 6.5,10 C6.06666667,10 5.70833333,10.1416667 5.425,10.425 C5.14166667,10.7083333 5,11.0666667 5,11.5 C5,11.9333333 5.14166667,12.2916667 5.425,12.575 C5.70833333,12.8583333 6.06666667,13 6.5,13 Z M9.5,9 C9.93333333,9 10.2916667,8.85833333 10.575,8.575 C10.8583333,8.29166667 11,7.93333333 11,7.5 C11,7.06666667 10.8583333,6.70833333 10.575,6.425 C10.2916667,6.14166667 9.93333333,6 9.5,6 C9.06666667,6 8.70833333,6.14166667 8.425,6.425 C8.14166667,6.70833333 8,7.06666667 8,7.5 C8,7.93333333 8.14166667,8.29166667 8.425,8.575 C8.70833333,8.85833333 9.06666667,9 9.5,9 Z M14.5,9 C14.9333333,9 15.2916667,8.85833333 15.575,8.575 C15.8583333,8.29166667 16,7.93333333 16,7.5 C16,7.06666667 15.8583333,6.70833333 15.575,6.425 C15.2916667,6.14166667 14.9333333,6 14.5,6 C14.0666667,6 13.7083333,6.14166667 13.425,6.425 C13.1416667,6.70833333 13,7.06666667 13,7.5 C13,7.93333333 13.1416667,8.29166667 13.425,8.575 C13.7083333,8.85833333 14.0666667,9 14.5,9 Z M17.5,13 C17.9333333,13 18.2916667,12.8583333 18.575,12.575 C18.8583333,12.2916667 19,11.9333333 19,11.5 C19,11.0666667 18.8583333,10.7083333 18.575,10.425 C18.2916667,10.1416667 17.9333333,10 17.5,10 C17.0666667,10 16.7083333,10.1416667 16.425,10.425 C16.1416667,10.7083333 16,11.0666667 16,11.5 C16,11.9333333 16.1416667,12.2916667 16.425,12.575 C16.7083333,12.8583333 17.0666667,13 17.5,13 Z M12,19.9999995 C12.15,19.9999995 12.271,19.9583333 12.363,19.875 C12.455,19.7916667 12.5006667,19.6833333 12.5,19.55 C12.5,19.3166667 12.375,19.0416667 12.125,18.725 C11.875,18.4083333 11.75,17.9333333 11.75,17.3 C11.75,16.6 11.9916667,16.0416667 12.475,15.625 C12.9583333,15.2083333 13.55,14.9999995 14.25,14.9999995 L16,14.9999995 C17.1,14.9999995 18.0416667,14.679 18.825,14.037 C19.6083333,13.395 20,12.3993333 20,11.05 C20,9.03333333 19.229,7.354 17.687,6.012 C16.145,4.67 14.316,3.99933333 12.2,3.9999995 C9.93333333,3.9999995 8,4.775 6.4,6.325 C4.8,7.875 4,9.76666667 4,11.9999995 C4,14.2166667 4.779,16.1043333 6.337,17.663 C7.895,19.2216667 9.78266667,20.0006667 12,19.9999995 Z" id="mdi:palette-outline" fill="#000000"></path>
    </g>
</svg>