<?xml version="1.0" encoding="UTF-8"?>
<svg width="24px" height="24px" viewBox="0 0 24 24" version="1.1" xmlns="http://www.w3.org/2000/svg" xmlns:xlink="http://www.w3.org/1999/xlink">
    <title>icon/material/plus-circle</title>
    <g id="icon/material/plus-circle" stroke="none" fill="none" fill-rule="nonzero">
        <rect id="ViewBox" x="0" y="0" width="24" height="24"></rect>
        <path d="M17,13 L13,13 L13,17 L11,17 L11,13 L7,13 L7,11 L11,11 L11,7 L13,7 L13,11 L17,11 M12,2 C6.4771525,2 2,6.4771525 2,12 C2,14.6521649 3.0535684,17.195704 4.92893219,19.0710678 C6.80429597,20.9464316 9.3478351,22 12,22 C17.5228475,22 22,17.5228475 22,12 C22,6.4771525 17.5228475,2 12,2 L12,2 Z" id="mdi:plus-circle" fill="#000000"></path>
    </g>
</svg>