<?xml version="1.0" encoding="UTF-8"?>
<svg width="24px" height="24px" viewBox="0 0 24 24" version="1.1" xmlns="http://www.w3.org/2000/svg" xmlns:xlink="http://www.w3.org/1999/xlink">
    <title>icon/material/qrcode-scan</title>
    <g id="icon/material/qrcode-scan" stroke="none" fill="none" fill-rule="nonzero">
        <rect id="ViewBox" x="0" y="0" width="24" height="24"></rect>
        <path d="M4,4 L10,4 L10,10 L4,10 L4,4 M20,4 L20,10 L14,10 L14,4 L20,4 M14,15 L16,15 L16,13 L14,13 L14,11 L16,11 L16,13 L18,13 L18,11 L20,11 L20,13 L18,13 L18,15 L20,15 L20,18 L18,18 L18,20 L16,20 L16,18 L13,18 L13,20 L11,20 L11,16 L14,16 L14,15 M16,15 L16,18 L18,18 L18,15 L16,15 M4,20 L4,14 L10,14 L10,20 L4,20 M6,6 L6,8 L8,8 L8,6 L6,6 M16,6 L16,8 L18,8 L18,6 L16,6 M6,16 L6,18 L8,18 L8,16 L6,16 M4,11 L6,11 L6,13 L4,13 L4,11 M9,11 L13,11 L13,15 L11,15 L11,13 L9,13 L9,11 M11,6 L13,6 L13,10 L11,10 L11,6 M2,2 L2,6 L0,6 L0,2 C0,0.8954305 0.8954305,0 2,0 L6,0 L6,2 L2,2 M22,0 C23.1045695,0 24,0.8954305 24,2 L24,6 L22,6 L22,2 L18,2 L18,0 L22,0 M2,18 L2,22 L6,22 L6,24 L2,24 C0.8954305,24 0,23.1045695 0,22 L0,18 L2,18 M22,22 L22,18 L24,18 L24,22 C24,23.1045695 23.1045695,24 22,24 L18,24 L18,22 L22,22 Z" id="mdi:qrcode-scan" fill="#000000"></path>
    </g>
</svg>