<?xml version="1.0" encoding="UTF-8"?>
<svg width="24px" height="24px" viewBox="0 0 24 24" version="1.1" xmlns="http://www.w3.org/2000/svg" xmlns:xlink="http://www.w3.org/1999/xlink">
    <title>icon/material/search-member</title>
    <g id="icon/material/search-member" stroke="none" fill="none" fill-rule="nonzero">
        <rect id="ViewBox" x="0" y="0" width="24" height="24"></rect>
        <path d="M15.5,12 C18,12 20,14 20,16.5 C20,17.38 19.75,18.21 19.31,18.9 L22.39,22 L21,23.39 L17.88,20.32 C17.19,20.75 16.37,21 15.5,21 C13,21 11,19 11,16.5 C11,14 13,12 15.5,12 M15.5,14 C14.1192881,14 13,15.1192881 13,16.5 C13,17.8807119 14.1192881,19 15.5,19 C16.8807119,19 18,17.8807119 18,16.5 C18,15.1192881 16.8807119,14 15.5,14 M10,4 C12.209139,4 14,5.790861 14,8 C14,8.91 13.69,9.75 13.18,10.43 C12.32,10.75 11.55,11.26 10.91,11.9 L10,12 C7.790861,12 6,10.209139 6,8 C6,5.790861 7.790861,4 10,4 M2,20 L2,18 C2,15.88 5.31,14.14 9.5,14 C9.18,14.78 9,15.62 9,16.5 C9,17.79 9.38,19 10,20 L2,20 Z" id="mdi:account-search" fill="#000000"></path>
    </g>
</svg>