<?xml version="1.0" encoding="UTF-8"?>
<svg width="24px" height="24px" viewBox="0 0 24 24" version="1.1" xmlns="http://www.w3.org/2000/svg" xmlns:xlink="http://www.w3.org/1999/xlink">
    <title>icon/material/settings-outline</title>
    <g id="icon/material/settings-outline" stroke="none" fill="none" fill-rule="nonzero">
        <rect id="ViewBox" x="0" y="0" width="24" height="24"></rect>
        <path d="M12,8 C14.209139,8 16,9.790861 16,12 C16,14.209139 14.209139,16 12,16 C9.790861,16 8,14.209139 8,12 C8,9.790861 9.790861,8 12,8 L12,8 Z M12,10 C10.8954305,10 10,10.8954305 10,12 C10,13.1045695 10.8954305,14 12,14 C13.1045695,14 14,13.1045695 14,12 C14,10.8954305 13.1045695,10 12,10 L12,10 Z M10,22 C9.75,22 9.54,21.82 9.5,21.58 L9.13,18.93 C8.5,18.68 7.96,18.34 7.44,17.94 L4.95,18.95 C4.73,19.03 4.46,18.95 4.34,18.73 L2.34,15.27 C2.21,15.05 2.27,14.78 2.46,14.63 L4.57,12.97 L4.5,12 L4.57,11 L2.46,9.37 C2.27,9.22 2.21,8.95 2.34,8.73 L4.34,5.27 C4.46,5.05 4.73,4.96 4.95,5.05 L7.44,6.05 C7.96,5.66 8.5,5.32 9.13,5.07 L9.5,2.42 C9.54,2.18 9.75,2 10,2 L14,2 C14.25,2 14.46,2.18 14.5,2.42 L14.87,5.07 C15.5,5.32 16.04,5.66 16.56,6.05 L19.05,5.05 C19.27,4.96 19.54,5.05 19.66,5.27 L21.66,8.73 C21.79,8.95 21.73,9.22 21.54,9.37 L19.43,11 L19.5,12 L19.43,13 L21.54,14.63 C21.73,14.78 21.79,15.05 21.66,15.27 L19.66,18.73 C19.54,18.95 19.27,19.04 19.05,18.95 L16.56,17.95 C16.04,18.34 15.5,18.68 14.87,18.93 L14.5,21.58 C14.46,21.82 14.25,22 14,22 L10,22 L10,22 Z M11.25,4 L10.88,6.61 C9.68,6.86 8.62,7.5 7.85,8.39 L5.44,7.35 L4.69,8.65 L6.8,10.2 C6.4,11.37 6.4,12.64 6.8,13.8 L4.68,15.36 L5.43,16.66 L7.86,15.62 C8.63,16.5 9.68,17.14 10.87,17.38 L11.24,20 L12.76,20 L13.13,17.39 C14.32,17.14 15.37,16.5 16.14,15.62 L18.57,16.66 L19.32,15.36 L17.2,13.81 C17.6,12.64 17.6,11.37 17.2,10.2 L19.31,8.65 L18.56,7.35 L16.15,8.39 C15.38,7.5 14.32,6.86 13.12,6.62 L12.75,4 L11.25,4 Z" id="mdi:cog-outline" fill="#000000"></path>
    </g>
</svg>