<?xml version="1.0" encoding="UTF-8"?>
<svg width="24px" height="24px" viewBox="0 0 24 24" version="1.1" xmlns="http://www.w3.org/2000/svg" xmlns:xlink="http://www.w3.org/1999/xlink">
    <title>icon/material/star-circle</title>
    <g id="icon/material/star-circle" stroke="none" fill="none" fill-rule="nonzero">
        <rect id="ViewBox" x="0" y="0" width="24" height="24"></rect>
        <path d="M16.23,18 L12,15.45 L7.77,18 L8.89,13.19 L5.16,9.96 L10.08,9.54 L12,5 L13.92,9.53 L18.84,9.95 L15.11,13.18 L16.23,18 M12,2 C6.47,2 2,6.5 2,12 C2,14.6521649 3.0535684,17.195704 4.92893219,19.0710678 C6.80429597,20.9464316 9.3478351,22 12,22 C17.5228475,22 22,17.5228475 22,12 C22,9.3478351 20.9464316,6.80429597 19.0710678,4.92893219 C17.195704,3.0535684 14.6521649,2 12,2 L12,2 Z" id="mdi:star-circle" fill="#000000"></path>
    </g>
</svg>