<?xml version="1.0" encoding="UTF-8"?>
<svg width="24px" height="24px" viewBox="0 0 24 24" version="1.1" xmlns="http://www.w3.org/2000/svg" xmlns:xlink="http://www.w3.org/1999/xlink">
    <title>icon/material/status</title>
    <g id="icon/material/status" stroke="none" stroke-width="1" fill="none" fill-rule="evenodd">
        <rect id="ViewBox" fill-rule="nonzero" x="0" y="0" width="24" height="24"></rect>
        <path d="M20,4 C21.1045695,4 22,4.8954305 22,6 L22,16 C22,17.1045695 21.1045695,18 20,18 L16,18 L12,22 L8,18 L4,18 C2.8954305,18 2,17.1045695 2,16 L2,6 C2,4.8954305 2.8954305,4 4,4 L20,4 Z M16,12 L6,12 L6,14 L16,14 L16,12 Z M18,8 L6,8 L6,10 L18,10 L18,8 Z" id="xabber.tooltip-variant" fill="#000000" fill-rule="nonzero"></path>
    </g>
</svg>