<?xml version="1.0" encoding="UTF-8"?>
<svg width="24px" height="24px" viewBox="0 0 24 24" version="1.1" xmlns="http://www.w3.org/2000/svg" xmlns:xlink="http://www.w3.org/1999/xlink">
    <title>icon/material/sun</title>
    <g id="icon/material/sun" stroke="none" stroke-width="1" fill="none" fill-rule="evenodd">
        <rect id="ViewBox" fill-rule="nonzero" x="0" y="0" width="24" height="24"></rect>
        <path d="M14.1854805,20.2164071 L12,24 L9.81451945,20.2164071 C10.5118797,20.4014153 11.244427,20.5 12,20.5 C12.755573,20.5 13.4881203,20.4014153 14.1854805,20.2164071 Z M19.3555452,16.2626052 L20.4852814,20.4852814 L16.2626052,19.3555452 C17.5432268,18.6118101 18.6118101,17.5432268 19.3555452,16.2626052 Z M4.64445484,16.2626052 C5.38818986,17.5432268 6.45677323,18.6118101 7.73739476,19.3555452 L3.51471863,20.4852814 L4.64445484,16.2626052 Z M12,5 C15.8659932,5 19,8.13400675 19,12 C19,15.8659932 15.8659932,19 12,19 C8.13400675,19 5,15.8659932 5,12 C5,8.13400675 8.13400675,5 12,5 Z M3.7835929,9.81451945 C3.59858474,10.5118797 3.5,11.244427 3.5,12 C3.5,12.755573 3.59858474,13.4881203 3.7835929,14.1854805 L3.55271368e-14,12 L3.7835929,9.81451945 Z M20.2164071,9.81451945 L24,12 L20.2164071,14.1854805 C20.4014153,13.4881203 20.5,12.755573 20.5,12 C20.5,11.244427 20.4014153,10.5118797 20.2164071,9.81451945 Z M3.51471863,3.51471863 L7.73739476,4.64445484 C6.45677323,5.38818986 5.38818986,6.45677323 4.64445484,7.73739476 L3.51471863,3.51471863 Z M20.4852814,3.51471863 L19.3555452,7.73739476 C18.6118101,6.45677323 17.5432268,5.38818986 16.2626052,4.64445484 L20.4852814,3.51471863 Z M12,1.63158376e-12 L14.1854805,3.7835929 C13.4881203,3.59858474 12.755573,3.5 12,3.5 C11.244427,3.5 10.5118797,3.59858474 9.81451945,3.7835929 L12,1.63158376e-12 Z" id="xabber.sun" fill="#000000" fill-rule="nonzero"></path>
    </g>
</svg>