<?xml version="1.0" encoding="UTF-8"?>
<svg width="12px" height="12px" viewBox="0 0 12 12" version="1.1" xmlns="http://www.w3.org/2000/svg" xmlns:xlink="http://www.w3.org/1999/xlink">
    <title>icon/iOS/12dp/call-made</title>
    <g id="icon/iOS/12dp/call-made" stroke="none" stroke-width="1" fill="none" fill-rule="evenodd">
        <rect id="ViewBox" fill-rule="nonzero" x="0" y="0" width="12" height="12"></rect>
        <path d="M11,8.37647695 L11,1.93250271 C11,1.37578021 10.6378777,1 10.0668481,1 L3.61141346,1.01392412 C3.07521122,1.01392412 2.69916939,1.41753831 2.69916939,1.88378967 C2.69916939,2.36395089 3.11002436,2.73277616 3.59749391,2.73277616 L5.73537163,2.73277616 L8.23537163,2.63535008 L7.0584992,3.67918874 L1.29248173,9.44119467 C1.09749391,9.63604683 1,9.8726514 1,10.0953375 C1,10.5615861 1.42478878,11 1.89832452,11 C2.12813974,11 2.3579407,10.9025748 2.55292853,10.7077238 L8.32590577,4.93875861 L9.37047115,3.76270495 L9.27297724,6.16353957 L9.27297724,8.39735601 C9.27297724,8.89144135 9.64901907,9.29505554 10.1225548,9.29505554 C10.6030646,9.29505554 11,8.89839628 11,8.37647695 Z" id="sfsymbols:arrow.up.right" fill="#000000" fill-rule="nonzero"></path>
    </g>
</svg>