<?xml version="1.0" encoding="UTF-8"?>
<svg width="12px" height="12px" viewBox="0 0 12 12" version="1.1" xmlns="http://www.w3.org/2000/svg" xmlns:xlink="http://www.w3.org/1999/xlink">
    <title>icon/iOS/12dp/call-received</title>
    <g id="icon/iOS/12dp/call-received" stroke="none" stroke-width="1" fill="none" fill-rule="evenodd">
        <rect id="ViewBox" fill-rule="nonzero" x="0" y="0" width="12" height="12"></rect>
        <path d="M1,3.62352305 L1,10.0674973 C1,10.6242198 1.36212228,11 1.93315192,11 L8.38858654,10.9860759 C8.92478878,10.9860759 9.30083061,10.5824617 9.30083061,10.1162103 C9.30083061,9.63604911 8.88997564,9.26722384 8.40250609,9.26722384 L6.26462837,9.26722384 L3.76462837,9.36464992 L4.9415008,8.32081126 L10.7075183,2.55880533 C10.9025061,2.36395317 11,2.1273486 11,1.90466245 C11,1.43841395 10.5752112,1 10.1016755,1 C9.87186026,1 9.6420593,1.09742523 9.44707147,1.29227625 L3.67409423,7.06124139 L2.62952885,8.23729505 L2.72702276,5.83646043 L2.72702276,3.60264399 C2.72702276,3.10855865 2.35098093,2.70494446 1.87744519,2.70494446 C1.39693542,2.70494446 1,3.10160372 1,3.62352305 Z" id="sfsymbols:arrow.down.left" fill="#000000" fill-rule="nonzero"></path>
    </g>
</svg>