<?xml version="1.0" encoding="UTF-8"?>
<svg width="32px" height="32px" viewBox="0 0 32 32" version="1.1" xmlns="http://www.w3.org/2000/svg" xmlns:xlink="http://www.w3.org/1999/xlink">
    <title>icon/iOS/32dp/archive-circle</title>
    <g id="icon/iOS/32dp/archive-circle" stroke="none" stroke-width="1" fill="none" fill-rule="evenodd">
        <rect id="ViewBox" fill-rule="nonzero" x="0" y="0" width="32" height="32"></rect>
        <path d="M15.9767457,0 C24.7461518,0 32,7.23829057 32,16.0077287 C32,24.7617221 24.7616409,32 15.9922032,32 C7.23825456,32 0,24.7617221 0,16.0077287 C0,7.23829057 7.22279711,0 15.9767457,0 Z M19.6471398,9 L12.3528255,9 C10.8430736,9 10.3426602,9.31985981 9.41814259,10.5418879 L6.48345968,14.3720088 C6.12722257,14.8476917 6,15.1921587 6,15.9302903 L6,20.4575286 C6,22.1552429 6.89057539,23 8.66326665,23 L23.3367333,23 C25.1179189,23 26,22.1470427 26,20.4575286 L26,15.9302903 C26,15.1921587 25.8811848,14.8476917 25.5165751,14.3720088 L22.5903169,10.5418879 C21.6658514,9.31985981 21.1568916,9 19.6471398,9 Z M19.7489317,10.1482233 C20.3680908,10.1482233 20.8685216,10.3368504 21.2586836,10.8617477 L24.3968636,15.028122 C24.5241904,15.2085523 24.4732944,15.438197 24.1934534,15.438197 L18.7904892,15.438197 C18.3155064,15.438197 18.0949861,15.782664 18.0949861,16.1517381 L18.0949861,16.1763285 C18.0949861,17.1851223 17.2807373,18.2513273 15.9999826,18.2513273 C14.7277222,18.2513273 13.9134734,17.1851223 13.9134734,16.1763285 L13.9134734,16.1517381 C13.9134734,15.782664 13.6844762,15.438197 13.2094934,15.438197 L7.80661613,15.438197 C7.52670562,15.438197 7.46733277,15.2085523 7.60304959,15.028122 L10.741299,10.8617477 C11.131461,10.3368504 11.6318744,10.1482233 12.2510509,10.1482233 L19.7489317,10.1482233 Z M20.6904031,13.2073919 L11.3095796,13.2073919 C11.0720882,13.2073919 10.8939696,13.4124294 10.8939696,13.6338604 C10.8939696,13.8553083 11.0720882,14.0439354 11.3095796,14.0439354 L20.6904031,14.0439354 C20.9278945,14.0439354 21.1144899,13.8553083 21.1144899,13.6338604 C21.1144899,13.4124294 20.9278945,13.2073919 20.6904031,13.2073919 Z M19.5708132,11.353841 L12.4376463,11.353841 C12.2086492,11.353841 12.0305306,11.5260745 12.0305306,11.7475224 C12.0305306,11.9689534 12.2086492,12.1411869 12.4376463,12.1411869 L19.5708132,12.1411869 C19.7998103,12.1411869 19.969452,11.9689534 19.969452,11.7475224 C19.969452,11.5260745 19.7998103,11.353841 19.5708132,11.353841 Z" id="sfsymbols:archive-circle" fill="#000000" fill-rule="nonzero"></path>
    </g>
</svg>