<?xml version="1.0" encoding="UTF-8"?>
<svg width="32px" height="32px" viewBox="0 0 32 32" version="1.1" xmlns="http://www.w3.org/2000/svg" xmlns:xlink="http://www.w3.org/1999/xlink">
    <title>icon/iOS/32dp/information-circle</title>
    <g id="icon/iOS/32dp/information-circle" stroke="none" stroke-width="1" fill="none" fill-rule="evenodd">
        <rect id="ViewBox" fill-rule="nonzero" x="0" y="0" width="32" height="32"></rect>
        <path d="M16,32 C24.7731971,32 32,24.7766659 32,16.0076474 C32,7.23864148 24.7578949,0 16,0 C7.22679349,0 0,7.23864148 0,16.0076474 C0,24.7766659 7.22679349,32 16,32 Z M15.9540574,11.0339629 C14.7597969,11.0339629 13.7798925,10.0392323 13.7798925,8.86083785 C13.7798925,7.63652747 14.7597969,6.67241791 15.9540574,6.67241791 C17.1636514,6.67241791 18.1129201,7.63652747 18.1129201,8.86083785 C18.1129201,10.0392323 17.1636514,11.0339629 15.9540574,11.0339629 Z M13.2746381,24.2410352 C12.5397255,24.2410352 11.9578974,23.7054171 11.9578974,22.9555297 C11.9578974,22.2515583 12.5397255,21.6853347 13.2746381,21.6853347 L15.0507266,21.6853347 L15.0507266,15.8087201 L13.5502343,15.8087201 C12.8153216,15.8087201 12.2334936,15.2883811 12.2334936,14.5231989 C12.2334936,13.8192275 12.8153216,13.2682988 13.5502343,13.2682988 L16.505281,13.2682988 C17.4392475,13.2682988 17.9291998,13.9110594 17.9291998,14.90579 L17.9291998,21.6853347 L19.4755987,21.6853347 C20.2105427,21.6853347 20.7923393,22.2515583 20.7923393,22.9555297 C20.7923393,23.7054171 20.2105427,24.2410352 19.4755987,24.2410352 L13.2746381,24.2410352 Z" id="sfsymbols:information" fill="#000000" fill-rule="nonzero"></path>
    </g>
</svg>