<?xml version="1.0" encoding="UTF-8"?>
<svg width="32px" height="32px" viewBox="0 0 32 32" version="1.1" xmlns="http://www.w3.org/2000/svg" xmlns:xlink="http://www.w3.org/1999/xlink">
    <title>icon/iOS/32dp/invite-circle</title>
    <g id="icon/iOS/32dp/invite-circle" stroke="none" stroke-width="1" fill="none" fill-rule="evenodd">
        <rect id="ViewBox" fill-rule="nonzero" x="0" y="0" width="32" height="32"></rect>
        <path d="M15.9842538,0 C24.7371622,0 32,7.24706629 32,16.0000161 C32,24.7372629 24.7528394,32 15.9999309,32 C7.26273176,32 1.24344979e-14,24.7372629 1.24344979e-14,16.0000161 C1.24344979e-14,7.24706629 7.24702246,0 15.9842538,0 Z M23.1599555,16.9944424 C21.9317896,16.9944424 20.9875543,17.3615105 20.2480042,17.8553952 C21.6742696,18.9632973 22.5128627,20.992213 21.8261338,22 L21.8261338,22 L26.8378673,22 C27.6764469,22 28,21.6662953 28,21.065628 C28,19.216903 26.1379399,16.9944424 23.1599555,16.9944424 Z M15.5598779,17.0144531 C12.1328597,17.0144531 10,19.3904331 10,21.112347 C10,21.6996657 10.3698562,22 11.4131616,22 L11.4131616,22 L19.7065537,22 C20.7432328,22 21.1130078,21.6996657 21.1130078,21.112347 C21.1130078,19.3904331 18.9802157,17.0144531 15.5598779,17.0144531 Z M7.00943818,13 C6.67924662,13 6.38680779,13.2091006 6.38680779,13.5545419 L6.38680779,13.5545419 L6.38680779,15.4363631 L4.58491629,15.4363631 C4.26415325,15.4363631 4,15.6909084 4,16 C4,16.2999981 4.26415325,16.5545438 4.58491629,16.5545438 L4.58491629,16.5545438 L6.38680779,16.5545438 L6.38680779,18.4363538 C6.38680779,18.7818138 6.67924662,19 7.00943818,19 C7.33020123,19 7.62264005,18.7818138 7.62264005,18.4363538 L7.62264005,18.4363538 L7.62264005,16.5545438 L9.42453155,16.5545438 C9.74529459,16.5545438 10,16.2999981 10,16 C10,15.6909084 9.74529459,15.4363631 9.42453155,15.4363631 L9.42453155,15.4363631 L7.62264005,15.4363631 L7.62264005,13.5545419 C7.62264005,13.2091006 7.33020123,13 7.00943818,13 Z M23.1599555,10.9076719 C21.9317896,10.9076719 20.8620872,11.9688549 20.8620872,13.4037763 C20.8620872,14.8520519 21.9251903,15.9733081 23.1599555,15.9733081 C24.3881213,15.9733081 25.457913,14.8520519 25.457913,13.4171305 C25.464423,11.9955495 24.3815221,10.9076719 23.1599555,10.9076719 Z M15.5532516,10 C14.1467164,10 12.9185505,11.2213508 12.9185505,12.8698565 C12.9185505,14.538373 14.1402253,15.8197969 15.5532516,15.8197969 C16.9728907,15.8197969 18.1945357,14.538373 18.1945357,12.883197 C18.2010566,11.2480454 16.966278,10 15.5532516,10 Z" id="xabber:contact-add" fill="#000000" fill-rule="nonzero"></path>
    </g>
</svg>