<?xml version="1.0" encoding="UTF-8"?>
<svg width="32px" height="32px" viewBox="0 0 32 32" version="1.1" xmlns="http://www.w3.org/2000/svg" xmlns:xlink="http://www.w3.org/1999/xlink">
    <title>icon/iOS/32dp/phone-circle</title>
    <g id="icon/iOS/32dp/phone-circle" stroke="none" stroke-width="1" fill="none" fill-rule="evenodd">
        <rect id="ViewBox" fill-rule="nonzero" x="0" y="0" width="32" height="32"></rect>
        <path d="M15.9842538,0 C24.7371622,0 32,7.24706629 32,16.0000161 C32,24.7372629 24.7528394,32 15.9999309,32 C7.26273176,32 2.66453526e-14,24.7372629 2.66453526e-14,16.0000161 C2.66453526e-14,7.24706629 7.24702246,0 15.9842538,0 Z M11.118907,8.20709743 C10.5556887,7.39743577 10.0388939,7.34742266 9.35744852,7.992775 L9.35744852,7.992775 L8.95416488,8.38283351 L8.69258037,8.64824964 C6.48568493,11.0736104 8.05878388,15.3686419 12.2586837,19.5516361 C16.5605244,23.8361952 20.9186385,25.3859341 23.3012732,23.0032698 L23.3012732,23.0032698 L23.6968806,22.5875686 L23.9419424,22.3506274 C24.5147242,21.7607252 24.4080973,21.2610124 23.65045,20.7076758 C23.1737469,20.3752421 22.7683745,20.0922351 22.3888446,19.8264108 L22.3888446,19.8264108 L20.7018744,18.637363 C19.9816237,18.1343417 19.6346433,18.1839117 18.9802411,18.8246298 L18.9802411,18.8246298 L18.3142868,19.4594011 C17.9599177,19.8138323 17.3996966,19.8138323 16.981615,19.5748864 C16.3427908,19.221853 15.3594107,18.403861 14.3757802,17.4202258 C13.437964,16.482372 12.5790312,15.446032 12.2272752,14.8118647 C12.0046501,14.3666882 11.9757966,13.905238 12.3402988,13.5412093 L12.3402988,13.5412093 L13.0003395,12.8340196 C13.6328538,12.1611241 13.6707451,11.8547132 13.1594916,11.1110088 L13.1594916,11.1110088 Z" id="sfsymbols:phone-circle" fill="#000000" fill-rule="nonzero"></path>
    </g>
</svg>