<?xml version="1.0" encoding="UTF-8"?>
<svg width="32px" height="32px" viewBox="0 0 32 32" version="1.1" xmlns="http://www.w3.org/2000/svg" xmlns:xlink="http://www.w3.org/1999/xlink">
    <title>icon/iOS/32dp/search-circle</title>
    <g id="icon/iOS/32dp/search-circle" stroke="none" stroke-width="1" fill="none" fill-rule="evenodd">
        <rect id="ViewBox" fill-rule="nonzero" x="0" y="0" width="32" height="32"></rect>
        <path d="M15.9767457,0 C24.7461518,0 32,7.23829057 32,16.0077287 C32,24.7617221 24.7616409,32 15.9922032,32 C7.23825456,32 0,24.7617221 0,16.0077287 C0,7.23829057 7.22279711,0 15.9767457,0 Z M14,7 C10.1340068,7 7,10.1340068 7,14 C7,17.8659932 10.1340068,21 14,21 C15.391055,21 16.6873403,20.5942427 17.7769568,19.8946271 L17.7769568,19.8946271 L22.438898,24.5602181 L22.5527775,24.6632359 C23.1417379,25.1440092 24.0108146,25.1100479 24.5602181,24.561102 C25.1462486,23.9755597 25.1466443,23.0258123 24.561102,22.4397819 L24.561102,22.4397819 L19.897857,17.7719217 C20.5954914,16.6833478 21,15.3889129 21,14 C21,10.1340068 17.8659932,7 14,7 Z M14,9.25 C16.6233526,9.25 18.75,11.3766474 18.75,14 C18.75,16.6233526 16.6233526,18.75 14,18.75 C11.3766474,18.75 9.25,16.6233526 9.25,14 C9.25,11.3766474 11.3766474,9.25 14,9.25 Z" id="xabber:search" fill="#000000" fill-rule="nonzero"></path>
    </g>
</svg>