<?xml version="1.0" encoding="UTF-8"?>
<svg width="16px" height="16px" viewBox="0 0 16 16" version="1.1" xmlns="http://www.w3.org/2000/svg" xmlns:xlink="http://www.w3.org/1999/xlink">
    <title>icon/iOS/16dp/check-all</title>
    <g id="icon/iOS/16dp/check-all" stroke="none" stroke-width="1" fill="none" fill-rule="evenodd">
        <rect id="ViewBox" fill-rule="nonzero" x="0" y="0" width="16" height="16"></rect>
        <path d="M15.7885103,3.71148972 C16.0638299,3.98680934 16.0638299,4.43319066 15.7885103,4.70851028 L7.99851028,12.4985103 C7.72319066,12.7738299 7.27680934,12.7738299 7.00148972,12.4985103 L3.20148972,8.69851028 C2.92617009,8.42319066 2.92617009,7.97680934 3.20148972,7.70148972 C3.47680934,7.42617009 3.92319066,7.42617009 4.19851028,7.70148972 L7.5,11.003 L14.7914897,3.71148972 C15.0668093,3.43617009 15.5131907,3.43617009 15.7885103,3.71148972 Z M1.19851028,8.20148972 L5,12 L4.49851028,12.4985103 C4.22319066,12.7738299 3.77680934,12.7738299 3.50148972,12.4985103 L0.201489719,9.19851028 C-0.0738299064,8.92319066 -0.0738299064,8.47680934 0.201489719,8.20148972 C0.476809345,7.92617009 0.923190655,7.92617009 1.19851028,8.20148972 Z M12.7885103,3.21148972 C13.0638299,3.48680934 13.0638299,3.93319066 12.7885103,4.20851028 L7.5,9.5 L6.5,8.5 L11.7914897,3.21148972 C12.0668093,2.93617009 12.5131907,2.93617009 12.7885103,3.21148972 Z" id="xabber:check-all-16dp" fill="#000000" fill-rule="nonzero"></path>
    </g>
</svg>