<?xml version="1.0" encoding="UTF-8"?>
<svg width="16px" height="16px" viewBox="0 0 16 16" version="1.1" xmlns="http://www.w3.org/2000/svg" xmlns:xlink="http://www.w3.org/1999/xlink">
    <title>icon/iOS/16dp/clock</title>
    <g id="icon/iOS/16dp/clock" stroke="none" stroke-width="1" fill="none" fill-rule="evenodd">
        <rect id="ViewBox" fill-rule="nonzero" x="0" y="0" width="16" height="16"></rect>
        <g id="Original-vector"></g>
        <path d="M8,0 C12.418278,0 16,3.581722 16,8 C16,12.418278 12.418278,16 8,16 C3.581722,16 0,12.418278 0,8 C0,3.581722 3.581722,0 8,0 Z M8,1.25 C4.27207794,1.25 1.25,4.27207794 1.25,8 C1.25,11.7279221 4.27207794,14.75 8,14.75 C11.7279221,14.75 14.75,11.7279221 14.75,8 C14.75,4.27207794 11.7279221,1.25 8,1.25 Z M8.5,2.875 C8.84517797,2.875 9.125,3.15482203 9.125,3.5 L9.125,8.5 C9.125,8.84517797 8.84517797,9.125 8.5,9.125 L5.5,9.125 C5.15482203,9.125 4.875,8.84517797 4.875,8.5 C4.875,8.15482203 5.15482203,7.875 5.5,7.875 L7.875,7.875 L7.875,3.5 C7.875,3.18620185 8.10625788,2.92641686 8.40764208,2.8817766 L8.5,2.875 Z" id="xabber:clock-16dp" fill="#000000" fill-rule="nonzero"></path>
    </g>
</svg>