<?xml version="1.0" encoding="UTF-8"?>
<svg width="16px" height="16px" viewBox="0 0 16 16" version="1.1" xmlns="http://www.w3.org/2000/svg" xmlns:xlink="http://www.w3.org/1999/xlink">
    <title>icon/iOS/16dp/close</title>
    <g id="icon/iOS/16dp/close" stroke="none" stroke-width="1" fill="none" fill-rule="evenodd">
        <rect id="ViewBox" fill-rule="nonzero" x="0" y="0" width="16" height="16"></rect>
        <path d="M13.2485103,2.75148972 C13.5238299,3.02680934 13.5238299,3.47319066 13.2485103,3.74851028 L8.997,8 L13.2485103,12.2514897 C13.4962979,12.4992774 13.5210767,12.885625 13.3228466,13.1611247 L13.2485103,13.2485103 C12.9731907,13.5238299 12.5268093,13.5238299 12.2514897,13.2485103 L8,8.997 L3.74851028,13.2485103 C3.47319066,13.5238299 3.02680934,13.5238299 2.75148972,13.2485103 C2.47617009,12.9731907 2.47617009,12.5268093 2.75148972,12.2514897 L7.003,8 L2.75148972,3.74851028 C2.50370206,3.50072262 2.47892329,3.11437499 2.67715342,2.83887533 L2.75148972,2.75148972 C3.02680934,2.47617009 3.47319066,2.47617009 3.74851028,2.75148972 L8,7.003 L12.2514897,2.75148972 C12.5268093,2.47617009 12.9731907,2.47617009 13.2485103,2.75148972 Z" id="xabber:close-16dp" fill="#000000" fill-rule="nonzero"></path>
    </g>
</svg>