<?xml version="1.0" encoding="UTF-8"?>
<svg width="56px" height="56px" viewBox="0 0 56 56" version="1.1" xmlns="http://www.w3.org/2000/svg" xmlns:xlink="http://www.w3.org/1999/xlink">
    <title>icon/iOS/56dp/bot</title>
    <g id="icon/iOS/56dp/bot" stroke="none" stroke-width="1" fill="none" fill-rule="evenodd">
        <path d="M28,0 C43.463973,0 56,12.536027 56,28 C56,43.463973 43.463973,56 28,56 C12.536027,56 0,43.463973 0,28 C0,12.536027 12.536027,0 28,0 Z M30.25,11.5 C29.0073593,11.5 28,12.5073593 28,13.75 L28,13.75 L28.0051908,13.9040488 C28.0571178,14.6720162 28.4943901,15.3343005 29.1252279,15.6991219 L29.1252279,15.6991219 L29.125,19 L20.5,19 C18.0147186,19 16,21.0147186 16,23.5 L16,23.5 L16,25 C14.3431458,25 13,26.3431458 13,28 L13,28 L13,31 C13,32.6568542 14.3431458,34 16,34 L16,34 L16,37 C16,39.4852814 18.0147186,41.5 20.5,41.5 L20.5,41.5 L35.5,41.5 C37.9852814,41.5 40,39.4852814 40,37 L40,37 L40,34 C41.6568542,34 43,32.6568542 43,31 L43,31 L43,28 C43,26.3431458 41.6568542,25 40,25 L40,25 L40,23.5 C40,21.0147186 37.9852814,19 35.5,19 L35.5,19 L31.375,19 L31.3757597,15.6985504 C32.0478673,15.3094068 32.5,14.582504 32.5,13.75 C32.5,12.5073593 31.4926407,11.5 30.25,11.5 Z M32.5,35.5 C33.3284271,35.5 34,36.1715729 34,37 C34,37.8284271 33.3284271,38.5 32.5,38.5 L32.5,38.5 L23.5,38.5 L23.35554,38.4931334 C22.5948881,38.4204487 22,37.7796961 22,37 C22,36.1715729 22.6715729,35.5 23.5,35.5 L23.5,35.5 Z M22.75,23.5 C23.1642136,23.5 23.5,23.8357864 23.5,24.25 L23.5,24.25 L23.5,26.5 L25.75,26.5 L25.8517706,26.5068466 C26.2178461,26.556509 26.5,26.8703042 26.5,27.25 C26.5,27.6642136 26.1642136,28 25.75,28 L25.75,28 L23.5,28 L23.5,30.25 L23.4931534,30.3517706 C23.443491,30.7178461 23.1296958,31 22.75,31 C22.3357864,31 22,30.6642136 22,30.25 L22,30.25 L22,28 L19.75,28 L19.6482294,27.9931534 C19.2821539,27.943491 19,27.6296958 19,27.25 C19,26.8357864 19.3357864,26.5 19.75,26.5 L19.75,26.5 L22,26.5 L22,24.25 L22.0068466,24.1482294 C22.056509,23.7821539 22.3703042,23.5 22.75,23.5 Z M33.25,25 C34.4926407,25 35.5,26.0073593 35.5,27.25 C35.5,28.4926407 34.4926407,29.5 33.25,29.5 C32.0073593,29.5 31,28.4926407 31,27.25 C31,26.0073593 32.0073593,25 33.25,25 Z" id="xabber:bot" fill="#000000" fill-rule="nonzero"></path>
    </g>
</svg>