<?xml version="1.0" encoding="UTF-8"?>
<svg width="56px" height="56px" viewBox="0 0 56 56" version="1.1" xmlns="http://www.w3.org/2000/svg" xmlns:xlink="http://www.w3.org/1999/xlink">
    <title>icon/iOS/56dp/chat</title>
    <g id="icon/iOS/56dp/chat" stroke="none" stroke-width="1" fill="none" fill-rule="evenodd">
        <path d="M28,0 C43.463973,0 56,12.536027 56,28 C56,43.463973 43.463973,56 28,56 C12.536027,56 0,43.463973 0,28 C0,12.536027 12.536027,0 28,0 Z M28,12.8333333 C18.7903763,12.8333333 11.2777778,19.594672 11.2777778,28 L11.2868391,28.5032961 C11.4074489,31.8491904 12.7279194,34.99992 14.9987727,37.5415717 L15.1557778,37.7097778 L12.9221739,43.1036511 L12.8725275,43.247525 L12.8478066,43.3562576 C12.693601,44.2226227 13.5705338,44.9907411 14.4463209,44.6281144 L21.1627778,41.8453333 L21.6134036,42.0216801 C23.6190041,42.7736416 25.7796829,43.1666667 28,43.1666667 C37.2096237,43.1666667 44.7222222,36.405328 44.7222222,28 C44.7222222,19.594672 37.2096237,12.8333333 28,12.8333333 Z M31.5,31.5 C32.1443322,31.5 32.6666667,32.0223345 32.6666667,32.6666667 C32.6666667,33.3109989 32.1443322,33.8333333 31.5,33.8333333 L21.3888889,33.8333333 C20.7445567,33.8333333 20.2222222,33.3109989 20.2222222,32.6666667 C20.2222222,32.0223345 20.7445567,31.5 21.3888889,31.5 Z M34.6111111,26.8333333 C35.2554433,26.8333333 35.7777778,27.3556678 35.7777778,28 C35.7777778,28.6443322 35.2554433,29.1666667 34.6111111,29.1666667 L21.3888889,29.1666667 C20.7445567,29.1666667 20.2222222,28.6443322 20.2222222,28 C20.2222222,27.3556678 20.7445567,26.8333333 21.3888889,26.8333333 Z M34.6111111,22.1666667 C35.2554433,22.1666667 35.7777778,22.6890011 35.7777778,23.3333333 C35.7777778,23.9776655 35.2554433,24.5 34.6111111,24.5 L21.3888889,24.5 C20.7445567,24.5 20.2222222,23.9776655 20.2222222,23.3333333 C20.2222222,22.6890011 20.7445567,22.1666667 21.3888889,22.1666667 Z" id="xabber:message-text" fill="#000000" fill-rule="nonzero"></path>
    </g>
</svg>