<?xml version="1.0" encoding="UTF-8"?>
<svg width="56px" height="56px" viewBox="0 0 56 56" version="1.1" xmlns="http://www.w3.org/2000/svg" xmlns:xlink="http://www.w3.org/1999/xlink">
    <title>icon/iOS/56dp/chat-encrypted</title>
    <g id="icon/iOS/56dp/chat-encrypted" stroke="none" stroke-width="1" fill="none" fill-rule="evenodd">
        <path d="M28,0 C43.463973,0 56,12.536027 56,28 C56,43.463973 43.463973,56 28,56 C12.536027,56 0,43.463973 0,28 C0,12.536027 12.536027,0 28,0 Z M28.0000155,12.4444444 C24.0342661,12.4444444 20.295556,15.2015453 20.295556,20.9126939 L20.295556,20.9126939 L20.295556,24.8059623 L20.1130803,24.8382373 C18.7368651,25.1154041 17.8888889,26.0772036 17.8888889,27.7902904 L17.8888889,27.7902904 L17.8888889,38.9096252 L17.8922923,39.1249241 C17.9558404,41.0961881 18.9097922,42 20.7950799,42 L20.7950799,42 L35.2049201,42 L35.4033533,41.9965341 C37.2221692,41.9317674 38.1111111,40.9573445 38.1111111,38.9096252 L38.1111111,38.9096252 L38.1111111,27.7902904 L38.1076156,27.5741447 C38.0493354,25.8070039 37.2617451,24.8904565 35.704444,24.7302302 L35.704444,24.7302302 L35.704444,20.9126939 L35.7006199,20.5984458 C35.5658954,15.100376 31.8922947,12.4444444 28.0000155,12.4444444 Z M28,30.3333333 C29.2886644,30.3333333 30.3333333,31.3780023 30.3333333,32.6666667 C30.3333333,33.9553311 29.2886644,35 28,35 C26.7113356,35 25.6666667,33.9553311 25.6666667,32.6666667 C25.6666667,31.3780023 26.7113356,30.3333333 28,30.3333333 Z M28.0000155,14.7773712 C30.830506,14.7773712 33.2674595,16.7921673 33.2674595,20.5945633 L33.2674595,20.5945633 L33.2674595,24.7150589 L22.7325405,24.7302302 L22.7325405,20.5945633 L22.7366574,20.3260068 C22.848809,16.6973668 25.2368874,14.7773712 28.0000155,14.7773712 Z" id="xabber:lock" fill="#000000" fill-rule="nonzero"></path>
    </g>
</svg>