<?xml version="1.0" encoding="UTF-8"?>
<svg width="56px" height="56px" viewBox="0 0 56 56" version="1.1" xmlns="http://www.w3.org/2000/svg" xmlns:xlink="http://www.w3.org/1999/xlink">
    <title>icon/iOS/56dp/group-private</title>
    <g id="icon/iOS/56dp/group-private" stroke="none" stroke-width="1" fill="none" fill-rule="evenodd">
        <path d="M28,0 C43.463973,0 56,12.536027 56,28 C56,43.463973 43.463973,56 28,56 C12.536027,56 0,43.463973 0,28 C0,12.536027 12.536027,0 28,0 Z M35.8711111,29.5555556 C32.9777778,29.5555556 30.5511111,31.6244444 29.9288889,34.3777778 C28.4511111,33.74 27.0977778,33.9111111 26.0711111,34.3622222 C25.4333333,31.5933333 23.0066667,29.5555556 20.1288889,29.5555556 C16.7533333,29.5555556 14,32.34 14,35.7777778 C14,39.2155556 16.7533333,42 20.1288889,42 C23.3333333,42 25.9466667,39.48 26.1955556,36.2755556 C26.7244444,35.9022222 28.1088889,35.2022222 29.8044444,36.3066667 C30.0844444,39.4955556 32.6666667,42 35.8711111,42 C39.2466667,42 42,39.2155556 42,35.7777778 C42,32.34 39.2466667,29.5555556 35.8711111,29.5555556 Z M20.1288889,31.3288889 C22.5555556,31.3288889 24.5,33.32 24.5,35.7777778 C24.5,38.2355556 22.5555556,40.2266667 20.1288889,40.2266667 C17.7022222,40.2266667 15.7577778,38.2355556 15.7577778,35.7777778 C15.7577778,33.32 17.7177778,31.3288889 20.1288889,31.3288889 Z M35.8711111,31.3288889 C38.2977778,31.3288889 40.2577778,33.32 40.2577778,35.7777778 C40.2577778,38.2355556 38.2822222,40.2266667 35.8711111,40.2266667 C33.4444444,40.2266667 31.5,38.2355556 31.5,35.7777778 C31.5,33.32 33.4444444,31.3288889 35.8711111,31.3288889 Z M43.5555556,25.6666667 L12.4444444,25.6666667 L12.4444444,28 L43.5555556,28 L43.5555556,25.6666667 Z M31.4533333,12.5222222 L28,13.6733333 L24.5311111,12.5222222 L24.4533333,12.5066667 C23.6288889,12.2733333 22.7577778,12.7088889 22.4466667,13.5022222 L18.6666667,23.3333333 L37.3333333,23.3333333 L33.5377778,13.5022222 L33.4911111,13.4244444 C33.1488889,12.6622222 32.2777778,12.2577778 31.4533333,12.5222222 Z" id="mdi:incognito" fill="#000000" fill-rule="nonzero"></path>
    </g>
</svg>