<?xml version="1.0" encoding="UTF-8"?>
<svg width="56px" height="56px" viewBox="0 0 56 56" version="1.1" xmlns="http://www.w3.org/2000/svg" xmlns:xlink="http://www.w3.org/1999/xlink">
    <title>icon/iOS/56dp/group-public</title>
    <g id="icon/iOS/56dp/group-public" stroke="none" stroke-width="1" fill="none" fill-rule="evenodd">
        <path d="M28,0 C43.463973,0 56,12.536027 56,28 C56,43.463973 43.463973,56 28,56 C12.536027,56 0,43.463973 0,28 C0,12.536027 12.536027,0 28,0 Z M35.9090511,29.1558602 C33.5740197,29.1558602 31.7788069,29.8696038 30.3727488,30.8299352 C33.0844139,32.9841892 34.678776,36.9293031 33.3731433,38.8888889 L33.3731433,38.8888889 L42.9016243,38.8888889 C44.4959607,38.8888889 45.1111111,38.2400187 45.1111111,37.0720545 C45.1111111,33.4773115 41.5708981,29.1558602 35.9090511,29.1558602 Z M21.459521,29.1947699 C14.9439555,29.1947699 10.8888889,33.8147311 10.8888889,37.162897 C10.8888889,38.3049055 11.5920722,38.8888889 13.5756405,38.8888889 L13.5756405,38.8888889 L29.3433244,38.8888889 C31.3142945,38.8888889 32.0173236,38.3049055 32.0173236,37.162897 C32.0173236,33.8147311 27.9623855,29.1947699 21.459521,29.1947699 Z M35.9090511,17.3204731 C33.5740197,17.3204731 31.5402645,19.3838845 31.5402645,22.1740095 C31.5402645,24.990101 33.561473,27.1703213 35.9090511,27.1703213 C38.2440825,27.1703213 40.2779514,24.990101 40.2779514,22.1999759 C40.2903845,19.4357908 38.2315358,17.3204731 35.9090511,17.3204731 Z M21.4469228,15.5555556 C18.7727694,15.5555556 16.437738,17.9304043 16.437738,21.1358322 C16.437738,24.3801697 18.7604283,26.8718274 21.4469228,26.8718274 C24.1459898,26.8718274 26.4685742,24.3801697 26.4685742,21.161772 C26.4810212,17.9823105 24.1334173,15.5555556 21.4469228,15.5555556 Z" id="xabber:group-public" fill="#000000" fill-rule="nonzero"></path>
    </g>
</svg>