<?xml version="1.0" encoding="UTF-8"?>
<svg width="56px" height="56px" viewBox="0 0 56 56" version="1.1" xmlns="http://www.w3.org/2000/svg" xmlns:xlink="http://www.w3.org/1999/xlink">
    <title>icon/iOS/56dp/group-incognito</title>
    <g id="icon/iOS/56dp/group-incognito" stroke="none" stroke-width="1" fill="none" fill-rule="evenodd">
        <path d="M28,0 C43.463973,0 56,12.536027 56,28 C56,43.463973 43.463973,56 28,56 C12.536027,56 0,43.463973 0,28 C0,12.536027 12.536027,0 28,0 Z M21.6286633,28.872821 C14.9564438,28.872821 10.8888889,33.6120102 10.8888889,36.8881799 C10.8888889,38.2636699 11.859787,38.8888889 13.9118097,38.8888889 L13.9118097,38.8888889 L29.3455924,38.8888889 C31.3854096,38.8888889 32.3561568,38.2636699 32.3561568,36.8881799 C32.3561568,33.6120102 28.2888284,28.872821 21.6286633,28.872821 Z M35.9090511,29.1558602 C33.5740197,29.1558602 31.7788069,29.8696038 30.3727488,30.8299352 C33.0844139,32.9841892 34.678776,36.9293031 33.3731433,38.8888889 L33.3731433,38.8888889 L42.9016243,38.8888889 C44.4959607,38.8888889 45.1111111,38.2400187 45.1111111,37.0720545 C45.1111111,33.4773115 41.5708981,29.1558602 35.9090511,29.1558602 Z M21.6286633,30.7609829 C27.2566514,30.7609829 30.3777945,34.5998623 30.3777945,36.6505936 C30.3777945,36.9131872 30.2549097,37.0007193 29.9354294,37.0007193 L29.9354294,37.0007193 L13.3219224,37.0007193 C13.0025679,37.0007193 12.8674273,36.9131872 12.8674273,36.6505936 C12.8674273,34.5998623 15.988495,30.7609829 21.6286633,30.7609829 Z M35.9090511,17.3204731 C33.5740197,17.3204731 31.5402645,19.3838845 31.5402645,22.1740095 C31.5402645,24.990101 33.561473,27.1703213 35.9090511,27.1703213 C38.2440825,27.1703213 40.2779514,24.990101 40.2779514,22.1999759 C40.2903845,19.4357908 38.2315358,17.3204731 35.9090511,17.3204731 Z M21.616332,15.5555556 C18.67973,15.5555556 16.3081011,18.0814619 16.3081011,21.2701073 C16.3081011,24.4962444 18.6918096,27.1472002 21.616332,27.1472002 C24.5409803,27.1472002 26.912584,24.5087673 26.9249586,21.2951018 C26.9371459,18.1189793 24.5409803,15.5555556 21.616332,15.5555556 Z M21.616332,17.4437431 C23.4473483,17.4437431 24.9587836,19.1193492 24.9465027,21.2951018 C24.9465027,23.5083974 23.4105055,25.2590383 21.616332,25.2590383 C19.8101796,25.2590383 18.2863879,23.4834029 18.2863879,21.2701073 C18.2863879,19.0943291 19.7855171,17.4437431 21.616332,17.4437431 Z" id="xabber:group-incognito" fill="#000000" fill-rule="nonzero"></path>
    </g>
</svg>