<?xml version="1.0" encoding="UTF-8"?>
<svg width="56px" height="56px" viewBox="0 0 56 56" version="1.1" xmlns="http://www.w3.org/2000/svg" xmlns:xlink="http://www.w3.org/1999/xlink">
    <title>icon/iOS/56dp/server</title>
    <g id="icon/iOS/56dp/server" stroke="none" stroke-width="1" fill="none" fill-rule="evenodd">
        <path d="M28,0 C43.463973,0 56,12.536027 56,28 C56,43.463973 43.463973,56 28,56 C12.536027,56 0,43.463973 0,28 C0,12.536027 12.536027,0 28,0 Z M40,26.5 L16,26.5 C15.1715729,26.5 14.5,27.1715729 14.5,28 L14.5,28 L14.5,34 C14.5,34.8284271 15.1715729,35.5 16,35.5 L16,35.5 L26.5,35.5 L26.5,38.5 L25,38.5 C24.1715729,38.5 23.5,39.1715729 23.5,40 L23.5,40 L13,40 L13,43 L23.5,43 C23.5,43.8284271 24.1715729,44.5 25,44.5 L25,44.5 L31,44.5 C31.8284271,44.5 32.5,43.8284271 32.5,43 L32.5,43 L43,43 L43,40 L32.5,40 C32.5,39.1715729 31.8284271,38.5 31,38.5 L31,38.5 L29.5,38.5 L29.5,35.5 L40,35.5 C40.8284271,35.5 41.5,34.8284271 41.5,34 L41.5,34 L41.5,28 C41.5,27.1715729 40.8284271,26.5 40,26.5 L40,26.5 Z M25,29.5 L25,32.5 L23.5,32.5 L23.5,29.5 L25,29.5 Z M20.5,29.5 L20.5,32.5 L17.5,32.5 L17.5,29.5 L20.5,29.5 Z M40,14.5 L16,14.5 C15.1715729,14.5 14.5,15.1715729 14.5,16 L14.5,16 L14.5,22 C14.5,22.8284271 15.1715729,23.5 16,23.5 L16,23.5 L40,23.5 C40.8284271,23.5 41.5,22.8284271 41.5,22 L41.5,22 L41.5,16 C41.5,15.1715729 40.8284271,14.5 40,14.5 L40,14.5 Z M25,17.5 L25,20.5 L23.5,20.5 L23.5,17.5 L25,17.5 Z M20.5,17.5 L20.5,20.5 L17.5,20.5 L17.5,17.5 L20.5,17.5 Z" id="mdi:server-network" fill="#000000" fill-rule="nonzero"></path>
    </g>
</svg>